mtllib surface_texture.mtl
o surface_texture
v 72.0 8.817456953860942e-15 97.0
v 71.75408349648023 5.945712874007936 97.0
v -72.0 0.0 97.0
v -71.75408349648023 5.94571287400789 97.0
v 71.018013844996 11.85081050021286 97.0
v 69.7968191476318 17.67495507413756 97.0
v 68.09884140244569 23.37836178273724 97.0
v 65.93567951916413 28.92207057501383 97.0
v 63.3221100868672 34.26821229866933 97.0
v 60.27598643490203 39.38026738481477 97.0
v 56.81811667654031 44.22331531365612 97.0
v 52.97212156846544 48.76427315705339 97.0
v 48.76427315705332 52.9721215684655 97.0
v 44.22331531365604 56.81811667654037 97.0
v 39.38026738481469 60.27598643490209 97.0
v 34.26821229866923 63.32211008686725 97.0
v 28.92207057501373 65.93567951916417 97.0
v 23.37836178273714 68.09884140244571 97.0
v 17.67495507413747 69.79681914763181 97.0
v 11.85081050021277 71.01801384499602 97.0
v 5.945712874007852 71.75408349648023 97.0
v -7.552747489925071e-14 72.0 97.0
v -5.945712874008003 71.75408349648022 97.0
v -11.85081050021293 71.018013844996 97.0
v -17.67495507413761 69.79681914763177 97.0
v -23.3783617827373 68.09884140244567 97.0
v -28.92207057501388 65.9356795191641 97.0
v -34.26821229866938 63.32211008686716 97.0
v -39.3802673848148 60.27598643490202 97.0
v -44.22331531365619 56.81811667654026 97.0
v -48.76427315705344 52.9721215684654 97.0
v -52.97212156846556 48.76427315705326 97.0
v -56.81811667654043 44.22331531365597 97.0
v -60.27598643490214 39.3802673848146 97.0
v -63.3221100868673 34.26821229866913 97.0
v -65.93567951916421 28.92207057501365 97.0
v -68.09884140244576 23.37836178273704 97.0
v -69.79681914763182 17.67495507413741 97.0
v -71.01801384499602 11.85081050021282 97.0
v 71.75408349648023 -5.945712874007897 97.0
v -71.75408349648023 -5.945712874007936 97.0
v -71.01801384499602 -11.85081050021283 97.0
v -69.7968191476318 -17.67495507413755 97.0
v -68.09884140244569 -23.37836178273724 97.0
v -65.93567951916411 -28.92207057501384 97.0
v -63.3221100868672 -34.26821229866932 97.0
v -60.27598643490203 -39.38026738481477 97.0
v -56.81811667654031 -44.22331531365613 97.0
v -52.97212156846545 -48.76427315705339 97.0
v -48.76427315705331 -52.97212156846552 97.0
v -44.22331531365604 -56.81811667654037 97.0
v -39.38026738481468 -60.27598643490209 97.0
v -34.26821229866923 -63.32211008686726 97.0
v -28.92207057501371 -65.93567951916417 97.0
v -23.37836178273711 -68.09884140244573 97.0
v -17.67495507413741 -69.79681914763182 97.0
v -11.8508105002127 -71.01801384499603 97.0
v -5.945712874007829 -71.75408349648023 97.0
v 1.146719438155364e-13 -72.0 97.0
v 5.945712874008058 -71.75408349648022 97.0
v 11.85081050021299 -71.01801384499598 97.0
v 17.6749550741377 -69.79681914763175 97.0
v 23.37836178273738 -68.09884140244564 97.0
v 28.92207057501398 -65.93567951916405 97.0
v 34.26821229866948 -63.32211008686711 97.0
v 39.38026738481487 -60.27598643490197 97.0
v 44.22331531365623 -56.81811667654023 97.0
v 48.7642731570535 -52.97212156846534 97.0
v 52.97212156846562 -48.7642731570532 97.0
v 56.81811667654048 -44.2233153136559 97.0
v 60.27598643490219 -39.38026738481452 97.0
v 63.32211008686734 -34.26821229866906 97.0
v 65.93567951916422 -28.9220705750136 97.0
v 68.09884140244574 -23.37836178273705 97.0
v 69.79681914763182 -17.67495507413742 97.0
v 71.01801384499602 -11.85081050021276 97.0
v -31.91012728860465 51.80750460239238 97.0
v -38.14062654204596 54.248934046188 97.0
v -36.71491598364364 48.30502261068588 97.0
v 25.05018035749711 55.16705431621978 97.0
v 24.19892176763323 61.71023351795294 97.0
v 19.65149079473506 57.40756492440656 97.0
v -64.552435188326 14.03733587788048 97.0
v -58.53875944703656 12.87855228120863 97.0
v -59.44188187921154 19.20895517682573 97.0
v 19.05616656604575 -64.00853517727678 97.0
v 24.72581269563619 -62.14076797142869 97.0
v 21.23447371691504 -56.98771024651058 97.0
v 29.40821662390919 59.85344584191615 97.0
v -33.78756663610367 57.50698452242554 97.0
v 30.79481479251279 52.80340440474863 97.0
v -64.92148436674547 19.69790991957151 97.0
v -43.23572296475232 -50.77038451010607 97.0
v -39.65562603833863 -54.58304397657792 97.0
v -37.35489453621951 -48.54379716887253 97.0
v 34.53093178481068 57.43709162190068 97.0
v -10.16267279957197 -60.41515298867604 97.0
v -13.79956215840471 -65.8131297498087 97.0
v -8.12688594247294 -66.2369783943529 97.0
v 15.74667071085449 -59.69879765650889 97.0
v -26.88636913381576 55.91741056736946 97.0
v -34.96833541783854 -53.3235394143057 97.0
v -42.82756664545287 50.779989430182 97.0
v -29.68811510307081 60.95707481014642 97.0
v 59.84075398933172 28.79746671667252 97.0
v 53.61426500774358 30.84444326371012 97.0
v 54.39301507207942 25.09763973969539 97.0
v 18.78321047190713 63.79881510356522 97.0
v -61.16400779747795 -8.855800610196189 97.0
v -65.52899689148896 -13.33298592041091 97.0
v -60.31679987988538 -14.79932172312226 97.0
v -47.04429818909561 46.9405636864542 97.0
v -66.46519488299829 -7.743625564006397 97.0
v -48.34862260290785 -37.54538399066697 97.0
v -54.60770633000904 -38.97837808823873 97.0
v -51.04361919201597 -43.18894756442218 97.0
v -41.97823460055444 -45.16746864900883 97.0
v -24.57635687175135 62.10318935490583 97.0
v -15.59218096114558 -61.44678927165536 97.0
v 2.434945497759524 66.94390881155974 97.0
v -3.328654135631965 67.1851459143744 97.0
v -0.8282219900913513 61.54646759527888 97.0
v 59.5029000052515 22.40425382104165 97.0
v -20.95524028077674 58.40235814719802 97.0
v 39.02406347307382 54.02182993037135 97.0
v 35.62448631826566 49.64595805486628 97.0
v 41.58730306986158 47.30375467601139 97.0
v 59.96528057088091 -29.03123640463253 97.0
v 59.11925475308725 -22.53182794438928 97.0
v 54.39939188823335 -26.08505514653953 97.0
v -4.170082436385242 -61.76556637324829 97.0
v -13.13542371734796 65.26927711873198 97.0
v -11.69858263804567 59.75160342311212 97.0
v -7.190466092799473 63.13694780098605 97.0
v 54.78149313192513 19.13455719251441 97.0
v 60.01677542447306 16.54915972430586 97.0
v 44.21635162883124 51.7831379581839 97.0
v 61.52637606330569 4.710100925511071 97.0
v 61.93327528516785 -1.104631306152898 97.0
v 66.70086235512031 2.383303351825426 97.0
v 13.30764877128288 65.36819625460257 97.0
v 5.638364752276984 -61.3632250817631 97.0
v 2.94674428222747 -66.93556841363215 97.0
v 8.471606305148882 -66.4160706815996 97.0
v -62.422489115747 -2.398662847741562 97.0
v 0.462311736123859 -63.03287911133148 97.0
v 65.32768405473227 14.13376752502887 97.0
v 60.69053186071854 10.62027491286326 97.0
v -41.2967894554916 44.64503967667606 97.0
v 4.52412252857502 62.74839912173156 97.0
v -67.90578892266429 -2.760373577744666 97.0
v -45.85351272714343 41.12088321415307 97.0
v 54.47633342493786 -38.4765791217016 97.0
v 54.6502671348962 -32.04721776292689 97.0
v 49.83458156414639 -35.10781252050472 97.0
v -8.44246935465241 67.72946778194161 97.0
v -61.98000250379921 4.031409686882739 97.0
v -66.88717711809588 2.286133397032554 97.0
v 64.52358724685902 19.94899041915303 97.0
v 51.40683437006807 42.73911606335665 97.0
v 47.30337572127256 38.78655343094182 97.0
v 52.38096182765995 36.63621418979751 97.0
v -54.3374963887774 -28.9001026506285 97.0
v -60.41167324297838 -29.53346744309632 97.0
v -57.54056667690288 -34.19000948600808 97.0
v -54.646011007798 29.05532741488486 97.0
v -57.78995226018841 34.25355627427682 97.0
v -60.19137898708906 29.28471961508187 97.0
v -53.31772003967169 34.33699720256537 97.0
v 67.1263905227222 -3.337647145756684 97.0
v -46.13204876866836 -42.64875146946192 97.0
v -25.72084238587108 -52.11242264853102 97.0
v -30.29097409845754 -55.29214123119486 97.0
v -25.27965116261878 -57.41044138880202 97.0
v -62.03010071258899 9.514987937648355 97.0
v -66.32391489591365 7.866755870849374 97.0
v -52.48130203780801 -34.25666299660589 97.0
v 10.81750208552149 -62.14578387610666 97.0
v 14.00035378490216 -65.47674032020484 97.0
v -40.58188851106485 38.74631399520271 97.0
v -45.29654085623577 35.23550672051488 97.0
v -16.31359772937275 60.70201444108244 97.0
v -19.39577954083539 64.01137111169113 97.0
v 45.94214785737633 -44.68591307322587 97.0
v 40.40286376749853 -47.08174595191345 97.0
v 43.4315355347336 -51.07780762096449 97.0
v 36.51053914588836 -51.80149306360907 97.0
v 34.97805547550492 -58.28829253987782 97.0
v 39.69128181216352 -55.71224091672238 97.0
v 63.45766051478018 -24.76125596983636 97.0
v -58.04963905482498 25.11708718554586 97.0
v -62.71744421611223 24.18994168627691 97.0
v 58.56447199241594 -34.80925175908385 97.0
v 30.70681629554517 -55.01738205494128 97.0
v 34.99357409216574 53.47707100297173 97.0
v -34.80661387263481 -58.2634040009598 97.0
v 26.54565947533214 -57.44339000068325 97.0
v 64.29391066486966 -18.86231027553741 97.0
v 63.11479940253987 -12.62790918439024 97.0
v 58.64008609258697 -16.53574774506852 97.0
v 48.52631676659138 -48.52631676659108 97.0
v -29.69270334442995 -60.49450103457809 97.0
v 55.27445624735194 13.05311447523393 97.0
v 49.98134399317215 15.4827539358395 97.0
v 50.64499102307508 9.532220993471459 97.0
v 57.55944259285676 34.97575954184488 97.0
v 56.05806259792246 7.119413691608322 97.0
v 56.6089158404354 1.191187812330575 97.0
v 51.91098017918587 -2.302343402970111 97.0
v 57.22303447328233 -4.735519232366705 97.0
v 51.25730927021647 3.613418505551253 97.0
v 49.39321553470058 21.3672650085273 97.0
v 44.57596478496772 17.86891236385136 97.0
v 39.77286090545933 14.35960477497891 97.0
v 34.33390959718237 16.77322159281573 97.0
v 34.96330973881359 10.85580820463982 97.0
v 39.14395062594739 20.27704825152912 97.0
v 43.95384579375603 23.7808705451195 97.0
v 40.40197366179677 8.442176226410613 97.0
v 45.21057185677085 11.94593166711385 97.0
v 45.83696625235264 6.028326309876064 97.0
v 47.10011397341411 -5.806245907893055 97.0
v 52.54042078457165 -8.219774310702544 97.0
v 46.46671760945694 0.1109055382219897 97.0
v 42.29084040602865 -9.310031010167526 97.0
v 47.73051271190432 -11.7236008304659 97.0
v 41.66089295098939 -3.392651053505086 97.0
v 41.03226769925768 2.524814330386073 97.0
v 24.08476358087469 15.68299784054766 97.0
v 24.71420945116585 9.76558502723266 97.0
v 29.52408512723639 13.26940576119881 97.0
v 28.89467044513015 19.18682038188323 97.0
v 33.70458074050736 22.69064218266454 97.0
v 30.15353416321598 7.35199309088549 97.0
v 35.59277365530374 4.938396054852209 97.0
v 31.41244478461538 -4.482831391769284 97.0
v 32.04187423704651 -10.40024528772885 97.0
v 36.85166456365639 -6.896430179632995 97.0
v 37.48125273854491 -12.81383391442103 97.0
v 36.22233735278114 -0.9790096735857833 97.0
v 30.78298065005657 1.434580321686943 97.0
v 19.2748566554876 12.17917528297815 97.0
v 19.90430246044371 6.261762467289076 97.0
v 21.79263971456435 -11.49047598819081 97.0
v 16.35328720123758 -9.076885716147556 97.0
v 16.98273345276525 -14.99429850500774 97.0
v 27.23199260319666 -13.90406623796677 97.0
v 22.42208604393633 -17.40788877247552 97.0
v 27.86143899698819 -19.82147901857575 97.0
v 25.34365535958193 3.848172218059056 97.0
v 21.16319310600993 -5.573063220799957 97.0
v 15.72384148214349 -3.159472895731444 97.0
v 20.53374773349677 0.3443496201563312 97.0
v 33.3007917689663 -22.2350692753941 97.0
v 32.67134149607988 -16.3176567428538 97.0
v 25.97309668873076 -2.069240864304908 97.0
v 18.64541076889479 18.09658809322355 97.0
v 13.83550389158194 14.5927655400442 97.0
v 8.396151131973989 17.00635579755328 97.0
v 13.20605799681926 20.51017835003458 97.0
v 3.5862442712633 13.50253324531953 97.0
v 4.215690173552872 7.585120435732696 97.0
v 9.025597030904223 11.08894298776584 97.0
v 14.46494976541175 8.675352728709802 97.0
v 9.65504292795056 5.171530177867054 97.0
v 15.09439557635643 2.757939913672163 97.0
v -39.92857790530294 32.81125529980354 97.0
v -44.73848476806471 29.30743274744665 97.0
v -35.74811695185412 42.23249066132763 97.0
v -35.1186710425411 36.31507785216042 97.0
v 44.17949731307372 -27.06224978901923 97.0
v 39.35056221592554 -30.5381588693995 97.0
v 44.72755037294227 -32.85912494154769 97.0
v 39.96625980275221 -36.43654197532231 97.0
v 49.53160704767711 -29.43394632336791 97.0
v -39.29913199598971 26.89384249063634 97.0
v 34.55968358754738 -34.06989489373337 97.0
v 35.16511652380296 -39.9474861051111 97.0
v 10.91393468883215 -6.663295443907376 97.0
v -44.10903885875149 23.39001993827942 97.0
v -48.9189457215132 19.88619738592249 97.0
v -49.54839163082632 25.80361019508963 97.0
v 26.37498221815799 42.86964020219816 97.0
v 31.80838698004644 40.4258304496001 97.0
v 31.18679362923944 46.36029417779717 97.0
v 24.3104239527109 -35.1601271892799 97.0
v 29.74833501707399 -37.56997613597331 97.0
v 29.12033081547259 -31.656304636923 97.0
v 21.566979903716 39.35264907308325 97.0
v 27.00633267579072 36.93905881627288 97.0
v -43.4795929494384 17.47260712911224 97.0
v -38.04024017736363 15.05901687230196 97.0
v -38.66968608667665 20.97642968146916 97.0
v 36.58093559859789 43.83122983005044 97.0
v -33.23033331460188 18.56283942465887 97.0
v -32.60088740528884 12.64542661549169 97.0
v -42.85014704012535 11.55519431994505 97.0
v -42.22070113081224 5.637781510777865 97.0
v -37.41079426805054 9.141604063134782 97.0
v 22.19642581302899 33.43523626391596 97.0
v 16.75707304095424 35.84882652072626 97.0
v 20.93506759213317 45.28487436740247 97.0
v 48.98803303040232 -23.55857308456793 97.0
v 11.3177202688795 38.26241677753656 97.0
v 10.68819343372881 44.17964720936027 97.0
v 5.878367496804754 40.67600703434688 97.0
v 5.248833739382382 46.59322186589316 97.0
v 53.79108416546217 -20.05547977100569 97.0
v 48.35995826705741 -17.64101442822887 97.0
v 25.56931577133697 -46.99495280761434 97.0
v 24.93990939020849 -41.07442923673624 97.0
v 20.12996299926223 -44.58136255080399 97.0
v 30.37945980320594 -43.47246568499213 97.0
v -26.34037772823813 -46.4688343239262 97.0
v -31.28384137422577 -50.00921713527887 97.0
v -37.14568975763883 -41.69018413339293 97.0
v -32.36865297710122 -38.19580893867487 97.0
v -37.81457976562082 -35.78410815339234 97.0
v -33.00357723345164 -32.27997068911416 97.0
v 16.12762713164121 41.76623932989348 97.0
v 15.49746379610204 47.68203532182309 97.0
v 19.50051708994919 -38.6639497416368 97.0
v -41.59125522149917 -0.2796312983893059 97.0
v -40.96180931218611 -6.197044107556477 97.0
v -36.15190244942443 -2.693221555199573 97.0
v -36.78134835873747 3.224191253967605 97.0
v -0.9980021797236918 -40.84441433272999 97.0
v -0.368556270410654 -46.76182714189719 97.0
v 4.441350592351032 -43.25800458954028 97.0
v 33.07513135717849 28.60805575029534 97.0
v 38.51448412925325 26.19446549348505 97.0
v -35.52245654011135 -8.610634364366742 97.0
v -21.72218186113934 7.818246101871125 97.0
v -22.35162777045238 13.73565891103834 97.0
v -27.16153463321408 10.23183635868141 97.0
v -31.7381113983807 -44.11290683592075 97.0
v 25.73601356724648 48.85289589515555 97.0
v -47.66005390288701 8.051371767588128 97.0
v -19.08742778182596 -64.16043090653771 97.0
v 15.3200561365005 -48.08518510316089 97.0
v 15.91556836095432 -53.99143805041376 97.0
v 20.75940890857525 -50.49877535997121 97.0
v 10.28448886199606 -0.7458826298233975 97.0
v 20.30733893593537 51.18578638226135 97.0
v -2.693982681735521 -66.85502311499957 97.0
v -24.86941140770458 37.40531014770703 97.0
v -24.23996549839153 31.48789733853985 97.0
v -19.43005863562984 34.99171989089675 97.0
v -4.370892138031708 39.58577473880026 97.0
v 1.068457787113448 37.17217806604855 97.0
v 0.438997643153182 43.08955879550865 97.0
v -5.807909042485361 -44.34823688508691 97.0
v -6.437354951798435 -38.43082407591969 97.0
v -11.2472618145601 -41.9346466282766 97.0
v 43.55005140376787 -21.14483697985121 97.0
v -47.03060799357393 2.133958958420961 97.0
v -54.86662454949261 38.95937442150745 97.0
v -5.000338047344764 45.50318754796746 97.0
v -29.67931827046627 33.90148759535012 97.0
v -23.38485917733581 -25.27264049632169 97.0
v -24.01430508664912 -19.35522768715451 97.0
v -28.82421194941049 -22.8590502395114 97.0
v -57.80796223519759 6.971920393507621 97.0
v -57.07634731838295 1.065375486564699 97.0
v -52.46996076564868 4.547549215231227 97.0
v -53.09940667496177 10.46496202439838 97.0
v -27.56532013078434 -34.69387585784575 97.0
v -62.70568897018715 -24.46185217816475 97.0
v -18.1711668170051 23.1568942725623 97.0
v -18.8006127263172 29.07430708172954 97.0
v -23.61051958907848 25.57048452937266 97.0
v -22.75538283276138 -31.19004455793549 97.0
v -28.19458342852951 -28.77641056335836 97.0
v 13.43171840856138 -30.3329466756593 97.0
v 7.992365636486628 -27.91935641884901 97.0
v 8.62181154579969 -33.83676922801619 97.0
v 28.26522450131683 25.10423319679044 97.0
v -10.61781590524703 -47.8520594374438 97.0
v -16.05716867732178 -45.43846918063351 97.0
v 53.16986518848703 -14.13719174395032 97.0
v -10.43969081941952 47.91677780477774 97.0
v -9.810244910106473 41.99936499561054 97.0
v 18.87107118063614 -32.7465369324696 97.0
v -16.91227499837984 11.32206865422791 97.0
v 5.070796501664058 -49.17541739870744 97.0
v 5.6816473187012 -55.0673036121024 97.0
v 10.51014927373878 -51.58900765551775 97.0
v -48.28949981220013 13.9687845767553 97.0
v -34.89301063079829 -14.52804717353392 97.0
v -29.45365785872355 -16.94163743034421 97.0
v -30.08310376803666 -11.02422462117703 97.0
v -26.93587422147128 -40.61128866701293 97.0
v 23.45531763165506 21.60041064558155 97.0
v -53.72885258427488 16.38237483356554 97.0
v 35.67426039872133 -45.68445549559597 97.0
v 30.01548281406627 -60.46648837810085 97.0
v 22.82587172234203 27.51782345474875 97.0
v -6.259229865970896 57.33801316630183 97.0
v -13.36125995424283 26.66071682491925 97.0
v 4.619475678178633 52.5108326526813 97.0
v -0.1904458259346166 49.00697710405422 97.0
v 3.182458773724937 -31.42317897120591 97.0
v -43.25393253769558 -33.37051789658204 97.0
v -42.40462815488405 -39.25778459665726 97.0
v -39.70291749355997 -18.03186972589081 97.0
v -34.26356472148522 -20.4454599827011 97.0
v 43.32439099201495 29.69828804584196 97.0
v 42.66761237490682 35.554102778928 97.0
v 37.8850382199402 32.11187830265224 97.0
v -51.8405148563356 -1.369863593935943 97.0
v -10.84347631701637 2.991065588248985 97.0
v -15.65338317975155 -0.5127569641063238 97.0
v -10.21403040769907 -2.926347220917947 97.0
v -40.33236340287304 -12.11445691672364 97.0
v -12.73181404493386 20.74330401575182 97.0
v -7.921907182171009 24.24712656810879 97.0
v 14.69061022718749 -42.16777229399369 97.0
v -33.63411881217218 -26.36287279186828 97.0
v -49.53653128274235 31.81204525006435 97.0
v 66.27208411461748 8.260806669970291 97.0
v -5.404123544915121 0.5774753314402782 97.0
v -15.02393727044142 -6.430169773273693 97.0
v -20.46329004251393 -4.016579516463272 97.0
v -14.39449136113024 -12.34758258244099 97.0
v -19.20439822388845 -15.85140513479768 97.0
v -13.76504545181401 -18.26499539160798 97.0
v -18.57495231457439 -21.76881794396481 97.0
v -31.34199558666275 0.8106009971573296 97.0
v 14.06116431787444 -36.2503594848265 97.0
v 9.880703364425768 -45.67159484635056 97.0
v -34.48922513322796 30.39766504299323 97.0
v -30.30876417977933 39.8189004045173 97.0
v -38.44402567493387 -29.86669534422516 97.0
v -24.64375099596199 -13.43781487798731 97.0
v 6.104027908435071 -10.16711799135575 97.0
v 5.474581998547355 -4.249705182221312 97.0
v -25.27319690527524 -7.520402068820145 97.0
v -19.83384413320146 -9.933992325630488 97.0
v -27.79098054252713 16.14924916784858 97.0
v -28.42042645184017 22.06666197701576 97.0
v -29.04987236115322 27.98407478618294 97.0
v -15.42772276800871 -51.35588198980069 97.0
v -51.21106894702253 -7.287276403103101 97.0
v -55.87837017506082 -10.77223880107083 97.0
v -50.58162303770946 -13.20468921227029 97.0
v 11.54338068063337 -12.58070824816481 97.0
v 10.05830136159747 50.09605453014541 97.0
v -31.97144149597578 6.728013806324508 97.0
v -7.292461272868309 18.32971375894099 97.0
v -33.85977922391491 24.48025223382605 97.0
v 27.63577858510374 31.02164600710565 97.0
v 37.25559231062715 38.02929111181943 97.0
v 32.44568544786546 34.52546855946255 97.0
v -45.77171617494779 -9.700866659913375 97.0
v 42.92060549766277 -15.22742417508709 97.0
v 38.11069863173675 -18.73124672303627 97.0
v -0.8198770938961364 54.92442290949157 97.0
v 26.04571185449802 -52.60460135243483 97.0
v 31.01009155805513 -49.29655564283261 97.0
v -53.99205126456296 22.37504103390884 97.0
v 14.8649578443143 53.59255191052773 97.0
v 9.426220009004776 56.00752801068456 97.0
v 40.45583590077303 -42.15906050617182 97.0
v 45.17973587033806 -38.49112650063584 97.0
v -9.584584498389713 -8.843760030085354 97.0
v -3.515785816976972 -17.17476309606133 97.0
v -4.145231726316617 -11.25735028689573 97.0
v -8.955138589055803 -14.76117283925129 97.0
v -25.90264281458814 -1.60298925965296 97.0
v -26.53208872390106 4.314423549514222 97.0
v 2.553012864411873 -25.50576616203873 97.0
v -2.256893998349848 -29.00958871439563 97.0
v 23.68097804339782 -29.24271438011269 97.0
v 23.05153213410039 -23.32530157096136 97.0
v 18.24162527132307 -26.82912412330241 97.0
v 17.61217936200315 -20.91171131415066 97.0
v 12.80227249924832 -24.41553386649213 97.0
v -1.853108500814356 15.91612350212945 97.0
v -2.482554410100713 21.83353631129823 97.0
v 7.137259315430518 28.84118141601245 97.0
v 12.57661208750545 26.42759115920217 97.0
v 11.94716617819248 32.34500396836935 97.0
v 33.93023767823427 -28.15248208456608 97.0
v 28.49088490615952 -25.73889182775579 97.0
v -16.68661458663484 -39.52105637146633 97.0
v -46.40116208426086 -3.783453850746207 97.0
v -21.49652144939653 -43.02487892382322 97.0
v -20.86707554008347 -48.94229173299041 97.0
v -20.05950454494289 40.90913270006394 97.0
v -56.54819254694905 -4.862811844246274 97.0
v -16.28282908907025 5.404655845060518 97.0
v 0.6646751361790033 -7.753527734554983 97.0
v -13.13559954249975 -24.18240820077509 97.0
v -8.32569267973874 -20.67858564841823 97.0
v -7.066800861111544 -32.51341126675253 97.0
v -7.696246770424807 -26.59599845758536 97.0
v -12.50615363318635 -30.09982100994225 97.0
v -11.87670772387319 -36.01723381910942 97.0
v -2.886339907662971 -23.09217590522845 97.0
v -12.10236813562654 14.82589120658431 97.0
v -11.47292222634048 8.908478397415507 97.0
v -6.663015363590617 12.41230094977169 97.0
v 17.38651895026728 29.93141371155905 97.0
v 38.74014454100347 -24.64865953220839 97.0
v -15.27553224411522 -56.8747652679581 97.0
v -9.988369995933963 -53.76947224661097 97.0
v 4.845136085799235 1.667707626740766 97.0
v -6.033569454364944 6.494888140599294 97.0
v -17.94550640526113 -27.68623075313198 97.0
v -1.627448089036751 -34.92700152356281 97.0
v -22.98107367976609 19.65307172020545 97.0
v -45.14227026563471 -15.61827946908054 97.0
v 1.69790654335587 31.25477167282277 97.0
v -3.741446228719179 33.66836192963304 97.0
v -22.12596735870959 -37.10746611465604 97.0
v -55.25150029716847 -16.67147095261812 97.0
v -14.62015177286815 38.49554244325365 97.0
v -15.2495976821812 44.41295525242084 97.0
v -15.87904359149427 50.33036806158802 97.0
v -20.68895045425596 46.82654550923111 97.0
v -43.8833784470086 -27.45310508741487 97.0
v -48.50513735226613 -30.93691400103875 97.0
v 48.76374524616102 27.28469700710578 97.0
v 1.294121045713593 -13.67094054370931 97.0
v -21.09273595182643 1.900833292703942 97.0
v -0.5942166829740333 4.081297883748175 97.0
v 0.03522922635810945 -1.836114925417862 97.0
v -4.774677635735642 -5.339937477734879 97.0
v -8.5513530914813 30.16453937727614 97.0
v 2.327352452667447 25.33735886365549 97.0
v 7.766705224743497 22.92376860684533 97.0
v -39.07347158424692 -23.94928253505798 97.0
v 18.01596485958032 24.01400090239186 97.0
v -21.20689180551508 52.59088933987593 97.0
v -26.1283032263307 49.24013576604138 97.0
v -16.382962469858 56.07546240467897 97.0
v -20.31358824414263 -54.50871897923246 97.0
v -11.06913672873259 53.83419061394492 97.0
v 3.99002976886555 58.42824546184849 97.0
v -30.71254967734973 -5.106811812009848 97.0
v 3.811904683037997 -37.34059178037309 97.0
v -1.223662591626049 9.998710692954822 97.0
v 2.956798361978822 19.41994605448824 97.0
v -49.95217712839637 -19.12210202143746 97.0
v -25.49885731701763 43.3227229568742 97.0
v -5.629783956657826 51.42060035713465 97.0
v 10.88466677812598 -57.18949928201364 97.0
v -17.54172090769327 17.23948146339506 97.0
v 12.17282658993411 -18.49812105732751 97.0
v 6.73347381786217 -16.08453080051626 97.0
v 1.923566955098902 -19.58835335287183 97.0
v 9.25125745511274 -39.75418203718338 97.0
v 6.507813406117771 34.75859422517966 97.0
v 48.1108700312482 33.14931213556845 97.0
v -4.613851111585707 -56.09406114651595 97.0
v -5.178463133172305 -50.26564969425409 97.0
v 8.972727477948183 61.52672670867973 97.0
v -3.112000319407584 27.75094912046578 97.0
v -54.3330334414964 -22.52106727003165 97.0
v -17.31606049594792 -33.60364356229915 97.0
v -9.180799000793652 36.08195218644335 97.0
v -13.99070586355543 32.57812963408645 97.0
v 57.97722926045232 -10.63909950855512 97.0
v 7.362919727173665 -22.00194360968257 97.0
v 41.93788713626223 41.16401012654286 97.0
v -30.99443560950514 45.76216640371634 97.0
v -44.51282435632164 -21.53569227824771 97.0
v 0.2469848089020069 -52.6601519589514 97.0
v -49.21986480122233 -25.01870300685531 97.0
v 0.5905147642356049 -58.24501257301427 97.0
v 26.60254487238713 -7.986653536380112 97.0
v 14.22031421208877 59.47571459127322 97.0
v 62.41407245614122 -6.839213548461072 97.0
v 55.86158543933486 39.84022461285929 97.0
v -47.40992649203118 -47.33682252381787 97.0
v 46.15591692007199 43.33115393042463 97.0
v 47.48280313051144 47.79986693953089 97.0
v 49.4713826572064 -39.9497169515539 97.0
v -51.19052976605875 42.95105746173386 97.0
v -64.41314579594435 -19.07340205079023 97.0
v -59.16634386062504 -20.54783386039428 97.0
v 67.256422247704 -8.922618127163185 97.0
v -24.44383924321343 -62.64419116151755 97.0
v 51.41053480549765 -44.01841402378957 97.0
v -49.74948109813707 37.60468265209339 97.0
v -20.19517103938928 -59.54056108474533 97.0
v 7.839327941631037 66.55988803967497 97.0
v 67.38478009267433 -14.10806195324529 97.0
v 63.70871423537271 24.77428754858986 97.0
v -58.055501339471 -25.55324747627736 97.0
vt 0.825995762276959 0.4999999999999999 
vt 0.8248823214711061 0.46410597776588625 
vt 0.1740042377230409 0.5 
vt 0.17511767852889384 0.46410597776588647 
vt 0.8215496049832651 0.42845714809969104 
vt 0.8160203786463789 0.39329702865547256 
vt 0.8083324126828894 0.35886579870092683 
vt 0.798538223695822 0.32539865844945115 
vt 0.7867047159271361 0.2931242224041968 
vt 0.7729127242339102 0.2622629576892007 
vt 0.7572564619043051 0.23302567803537688 
vt 0.7398428770852727 0.20561210370897265 
vt 0.7207909222182702 0.18020949721963597 
vt 0.7002307414734669 0.15699138412759295 
vt 0.6783027817330991 0.1361163676881194 
vt 0.655156833196852 0.11772704543048496 
vt 0.6309510061629112 0.10194903507223707 
vt 0.6058506509743046 0.08889011642281419 
vt 0.580027228508395 0.07863949513816115 
vt 0.5536571389252313 0.07126719335564602 
vt 0.5269205166755849 0.06682357137185846 
vt 0.49999999999999967 0.06533898363072121 
vt 0.47307948332441435 0.06682357137185846 
vt 0.44634286107476795 0.07126719335564624 
vt 0.4199727714916042 0.07863949513816171 
vt 0.39414934902569476 0.08889011642281441 
vt 0.369048993837088 0.10194903507223751 
vt 0.34484316680314736 0.11772704543048562 
vt 0.3216972182669004 0.13611636768811985 
vt 0.2997692585265324 0.15699138412759372 
vt 0.27920907778172926 0.18020949721963653 
vt 0.2601571229147267 0.20561210370897354 
vt 0.24274353809569446 0.23302567803537788 
vt 0.22708727576608928 0.2622629576892017 
vt 0.21329528407286347 0.2931242224041981 
vt 0.20146177630417755 0.32539865844945226 
vt 0.19166758731711037 0.35886579870092794 
vt 0.18397962135362086 0.39329702865547345 
vt 0.1784503950167344 0.42845714809969127 
vt 0.8248823214711061 0.5358940222341136 
vt 0.17511767852889384 0.5358940222341139 
vt 0.17845039501673446 0.5715428519003087 
vt 0.18397962135362098 0.6067029713445273 
vt 0.1916675873171107 0.6411342012990733 
vt 0.201461776304178 0.674601341550549 
vt 0.21329528407286397 0.7068757775958032 
vt 0.22708727576608984 0.7377370423107994 
vt 0.242743538095695 0.7669743219646232 
vt 0.26015712291472715 0.7943878962910274 
vt 0.2792090777817298 0.8197905027803642 
vt 0.2997692585265331 0.843008615872407 
vt 0.32169721826690095 0.8638836323118806 
vt 0.344843166803148 0.8822729545695152 
vt 0.3690489938370888 0.898050964927763 
vt 0.39414934902569565 0.9111098835771859 
vt 0.4199727714916051 0.9213605048618388 
vt 0.446342861074769 0.9287328066443542 
vt 0.4730794833244151 0.9331764286281415 
vt 0.5000000000000006 0.9346610163692788 
vt 0.5269205166755858 0.9331764286281414 
vt 0.5536571389252323 0.9287328066443536 
vt 0.5800272285083962 0.9213605048618384 
vt 0.6058506509743056 0.9111098835771854 
vt 0.6309510061629123 0.8980509649277624 
vt 0.655156833196853 0.8822729545695142 
vt 0.6783027817330999 0.8638836323118799 
vt 0.7002307414734678 0.8430086158724062 
vt 0.7207909222182709 0.819790502780363 
vt 0.7398428770852735 0.7943878962910262 
vt 0.7572564619043057 0.7669743219646218 
vt 0.772912724233911 0.7377370423107978 
vt 0.7867047159271366 0.7068757775958017 
vt 0.7985382236958224 0.6746013415505476 
vt 0.8083324126828895 0.6411342012990722 
vt 0.8160203786463791 0.6067029713445266 
vt 0.8215496049832656 0.5715428519003083 
vt 0.3556820805310439 0.1875912899804011 
vt 0.3274103573193934 0.17269182525484073 
vt 0.3339545398728946 0.20871676207694212 
vt 0.6132900312563299 0.16734092829615332 
vt 0.6095018938991481 0.12767556295488935 
vt 0.5888751047329499 0.15382756294586486 
vt 0.20790209650178754 0.4153086144895606 
vt 0.23527370504310188 0.42234680151481163 
vt 0.23112332628557616 0.38414812788129105 
vt 0.5862348972519503 0.8862105518532729 
vt 0.6118928217920024 0.8749445144491926 
vt 0.5960355254133718 0.8436452609148214 
vt 0.6330797393828261 0.13886369691974954 
vt 0.3471024169881119 0.15302112324417338 
vt 0.6392775686199752 0.1815771386664854 
vt 0.2061791835098563 0.3811352711731405 
vt 0.3043472873527343 0.8063319795267474 
vt 0.32053393763690524 0.8293623949616498 
vt 0.3310506962407401 0.792739531114085 
vt 0.6562665551868396 0.15343163423685724 
vt 0.4540360533015346 0.8643292044022242 
vt 0.4375499198022599 0.8971174528351814 
vt 0.4632235821820185 0.8996543177258858 
vt 0.5712226820793578 0.8600260282810996 
vt 0.3783884861531826 0.16276835097385134 
vt 0.34180556329603273 0.8216428874832729 
vt 0.30619931674966105 0.19361799987425832 
vt 0.3656384811301897 0.13216323529165352 
vt 0.7707871833230955 0.3262502975717062 
vt 0.742501671182672 0.3139841069767909 
vt 0.7459774238443176 0.3486704525188945 
vt 0.5849972979592678 0.11506567048862382 
vt 0.2233516324427804 0.5534070688616981 
vt 0.20345894015135416 0.5804484114075052 
vt 0.22717547830975948 0.5892535828269252 
vt 0.2871174114379845 0.21678243440636558 
vt 0.19922101387027707 0.546723599225331 
vt 0.28132889797671906 0.7264136336225253 
vt 0.25287600041555836 0.7351925112856996 
vt 0.26901040340487137 0.7605927435708288 
vt 0.3101325862256778 0.7723897448514685 
vt 0.38878452958639703 0.12528563777328094 
vt 0.4294646070530206 0.8706279395129176 
vt 0.5110190886693526 0.09606988178509401 
vt 0.48493610122996467 0.09460282517975638 
vt 0.4962539951777816 0.1288380536286038 
vt 0.7691822312592568 0.36486200319167716 
vt 0.40521594296408764 0.14778181994989992 
vt 0.6765931099319847 0.17405126982044572 
vt 0.6611206699205826 0.2006182788925197 
vt 0.6881236671422835 0.21468997691271174 
vt 0.7713565343978644 0.6751639309735655 
vt 0.7674383784709102 0.6359032812485025 
vt 0.7460163861793759 0.6572897729843794 
vt 0.4811382816967944 0.8724961417565389 
vt 0.44055949146589857 0.10619069907715506 
vt 0.44709135411569434 0.13968553292925157 
vt 0.46747152128066094 0.1191718614726952 
vt 0.7476897231628556 0.3846463674038191 
vt 0.7714714689677116 0.4001918009586668 
vt 0.7001188501483651 0.18751282746392028 
vt 0.7782847841757738 0.47159485078609087 
vt 0.7801316847891049 0.5066618410956758 
vt 0.8018402394870886 0.4856198390028733 
vt 0.560220659728085 0.10558863839950816 
vt 0.5255022029954478 0.8700594034487317 
vt 0.5133351965009305 0.9038802928283665 
vt 0.5383372277318985 0.9007438392930377 
vt 0.21764098476447852 0.5144666682187673 
vt 0.5020913162328314 0.8801812297847974 
vt 0.7956290788009738 0.4147201224336331 
vt 0.7745017349313303 0.43595302156369153 
vt 0.31323016287782196 0.23078304960525553 
vt 0.5204650997616692 0.12153920756997316 
vt 0.19266917323755267 0.5166573504710109 
vt 0.29260616327141065 0.2520155750422123 
vt 0.7465195682380583 0.7321553618123957 
vt 0.7472240790292549 0.6932980828153001 
vt 0.7253861941257876 0.7117088441993631 
vt 0.4617895886227895 0.09127743039914438 
vt 0.21965235108679967 0.4756868628188219 
vt 0.19731104097399293 0.48620587945338456 
vt 0.7920109173251393 0.37962390725487016 
vt 0.7326330142849626 0.24212172319036707 
vt 0.7139427684865474 0.2661025950181004 
vt 0.7369716522205961 0.2790101872959616 
vt 0.25423451106682127 0.674284753137006 
vt 0.22660626506864393 0.6782054038301872 
vt 0.23960772627109123 0.7062965271988593 
vt 0.25283077233070794 0.32477323402335356 
vt 0.23847263040349653 0.29331487865100114 
vt 0.2276116746321401 0.3233010359278532 
vt 0.2588024984084095 0.2928894200963863 
vt 0.8037801901322824 0.5201393436399002 
vt 0.29132107519333383 0.7572295786709451 
vt 0.38370450139037054 0.8141649398437935 
vt 0.36297541109963316 0.8334935305370409 
vt 0.38564825032840966 0.8462592306619321 
vt 0.21940797000050014 0.44261216731500663 
vt 0.1998641775367383 0.45253405960488535 
vt 0.26260373682509797 0.7066108237527471 
vt 0.5489343400194956 0.874832426799868 
vt 0.5633569212595669 0.8950761763629078 
vt 0.31654567069480466 0.2664580823996452 
vt 0.29520805737807004 0.28759385053369046 
vt 0.42620500860328236 0.13388377329931545 
vt 0.4122273609075474 0.11376841715689967 
vt 0.7078459090230865 0.7695501380581053 
vt 0.6827487847830647 0.7839446202853445 
vt 0.69654598769633 0.8081981183986148 
vt 0.6651648597745211 0.812449922245728 
vt 0.6583053869074655 0.8517386573671522 
vt 0.6796445501126075 0.8362081880722632 
vt 0.7872038509409206 0.6494230538594468 
vt 0.23740069226726895 0.3485036871987518 
vt 0.21617214822389474 0.3540378620500525 
vt 0.7650579998070277 0.7100584269415502 
vt 0.6389051597269371 0.8318350413817074 
vt 0.6583108496316248 0.17742646982391652 
vt 0.34247228449036515 0.8515845566466509 
vt 0.6200850261268347 0.8464767812835157 
vt 0.7909557583778917 0.6138127024104383 
vt 0.7855441775433014 0.5761749695535088 
vt 0.7652098952276376 0.599714358537516 
vt 0.7196372831979424 0.7928497109305881 
vt 0.3656233562943099 0.8650301071111207 
vt 0.7498895414271575 0.4213178018235463 
vt 0.7258672396798385 0.40671060800584724 
vt 0.7288501339195405 0.4425688501642693 
vt 0.7604887944119175 0.28895340130049685 
vt 0.7534253307858176 0.4570864044365842 
vt 0.7559183203900304 0.4928198169334317 
vt 0.7345797150942912 0.5138720313802255 
vt 0.7587140363846118 0.528546669623741 
vt 0.7316139441584897 0.4782296255530708 
vt 0.7232395923399807 0.37123684961489356 
vt 0.7013644457021976 0.39237357992345756 
vt 0.6795831080083097 0.41355101957952745 
vt 0.654977577717036 0.39905127677123053 
vt 0.6578005943836038 0.4346723560592103 
vt 0.6767686041826849 0.377908916225 
vt 0.6985874993345046 0.3567411329386263 
vt 0.6824094295957305 0.4491796262926193 
vt 0.7042094428000942 0.42805599961007124 
vt 0.7070296264866184 0.4636961970126303 
vt 0.7127566356554201 0.5349699746897614 
vt 0.7374500816957363 0.5495310354060449 
vt 0.7098780960148573 0.499332091314758 
vt 0.6909676193896612 0.5560535706671894 
vt 0.7156353778558466 0.5706193432327724 
vt 0.6881008704987873 0.5204239698594932 
vt 0.6852527871184831 0.48480126599911133 
vt 0.6086476996073771 0.4056708399841622 
vt 0.6114737801298519 0.441269593358636 
vt 0.6332139447010718 0.42017049232085113 
vt 0.6303936870860015 0.3845535542479366 
vt 0.6521641458537941 0.363413138086217 
vt 0.6360427620404738 0.45577365531249925 
vt 0.660634022003704 0.4702833154384817 
vt 0.6417286210669945 0.5269678897854082 
vt 0.6445865970784184 0.5625737876134169 
vt 0.6663336992559332 0.5415036428528988 
vt 0.6692015227868932 0.5771272766212793 
vt 0.6634787242591028 0.5058912911818794 
vt 0.6388807487934738 0.49137031415529286 
vt 0.5869230751586952 0.426768059383253 
vt 0.5897538842299744 0.46235202550258847 
vt 0.5982861437463345 0.5690970033602285 
vt 0.5737348751762902 0.5545686851443496 
vt 0.5765858581323322 0.5901583341529261 
vt 0.622858293666392 0.583638382149118 
vt 0.6011452266053452 0.6047018165429996 
vt 0.6257268758148881 0.6192612547784665 
vt 0.6143072492894257 0.47685816694304595 
vt 0.5954348341604528 0.533508766002595 
vt 0.5708899497828119 0.5189923796228303 
vt 0.5925909223001959 0.4979296749696933 
vt 0.6503345103522787 0.6338385895989616 
vt 0.6474552788352146 0.5981951159548 
vt 0.6171487882961615 0.5124441102961947 
vt 0.5840977512107635 0.39117019145061627 
vt 0.5623860344292474 0.4122658362106544 
vt 0.5378575571234525 0.39775964789138407 
vt 0.5595594140951514 0.3766652692464483 
vt 0.516167305255974 0.41883818271749784 
vt 0.5190025316445878 0.45441268683602987 
vt 0.5406890854733023 0.43334528489837 
vt 0.5652161729580637 0.44784880572664343 
vt 0.5435228715167499 0.4689171285712651 
vt 0.5680505821141404 0.4834217129917022 
vt 0.31957190499631294 0.3023112734789072 
vt 0.29780425602173627 0.32339326870563734 
vt 0.3384088763855768 0.24546367936188196 
vt 0.3413230785432506 0.281223127755879 
vt 0.6996393157977959 0.6630526785926125 
vt 0.6777868925345116 0.6839629580326043 
vt 0.7021837543373713 0.6980459080075734 
vt 0.680637520323804 0.7195787688275057 
vt 0.7239441247709612 0.6774371218926213 
vt 0.32247884154078194 0.3380209830980596 
vt 0.6561243118973812 0.705215570843819 
vt 0.6589250792764062 0.7407180002508288 
vt 0.5491999486440309 0.5400507917003522 
vt 0.3007121540061747 0.3590962514152207 
vt 0.27892418851981715 0.38017301791755476 
vt 0.27601681820626556 0.3444732641354281 
vt 0.6191683208339593 0.24173995668087622 
vt 0.6437317334310452 0.25643846429327 
vt 0.6409798177439893 0.22057121778556021 
vt 0.6097708026697877 0.7116817812280449 
vt 0.6343819422502004 0.7262861147488564 
vt 0.6314921236544885 0.6905909998133554 
vt 0.5973996887902562 0.26303677876072284 
vt 0.6219734347752551 0.27755420378495577 
vt 0.3036075411013087 0.3947709168161543 
vt 0.3282582261674257 0.4093499495003087 
vt 0.32537438941881636 0.3736987647040704 
vt 0.665382856065799 0.23578463369690184 
vt 0.35000539109636175 0.38828175698058087 
vt 0.35287838014140427 0.42391145167938715 
vt 0.30649010899259804 0.43042281694457785 
vt 0.30935974425090507 0.46605810008563653 
vt 0.3311302056755174 0.44498055697057437 
vt 0.6002051685822248 0.2987433643816303 
vt 0.5756461915996466 0.2842242740935599 
vt 0.5945858522879559 0.2272004070717959 
vt 0.7214192742139688 0.6419754126663134 
vt 0.5510926601367284 0.26969111446704497 
vt 0.5482717541345059 0.23395827448138562 
vt 0.5265396743457604 0.2551410929504454 
vt 0.5237084524244165 0.21939082375080332 
vt 0.7431974279113425 0.6208983774047874 
vt 0.718523619059468 0.606285680822926 
vt 0.6155607975546238 0.7831922593500492 
vt 0.6126621370099726 0.7473964066655026 
vt 0.5909406674225561 0.7685389181705999 
vt 0.6372945085287318 0.761954660568533 
vt 0.38095530452990306 0.7800196862786701 
vt 0.3585398938574208 0.8015106778582182 
vt 0.3320835702733212 0.7512796476074792 
vt 0.35375429124685975 0.7300980582906454 
vt 0.32911876194628514 0.7156075863436858 
vt 0.3509351468612493 0.6943954562282557 
vt 0.5728341523722984 0.24850537614400803 
vt 0.570019954365418 0.21275352051483765 
vt 0.5880561185174521 0.7327868076590408 
vt 0.3122165421875884 0.5016833709183808 
vt 0.3150608120740562 0.5373055234957372 
vt 0.33683897559873416 0.516206755684137 
vt 0.3339903737003319 0.48059716644173645 
vt 0.4954942993365762 0.7458681400302993 
vt 0.49833528587509546 0.7816216695584293 
vt 0.5200555580750955 0.7604503308077527 
vt 0.6493584395680122 0.3277515708183193 
vt 0.6739615343224085 0.34224707453921377 
vt 0.339676455287231 0.551816514884025 
vt 0.4020390032196494 0.4529891803006192 
vt 0.3991844942263173 0.4173949856077622 
vt 0.37747081397091786 0.4384571553096791 
vt 0.35654822600199554 0.7658454651944369 
vt 0.6163324946322654 0.2055654205007813 
vt 0.28469798695290416 0.45150441771399186 
vt 0.41362228726439765 0.8871330967646466 
vt 0.5692203960927401 0.7896834954456271 
vt 0.5719490651320422 0.8254367802863195 
vt 0.5938317910055291 0.8043368949138473 
vt 0.5463596102597771 0.5044829747635365 
vt 0.5917924054226564 0.19150946067327246 
vt 0.4878087631944652 0.9033905755768198 
vt 0.3876856447354384 0.27476195026156225 
vt 0.39057255726793266 0.3104705727684899 
vt 0.41228423147584925 0.28937613040560095 
vt 0.480268176512325 0.26172689842959884 
vt 0.5048224876940052 0.27629767134780336 
vt 0.5019822951935649 0.2405719548449874 
vt 0.4737709344123477 0.7670410998626603 
vt 0.47094124945770915 0.7313065409253372 
vt 0.4492116470428688 0.7524812017010065 
vt 0.6967365604376526 0.6273618855957201 
vt 0.287564085238683 0.48714795767450836 
vt 0.25169925425441725 0.26491739615059806 
vt 0.47741606194879155 0.2259808812962142 
vt 0.3659617936132908 0.29585808767744715 
vt 0.39447235670609376 0.6520620484201014 
vt 0.3916566859749448 0.6164311301822993 
vt 0.369905490100856 0.6375619886452191 
vt 0.23862140109438296 0.4579686323780737 
vt 0.2419572432911691 0.49357790187122164 
vt 0.2628793332281242 0.4725984700233915 
vt 0.2600030940193946 0.43693442383303993 
vt 0.3755165931850108 0.7089007415554633 
vt 0.21622283448925272 0.6476041528451615 
vt 0.41802556720099177 0.3607116947050102 
vt 0.41515836354610514 0.325061602868288 
vt 0.39345137872586095 0.34614203502879093 
vt 0.39728301480572226 0.6877209958693861 
vt 0.372714832214995 0.6732157883489511 
vt 0.5606076142198273 0.6824941504726754 
vt 0.5360546255747539 0.6679305790472995 
vt 0.5389084698120918 0.70359787995109 
vt 0.6275807894486113 0.34891597613883707 
vt 0.4520317238149145 0.7882426823751473 
vt 0.42746339493841223 0.7736848037403384 
vt 0.7403351526692963 0.5852027521993948 
vt 0.45283634089993363 0.21136685780587483 
vt 0.4557016758217749 0.2471348910717508 
vt 0.5851783284810098 0.6970773326537711 
vt 0.4237396413537165 0.4319291251455345 
vt 0.5229092501968686 0.7962248476093075 
vt 0.5256826454902301 0.8318929546172056 
vt 0.547497073475083 0.8108521516744152 
vt 0.28181800161805626 0.41584817000863195 
vt 0.3425034451525656 0.5874336469158284 
vt 0.3670899978586723 0.6019324697776708 
vt 0.3642665604574426 0.5663209903543701 
vt 0.37831434228472843 0.7446210498053174 
vt 0.6058281876207615 0.37005463770819413 
vt 0.25711214153886375 0.40125529088016976 
vt 0.6612970645954293 0.7754093469342311 
vt 0.6358390295361325 0.8648654330220016 
vt 0.6030143344103468 0.3344141944372282 
vt 0.4717003749650006 0.15434634236608757 
vt 0.4397228262673267 0.3396326229315967 
vt 0.5208762836965933 0.18359149653280304 
vt 0.49913962048958693 0.20480074837951545 
vt 0.5143586842550022 0.6890343440784992 
vt 0.3044931993216035 0.7011119855289043 
vt 0.30827555431721637 0.7366621229184966 
vt 0.3207140401179675 0.6085683799030128 
vt 0.3453207474074179 0.6230651663457418 
vt 0.6957878075700814 0.3210534505870122 
vt 0.692872833027212 0.2857103582155468 
vt 0.6711634313582027 0.3065593688734519 
vt 0.2657408718242934 0.5082535973295375 
vt 0.4511195853707502 0.48202242874117696 
vt 0.4294285875987149 0.5030822715456074 
vt 0.45395767693615624 0.5175883327494208 
vt 0.3178930729631563 0.5729315562224199 
vt 0.4425795860210625 0.375263744855026 
vt 0.46427012913821136 0.3541855000106092 
vt 0.5663437878363553 0.7539100096674523 
vt 0.348129308118993 0.658717709764925 
vt 0.27600689048430893 0.30820406674704615 
vt 0.7999011550664953 0.4501564800080752 
vt 0.47564170409359086 0.49652948595395974 
vt 0.4322648275599176 0.5386537519489969 
vt 0.4077255381734486 0.5241491120600317 
vt 0.4350964217196133 0.5742323131451097 
vt 0.4133858311439247 0.5953223502897789 
vt 0.43792410198220744 0.6098256202828098 
vt 0.41620795844237823 0.6309328581794744 
vt 0.35859255208178525 0.49512368772771 
vt 0.5634728615141883 0.7181814625877063 
vt 0.5446295437751889 0.7750549721411598 
vt 0.3442275071399114 0.31694301944711545 
vt 0.3630614285920216 0.26012468190882776 
vt 0.32632579525214933 0.679900499363735 
vt 0.388834909799717 0.5808218902093237 
vt 0.5275162550725764 0.5611095965264787 
vt 0.5246763631152933 0.5255404018638046 
vt 0.3860061468839782 0.5452273403595449 
vt 0.4105586245536069 0.5597302221604101 
vt 0.3746076919711192 0.4028465789231499 
vt 0.37173513221263776 0.3672139333406764 
vt 0.3688531200196296 0.3315529444573183 
vt 0.4302734643990414 0.8094747282950353 
vt 0.2685879548205399 0.5439062249862333 
vt 0.24737756452676277 0.564934110590562 
vt 0.27142105767634317 0.5795628586717655 
vt 0.5520444687978422 0.5756284830809136 
vt 0.5454488016226209 0.19818553351239399 
vt 0.3557407004016408 0.45952310295379795 
vt 0.4671178878238864 0.38980040593976606 
vt 0.347121715173602 0.35262754968066945 
vt 0.6247743933253901 0.31325140772028015 
vt 0.6683730273425514 0.2708404215291732 
vt 0.6465599302362834 0.2920606826001382 
vt 0.29325549783291704 0.558423294727171 
vt 0.6938463998031922 0.5916974126340463 
vt 0.6720804956356226 0.6127691115862155 
vt 0.49629407164529205 0.16898131806726802 
vt 0.6177709425809488 0.8171497619252768 
vt 0.6402122352668328 0.7971927270706778 
vt 0.2558699742977311 0.3651055920328855 
vt 0.5671953910602383 0.1769877613054519 
vt 0.5426148721822038 0.16239508588646268 
vt 0.6829245260560588 0.7541677359306219 
vt 0.7043020756213928 0.7320750482665941 
vt 0.45679245489659337 0.5531571866536056 
vt 0.4841484723206183 0.6032471816265259 
vt 0.48131370787490135 0.5676626864806317 
vt 0.45962459949913315 0.5887368757531986 
vt 0.38316961886328504 0.5096400894947982 
vt 0.3803246754507749 0.47405254978080913 
vt 0.5115148292476224 0.6533845474783483 
vt 0.489818817423313 0.674488726182568 
vt 0.6068875273281671 0.6759883073931576 
vt 0.6040123222419513 0.6403301535750874 
vt 0.582307386863471 0.6614063122541471 
vt 0.5794432753626254 0.6257686366604472 
vt 0.5577479489196385 0.6468434090016104 
vt 0.4916453810011342 0.4043242582282691 
vt 0.48880494443937444 0.36872250018211283 
vt 0.5321983870734625 0.32651799860467745 
vt 0.5567355177464932 0.3410400663519888 
vt 0.5539135343710101 0.30538386457287126 
vt 0.6532242640133712 0.66951029102573 
vt 0.6286048433668356 0.654910183278949 
vt 0.42465268517037724 0.7379396540750065 
vt 0.290416459668215 0.5227853389039806 
vt 0.4028924737465127 0.7591451563909077 
vt 0.40569355558367315 0.7949190464221259 
vt 0.40940320361032223 0.2536505213009451 
vt 0.24435295090768494 0.5293121894153223 
vt 0.42658704570296646 0.4675100069834953 
vt 0.5029960248260266 0.5465987273433105 
vt 0.44074865291855847 0.6454409199908306 
vt 0.4624548269959391 0.6243349721580989 
vt 0.46811244358323484 0.6956138770468545 
vt 0.46528386757295637 0.6599585238579899 
vt 0.44357088700024033 0.6810848483992618 
vt 0.4463916198465908 0.7167632767755352 
vt 0.486983295737371 0.6388536042900764 
vt 0.4454310432295319 0.41086775664958164 
vt 0.44827755685354315 0.44645150748965035 
vt 0.469962064325153 0.4253911575744056 
vt 0.5784602017520524 0.3199045467161046 
vt 0.6749711922241048 0.6484353554923463 
vt 0.4309273376880999 0.8429005630391417 
vt 0.454852548469019 0.8240508235195533 
vt 0.5218386653514608 0.4899774376833387 
vt 0.4728031498590659 0.46096495321649233 
vt 0.4190258724346636 0.666568597930469 
vt 0.49265563681169267 0.7101585387950812 
vt 0.3963220122528961 0.38178150667843225 
vt 0.29608180387521466 0.594068563149845 
vt 0.5076605162684077 0.31198204514303207 
vt 0.4831167911137332 0.29742949559515763 
vt 0.4000892459401224 0.7234138051856225 
vt 0.2501926435312651 0.600501791860115 
vt 0.43399248462797557 0.268265505579495 
vt 0.43111870107348726 0.2325199776230633 
vt 0.42823919850244696 0.1967283719194054 
vt 0.4065154161589062 0.21788096070409135 
vt 0.30169960685260305 0.6654069406871224 
vt 0.2806985696790714 0.6864959702686391 
vt 0.7204364661126819 0.33554606926819497 
vt 0.5058340433670151 0.5821735187385102 
vt 0.4048858628965049 0.48857135026162246 
vt 0.4973216910597623 0.4754725239170181 
vt 0.5001587861477352 0.5110343842673016 
vt 0.47847834034889053 0.532092726314861 
vt 0.4614183765083835 0.31853992171734646 
vt 0.5104969327079223 0.3476296957466609 
vt 0.5350275658054902 0.3621528193915078 
vt 0.3235246028464887 0.6442226307023773 
vt 0.5812770865588026 0.35555122580226606 
vt 0.40412685152612726 0.1829927309609356 
vt 0.38188851291267634 0.20321707667834155 
vt 0.4259231049870187 0.16193365829505046 
vt 0.40815263623506104 0.828613017078359 
vt 0.44996623160836846 0.17555104000870303 
vt 0.5180414922707822 0.14774440293795432 
vt 0.3614343188020396 0.5307205084963604 
vt 0.5172054687339782 0.7247213883195097 
vt 0.49448409834821117 0.43990510651715975 
vt 0.513332322510086 0.38324624487700587 
vt 0.2742408745429139 0.6152299199603004 
vt 0.3847908572931922 0.23901189847933713 
vt 0.47456018879770223 0.19018814337808776 
vt 0.5492149511992135 0.8447759401543932 
vt 0.42088592488566723 0.3963320540324695 
vt 0.5548936676552249 0.6112236561837086 
vt 0.5303589261508159 0.5966928504665825 
vt 0.5086734543103434 0.6177664147124431 
vt 0.5417667119027227 0.7393046172201242 
vt 0.529369313662017 0.29084914444731447 
vt 0.7175373246571677 0.30015014842416465 
vt 0.4791423017232491 0.8381103187526526 
vt 0.4766020887249292 0.8028211733827579 
vt 0.5405856627522502 0.12893438491468145 
vt 0.4859622426209139 0.3330929516671258 
vt 0.2543194974884043 0.6357795745616773 
vt 0.42184047681078685 0.7022357420818806 
vt 0.458562304380375 0.2828579768225038 
vt 0.4368605093157651 0.30396828841453327 
vt 0.7621619032053238 0.5641439547015675 
vt 0.5332048998640724 0.6322975778532021 
vt 0.6896317980901284 0.25182328629531747 
vt 0.3598975804003734 0.22419177342850938 
vt 0.2988961812002179 0.6297277064240784 
vt 0.5011161657157748 0.8173067281094413 
vt 0.27751536218239076 0.6507867361989259 
vt 0.5026700168280123 0.8511403341321367 
vt 0.6199990114724591 0.5480350299284548 
vt 0.5643152304585988 0.14133991850655792 
vt 0.7823298104586941 0.5412495406636681 
vt 0.7528374463963192 0.25957000203868974 
vt 0.28545121342138263 0.7856239493693247 
vt 0.7087968404059569 0.23864216087443557 
vt 0.7148868365689313 0.2115710245154323 
vt 0.723801293776239 0.7409688958080205 
vt 0.2683465420055847 0.24084370602666827 
vt 0.20849951949855078 0.6150884299345978 
vt 0.23236535820753784 0.6239288373762417 
vt 0.8043883012772071 0.5538425027460756 
vt 0.3893791191665013 0.8779960278982835 
vt 0.7326692732805133 0.7656195515990021 
vt 0.2749678241495746 0.27320330121842673 
vt 0.4086464617129617 0.8591116520596705 
vt 0.5354761646401165 0.09838571807777607 
vt 0.8050003036229629 0.5851421379002503 
vt 0.7883471068973493 0.3504946724935868 
vt 0.2373695019887879 0.6541298000627945 
vn 0.0 0.0 1.0
usemtl surface_texture
s off
f 77/77/1 79/79/1 78/78/1
f 80/80/1 82/82/1 81/81/1
f 83/83/1 85/85/1 84/84/1
f 86/86/1 88/88/1 87/87/1
f 89/89/1 80/80/1 81/81/1
f 90/90/1 77/77/1 78/78/1
f 80/80/1 89/89/1 91/91/1
f 85/85/1 83/83/1 92/92/1
f 93/93/1 95/95/1 94/94/1
f 91/91/1 89/89/1 96/96/1
f 97/97/1 99/99/1 98/98/1
f 88/88/1 86/86/1 100/100/1
f 90/90/1 101/101/1 77/77/1
f 95/95/1 102/102/1 94/94/1
f 31/31/1 30/30/1 103/103/1
f 101/101/1 90/90/1 104/104/1
f 105/105/1 107/107/1 106/106/1
f 19/19/1 18/18/1 108/108/1
f 109/109/1 111/111/1 110/110/1
f 112/112/1 31/31/1 103/103/1
f 113/113/1 109/109/1 110/110/1
f 114/114/1 116/116/1 115/115/1
f 95/95/1 93/93/1 117/117/1
f 118/118/1 101/101/1 104/104/1
f 97/97/1 98/98/1 119/119/1
f 120/120/1 122/122/1 121/121/1
f 107/107/1 105/105/1 123/123/1
f 101/101/1 118/118/1 124/124/1
f 125/125/1 127/127/1 126/126/1
f 128/128/1 130/130/1 129/129/1
f 99/99/1 97/97/1 131/131/1
f 132/132/1 134/134/1 133/133/1
f 135/135/1 123/123/1 136/136/1
f 82/82/1 108/108/1 81/81/1
f 79/79/1 103/103/1 78/78/1
f 127/127/1 125/125/1 137/137/1
f 138/138/1 140/140/1 139/139/1
f 141/141/1 19/19/1 108/108/1
f 142/142/1 144/144/1 143/143/1
f 113/113/1 145/145/1 109/109/1
f 142/142/1 143/143/1 146/146/1
f 147/147/1 148/148/1 136/136/1
f 149/149/1 112/112/1 103/103/1
f 122/122/1 120/120/1 150/150/1
f 135/135/1 107/107/1 123/123/1
f 145/145/1 113/113/1 151/151/1
f 112/112/1 149/149/1 152/152/1
f 153/153/1 155/155/1 154/154/1
f 134/134/1 132/132/1 156/156/1
f 145/145/1 158/158/1 157/157/1
f 123/123/1 159/159/1 136/136/1
f 160/160/1 162/162/1 161/161/1
f 163/163/1 165/165/1 164/164/1
f 166/166/1 168/168/1 167/167/1
f 158/158/1 145/145/1 151/151/1
f 166/166/1 167/167/1 169/169/1
f 140/140/1 170/170/1 139/139/1
f 116/116/1 114/114/1 171/171/1
f 108/108/1 18/18/1 81/81/1
f 172/172/1 174/174/1 173/173/1
f 157/157/1 176/176/1 175/175/1
f 130/130/1 128/128/1 154/154/1
f 114/114/1 115/115/1 177/177/1
f 100/100/1 179/179/1 178/178/1
f 159/159/1 147/147/1 136/136/1
f 86/86/1 179/179/1 100/100/1
f 180/180/1 181/181/1 152/152/1
f 149/149/1 180/180/1 152/152/1
f 124/124/1 183/183/1 182/182/1
f 122/122/1 134/134/1 121/121/1
f 118/118/1 183/183/1 124/124/1
f 158/158/1 176/176/1 157/157/1
f 184/184/1 186/186/1 185/185/1
f 187/187/1 189/189/1 188/188/1
f 128/128/1 129/129/1 190/190/1
f 85/85/1 192/192/1 191/191/1
f 153/153/1 154/154/1 193/193/1
f 194/194/1 187/187/1 188/188/1
f 186/186/1 187/187/1 185/185/1
f 91/91/1 96/96/1 195/195/1
f 196/196/1 52/52/1 94/94/1
f 87/87/1 88/88/1 197/197/1
f 103/103/1 30/30/1 78/78/1
f 198/198/1 200/200/1 199/199/1
f 83/83/1 84/84/1 175/175/1
f 192/192/1 85/85/1 92/92/1
f 187/187/1 186/186/1 189/189/1
f 186/186/1 184/184/1 201/201/1
f 174/174/1 202/202/1 173/173/1
f 203/203/1 205/205/1 204/204/1
f 105/105/1 106/106/1 206/206/1
f 135/135/1 203/203/1 204/204/1
f 207/207/1 205/205/1 203/203/1
f 208/208/1 210/210/1 209/209/1
f 211/211/1 208/208/1 209/209/1
f 212/212/1 204/204/1 213/213/1
f 214/214/1 216/216/1 215/215/1
f 217/217/1 218/218/1 213/213/1
f 212/212/1 135/135/1 204/204/1
f 217/217/1 214/214/1 215/215/1
f 219/219/1 216/216/1 214/214/1
f 220/220/1 219/219/1 214/214/1
f 221/221/1 219/219/1 220/220/1
f 209/209/1 223/223/1 222/222/1
f 214/214/1 217/217/1 213/213/1
f 210/210/1 223/223/1 209/209/1
f 224/224/1 209/209/1 222/222/1
f 222/222/1 226/226/1 225/225/1
f 204/204/1 220/220/1 213/213/1
f 218/218/1 212/212/1 213/213/1
f 227/227/1 222/222/1 225/225/1
f 223/223/1 226/226/1 222/222/1
f 227/227/1 224/224/1 222/222/1
f 228/228/1 224/224/1 227/227/1
f 229/229/1 231/231/1 230/230/1
f 232/232/1 233/233/1 215/215/1
f 229/229/1 232/232/1 231/231/1
f 231/231/1 234/234/1 230/230/1
f 216/216/1 234/234/1 231/231/1
f 235/235/1 234/234/1 216/216/1
f 231/231/1 232/232/1 215/215/1
f 236/236/1 238/238/1 237/237/1
f 238/238/1 239/239/1 237/237/1
f 238/238/1 227/227/1 225/225/1
f 236/236/1 240/240/1 238/238/1
f 233/233/1 217/217/1 215/215/1
f 241/241/1 240/240/1 236/236/1
f 230/230/1 243/243/1 242/242/1
f 229/229/1 230/230/1 242/242/1
f 244/244/1 246/246/1 245/245/1
f 247/247/1 249/249/1 248/248/1
f 250/250/1 243/243/1 230/230/1
f 244/244/1 247/247/1 248/248/1
f 251/251/1 244/244/1 245/245/1
f 252/252/1 253/253/1 251/251/1
f 252/252/1 251/251/1 245/245/1
f 254/254/1 249/249/1 255/255/1
f 247/247/1 237/237/1 255/255/1
f 246/246/1 244/244/1 248/248/1
f 253/253/1 256/256/1 251/251/1
f 237/237/1 239/239/1 255/255/1
f 249/249/1 247/247/1 255/255/1
f 257/257/1 242/242/1 258/258/1
f 259/259/1 260/260/1 258/258/1
f 261/261/1 263/263/1 262/262/1
f 257/257/1 229/229/1 242/242/1
f 264/264/1 265/265/1 263/263/1
f 263/263/1 265/265/1 262/262/1
f 266/266/1 265/265/1 264/264/1
f 263/263/1 261/261/1 259/259/1
f 263/263/1 259/259/1 258/258/1
f 267/267/1 181/181/1 180/180/1
f 267/267/1 268/268/1 181/181/1
f 269/269/1 270/270/1 180/180/1
f 271/271/1 273/273/1 272/272/1
f 273/273/1 274/274/1 272/272/1
f 273/273/1 271/271/1 275/275/1
f 268/268/1 267/267/1 276/276/1
f 270/270/1 267/267/1 180/180/1
f 274/274/1 277/277/1 272/272/1
f 269/269/1 180/180/1 149/149/1
f 242/242/1 264/264/1 258/258/1
f 278/278/1 277/277/1 274/274/1
f 252/252/1 245/245/1 279/279/1
f 280/280/1 268/268/1 276/276/1
f 260/260/1 257/257/1 258/258/1
f 281/281/1 282/282/1 280/280/1
f 283/283/1 285/285/1 284/284/1
f 286/286/1 288/288/1 287/287/1
f 283/283/1 290/290/1 289/289/1
f 291/291/1 281/281/1 280/280/1
f 291/291/1 293/293/1 292/292/1
f 290/290/1 283/283/1 284/284/1
f 293/293/1 291/291/1 280/280/1
f 285/285/1 294/294/1 284/284/1
f 295/295/1 296/296/1 292/292/1
f 297/297/1 299/299/1 298/298/1
f 300/300/1 301/301/1 289/289/1
f 280/280/1 282/282/1 268/268/1
f 277/277/1 278/278/1 287/287/1
f 302/302/1 283/283/1 289/289/1
f 271/271/1 303/303/1 275/275/1
f 304/304/1 306/306/1 305/305/1
f 306/306/1 307/307/1 305/305/1
f 303/303/1 308/308/1 130/130/1
f 299/299/1 297/297/1 292/292/1
f 309/309/1 308/308/1 303/303/1
f 310/310/1 312/312/1 311/311/1
f 313/313/1 310/310/1 311/311/1
f 311/311/1 286/286/1 287/287/1
f 288/288/1 277/277/1 287/287/1
f 172/172/1 315/315/1 314/314/1
f 316/316/1 318/318/1 317/317/1
f 317/317/1 318/318/1 319/319/1
f 293/293/1 295/295/1 292/292/1
f 320/320/1 321/321/1 302/302/1
f 312/312/1 322/322/1 311/311/1
f 323/323/1 325/325/1 324/324/1
f 297/297/1 291/291/1 292/292/1
f 325/325/1 323/323/1 326/326/1
f 290/290/1 300/300/1 289/289/1
f 296/296/1 299/299/1 292/292/1
f 327/327/1 329/329/1 328/328/1
f 330/330/1 331/331/1 233/233/1
f 325/325/1 332/332/1 324/324/1
f 333/333/1 335/335/1 334/334/1
f 316/316/1 317/317/1 336/336/1
f 337/337/1 283/283/1 302/302/1
f 338/338/1 297/297/1 298/298/1
f 56/56/1 55/55/1 339/339/1
f 340/340/1 342/342/1 341/341/1
f 269/269/1 149/149/1 79/79/1
f 343/343/1 252/252/1 279/279/1
f 298/298/1 299/299/1 326/326/1
f 344/344/1 337/337/1 302/302/1
f 59/59/1 58/58/1 345/345/1
f 346/346/1 348/348/1 347/347/1
f 349/349/1 351/351/1 350/350/1
f 320/320/1 304/304/1 305/305/1
f 321/321/1 320/320/1 305/305/1
f 331/331/1 217/217/1 233/233/1
f 323/323/1 298/298/1 326/326/1
f 316/316/1 336/336/1 95/95/1
f 352/352/1 354/354/1 353/353/1
f 61/61/1 60/60/1 144/144/1
f 307/307/1 306/306/1 351/351/1
f 355/355/1 309/309/1 303/303/1
f 301/301/1 320/320/1 289/289/1
f 327/327/1 352/352/1 353/353/1
f 315/315/1 336/336/1 314/314/1
f 356/356/1 338/338/1 298/298/1
f 34/34/1 33/33/1 357/357/1
f 49/49/1 48/48/1 116/116/1
f 349/349/1 358/358/1 351/351/1
f 359/359/1 346/346/1 347/347/1
f 360/360/1 362/362/1 361/361/1
f 363/363/1 365/365/1 364/364/1
f 366/366/1 363/363/1 84/84/1
f 367/367/1 317/317/1 319/319/1
f 42/42/1 41/41/1 113/113/1
f 45/45/1 44/44/1 368/368/1
f 369/369/1 371/371/1 370/370/1
f 367/367/1 373/373/1 372/372/1
f 374/374/1 376/376/1 375/375/1
f 377/377/1 330/330/1 233/233/1
f 378/378/1 379/379/1 354/354/1
f 309/309/1 380/380/1 308/308/1
f 381/381/1 358/358/1 382/382/1
f 7/7/1 6/6/1 159/159/1
f 383/383/1 286/286/1 322/322/1
f 384/384/1 333/333/1 334/334/1
f 385/385/1 387/387/1 386/386/1
f 388/388/1 291/291/1 297/297/1
f 382/382/1 358/358/1 349/349/1
f 71/71/1 70/70/1 153/153/1
f 389/389/1 391/391/1 390/390/1
f 336/336/1 392/392/1 314/314/1
f 232/232/1 393/393/1 377/377/1
f 394/394/1 366/366/1 84/84/1
f 395/395/1 313/313/1 278/278/1
f 32/32/1 31/31/1 112/112/1
f 65/65/1 64/64/1 396/396/1
f 393/393/1 397/397/1 377/377/1
f 387/387/1 340/340/1 341/341/1
f 362/362/1 360/360/1 373/373/1
f 134/134/1 398/398/1 133/133/1
f 367/367/1 319/319/1 373/373/1
f 399/399/1 369/369/1 370/370/1
f 400/400/1 307/307/1 401/401/1
f 376/376/1 402/402/1 375/375/1
f 320/320/1 302/302/1 289/289/1
f 403/403/1 404/404/1 114/114/1
f 79/79/1 149/149/1 103/103/1
f 405/405/1 389/389/1 406/406/1
f 293/293/1 280/280/1 276/276/1
f 407/407/1 409/409/1 408/408/1
f 365/365/1 410/410/1 364/364/1
f 338/338/1 366/366/1 388/388/1
f 54/54/1 53/53/1 202/202/1
f 411/411/1 413/413/1 412/412/1
f 332/332/1 414/414/1 324/324/1
f 399/399/1 416/416/1 415/415/1
f 312/312/1 417/417/1 322/322/1
f 319/319/1 418/418/1 373/373/1
f 342/342/1 88/88/1 341/341/1
f 404/404/1 318/318/1 316/316/1
f 268/268/1 282/282/1 419/419/1
f 303/303/1 130/130/1 275/275/1
f 5/5/1 2/2/1 420/420/1
f 47/47/1 46/46/1 165/165/1
f 421/421/1 413/413/1 411/411/1
f 422/422/1 423/423/1 412/412/1
f 424/424/1 426/426/1 425/425/1
f 426/426/1 427/427/1 425/425/1
f 428/428/1 325/325/1 326/326/1
f 429/429/1 383/383/1 322/322/1
f 430/430/1 417/417/1 340/340/1
f 430/430/1 387/387/1 385/385/1
f 359/359/1 431/431/1 270/270/1
f 432/432/1 270/270/1 269/269/1
f 433/433/1 418/418/1 319/319/1
f 85/85/1 394/394/1 84/84/1
f 434/434/1 425/425/1 361/361/1
f 435/435/1 436/436/1 279/279/1
f 423/423/1 438/438/1 437/437/1
f 439/439/1 295/295/1 440/440/1
f 441/441/1 431/431/1 359/359/1
f 340/340/1 417/417/1 312/312/1
f 359/359/1 270/270/1 432/432/1
f 442/442/1 379/379/1 378/378/1
f 443/443/1 445/445/1 444/444/1
f 318/318/1 433/433/1 319/319/1
f 232/232/1 377/377/1 233/233/1
f 425/425/1 427/427/1 361/361/1
f 446/446/1 435/435/1 279/279/1
f 307/307/1 447/447/1 305/305/1
f 63/63/1 62/62/1 86/86/1
f 299/299/1 448/448/1 326/326/1
f 416/416/1 449/449/1 415/415/1
f 301/301/1 304/304/1 320/320/1
f 431/431/1 450/450/1 276/276/1
f 451/451/1 330/330/1 377/377/1
f 359/359/1 432/432/1 346/346/1
f 409/409/1 453/453/1 452/452/1
f 454/454/1 445/445/1 443/443/1
f 355/355/1 456/456/1 455/455/1
f 457/457/1 398/398/1 122/122/1
f 458/458/1 310/310/1 459/459/1
f 356/356/1 365/365/1 338/338/1
f 460/460/1 394/394/1 85/85/1
f 447/447/1 462/462/1 461/461/1
f 463/463/1 274/274/1 464/464/1
f 373/373/1 360/360/1 372/372/1
f 1/1/1 40/40/1 170/170/1
f 413/413/1 422/422/1 412/412/1
f 422/422/1 465/465/1 424/424/1
f 466/466/1 468/468/1 467/467/1
f 423/423/1 437/437/1 469/469/1
f 470/470/1 428/428/1 448/448/1
f 448/448/1 428/428/1 326/326/1
f 390/390/1 391/391/1 434/434/1
f 402/402/1 472/472/1 471/471/1
f 473/473/1 475/475/1 474/474/1
f 475/475/1 477/477/1 476/476/1
f 478/478/1 449/449/1 479/479/1
f 480/480/1 482/482/1 481/481/1
f 483/483/1 484/484/1 254/254/1
f 379/379/1 485/485/1 354/354/1
f 454/454/1 443/443/1 486/486/1
f 487/487/1 379/379/1 488/488/1
f 488/488/1 379/379/1 442/442/1
f 346/346/1 489/489/1 348/348/1
f 410/410/1 490/490/1 364/364/1
f 418/418/1 362/362/1 373/373/1
f 333/333/1 384/384/1 491/491/1
f 388/388/1 366/366/1 394/394/1
f 364/364/1 490/490/1 145/145/1
f 464/464/1 274/274/1 273/273/1
f 337/337/1 91/91/1 285/285/1
f 337/337/1 285/285/1 283/283/1
f 390/390/1 434/434/1 361/361/1
f 3/3/1 4/4/1 158/158/1
f 436/436/1 435/435/1 492/492/1
f 424/424/1 465/465/1 468/468/1
f 424/424/1 468/468/1 426/426/1
f 426/426/1 494/494/1 493/493/1
f 495/495/1 496/496/1 472/472/1
f 497/497/1 495/495/1 498/498/1
f 471/471/1 472/472/1 499/499/1
f 335/335/1 448/448/1 296/296/1
f 439/439/1 296/296/1 295/295/1
f 475/475/1 476/476/1 474/474/1
f 286/286/1 473/473/1 288/288/1
f 500/500/1 502/502/1 501/501/1
f 479/479/1 449/449/1 416/416/1
f 503/503/1 301/301/1 300/300/1
f 351/351/1 306/306/1 350/350/1
f 451/451/1 300/300/1 290/290/1
f 322/322/1 286/286/1 311/311/1
f 504/504/1 456/456/1 355/355/1
f 271/271/1 355/355/1 303/303/1
f 490/490/1 443/443/1 444/444/1
f 486/486/1 410/410/1 356/356/1
f 488/488/1 172/172/1 314/314/1
f 442/442/1 506/506/1 505/505/1
f 323/323/1 356/356/1 298/298/1
f 384/384/1 500/500/1 501/501/1
f 427/427/1 360/360/1 361/361/1
f 344/344/1 80/80/1 337/337/1
f 15/15/1 14/14/1 125/125/1
f 22/22/1 21/21/1 120/120/1
f 25/25/1 24/24/1 132/132/1
f 265/265/1 507/507/1 262/262/1
f 508/508/1 411/411/1 501/501/1
f 422/422/1 424/424/1 438/438/1
f 493/493/1 494/494/1 496/496/1
f 427/427/1 493/493/1 509/509/1
f 510/510/1 472/472/1 402/402/1
f 406/406/1 389/389/1 390/390/1
f 439/439/1 440/440/1 511/511/1
f 450/450/1 295/295/1 293/293/1
f 485/485/1 498/498/1 354/354/1
f 414/414/1 512/512/1 454/454/1
f 484/484/1 473/473/1 474/474/1
f 449/449/1 502/502/1 500/500/1
f 513/513/1 514/514/1 350/350/1
f 482/482/1 503/503/1 481/481/1
f 254/254/1 484/484/1 249/249/1
f 515/515/1 392/392/1 367/367/1
f 504/504/1 254/254/1 456/456/1
f 454/454/1 512/512/1 445/445/1
f 367/367/1 392/392/1 317/317/1
f 317/317/1 392/392/1 336/336/1
f 445/445/1 516/516/1 444/444/1
f 489/489/1 518/518/1 517/517/1
f 518/518/1 520/520/1 519/519/1
f 521/521/1 433/433/1 403/403/1
f 371/371/1 347/347/1 370/370/1
f 521/521/1 403/403/1 522/522/1
f 403/403/1 318/318/1 404/404/1
f 366/366/1 365/365/1 363/363/1
f 212/212/1 523/523/1 107/107/1
f 492/492/1 435/435/1 524/524/1
f 412/412/1 525/525/1 491/491/1
f 9/9/1 8/8/1 105/105/1
f 507/507/1 527/527/1 526/526/1
f 421/421/1 528/528/1 413/413/1
f 508/508/1 421/421/1 411/411/1
f 468/468/1 465/465/1 467/467/1
f 438/438/1 424/424/1 425/425/1
f 438/438/1 425/425/1 434/434/1
f 493/493/1 496/496/1 497/497/1
f 495/495/1 472/472/1 510/510/1
f 335/335/1 439/439/1 334/334/1
f 475/475/1 374/374/1 477/477/1
f 529/529/1 416/416/1 399/399/1
f 530/530/1 513/513/1 480/480/1
f 530/530/1 480/480/1 531/531/1
f 441/441/1 359/359/1 347/347/1
f 405/405/1 406/406/1 532/532/1
f 483/483/1 254/254/1 504/504/1
f 451/451/1 290/290/1 453/453/1
f 532/532/1 433/433/1 521/521/1
f 355/355/1 455/455/1 309/309/1
f 533/533/1 257/257/1 260/260/1
f 331/331/1 218/218/1 217/217/1
f 519/519/1 520/520/1 534/534/1
f 520/520/1 535/535/1 534/534/1
f 536/536/1 519/519/1 534/534/1
f 488/488/1 537/537/1 172/172/1
f 537/537/1 442/442/1 505/505/1
f 398/398/1 538/538/1 133/133/1
f 122/122/1 398/398/1 134/134/1
f 457/457/1 539/539/1 400/400/1
f 281/281/1 394/394/1 460/460/1
f 506/506/1 97/97/1 505/505/1
f 212/212/1 107/107/1 135/135/1
f 427/427/1 509/509/1 360/360/1
f 344/344/1 82/82/1 80/80/1
f 411/411/1 412/412/1 491/491/1
f 384/384/1 501/501/1 491/491/1
f 20/20/1 19/19/1 141/141/1
f 426/426/1 493/493/1 427/427/1
f 540/540/1 391/391/1 332/332/1
f 541/541/1 402/402/1 376/376/1
f 332/332/1 389/389/1 414/414/1
f 335/335/1 296/296/1 439/439/1
f 440/440/1 450/450/1 441/441/1
f 383/383/1 473/473/1 286/286/1
f 542/542/1 502/502/1 478/478/1
f 478/478/1 502/502/1 449/449/1
f 261/261/1 478/478/1 543/543/1
f 487/487/1 485/485/1 379/379/1
f 397/397/1 451/451/1 377/377/1
f 445/445/1 512/512/1 544/544/1
f 331/331/1 407/407/1 218/218/1
f 346/346/1 432/432/1 545/545/1
f 229/229/1 393/393/1 232/232/1
f 381/381/1 538/538/1 546/546/1
f 386/386/1 387/387/1 547/547/1
f 442/442/1 378/378/1 506/506/1
f 338/338/1 388/388/1 297/297/1
f 548/548/1 500/500/1 384/384/1
f 246/246/1 549/549/1 446/446/1
f 446/446/1 549/549/1 550/550/1
f 358/358/1 401/401/1 351/351/1
f 378/378/1 354/354/1 352/352/1
f 446/446/1 550/550/1 435/435/1
f 245/245/1 446/446/1 279/279/1
f 399/399/1 415/415/1 369/369/1
f 550/550/1 551/551/1 524/524/1
f 400/400/1 539/539/1 462/462/1
f 400/400/1 447/447/1 307/307/1
f 447/447/1 461/461/1 321/321/1
f 268/268/1 419/419/1 181/181/1
f 507/507/1 436/436/1 527/527/1
f 421/421/1 527/527/1 528/528/1
f 526/526/1 421/421/1 508/508/1
f 413/413/1 528/528/1 465/465/1
f 465/465/1 528/528/1 467/467/1
f 542/542/1 508/508/1 502/502/1
f 502/502/1 508/508/1 501/501/1
f 423/423/1 469/469/1 525/525/1
f 496/496/1 494/494/1 499/499/1
f 469/469/1 437/437/1 540/540/1
f 391/391/1 437/437/1 434/434/1
f 469/469/1 540/540/1 428/428/1
f 469/469/1 428/428/1 470/470/1
f 497/497/1 496/496/1 495/495/1
f 510/510/1 402/402/1 541/541/1
f 510/510/1 327/327/1 353/353/1
f 541/541/1 376/376/1 552/552/1
f 552/552/1 376/376/1 429/429/1
f 477/477/1 374/374/1 375/375/1
f 288/288/1 473/473/1 484/484/1
f 482/482/1 553/553/1 304/304/1
f 397/397/1 300/300/1 451/451/1
f 371/371/1 441/441/1 347/347/1
f 288/288/1 484/484/1 483/483/1
f 249/249/1 484/484/1 474/474/1
f 533/533/1 397/397/1 393/393/1
f 476/476/1 477/477/1 549/549/1
f 453/453/1 290/290/1 284/284/1
f 362/362/1 406/406/1 390/390/1
f 499/499/1 466/466/1 551/551/1
f 409/409/1 452/452/1 408/408/1
f 445/445/1 544/544/1 516/516/1
f 523/523/1 407/407/1 554/554/1
f 346/346/1 545/545/1 489/489/1
f 520/520/1 545/545/1 535/535/1
f 218/218/1 523/523/1 212/212/1
f 257/257/1 393/393/1 229/229/1
f 362/362/1 390/390/1 361/361/1
f 525/525/1 333/333/1 491/491/1
f 546/546/1 538/538/1 398/398/1
f 538/538/1 536/536/1 133/133/1
f 546/546/1 457/457/1 401/401/1
f 358/358/1 546/546/1 401/401/1
f 342/342/1 310/310/1 458/458/1
f 459/459/1 310/310/1 313/313/1
f 388/388/1 394/394/1 281/281/1
f 476/476/1 549/549/1 246/246/1
f 506/506/1 556/556/1 555/555/1
f 313/313/1 311/311/1 287/287/1
f 462/462/1 539/539/1 557/557/1
f 447/447/1 321/321/1 305/305/1
f 401/401/1 307/307/1 351/351/1
f 467/467/1 492/492/1 524/524/1
f 12/12/1 11/11/1 160/160/1
f 17/17/1 16/16/1 89/89/1
f 36/36/1 35/35/1 168/168/1
f 436/436/1 343/343/1 279/279/1
f 413/413/1 465/465/1 422/422/1
f 494/494/1 466/466/1 499/499/1
f 493/493/1 497/497/1 509/509/1
f 472/472/1 496/496/1 499/499/1
f 428/428/1 540/540/1 325/325/1
f 510/510/1 541/541/1 327/327/1
f 470/470/1 335/335/1 333/333/1
f 552/552/1 429/429/1 417/417/1
f 552/552/1 417/417/1 430/430/1
f 449/449/1 500/500/1 415/415/1
f 479/479/1 558/558/1 530/530/1
f 558/558/1 416/416/1 529/529/1
f 515/515/1 487/487/1 392/392/1
f 451/451/1 453/453/1 330/330/1
f 533/533/1 393/393/1 257/257/1
f 486/486/1 443/443/1 410/410/1
f 554/554/1 407/407/1 408/408/1
f 489/489/1 545/545/1 520/520/1
f 518/518/1 382/382/1 517/517/1
f 403/403/1 433/433/1 318/318/1
f 309/309/1 226/226/1 380/380/1
f 381/381/1 519/519/1 538/538/1
f 538/538/1 519/519/1 536/536/1
f 381/381/1 546/546/1 358/358/1
f 546/546/1 398/398/1 457/457/1
f 457/457/1 400/400/1 401/401/1
f 506/506/1 378/378/1 556/556/1
f 506/506/1 555/555/1 97/97/1
f 471/471/1 499/499/1 551/551/1
f 516/516/1 544/544/1 559/559/1
f 444/444/1 516/516/1 111/111/1
f 435/435/1 550/550/1 524/524/1
f 395/395/1 278/278/1 463/463/1
f 344/344/1 461/461/1 82/82/1
f 321/321/1 344/344/1 302/302/1
f 29/29/1 28/28/1 90/90/1
f 507/507/1 343/343/1 436/436/1
f 526/526/1 527/527/1 421/421/1
f 426/426/1 468/468/1 494/494/1
f 540/540/1 437/437/1 391/391/1
f 497/497/1 498/498/1 560/560/1
f 497/497/1 560/560/1 509/509/1
f 470/470/1 448/448/1 335/335/1
f 296/296/1 448/448/1 299/299/1
f 440/440/1 441/441/1 371/371/1
f 414/414/1 405/405/1 512/512/1
f 530/530/1 558/558/1 513/513/1
f 561/561/1 529/529/1 562/562/1
f 304/304/1 553/553/1 306/306/1
f 482/482/1 304/304/1 301/301/1
f 503/503/1 397/397/1 533/533/1
f 450/450/1 293/293/1 276/276/1
f 330/330/1 409/409/1 331/331/1
f 532/532/1 406/406/1 418/418/1
f 410/410/1 443/443/1 490/490/1
f 340/340/1 312/312/1 342/342/1
f 380/380/1 223/223/1 563/563/1
f 342/342/1 312/312/1 310/310/1
f 388/388/1 281/281/1 291/291/1
f 415/415/1 500/500/1 548/548/1
f 246/246/1 446/446/1 245/245/1
f 459/459/1 313/313/1 395/395/1
f 514/514/1 349/349/1 350/350/1
f 51/51/1 50/50/1 93/93/1
f 528/528/1 527/527/1 492/492/1
f 422/422/1 438/438/1 423/423/1
f 494/494/1 468/468/1 466/466/1
f 423/423/1 525/525/1 412/412/1
f 414/414/1 389/389/1 405/405/1
f 440/440/1 295/295/1 450/450/1
f 560/560/1 485/485/1 515/515/1
f 383/383/1 374/374/1 475/475/1
f 542/542/1 478/478/1 261/261/1
f 480/480/1 553/553/1 482/482/1
f 531/531/1 480/480/1 481/481/1
f 482/482/1 301/301/1 503/503/1
f 503/503/1 300/300/1 397/397/1
f 503/503/1 533/533/1 481/481/1
f 549/549/1 477/477/1 564/564/1
f 330/330/1 453/453/1 409/409/1
f 331/331/1 409/409/1 407/407/1
f 408/408/1 452/452/1 565/565/1
f 218/218/1 407/407/1 523/523/1
f 518/518/1 381/381/1 382/382/1
f 278/278/1 313/313/1 287/287/1
f 400/400/1 462/462/1 447/447/1
f 463/463/1 278/278/1 274/274/1
f 501/501/1 411/411/1 491/491/1
f 27/27/1 26/26/1 118/118/1
f 526/526/1 508/508/1 542/542/1
f 437/437/1 438/438/1 434/434/1
f 560/560/1 498/498/1 485/485/1
f 429/429/1 374/374/1 383/383/1
f 478/478/1 479/479/1 543/543/1
f 479/479/1 416/416/1 558/558/1
f 479/479/1 530/530/1 543/543/1
f 530/530/1 531/531/1 543/543/1
f 553/553/1 513/513/1 350/350/1
f 441/441/1 450/450/1 431/431/1
f 288/288/1 483/483/1 277/277/1
f 515/515/1 367/367/1 372/372/1
f 504/504/1 271/271/1 272/272/1
f 430/430/1 385/385/1 329/329/1
f 270/270/1 431/431/1 267/267/1
f 267/267/1 431/431/1 276/276/1
f 418/418/1 406/406/1 362/362/1
f 550/550/1 549/549/1 564/564/1
f 95/95/1 336/336/1 315/315/1
f 73/73/1 72/72/1 128/128/1
f 332/332/1 391/391/1 389/389/1
f 417/417/1 429/429/1 322/322/1
f 383/383/1 475/475/1 473/473/1
f 513/513/1 558/558/1 514/514/1
f 480/480/1 513/513/1 553/553/1
f 529/529/1 399/399/1 562/562/1
f 514/514/1 529/529/1 561/561/1
f 306/306/1 553/553/1 350/350/1
f 352/352/1 327/327/1 328/328/1
f 515/515/1 485/485/1 487/487/1
f 504/504/1 355/355/1 271/271/1
f 481/481/1 533/533/1 260/260/1
f 392/392/1 487/487/1 314/314/1
f 487/487/1 488/488/1 314/314/1
f 489/489/1 520/520/1 518/518/1
f 518/518/1 519/519/1 381/381/1
f 488/488/1 442/442/1 537/537/1
f 269/269/1 79/79/1 566/566/1
f 457/457/1 122/122/1 539/539/1
f 522/522/1 403/403/1 114/114/1
f 380/380/1 226/226/1 223/223/1
f 308/308/1 380/380/1 200/200/1
f 551/551/1 550/550/1 564/564/1
f 95/95/1 315/315/1 102/102/1
f 68/68/1 67/67/1 186/186/1
f 75/75/1 74/74/1 198/198/1
f 467/467/1 528/528/1 492/492/1
f 469/469/1 470/470/1 525/525/1
f 402/402/1 471/471/1 375/375/1
f 470/470/1 333/333/1 525/525/1
f 542/542/1 261/261/1 262/262/1
f 483/483/1 504/504/1 272/272/1
f 532/532/1 418/418/1 433/433/1
f 455/455/1 456/456/1 239/239/1
f 432/432/1 269/269/1 566/566/1
f 486/486/1 356/356/1 323/323/1
f 486/486/1 323/323/1 324/324/1
f 342/342/1 458/458/1 88/88/1
f 338/338/1 365/365/1 366/366/1
f 563/563/1 223/223/1 210/210/1
f 337/337/1 80/80/1 91/91/1
f 265/265/1 343/343/1 507/507/1
f 507/507/1 526/526/1 262/262/1
f 527/527/1 436/436/1 492/492/1
f 429/429/1 376/376/1 374/374/1
f 558/558/1 529/529/1 514/514/1
f 430/430/1 340/340/1 387/387/1
f 551/551/1 466/466/1 524/524/1
f 281/281/1 460/460/1 282/282/1
f 531/531/1 481/481/1 260/260/1
f 471/471/1 551/551/1 564/564/1
f 534/534/1 535/535/1 101/101/1
f 349/349/1 514/514/1 561/561/1
f 360/360/1 509/509/1 372/372/1
f 565/565/1 294/294/1 127/127/1
f 526/526/1 542/542/1 262/262/1
f 560/560/1 515/515/1 372/372/1
f 477/477/1 375/375/1 564/564/1
f 532/532/1 521/521/1 567/567/1
f 544/544/1 512/512/1 567/567/1
f 466/466/1 467/467/1 524/524/1
f 356/356/1 410/410/1 365/365/1
f 547/547/1 387/387/1 341/341/1
f 556/556/1 378/378/1 352/352/1
f 329/329/1 385/385/1 328/328/1
f 459/459/1 395/395/1 187/187/1
f 321/321/1 461/461/1 344/344/1
f 382/382/1 349/349/1 561/561/1
f 39/39/1 38/38/1 83/83/1
f 540/540/1 332/332/1 325/325/1
f 512/512/1 405/405/1 567/567/1
f 309/309/1 455/455/1 226/226/1
f 535/535/1 566/566/1 77/77/1
f 200/200/1 563/563/1 199/199/1
f 517/517/1 561/561/1 562/562/1
f 495/495/1 510/510/1 353/353/1
f 348/348/1 489/489/1 517/517/1
f 552/552/1 430/430/1 329/329/1
f 565/565/1 452/452/1 294/294/1
f 548/548/1 384/384/1 334/334/1
f 454/454/1 486/486/1 324/324/1
f 347/347/1 348/348/1 370/370/1
f 440/440/1 371/371/1 511/511/1
f 509/509/1 560/560/1 372/372/1
f 517/517/1 382/382/1 561/561/1
f 277/277/1 483/483/1 272/272/1
f 380/380/1 563/563/1 200/200/1
f 375/375/1 471/471/1 564/564/1
f 334/334/1 439/439/1 511/511/1
f 405/405/1 532/532/1 567/567/1
f 463/463/1 464/464/1 184/184/1
f 498/498/1 495/495/1 353/353/1
f 414/414/1 454/454/1 324/324/1
f 354/354/1 498/498/1 353/353/1
f 371/371/1 369/369/1 511/511/1
f 452/452/1 453/453/1 284/284/1
f 385/385/1 386/386/1 568/568/1
f 541/541/1 552/552/1 329/329/1
f 106/106/1 554/554/1 162/162/1
f 327/327/1 541/541/1 329/329/1
f 348/348/1 562/562/1 370/370/1
f 415/415/1 548/548/1 369/369/1
f 348/348/1 517/517/1 562/562/1
f 369/369/1 548/548/1 511/511/1
f 107/107/1 523/523/1 106/106/1
f 562/562/1 399/399/1 370/370/1
f 544/544/1 567/567/1 569/569/1
f 535/535/1 545/545/1 566/566/1
f 521/521/1 522/522/1 569/569/1
f 523/523/1 554/554/1 106/106/1
f 567/567/1 521/521/1 569/569/1
f 548/548/1 334/334/1 511/511/1
f 266/266/1 343/343/1 265/265/1
f 545/545/1 432/432/1 566/566/1
f 555/555/1 556/556/1 568/568/1
f 294/294/1 452/452/1 284/284/1
f 559/559/1 544/544/1 569/569/1
f 328/328/1 385/385/1 568/568/1
f 566/566/1 79/79/1 77/77/1
f 556/556/1 352/352/1 328/328/1
f 101/101/1 535/535/1 77/77/1
f 556/556/1 328/328/1 568/568/1
f 555/555/1 568/568/1 570/570/1
f 569/569/1 522/522/1 163/163/1
f 559/559/1 569/569/1 163/163/1
f 531/531/1 260/260/1 259/259/1
f 261/261/1 543/543/1 259/259/1
f 568/568/1 386/386/1 570/570/1
f 266/266/1 252/252/1 343/343/1
f 244/244/1 571/571/1 247/247/1
f 543/543/1 531/531/1 259/259/1
f 266/266/1 253/253/1 252/252/1
f 243/243/1 266/266/1 264/264/1
f 251/251/1 571/571/1 244/244/1
f 264/264/1 263/263/1 258/258/1
f 243/243/1 264/264/1 242/242/1
f 256/256/1 571/571/1 251/251/1
f 243/243/1 253/253/1 266/266/1
f 250/250/1 253/253/1 243/243/1
f 256/256/1 236/236/1 571/571/1
f 249/249/1 474/474/1 248/248/1
f 476/476/1 246/246/1 248/248/1
f 247/247/1 571/571/1 237/237/1
f 256/256/1 241/241/1 236/236/1
f 250/250/1 256/256/1 253/253/1
f 474/474/1 476/476/1 248/248/1
f 571/571/1 236/236/1 237/237/1
f 456/456/1 254/254/1 255/255/1
f 239/239/1 456/456/1 255/255/1
f 250/250/1 241/241/1 256/256/1
f 234/234/1 250/250/1 230/230/1
f 234/234/1 241/241/1 250/250/1
f 240/240/1 227/227/1 238/238/1
f 235/235/1 241/241/1 234/234/1
f 239/239/1 238/238/1 225/225/1
f 455/455/1 239/239/1 225/225/1
f 240/240/1 228/228/1 227/227/1
f 235/235/1 240/240/1 241/241/1
f 226/226/1 455/455/1 225/225/1
f 219/219/1 235/235/1 216/216/1
f 235/235/1 228/228/1 240/240/1
f 216/216/1 231/231/1 215/215/1
f 219/219/1 228/228/1 235/235/1
f 221/221/1 228/228/1 219/219/1
f 224/224/1 211/211/1 209/209/1
f 221/221/1 224/224/1 228/228/1
f 205/205/1 221/221/1 220/220/1
f 221/221/1 211/211/1 224/224/1
f 205/205/1 220/220/1 204/204/1
f 220/220/1 214/214/1 213/213/1
f 205/205/1 211/211/1 221/221/1
f 207/207/1 211/211/1 205/205/1
f 207/207/1 208/208/1 211/211/1
f 557/557/1 141/141/1 572/572/1
f 207/207/1 138/138/1 208/208/1
f 148/148/1 207/207/1 203/203/1
f 165/165/1 163/163/1 177/177/1
f 563/563/1 210/210/1 573/573/1
f 316/316/1 95/95/1 117/117/1
f 148/148/1 138/138/1 207/207/1
f 462/462/1 557/557/1 572/572/1
f 82/82/1 461/461/1 572/572/1
f 200/200/1 198/198/1 129/129/1
f 308/308/1 200/200/1 129/129/1
f 162/162/1 160/160/1 574/574/1
f 199/199/1 563/563/1 573/573/1
f 404/404/1 316/316/1 117/117/1
f 461/461/1 462/462/1 572/572/1
f 130/130/1 308/308/1 129/129/1
f 345/345/1 99/99/1 131/131/1
f 148/148/1 420/420/1 138/138/1
f 386/386/1 547/547/1 142/142/1
f 275/275/1 130/130/1 154/154/1
f 102/102/1 196/196/1 94/94/1
f 464/464/1 273/273/1 155/155/1
f 162/162/1 554/554/1 161/161/1
f 408/408/1 565/565/1 161/161/1
f 285/285/1 91/91/1 126/126/1
f 127/127/1 294/294/1 126/126/1
f 117/117/1 93/93/1 575/575/1
f 82/82/1 572/572/1 108/108/1
f 458/458/1 459/459/1 194/194/1
f 570/570/1 386/386/1 142/142/1
f 127/127/1 577/577/1 576/576/1
f 572/572/1 141/141/1 108/108/1
f 282/282/1 460/460/1 166/166/1
f 138/138/1 420/420/1 140/140/1
f 458/458/1 194/194/1 197/197/1
f 573/573/1 210/210/1 139/139/1
f 145/145/1 490/490/1 109/109/1
f 444/444/1 111/111/1 109/109/1
f 460/460/1 85/85/1 191/191/1
f 208/208/1 138/138/1 139/139/1
f 341/341/1 88/88/1 100/100/1
f 170/170/1 573/573/1 139/139/1
f 555/555/1 570/570/1 131/131/1
f 565/565/1 127/127/1 576/576/1
f 184/184/1 464/464/1 578/578/1
f 148/148/1 203/203/1 136/136/1
f 273/273/1 275/275/1 155/155/1
f 147/147/1 420/420/1 148/148/1
f 554/554/1 408/408/1 161/161/1
f 294/294/1 285/285/1 126/126/1
f 534/534/1 101/101/1 124/124/1
f 112/112/1 152/152/1 579/579/1
f 580/580/1 111/111/1 581/581/1
f 315/315/1 172/172/1 173/173/1
f 199/199/1 573/573/1 582/582/1
f 364/364/1 145/145/1 157/157/1
f 155/155/1 275/275/1 154/154/1
f 459/459/1 187/187/1 194/194/1
f 194/194/1 396/396/1 197/197/1
f 570/570/1 142/142/1 146/146/1
f 163/163/1 522/522/1 177/177/1
f 419/419/1 282/282/1 166/166/1
f 114/114/1 404/404/1 171/171/1
f 37/37/1 36/36/1 192/192/1
f 345/345/1 58/58/1 99/99/1
f 59/59/1 345/345/1 143/143/1
f 5/5/1 420/420/1 147/147/1
f 6/6/1 5/5/1 147/147/1
f 35/35/1 34/34/1 167/167/1
f 34/34/1 357/357/1 167/167/1
f 55/55/1 54/54/1 583/583/1
f 36/36/1 168/168/1 192/192/1
f 54/54/1 202/202/1 583/583/1
f 339/339/1 55/55/1 583/583/1
f 28/28/1 27/27/1 104/104/1
f 44/44/1 43/43/1 580/580/1
f 368/368/1 44/44/1 580/580/1
f 64/64/1 63/63/1 87/87/1
f 46/46/1 45/45/1 164/164/1
f 116/116/1 48/48/1 115/115/1
f 158/158/1 4/4/1 176/176/1
f 396/396/1 64/64/1 87/87/1
f 62/62/1 61/61/1 179/179/1
f 89/89/1 16/16/1 96/96/1
f 165/165/1 46/46/1 164/164/1
f 50/50/1 49/49/1 575/575/1
f 2/2/1 1/1/1 140/140/1
f 159/159/1 6/6/1 147/147/1
f 420/420/1 2/2/1 140/140/1
f 26/26/1 25/25/1 183/183/1
f 63/63/1 86/86/1 87/87/1
f 168/168/1 35/35/1 167/167/1
f 86/86/1 62/62/1 179/179/1
f 16/16/1 15/15/1 96/96/1
f 25/25/1 132/132/1 183/183/1
f 90/90/1 28/28/1 104/104/1
f 45/45/1 368/368/1 164/164/1
f 58/58/1 57/57/1 99/99/1
f 1/1/1 170/170/1 140/140/1
f 15/15/1 125/125/1 96/96/1
f 118/118/1 26/26/1 183/183/1
f 357/357/1 33/33/1 579/579/1
f 48/48/1 47/47/1 115/115/1
f 13/13/1 12/12/1 577/577/1
f 12/12/1 160/160/1 577/577/1
f 27/27/1 118/118/1 104/104/1
f 49/49/1 116/116/1 575/575/1
f 144/144/1 60/60/1 143/143/1
f 61/61/1 144/144/1 179/179/1
f 93/93/1 50/50/1 575/575/1
f 57/57/1 56/56/1 98/98/1
f 60/60/1 59/59/1 143/143/1
f 32/32/1 112/112/1 579/579/1
f 47/47/1 165/165/1 115/115/1
f 4/4/1 39/39/1 176/176/1
f 22/22/1 120/120/1 121/121/1
f 33/33/1 32/32/1 579/579/1
f 23/23/1 22/22/1 121/121/1
f 56/56/1 339/339/1 98/98/1
f 39/39/1 83/83/1 176/176/1
f 18/18/1 17/17/1 81/81/1
f 111/111/1 516/516/1 581/581/1
f 584/584/1 184/184/1 578/578/1
f 187/187/1 395/395/1 185/185/1
f 463/463/1 184/184/1 185/185/1
f 505/505/1 97/97/1 119/119/1
f 17/17/1 89/89/1 81/81/1
f 111/111/1 580/580/1 110/110/1
f 70/70/1 69/69/1 584/584/1
f 106/106/1 162/162/1 206/206/1
f 539/539/1 122/122/1 150/150/1
f 181/181/1 419/419/1 585/585/1
f 10/10/1 9/9/1 206/206/1
f 83/83/1 38/38/1 92/92/1
f 537/537/1 505/505/1 586/586/1
f 153/153/1 70/70/1 584/584/1
f 113/113/1 41/41/1 151/151/1
f 3/3/1 158/158/1 151/151/1
f 419/419/1 166/166/1 169/169/1
f 42/42/1 113/113/1 110/110/1
f 577/577/1 127/127/1 137/137/1
f 30/30/1 29/29/1 78/78/1
f 9/9/1 105/105/1 206/206/1
f 141/141/1 557/557/1 587/587/1
f 38/38/1 37/37/1 92/92/1
f 120/120/1 21/21/1 587/587/1
f 20/20/1 141/141/1 587/587/1
f 490/490/1 444/444/1 109/109/1
f 547/547/1 341/341/1 100/100/1
f 210/210/1 208/208/1 139/139/1
f 97/97/1 555/555/1 131/131/1
f 125/125/1 14/14/1 137/137/1
f 41/41/1 3/3/1 151/151/1
f 202/202/1 53/53/1 196/196/1
f 198/198/1 199/199/1 588/588/1
f 170/170/1 40/40/1 582/582/1
f 198/198/1 74/74/1 190/190/1
f 73/73/1 128/128/1 190/190/1
f 186/186/1 67/67/1 189/189/1
f 99/99/1 57/57/1 98/98/1
f 573/573/1 170/170/1 582/582/1
f 71/71/1 153/153/1 193/193/1
f 128/128/1 72/72/1 193/193/1
f 65/65/1 396/396/1 188/188/1
f 132/132/1 24/24/1 156/156/1
f 579/579/1 152/152/1 585/585/1
f 43/43/1 42/42/1 110/110/1
f 129/129/1 198/198/1 190/190/1
f 357/357/1 579/579/1 585/585/1
f 29/29/1 90/90/1 78/78/1
f 199/199/1 582/582/1 588/588/1
f 52/52/1 51/51/1 94/94/1
f 75/75/1 198/198/1 588/588/1
f 68/68/1 186/186/1 201/201/1
f 160/160/1 11/11/1 574/574/1
f 7/7/1 159/159/1 589/589/1
f 105/105/1 8/8/1 589/589/1
f 159/159/1 123/123/1 589/589/1
f 123/123/1 105/105/1 589/589/1
f 547/547/1 100/100/1 178/178/1
f 37/37/1 192/192/1 92/92/1
f 203/203/1 135/135/1 136/136/1
f 163/163/1 164/164/1 590/590/1
f 516/516/1 559/559/1 581/581/1
f 21/21/1 20/20/1 587/587/1
f 580/580/1 43/43/1 110/110/1
f 154/154/1 128/128/1 193/193/1
f 586/586/1 505/505/1 119/119/1
f 536/536/1 534/534/1 124/124/1
f 172/172/1 537/537/1 174/174/1
f 102/102/1 315/315/1 173/173/1
f 117/117/1 575/575/1 171/171/1
f 363/363/1 364/364/1 157/157/1
f 396/396/1 194/194/1 188/188/1
f 121/121/1 134/134/1 156/156/1
f 13/13/1 577/577/1 137/137/1
f 152/152/1 181/181/1 585/585/1
f 14/14/1 13/13/1 137/137/1
f 10/10/1 206/206/1 574/574/1
f 522/522/1 114/114/1 177/177/1
f 363/363/1 157/157/1 175/175/1
f 584/584/1 69/69/1 201/201/1
f 23/23/1 121/121/1 156/156/1
f 536/536/1 124/124/1 182/182/1
f 120/120/1 587/587/1 150/150/1
f 53/53/1 52/52/1 196/196/1
f 206/206/1 162/162/1 574/574/1
f 184/184/1 584/584/1 201/201/1
f 132/132/1 133/133/1 182/182/1
f 583/583/1 202/202/1 174/174/1
f 581/581/1 559/559/1 590/590/1
f 40/40/1 76/76/1 582/582/1
f 84/84/1 363/363/1 175/175/1
f 74/74/1 73/73/1 190/190/1
f 131/131/1 570/570/1 146/146/1
f 368/368/1 581/581/1 590/590/1
f 67/67/1 66/66/1 189/189/1
f 404/404/1 117/117/1 171/171/1
f 368/368/1 580/580/1 581/581/1
f 115/115/1 165/165/1 177/177/1
f 173/173/1 202/202/1 196/196/1
f 72/72/1 71/71/1 193/193/1
f 66/66/1 65/65/1 188/188/1
f 585/585/1 419/419/1 169/169/1
f 176/176/1 83/83/1 175/175/1
f 24/24/1 23/23/1 156/156/1
f 395/395/1 463/463/1 185/185/1
f 142/142/1 547/547/1 178/178/1
f 166/166/1 460/460/1 191/191/1
f 587/587/1 557/557/1 150/150/1
f 133/133/1 536/536/1 182/182/1
f 559/559/1 163/163/1 590/590/1
f 396/396/1 87/87/1 197/197/1
f 161/161/1 565/565/1 576/576/1
f 51/51/1 93/93/1 94/94/1
f 575/575/1 116/116/1 171/171/1
f 88/88/1 458/458/1 197/197/1
f 69/69/1 68/68/1 201/201/1
f 144/144/1 142/142/1 178/178/1
f 11/11/1 10/10/1 574/574/1
f 464/464/1 155/155/1 578/578/1
f 8/8/1 7/7/1 589/589/1
f 557/557/1 539/539/1 150/150/1
f 126/126/1 91/91/1 195/195/1
f 76/76/1 75/75/1 588/588/1
f 183/183/1 132/132/1 182/182/1
f 339/339/1 583/583/1 586/586/1
f 189/189/1 66/66/1 188/188/1
f 582/582/1 76/76/1 588/588/1
f 179/179/1 144/144/1 178/178/1
f 160/160/1 161/161/1 576/576/1
f 168/168/1 166/166/1 191/191/1
f 143/143/1 345/345/1 146/146/1
f 102/102/1 173/173/1 196/196/1
f 192/192/1 168/168/1 191/191/1
f 345/345/1 131/131/1 146/146/1
f 155/155/1 153/153/1 578/578/1
f 577/577/1 160/160/1 576/576/1
f 339/339/1 586/586/1 119/119/1
f 583/583/1 174/174/1 586/586/1
f 164/164/1 368/368/1 590/590/1
f 125/125/1 126/126/1 195/195/1
f 98/98/1 339/339/1 119/119/1
f 153/153/1 584/584/1 578/578/1
f 167/167/1 357/357/1 169/169/1
f 96/96/1 125/125/1 195/195/1
f 174/174/1 537/537/1 586/586/1
f 357/357/1 585/585/1 169/169/1
