# Tetrahedral mesh generated using

# 431 vertices
v                  12.5                       3.8                      56.5      1
v                  12.5                       3.8                      31.5      2
v                 -12.5                       3.8                      56.5      3
v                 -12.5                       3.8                      31.5      4
v                    15                       3.8                        59      5
v                    15                       3.8                        29      6
v                   -15                       3.8                        29      7
v                   -15                       3.8                        59      8
v                    13                         0                        31      9
v                    13                         0                        57      10
v                   -13                         0                        57      11
v                   -13                         0                        31      12
v                  12.5                       4.6                      31.5      13
v                  12.5                       4.6                      56.5      14
v                 -12.5                       4.6                      31.5      15
v                 -12.5                       4.6                      56.5      16
v                  12.5                       3.8           53.722222222222      1
v                  12.5                       3.8           50.944444444444      1
v                  12.5                       3.8           48.166666666667      1
v                  12.5                       3.8           45.388888888889      1
v                  12.5                       3.8           42.611111111111      1
v                  12.5                       3.8           39.833333333333      1
v                  12.5                       3.8           37.055555555556      1
v                  12.5                       3.8           34.277777777778      1
v      -9.7222222222222                       3.8                      56.5      2
v      -6.9444444444444                       3.8                      56.5      2
v      -4.1666666666667                       3.8                      56.5      2
v      -1.3888888888889                       3.8                      56.5      2
v       1.3888888888889                       3.8                      56.5      2
v       4.1666666666667                       3.8                      56.5      2
v       6.9444444444445                       3.8                      56.5      2
v       9.7222222222223                       3.8                      56.5      2
v                 -12.5                       3.8           34.277777777778      3
v                 -12.5                       3.8           37.055555555556      3
v                 -12.5                       3.8           39.833333333333      3
v                 -12.5                       3.8           42.611111111111      3
v                 -12.5                       3.8           45.388888888889      3
v                 -12.5                       3.8           48.166666666667      3
v                 -12.5                       3.8           50.944444444444      3
v                 -12.5                       3.8           53.722222222222      3
v       9.7222222222222                       3.8                      31.5      4
v       6.9444444444445                       3.8                      31.5      4
v       4.1666666666667                       3.8                      31.5      4
v       1.3888888888889                       3.8                      31.5      4
v      -1.3888888888889                       3.8                      31.5      4
v      -4.1666666666667                       3.8                      31.5      4
v      -6.9444444444444                       3.8                      31.5      4
v      -9.7222222222222                       3.8                      31.5      4
v                    15                       3.8           56.272727272727      5
v                    15                       3.8           53.545454545455      5
v                    15                       3.8           50.818181818182      5
v                    15                       3.8           48.090909090909      5
v                    15                       3.8           45.363636363636      5
v                    15                       3.8           42.636363636364      5
v                    15                       3.8           39.909090909091      5
v                    15                       3.8           37.181818181818      5
v                    15                       3.8           34.454545454545      5
v                    15                       3.8           31.727272727273      5
v       12.272727272727                       3.8                        29      6
v       9.5454545454546                       3.8                        29      6
v       6.8181818181818                       3.8                        29      6
v       4.0909090909091                       3.8                        29      6
v       1.3636363636364                       3.8                        29      6
v      -1.3636363636363                       3.8                        29      6
v       -4.090909090909                       3.8                        29      6
v      -6.8181818181818                       3.8                        29      6
v      -9.5454545454545                       3.8                        29      6
v      -12.272727272727                       3.8                        29      6
v                   -15                       3.8           31.727272727273      7
v                   -15                       3.8           34.454545454545      7
v                   -15                       3.8           37.181818181818      7
v                   -15                       3.8           39.909090909091      7
v                   -15                       3.8           42.636363636364      7
v                   -15                       3.8           45.363636363636      7
v                   -15                       3.8           48.090909090909      7
v                   -15                       3.8           50.818181818182      7
v                   -15                       3.8           53.545454545455      7
v                   -15                       3.8           56.272727272727      7
v      -12.272727272727                       3.8                        59      8
v      -9.5454545454545                       3.8                        59      8
v      -6.8181818181818                       3.8                        59      8
v      -4.0909090909091                       3.8                        59      8
v      -1.3636363636364                       3.8                        59      8
v       1.3636363636363                       3.8                        59      8
v       4.0909090909091                       3.8                        59      8
v       6.8181818181818                       3.8                        59      8
v       9.5454545454545                       3.8                        59      8
v       12.272727272727                       3.8                        59      8
v                    13                         0                      33.6      9
v                    13                         0                      36.2      9
v                    13                         0                      38.8      9
v                    13                         0                      41.4      9
v                    13                         0                        44      9
v                    13                         0                      46.6      9
v                    13                         0                      49.2      9
v                    13                         0                      51.8      9
v                    13                         0                      54.4      9
v                  10.4                         0                        57      10
v                   7.8                         0                        57      10
v                   5.2                         0                        57      10
v                   2.6                         0                        57      10
v   1.7319479184152E-14                         0                        57      10
v                  -2.6                         0                        57      10
v                  -5.2                         0                        57      10
v                  -7.8                         0                        57      10
v                 -10.4                         0                        57      10
v                   -13                         0                      54.4      11
v                   -13                         0                      51.8      11
v                   -13                         0                      49.2      11
v                   -13                         0                      46.6      11
v                   -13                         0                        44      11
v                   -13                         0                      41.4      11
v                   -13                         0                      38.8      11
v                   -13                         0                      36.2      11
v                   -13                         0                      33.6      11
v                 -10.4                         0                        31      12
v                  -7.8                         0                        31      12
v                  -5.2                         0                        31      12
v                  -2.6                         0                        31      12
v   -7.105427357601E-15                         0                        31      12
v                   2.6                         0                        31      12
v                   5.2                         0                        31      12
v                   7.8                         0                        31      12
v                  10.4                         0                        31      12
v                  12.5                       4.6           53.722222222222      14
v                  12.5                       4.6           50.944444444444      14
v                  12.5                       4.6           48.166666666667      14
v                  12.5                       4.6           45.388888888889      14
v                  12.5                       4.6           42.611111111111      14
v                  12.5                       4.6           39.833333333333      14
v                  12.5                       4.6           37.055555555556      14
v                  12.5                       4.6           34.277777777778      14
v       9.7222222222222                       4.6                      31.5      17
v       6.9444444444445                       4.6                      31.5      17
v       4.1666666666667                       4.6                      31.5      17
v       1.3888888888889                       4.6                      31.5      17
v      -1.3888888888889                       4.6                      31.5      17
v      -4.1666666666667                       4.6                      31.5      17
v      -6.9444444444444                       4.6                      31.5      17
v      -9.7222222222222                       4.6                      31.5      17
v                 -12.5                       4.6           34.277777777778      19
v                 -12.5                       4.6           37.055555555556      19
v                 -12.5                       4.6           39.833333333333      19
v                 -12.5                       4.6           42.611111111111      19
v                 -12.5                       4.6           45.388888888889      19
v                 -12.5                       4.6           48.166666666667      19
v                 -12.5                       4.6           50.944444444444      19
v                 -12.5                       4.6           53.722222222222      19
v      -9.7222222222222                       4.6                      56.5      20
v      -6.9444444444444                       4.6                      56.5      20
v      -4.1666666666667                       4.6                      56.5      20
v      -1.3888888888889                       4.6                      56.5      20
v       1.3888888888889                       4.6                      56.5      20
v       4.1666666666667                       4.6                      56.5      20
v       6.9444444444445                       4.6                      56.5      20
v       9.7222222222223                       4.6                      56.5      20
v       14.511671865971           1.3119056711845           29.488328747934      21
v      -14.511653056369           1.3118667868787           29.488347517954      22
v      -14.511652482046           1.3118667868788           58.511653056369      23
v       14.511671252066           1.3119056711844           58.511671865971      24
v                -13.75                       3.8                        44      1
v    2.825517597671E-14                       3.8                     30.25      1
v                 13.75                       3.8                        44      1
v  -8.4376949871512E-15                       3.8                     57.75      1
v                -13.75                       3.8           41.247474747475      1
v       2.7525252525253                       3.8                     30.25      1
v                 13.75                       3.8           46.752525252525      1
v      -2.7525252525253                       3.8                     57.75      1
v       2.7525252525252                       3.8                     57.75      1
v      -2.7525252525252                       3.8                     30.25      1
v                -13.75                       3.8           46.752525252525      1
v                 13.75                       3.8           41.247474747475      1
v       5.5050505050505                       3.8                     30.25      1
v                -13.75                       3.8           38.494949494949      1
v                 13.75                       3.8           49.505050505051      1
v      -5.5050505050505                       3.8                     57.75      1
v                -13.75                       3.8            49.50505050505      1
v      -5.5050505050505                       3.8                     30.25      1
v                 13.75                       3.8            38.49494949495      1
v       5.5050505050505                       3.8                     57.75      1
v                -13.75                       3.8           35.742424242424      1
v       8.2575757575758                       3.8                     30.25      1
v                 13.75                       3.8           52.257575757576      1
v      -8.2575757575758                       3.8                     57.75      1
v                -13.75                       3.8           52.257575757576      1
v                 13.75                       3.8           35.742424242424      1
v      -8.2575757575757                       3.8                     30.25      1
v       8.2575757575758                       3.8                     57.75      1
v       11.010101010101                       3.8                     30.25      1
v                 13.75                       3.8           55.010101010101      1
v      -11.010101010101                       3.8                     57.75      1
v                -13.75                       3.8           32.989898989899      1
v                -13.75                       3.8           55.010101010101      1
v      -11.010101010101                       3.8                     30.25      1
v                 13.75                       3.8           32.989898989899      1
v       11.010101010101                       3.8                     57.75      1
v       10.748333950161                         0                      45.3      2
v       -10.74833395016                         0                      45.3      2
v       1.1130558639693                         0           33.338427125312      2
v       1.1130558639691                         0           54.661572874688      2
v       -10.74833395016                         0                      40.1      2
v                  -3.9                         0            33.25166604984      2
v       10.748333950161                         0                      40.1      2
v                  -3.9                         0            54.74833395016      2
v        10.74833395016                         0                      50.5      2
v      -10.930601320695                         0           50.395448884042      2
v       6.7254867022372                         0           33.330369924884      2
v       6.7254867022371                         0           54.669630075116      2
v      -9.0845759758176                         0           33.156693250787      2
v      -9.0845759758176                         0           54.843306749213      2
v       10.798392682855                         0            34.91101716013      2
v        10.74833395016                         0                      47.9      2
v        8.496667900321                         0                      46.6      2
v        8.496667900321                         0                        44      2
v       6.2450018504815                         0                      45.3      2
v       6.2450018504815                         0                      42.7      2
v        3.993335800642                         0                        44      2
v       3.9933358006419                         0                      46.6      2
v       1.7416697508024                         0                      45.3      2
v       1.7416697508025                         0                      42.7      2
v     -0.50999629903703                         0                        44      2
v      -0.5099962990371                         0                      46.6      2
v     -0.50999629903697                         0                      41.4      2
v      -2.7616623488765                         0                      42.7      2
v       1.7416697508026                         0                      40.1      2
v      -2.7616623488765                         0                      40.1      2
v       -5.013328398716                         0           41.399999999999      2
v      -5.0133283987161                         0           43.999999999999      2
v       -5.013328398716                         0                      38.8      2
v      -2.7347186240637                         0           37.546667900321      2
v      -7.2649944485556                         0           42.699999999999      2
v      -7.2649944485556                         0           45.299999999999      2
v      -5.0133283987162                         0           46.599999999999      2
v      -7.2649944485557                         0           47.899999999999      2
v      -5.0133283987163                         0           49.199999999999      2
v       -7.235537023469                         0           50.450775839474      2
v      -5.1161487816193                         0           35.820089479975      2
v      -7.2417821876392                         0           37.526148934576      2
v      -5.1157896815803                         0           52.179545339995      2
v      -2.7616623488768                         0           50.499999999999      2
v        8.496667900321                         0                      49.2      2
v       8.2742966666374                         0            52.20558236795      2
v       6.2450018504814                         0                      50.5      2
v       1.7416697508024                         0                      47.9      2
v       3.9933358006419                         0                      49.2      2
v       1.7827800394772                         0           50.428794891301      2
v       3.9822000935522                         0           51.699566519085      2
v     -0.50314458425803                         0           49.188132481883      2
v     -0.32580564954811                         0           52.145656591987      2
v     -0.50550567823478                         0           38.807777983386      2
v        1.783528476278                         0           37.572501439263      2
v        4.000312254888                         0            38.81208357321      2
v       3.9834875753936                         0           36.302663464877      2
v       6.2009814782111                         0           37.594541018808      2
v     -0.32218692559984                         0           35.860611221748      2
v       10.799507057422                         0           53.119064272412      2
v       6.2450018504814                         0                      47.9      2
v      -6.4834541262395                         0           33.239844623084      2
v      -10.930601320695                         0           37.604551115958      2
v       10.756677072276                         0           37.501836193355      2
v       3.9420161446162                         0           33.664455748861      2
v      -1.3606108406703                         0           33.266036942671      2
v      -2.7616623488766                         0           45.299999999999      2
v       -10.74833395016                         0                      42.7      2
v       -10.74833395016                         0                      47.9      2
v       3.9418322186388                         0           54.335862820276      2
v      -1.3610416411404                         0            54.73470922563      2
v       3.9944985430164                         0           41.402013928868      2
v      -6.4833942762329                         0           54.760094513578      2
v      -2.7605203964135                         0           47.898022080313      2
v       6.2390216545399                         0           40.118106420148      2
v       10.748333950161                         0                      42.7      2
v      -7.2649944485554                         0           40.099999999999      2
v       8.4956712009974                         0           41.403017736691      2
v       8.4895588760844                         0             38.8195835615      2
v       8.2753355892523                         0           35.812557336877      2
v      -10.559787056599                         0           52.946428136383      2
v       9.1226143508566                         0           54.840906428155      2
v       9.1226053684813                         0           33.164834183436      2
v      -10.559787056599                         0           35.053571863616      2
v      -7.7999999999998                         0           52.789381042099      2
v                  -7.8                         0             35.2106189579      2
v      -2.6241721845662                         0           52.830836106893      2
v                  -2.6                         0           35.180007401925      2
v       2.0988125132178                         0           52.654290739467      2
v       2.0999802269314                         0           35.347731800012      2
v      -9.0066641993578                         0                      38.8      2
v      -9.0066641993581                         0                      41.4      2
v      -9.0066641993582                         0                        44      2
v      -9.0066641993582                         0                      46.6      2
v      -9.0066641993583                         0                      49.2      2
v       5.9290910811731                         0           52.660120251496      2
v       5.8254614979421                         0           35.340917498861      2
v       11.096667900321                         0           55.096667900321      2
v      -11.096667900321                         0           55.096667900321      2
v      -11.096667900321                         0           32.903332099679      2
v       11.096667900321                         0           32.903332099679      2
v      -9.1077669528582                         0            36.83897817441      2
v      -9.1065179200242                         0             51.1564067804      2
v      -9.9693728423517                       4.6           44.008431415044      7
v       10.094373878377                       4.6                        44      7
v      -0.1997266410586                       4.6           33.998319578325      7
v    -0.036434714754241                       4.6           54.039701168582      7
v       5.7964601519627                       4.6           33.989711458209      7
v      -9.6834835793405                       4.6           38.427918870958      7
v      -5.1754392350022                       4.6           54.082123187892      7
v       10.094373878377                       4.6           49.555555555556      7
v      -5.4505147437552                       4.6           33.930649958329      7
v       5.5115548479498                       4.6           54.089096350275      7
v       -10.22656127244                       4.6           49.452602538467      7
v       10.094373878377                       4.6           38.444444444444      7
v         10.1478554304                       4.6           35.678437136891      7
v       7.4588118741081                       4.6           36.623922555629      7
v       7.6504251096456                       4.6           39.761394500012      7
v       5.2831216351297                       4.6           38.444444444444      7
v       5.2767345272784                       4.6           41.210232416669      7
v        2.876430995531                       4.6           39.831335032408      7
v       2.8762535758685                       4.6           42.608779760031      7
v      0.47148498261395                       4.6           41.221500613555      7
v      0.49721172581341                       4.6           43.949458675348      7
v       2.9624521689216                       4.6           45.228563341223      7
v      -2.0051018748444                       4.6           42.714389348933      7
v      -1.8136353726908                       4.6           45.544983075988      7
v      -1.9457116554694                       4.6           39.850426104859      7
v      -4.4287709957168                       4.6           41.354106117155      7
v      -4.3274873322614                       4.6           38.519132756718      7
v       2.8581007627874                       4.6           37.149844260528      7
v       -1.744300542566                       4.6           36.686696935853      7
v       -6.868891988146                       4.6           39.865007772287      7
v      -6.9466428016511                       4.6           42.694592142273      7
v       -6.820103282994                       4.6           36.556182754352      7
v      -9.9682827219309                       4.6           35.595124603721      7
v      -9.6129776420102                       4.6           41.234967616469      7
v      -7.4982281145644                       4.6           45.527703706175      7
v       -4.792411646648                       4.6           44.670932360252      7
v      -3.8525253952373                       4.6           47.476465453986      7
v      -1.2346927531656                       4.6            48.19341921524      7
v      -3.1257098009593                       4.6           50.077227392336      7
v      -5.8693721742321                       4.6           49.489683036192      7
v     -0.56689263109911                       4.6           50.912374109786      7
v       1.3891773965063                       4.6           48.977374438949      7
v       2.1249514607395                       4.6           51.516164931505      7
v       3.9258621120155                       4.6           49.448634263788      7
v      -2.7213326450348                       4.6           52.648889111757      7
v      -10.127588995639                       4.6           46.798490209297      7
v       7.6812961309266                       4.6           42.597123004632      7
v       5.2947676324796                       4.6            43.96856086487      7
v       5.2601776924234                       4.6           47.003834530488      7
v       7.6856228282226                       4.6           45.418993807406      7
v        7.688747756753                       4.6           48.166666666667      7
v       6.7667734018857                       4.6           51.106733556029      7
v       9.8690885534556                       4.6            52.39711435389      7
v      -9.8640296256778                       4.6           52.115251769499      7
v      -2.8527940249337                       4.6           33.930247724393      7
v       10.093853056955                       4.6           46.782795264197      7
v       10.086744832888                       4.6           41.207901065589      7
v       2.8213992293786                       4.6            34.34444154533      7
v      0.47186939188282                       4.6           38.444444444444      7
v       2.8204000191913                       4.6           54.142711250854      7
v      -8.1864067166263                       4.6           54.244184065614      7
v       -6.992202403988                       4.6           52.007589946263      7
v       8.3582617801378                       4.6           33.810750065636      7
v      -4.1666666666667                       4.6           35.965819873852      7
v      0.83499464409999                       4.6           46.575263298552      7
v      -8.0056769963841                       4.6           48.114759920869      7
v       4.5334589271013                       4.6           51.595181165978      7
v       8.0680893891825                       4.6           54.251420819808      7
v      -8.1280012371644                       4.6           33.744634221262      7
v      0.84146844008482                       4.6           36.124749352896      7
v       4.9622468657491                       4.6           36.139789054986      7
v      -4.7768112518433                       4.6           51.661102534888      7
v      -10.403585535262                       4.6           33.596414464738      7
v       2.9702247731996                       4.6           47.478461708876      7
v       10.446286161826                       4.6           54.446286161826      7
v      -10.466525534531                       4.6           54.466525534531      7
v       10.466525534531                       4.6           33.533474465469      7
v      -6.0036428654132                       4.6           47.055908895495      7
v      -2.7569465231681                       4.6           54.872651281358      7
v      -8.2122249617729                       4.6           50.246744968039      7
v       5.7539204759758                       4.6           49.408077638541      7
v                 -11.7            1.218697855858           29.532260180596      8
v                  11.7           1.2186978558576           29.532260180596      8
v                   9.1           1.2032919419626           29.539807315364      8
v                  -9.1           1.2032919419631           29.539807315363      8
v                   6.5           1.1917624828736           29.545510622175      8
v                  -6.5            1.191762482874           29.545510622174      8
v                   3.9           1.1840882261769           29.549333366388      8
v                  -3.9           1.1840882261772           29.549333366388      8
v                  -1.3           1.1802547442168           29.551250917386      8
v                   1.3           1.1802547442167           29.551250917386      8
v      -14.467739819404           1.2186978558576                      32.3      9
v      -14.467739819404           1.2186978558577                      55.7      9
v      -14.460192684636           1.2032919419631                      53.1      9
v      -14.460192684636           1.2032919419633                      34.9      9
v      -14.454489377826           1.1917624828745                      50.5      9
v      -14.454489377825           1.1917624828747                      37.5      9
v      -14.450666633612           1.1840882261781                      47.9      9
v      -14.450666633612           1.1840882261783                      40.1      9
v      -14.448749082614           1.1802547442181                      45.3      9
v      -14.448749082614           1.1802547442181                      42.7      9
v       14.467739819404           1.2186978558577                      55.7      10
v       14.467739819404           1.2186978558575                      32.3      10
v       14.460192684636           1.2032919419631                      53.1      10
v       14.460192684636           1.2032919419632                      34.9      10
v       14.454489377826           1.1917624828745                      50.5      10
v       14.454489377825           1.1917624828747                      37.5      10
v       14.450666633612           1.1840882261781                      47.9      10
v       14.450666633612           1.1840882261783                      40.1      10
v       14.448749082614           1.1802547442181                      45.3      10
v       14.448749082614           1.1802547442181                      42.7      10
v                 -11.7            1.218697855857           58.467739819404      11
v                  11.7           1.2186978558574           58.467739819404      11
v                  -9.1           1.2032919419617           58.460192684636      11
v                   9.1           1.2032919419625           58.460192684636      11
v                   6.5           1.1917624828735           58.454489377826      11
v                  -6.5           1.1917624828727           58.454489377825      11
v                   3.9           1.1840882261767           58.450666633612      11
v                  -3.9           1.1840882261761           58.450666633612      11
v                  -1.3            1.180254744216           58.448749082614      11
v                   1.3           1.1802547442162           58.448749082614      11
v       9.2472232502675           2.3167750927578                      45.3      1
v       2.4922251007489           2.1637875355969                      46.6      1
v      0.12313638890503           2.2861996985579                      45.3      1
v       2.5439942940325           2.2669354833091           43.910333126966      1
v       9.3288391991793           2.3402265939029           42.560689476375      1
v       2.6003985110882           2.3010476898709           41.214173981521      1
v       4.7438911505885           2.1232775895754                      45.3      1
v       4.9073426238095           2.3203472161009           39.829049177485      1
v       4.8592341481134           2.2604475645137           50.300220067989      1
v      -9.3431482423234           2.3265435616683           50.163577699287      1
v       0.1915101221104           2.2895058580411           42.615479175021      1

# 1207 tetrahedra
t 420 424 215 426 0
t 287 288 230 329 0
t 267 423 215 425 0
t 212 214 256 426 0
t 214 213 215 426 0
t 232 376 231 233 0
t 345 215 424 426 0
t 315 215 425 427 0
t 247 336 421 422 0
t 267 425 215 427 0
t 213 420 215 426 0
t 212 256 420 426 0
t 215 420 213 424 0
t 244 243 245 421 0
t 215 423 346 425 0
t 340 247 336 421 0
t 212 420 214 426 0
t 214 420 213 426 0
t 240 354 211 420 0
t 349 420 256 426 0
t 231 230 329 227 0
t 345 424 420 426 0
t 288 333 289 231 0
t 245 421 340 428 0
t 346 423 215 426 0
t 233 338 364 429 0
t 230 226 272 329 0
t 333 364 289 233 0
t 363 421 336 422 0
t 244 421 245 428 0
t 223 334 227 262 0
t 335 232 262 269 0
t 329 288 230 231 0
t 221 247 243 421 0
t 355 274 202 424 0
t 243 340 245 421 0
t 230 272 287 329 0
t 252 260 369 292 0
t 340 243 247 421 0
t 231 333 289 233 0
t 324 226 223 227 0
t 233 235 338 429 0
t 345 424 215 427 0
t 336 221 269 422 0
t 238 239 370 282 0
t 364 289 233 429 0
t 250 316 425 427 0
t 239 343 370 282 0
t 340 336 363 421 0
t 288 287 263 299 0
t 315 215 346 425 0
t 247 421 221 422 0
t 231 376 333 233 0
t 197 288 299 289 0
t 267 216 215 423 0
t 269 336 337 239 0
t 357 250 316 425 0
t 223 222 225 430 0
t 234 376 232 233 0
t 344 289 364 429 0
t 250 326 316 427 0
t 353 201 283 362 0
t 230 226 329 227 0
t 201 236 283 362 0
t 349 212 256 420 0
t 361 292 206 275 0
t 368 357 254 250 0
t 326 368 285 250 0
t 239 370 337 234 0
t 237 297 286 304 0
t 250 425 251 427 0
t 364 333 376 233 0
t 215 423 216 426 0
t 262 220 223 422 0
t 322 269 262 422 0
t 234 370 338 238 0
t 231 334 376 232 0
t 209 276 359 280 0
t 221 262 269 422 0
t 252 253 369 427 0
t 264 289 344 429 0
t 240 211 212 420 0
t 265 246 284 358 0
t 254 301 368 285 0
t 364 376 338 233 0
t 369 326 252 427 0
t 286 200 287 332 0
t 288 333 299 289 0
t 370 338 337 234 0
t 224 425 249 430 0
t 357 326 316 250 0
t 349 348 420 426 0
t 238 305 203 282 0
t 336 269 247 239 0
t 292 303 361 206 0
t 232 231 334 227 0
t 285 252 326 250 0
t 217 426 421 428 0
t 336 269 322 422 0
t 223 422 220 430 0
t 288 329 333 231 0
t 234 338 376 233 0
t 262 322 335 269 0
t 268 280 360 238 0
t 223 225 321 430 0
t 249 425 318 430 0
t 361 312 292 275 0
t 272 237 286 328 0
t 215 315 345 427 0
t 262 223 321 422 0
t 369 252 292 253 0
t 305 343 203 282 0
t 234 239 370 238 0
t 247 221 336 422 0
t 361 375 210 278 0
t 278 210 361 275 0
t 326 356 252 285 0
t 36 110 263 197 0
t 359 374 276 209 0
t 299 344 197 289 0
t 269 337 335 234 0
t 357 318 249 425 0
t 226 223 225 324 0
t 232 335 376 234 0
t 349 354 240 420 0
t 345 420 348 426 0
t 273 424 313 427 0
t 217 256 426 428 0
t 210 311 361 275 0
t 361 375 311 210 0
t 303 361 312 292 0
t 357 249 254 250 0
t 356 368 301 285 0
t 232 334 335 262 0
t 343 370 337 239 0
t 264 36 344 197 0
t 285 368 254 250 0
t 235 234 338 238 0
t 260 303 369 292 0
t 344 264 197 289 0
t 307 236 201 362 0
t 274 310 355 202 0
t 301 254 198 285 0
t 280 298 276 429 0
t 323 225 222 430 0
t 261 283 254 301 0
t 228 226 225 324 0
t 279 258 297 331 0
t 334 324 223 227 0
t 360 359 280 268 0
t 92 196 20 271 0
t 343 377 282 266 0
t 364 344 333 289 0
t 336 337 335 269 0
t 281 208 279 331 0
t 284 246 245 428 0
t 201 353 307 362 0
t 217 421 244 428 0
t 302 282 248 266 0
t 269 221 336 247 0
t 290 233 289 429 0
t 283 261 353 301 0
t 346 215 345 426 0
t 222 224 249 430 0
t 334 232 227 262 0
t 355 313 274 424 0
t 310 311 259 275 0
t 268 360 305 238 0
t 333 334 376 231 0
t 20 271 196 420 0
t 263 287 200 332 0
t 357 254 327 368 0
t 334 223 321 262 0
t 337 269 239 234 0
t 245 243 247 340 0
t 222 249 323 430 0
t 256 347 349 426 0
t 329 334 231 227 0
t 236 257 281 307 0
t 226 324 329 227 0
t 369 356 260 252 0
t 282 302 343 266 0
t 329 272 287 328 0
t 322 336 335 269 0
t 226 228 272 328 0
t 233 234 338 235 0
t 292 312 369 253 0
t 335 232 269 234 0
t 344 299 333 289 0
t 200 35 263 332 0
t 36 264 109 197 0
t 223 321 422 430 0
t 329 226 272 328 0
t 362 236 229 325 0
t 349 240 212 420 0
t 280 276 352 429 0
t 229 283 236 362 0
t 377 203 282 266 0
t 281 297 237 330 0
t 352 360 280 429 0
t 352 359 276 280 0
t 343 377 203 282 0
t 245 247 339 340 0
t 368 326 357 250 0
t 253 274 313 427 0
t 356 326 368 285 0
t 301 283 254 327 0
t 198 356 301 285 0
t 281 279 297 331 0
t 332 263 287 299 0
t 217 244 256 428 0
t 299 36 263 197 0
t 241 242 291 428 0
t 259 274 310 275 0
t 356 260 252 285 0
t 35 36 110 263 0
t 20 271 420 424 0
t 346 315 345 215 0
t 248 284 245 341 0
t 343 302 282 248 0
t 360 370 305 238 0
t 327 249 254 357 0
t 249 225 222 323 0
t 362 229 283 327 0
t 359 360 305 268 0
t 263 111 35 200 0
t 19 196 93 211 0
t 249 318 323 430 0
t 311 310 312 275 0
t 338 376 335 234 0
t 271 202 20 91 0
t 313 424 345 427 0
t 313 312 253 427 0
t 301 353 283 327 0
t 258 286 297 304 0
t 356 369 326 252 0
t 297 281 331 330 0
t 211 19 196 420 0
t 237 272 228 328 0
t 360 235 280 429 0
t 237 297 304 330 0
t 281 208 331 367 0
t 258 200 286 304 0
t 304 286 237 328 0
t 307 257 281 367 0
t 324 223 225 321 0
t 284 302 248 199 0
t 237 228 236 330 0
t 240 349 256 428 0
t 196 20 19 92 0
t 250 224 251 425 0
t 274 273 202 424 0
t 294 276 374 209 0
t 263 288 299 197 0
t 284 248 302 341 0
t 202 271 20 424 0
t 321 322 262 422 0
t 256 347 426 428 0
t 274 312 310 275 0
t 337 338 335 234 0
t 199 284 302 358 0
t 344 37 36 264 0
t 235 360 280 238 0
t 323 321 225 430 0
t 210 259 311 275 0
t 359 374 352 276 0
t 196 19 20 420 0
t 331 258 297 304 0
t 208 279 331 371 0
t 211 240 306 354 0
t 240 212 256 349 0
t 249 323 318 357 0
t 37 264 344 429 0
t 229 225 249 323 0
t 228 229 236 325 0
t 369 314 326 427 0
t 296 210 375 278 0
t 329 334 333 231 0
t 307 281 236 330 0
t 264 37 36 109 0
t 253 312 313 274 0
t 200 258 34 304 0
t 225 229 325 323 0
t 241 277 255 351 0
t 259 311 22 210 0
t 277 255 351 373 0
t 241 291 207 366 0
t 343 377 305 203 0
t 211 18 19 420 0
t 277 293 255 373 0
t 283 261 201 353 0
t 208 295 279 371 0
t 359 209 280 268 0
t 236 362 330 325 0
t 283 353 362 327 0
t 38 276 205 429 0
t 313 273 274 424 0
t 264 290 289 429 0
t 324 225 228 325 0
t 328 228 237 330 0
t 200 34 35 332 0
t 35 36 263 299 0
t 253 292 312 275 0
t 346 345 348 426 0
t 312 369 303 292 0
t 349 347 348 426 0
t 200 286 304 332 0
t 264 37 205 429 0
t 355 313 310 274 0
t 248 247 339 245 0
t 225 229 228 325 0
t 284 199 265 358 0
t 111 34 35 200 0
t 93 18 19 211 0
t 202 21 20 91 0
t 278 361 206 275 0
t 294 374 24 209 0
t 322 335 334 262 0
t 211 354 18 420 0
t 228 226 324 328 0
t 327 229 249 323 0
t 257 208 281 367 0
t 201 261 44 353 0
t 284 245 341 428 0
t 333 329 288 299 0
t 21 202 20 424 0
t 377 343 302 266 0
t 260 356 198 285 0
t 343 337 339 239 0
t 258 279 33 331 0
t 330 228 236 325 0
t 38 352 276 429 0
t 257 236 201 307 0
t 336 339 247 340 0
t 378 364 338 429 0
t 356 303 369 260 0
t 371 331 208 367 0
t 334 335 376 232 0
t 359 352 360 280 0
t 340 341 245 428 0
t 204 240 241 306 0
t 323 249 327 357 0
t 229 249 254 327 0
t 209 359 25 268 0
t 292 260 303 206 0
t 260 356 43 198 0
t 274 253 312 275 0
t 321 322 334 262 0
t 258 34 112 200 0
t 205 37 264 108 0
t 203 268 305 238 0
t 281 307 367 330 0
t 311 23 22 210 0
t 310 21 355 202 0
t 245 339 248 341 0
t 203 377 27 266 0
t 240 256 242 428 0
t 313 314 312 427 0
t 255 293 16 373 0
t 287 332 329 328 0
t 340 339 245 341 0
t 38 205 37 429 0
t 27 203 266 102 0
t 358 284 302 341 0
t 118 261 44 201 0
t 254 261 301 198 0
t 308 207 291 366 0
t 356 43 42 260 0
t 265 199 28 358 0
t 229 254 283 327 0
t 251 253 252 427 0
t 46 208 257 367 0
t 44 45 201 353 0
t 36 299 344 197 0
t 101 266 27 199 0
t 201 45 257 307 0
t 301 261 44 198 0
t 210 375 23 296 0
t 44 261 119 198 0
t 260 42 303 206 0
t 95 17 16 182 0
t 22 23 185 89 0
t 183 24 25 104 0
t 295 208 47 371 0
t 374 359 24 209 0
t 254 301 327 368 0
t 355 202 21 424 0
t 239 247 339 248 0
t 44 45 118 201 0
t 27 26 203 102 0
t 28 29 265 358 0
t 229 362 325 327 0
t 279 295 32 371 0
t 206 41 361 278 0
t 202 310 21 259 0
t 205 38 37 108 0
t 324 223 321 334 0
t 332 286 304 328 0
t 24 25 104 209 0
t 276 374 39 294 0
t 176 37 38 108 0
t 178 21 22 90 0
t 268 305 26 203 0
t 25 24 359 209 0
t 27 28 101 199 0
t 349 306 240 354 0
t 305 25 359 268 0
t 119 43 44 198 0
t 276 107 38 205 0
t 110 36 35 160 0
t 255 17 16 95 0
t 241 291 366 350 0
t 170 36 37 109 0
t 312 361 311 275 0
t 89 22 23 210 0
t 311 375 23 210 0
t 323 324 225 321 0
t 42 41 303 206 0
t 204 18 94 211 0
t 265 207 291 308 0
t 38 39 184 107 0
t 113 33 32 180 0
t 304 297 331 330 0
t 21 202 259 90 0
t 377 27 26 203 0
t 202 274 310 259 0
t 301 44 43 198 0
t 296 375 40 278 0
t 204 241 255 351 0
t 334 329 324 227 0
t 281 237 236 330 0
t 181 40 41 122 0
t 116 47 46 186 0
t 31 30 98 187 0
t 293 277 31 373 0
t 255 17 204 351 0
t 330 328 228 325 0
t 342 372 347 428 0
t 28 29 100 265 0
t 260 43 42 120 0
t 266 248 302 199 0
t 362 307 236 330 0
t 325 324 225 323 0
t 199 28 100 265 0
t 120 260 43 198 0
t 45 201 353 307 0
t 112 33 34 258 0
t 352 39 38 276 0
t 22 310 311 259 0
t 116 46 47 208 0
t 207 265 29 308 0
t 351 204 241 306 0
t 258 33 34 304 0
t 94 18 17 174 0
t 112 34 33 173 0
t 46 45 117 177 0
t 25 26 175 103 0
t 346 423 317 425 0
t 113 279 33 258 0
t 240 241 306 350 0
t 302 343 339 248 0
t 327 325 229 323 0
t 377 26 305 203 0
t 92 20 19 162 0
t 266 302 27 199 0
t 329 324 226 328 0
t 356 301 43 198 0
t 45 46 257 307 0
t 93 19 18 166 0
t 111 35 34 164 0
t 45 44 118 169 0
t 171 20 21 91 0
t 26 27 167 102 0
t 279 33 32 113 0
t 107 38 39 276 0
t 302 27 377 266 0
t 353 261 44 301 0
t 253 270 274 427 0
t 277 241 207 366 0
t 331 33 258 304 0
t 305 26 25 268 0
t 41 40 361 278 0
t 328 237 304 330 0
t 29 30 207 308 0
t 28 27 101 163 0
t 43 44 161 119 0
t 116 46 208 257 0
t 209 25 104 268 0
t 240 350 349 428 0
t 259 22 21 90 0
t 208 46 47 367 0
t 16 17 255 351 0
t 313 345 315 427 0
t 332 35 263 299 0
t 241 277 351 366 0
t 89 259 22 210 0
t 310 313 312 274 0
t 257 117 45 201 0
t 26 268 203 103 0
t 34 200 304 332 0
t 45 46 117 257 0
t 26 25 268 103 0
t 371 208 47 367 0
t 295 47 32 371 0
t 37 344 309 429 0
t 31 30 277 98 0
t 375 361 40 278 0
t 46 257 307 367 0
t 18 211 306 354 0
t 41 40 278 122 0
t 29 30 99 207 0
t 339 302 248 341 0
t 373 351 277 366 0
t 265 29 99 207 0
t 42 41 206 121 0
t 352 374 39 276 0
t 28 27 302 199 0
t 315 346 317 425 0
t 206 260 42 121 0
t 18 354 19 420 0
t 255 204 17 95 0
t 94 17 18 204 0
t 291 308 366 350 0
t 42 303 356 260 0
t 241 291 350 428 0
t 328 324 228 325 0
t 367 331 281 330 0
t 303 41 361 206 0
t 310 22 21 259 0
t 308 350 291 428 0
t 30 207 277 98 0
t 279 32 33 331 0
t 278 206 41 122 0
t 349 350 379 428 0
t 211 204 18 306 0
t 199 302 28 358 0
t 351 255 16 373 0
t 207 30 277 366 0
t 110 36 109 197 0
t 241 351 306 350 0
t 20 420 300 424 0
t 204 211 240 306 0
t 30 29 99 179 0
t 41 42 172 121 0
t 340 342 341 428 0
t 96 16 0 189 0
t 190 2 24 105 0
t 29 28 100 168 0
t 42 43 165 120 0
t 94 18 93 211 0
t 37 264 108 109 0
t 111 112 34 200 0
t 91 202 21 90 0
t 373 277 31 366 0
t 92 19 196 93 0
t 110 111 35 263 0
t 271 20 92 91 0
t 358 29 265 308 0
t 277 30 31 366 0
t 399 110 35 160 0
t 162 92 20 409 0
t 331 279 32 371 0
t 188 1 40 123 0
t 194 23 1 88 0
t 115 3 47 193 0
t 97 0 31 195 0
t 19 300 20 420 0
t 101 27 418 163 0
t 389 43 161 119 0
t 294 24 105 209 0
t 114 279 32 113 0
t 349 240 306 350 0
t 409 92 20 91 0
t 35 111 110 399 0
t 255 16 293 96 0
t 280 235 298 429 0
t 35 111 399 164 0
t 409 20 171 91 0
t 102 27 167 418 0
t 114 32 3 191 0
t 418 102 27 101 0
t 47 115 208 295 0
t 3 47 32 295 0
t 90 259 22 89 0
t 117 118 45 201 0
t 26 203 102 103 0
t 102 266 27 101 0
t 44 261 118 119 0
t 107 39 106 276 0
t 24 2 374 294 0
t 117 46 116 257 0
t 25 104 268 103 0
t 293 0 16 373 0
t 210 23 88 296 0
t 402 95 16 182 0
t 24 183 412 104 0
t 355 21 20 424 0
t 204 17 18 306 0
t 39 2 192 106 0
t 30 207 308 366 0
t 279 32 295 114 0
t 204 94 17 95 0
t 40 1 375 296 0
t 375 1 23 296 0
t 374 2 39 294 0
t 31 0 293 373 0
t 393 113 32 180 0
t 403 185 23 89 0
t 47 116 383 186 0
t 40 181 382 122 0
t 413 31 98 187 0
t 293 31 277 97 0
t 40 296 278 123 0
t 351 17 204 306 0
t 233 290 235 429 0
t 364 309 344 429 0
t 366 351 241 350 0
t 276 39 106 294 0
t 32 47 3 371 0
t 392 184 39 107 0
t 30 99 207 98 0
t 293 16 0 96 0
t 105 2 24 294 0
t 41 206 121 122 0
t 108 38 176 394 0
t 405 178 22 90 0
t 389 43 119 120 0
t 89 403 88 210 0
t 389 165 43 120 0
t 96 95 255 402 0
t 0 31 293 97 0
t 88 23 1 296 0
t 296 40 1 123 0
t 47 3 115 295 0
t 100 101 28 199 0
t 43 119 120 198 0
t 308 365 350 428 0
t 17 404 94 174 0
t 395 112 33 173 0
t 385 46 117 177 0
t 103 175 25 415 0
t 29 99 100 265 0
t 121 260 42 120 0
t 104 412 24 209 0
t 400 96 0 189 0
t 3 115 380 193 0
t 401 194 1 88 0
t 1 188 381 123 0
t 0 97 411 195 0
t 2 190 410 105 0
t 116 115 208 383 0
t 412 104 105 209 0
t 298 205 276 429 0
t 105 24 412 209 0
t 16 255 95 402 0
t 295 32 3 114 0
t 255 16 96 402 0
t 38 37 309 429 0
t 208 47 116 383 0
t 23 403 89 210 0
t 90 22 405 89 0
t 208 115 47 383 0
t 106 39 2 294 0
t 403 23 88 210 0
t 123 278 382 122 0
t 98 97 277 413 0
t 318 357 316 425 0
t 391 192 2 106 0
t 390 114 3 191 0
t 379 342 347 428 0
t 94 404 17 95 0
t 117 116 46 385 0
t 25 104 103 415 0
t 108 205 38 394 0
t 18 406 93 166 0
t 109 37 170 396 0
t 397 111 34 164 0
t 407 171 21 91 0
t 387 45 118 169 0
t 167 26 102 417 0
t 113 32 114 393 0
t 98 277 31 413 0
t 278 40 382 122 0
t 97 31 277 413 0
t 278 382 40 123 0
t 215 270 267 427 0
t 99 414 30 179 0
t 384 41 172 121 0
t 258 112 33 395 0
t 106 392 39 107 0
t 160 110 36 398 0
t 205 107 38 394 0
t 93 406 18 94 0
t 111 34 112 397 0
t 91 21 407 90 0
t 109 108 37 396 0
t 45 118 117 387 0
t 103 102 26 417 0
t 109 36 110 398 0
t 402 16 96 189 0
t 412 190 24 105 0
t 19 408 92 162 0
t 258 33 113 395 0
t 170 36 109 398 0
t 405 22 185 89 0
t 101 419 28 163 0
t 408 19 92 93 0
t 161 44 388 119 0
t 215 213 273 424 0
t 314 316 326 427 0
t 107 205 108 394 0
t 113 112 258 395 0
t 388 44 118 119 0
t 99 30 414 98 0
t 121 384 41 122 0
t 295 115 11 380 0
t 9 293 97 411 0
t 10 410 105 294 0
t 96 293 9 400 0
t 296 381 8 123 0
t 88 401 8 296 0
t 403 23 194 88 0
t 383 115 47 193 0
t 382 188 40 123 0
t 413 97 31 195 0
t 360 352 378 429 0
t 107 184 38 394 0
t 100 416 29 168 0
t 386 42 165 120 0
t 93 408 19 166 0
t 388 118 44 169 0
t 95 404 17 182 0
t 385 116 46 186 0
t 384 181 41 122 0
t 98 30 414 187 0
t 104 25 183 415 0
t 218 219 220 423 0
t 34 112 397 173 0
t 94 406 18 174 0
t 407 21 178 90 0
t 176 37 108 396 0
t 387 117 45 177 0
t 103 26 175 417 0
t 0 293 96 400 0
t 3 115 295 380 0
t 1 381 296 123 0
t 88 1 401 296 0
t 97 293 0 411 0
t 105 410 2 294 0
t 32 114 393 191 0
t 33 113 395 180 0
t 218 220 422 423 0
t 220 423 219 430 0
t 196 212 211 420 0
t 213 196 271 420 0
t 212 213 214 420 0
t 106 391 10 294 0
t 114 295 11 390 0
t 221 243 218 421 0
t 217 243 244 421 0
t 320 372 421 426 0
t 39 192 392 106 0
t 293 0 9 400 0
t 391 2 10 294 0
t 295 11 3 380 0
t 293 9 0 411 0
t 381 8 1 296 0
t 410 10 2 294 0
t 1 8 401 296 0
t 295 3 11 390 0
t 397 399 111 164 0
t 171 407 409 91 0
t 167 102 418 417 0
t 220 422 423 430 0
t 221 421 218 422 0
t 213 420 271 424 0
t 2 391 106 294 0
t 3 295 114 390 0
t 246 244 245 428 0
t 101 28 419 100 0
t 223 220 222 430 0
t 224 222 219 430 0
t 162 408 92 409 0
t 399 110 160 398 0
t 217 218 421 426 0
t 224 219 425 430 0
t 418 419 101 163 0
t 389 161 388 119 0
t 218 423 421 426 0
t 99 29 416 179 0
t 172 42 386 121 0
t 100 28 419 168 0
t 219 216 267 423 0
t 319 422 321 430 0
t 99 416 29 100 0
t 121 42 386 120 0
t 219 423 267 425 0
t 220 262 221 422 0
t 273 271 202 424 0
t 345 300 420 424 0
t 214 215 216 426 0
t 217 216 218 426 0
t 214 217 256 426 0
t 216 423 218 426 0
t 264 205 290 429 0
t 363 372 340 421 0
t 323 318 321 430 0
t 96 400 402 189 0
t 383 380 115 193 0
t 194 401 403 88 0
t 188 382 381 123 0
t 413 411 97 195 0
t 190 412 410 105 0
t 349 348 354 420 0
t 421 422 320 423 0
t 322 363 336 422 0
t 389 386 165 120 0
t 267 251 224 425 0
t 348 345 300 420 0
t 313 355 345 424 0
t 251 425 267 427 0
t 320 347 372 426 0
t 391 392 192 106 0
t 390 393 114 191 0
t 321 319 322 422 0
t 404 95 402 182 0
t 185 403 405 89 0
t 116 385 383 186 0
t 384 382 181 122 0
t 413 98 414 187 0
t 104 183 412 415 0
t 363 320 421 422 0
t 242 256 244 428 0
t 352 38 309 429 0
t 107 392 184 394 0
t 393 395 113 180 0
t 319 320 422 423 0
t 317 425 423 430 0
t 347 346 348 426 0
t 19 354 300 420 0
t 404 406 94 174 0
t 395 397 112 173 0
t 396 108 176 394 0
t 178 405 407 90 0
t 387 385 117 177 0
t 175 103 417 415 0
t 317 423 319 430 0
t 316 315 425 427 0
t 317 318 425 430 0
t 270 253 251 427 0
t 317 316 315 425 0
t 363 319 320 422 0
t 309 364 378 429 0
t 300 355 20 424 0
t 406 408 93 166 0
t 398 109 170 396 0
t 118 388 387 169 0
t 346 320 423 426 0
t 317 319 318 430 0
t 246 291 242 428 0
t 99 416 414 179 0
t 386 384 172 121 0
t 218 422 421 423 0
t 317 346 320 423 0
t 365 341 342 428 0
t 398 72 160 399 0
t 408 162 53 409 0
t 388 62 161 389 0
t 419 418 82 163 0
t 423 425 219 430 0
t 313 315 314 427 0
t 421 423 320 426 0
t 319 423 422 430 0
t 100 419 416 168 0
t 251 267 270 427 0
t 213 271 273 424 0
t 219 267 224 425 0
t 196 213 212 420 0
t 216 219 218 423 0
t 298 235 290 429 0
t 220 221 218 422 0
t 217 218 243 421 0
t 220 219 222 430 0
t 159 9 0 400 0
t 1 8 381 156 0
t 156 1 8 401 0
t 159 0 9 411 0
t 391 10 2 158 0
t 157 3 11 380 0
t 3 11 390 157 0
t 410 2 10 158 0
t 317 318 316 425 0
t 407 53 171 409 0
t 399 397 72 164 0
t 82 167 418 417 0
t 165 62 386 389 0
t 316 314 315 427 0
t 320 346 347 426 0
t 319 317 320 423 0
t 320 372 363 421 0
t 348 300 354 420 0
t 345 355 300 424 0
t 216 217 214 426 0
t 246 242 244 428 0
t 363 322 319 422 0
t 309 378 352 429 0
t 290 205 298 429 0
t 35 142 332 34 0
t 82 167 27 418 0
t 62 165 43 389 0
t 20 171 53 409 0
t 72 35 399 164 0
t 43 42 134 356 0
t 418 27 82 163 0
t 43 161 62 389 0
t 53 162 20 409 0
t 72 399 35 160 0
t 39 146 352 38 0
t 319 321 318 430 0
t 190 24 79 412 0
t 49 16 402 189 0
t 191 393 32 69 0
t 163 82 419 83 0
t 62 388 161 63 0
t 72 398 160 73 0
t 52 408 162 53 0
t 356 43 301 135 0
t 168 416 84 83 0
t 387 64 169 63 0
t 166 51 406 52 0
t 74 73 170 396 0
t 79 183 80 412 0
t 59 181 60 382 0
t 85 413 187 86 0
t 184 76 75 392 0
t 402 49 50 182 0
t 65 383 186 66 0
t 69 393 180 70 0
t 185 56 55 403 0
t 175 81 80 415 0
t 172 61 60 384 0
t 84 414 179 85 0
t 177 64 385 65 0
t 404 50 51 174 0
t 74 176 75 394 0
t 71 173 395 70 0
t 55 54 178 405 0
t 20 355 300 128 0
t 59 188 40 382 0
t 86 413 31 195 0
t 192 76 39 392 0
t 66 383 47 193 0
t 194 56 23 403 0
t 86 87 411 195 0
t 56 194 57 401 0
t 188 59 58 381 0
t 400 48 49 189 0
t 78 190 79 410 0
t 191 68 390 69 0
t 76 192 77 391 0
t 66 67 380 193 0
t 303 134 42 356 0
t 167 82 81 417 0
t 165 62 61 386 0
t 54 53 171 407 0
t 397 71 72 164 0
t 142 35 332 143 0
t 354 127 19 300 0
t 356 134 43 135 0
t 141 34 33 304 0
t 183 79 24 412 0
t 16 49 402 182 0
t 180 32 393 69 0
t 127 20 300 128 0
t 146 39 352 147 0
t 20 129 355 128 0
t 17 16 124 351 0
t 126 19 18 354 0
t 126 19 354 127 0
t 20 127 300 19 0
t 181 59 40 382 0
t 187 413 31 86 0
t 186 383 47 66 0
t 39 76 184 392 0
t 23 56 185 403 0
t 184 75 38 394 0
t 185 55 22 405 0
t 129 20 355 21 0
t 309 146 38 352 0
t 25 359 149 305 0
t 130 23 311 131 0
t 23 130 311 22 0
t 0 48 159 400 0
t 381 58 1 156 0
t 156 57 1 401 0
t 411 159 0 87 0
t 2 77 391 158 0
t 380 157 3 67 0
t 410 78 2 158 0
t 157 390 3 68 0
t 42 41 133 303 0
t 344 36 37 144 0
t 144 37 344 145 0
t 140 33 32 331 0
t 146 37 309 38 0
t 37 146 309 145 0
t 144 35 299 36 0
t 46 137 307 45 0
t 137 46 307 138 0
t 419 416 168 83 0
t 169 388 387 63 0
t 398 170 73 396 0
t 406 408 166 52 0
t 45 44 136 353 0
t 353 136 45 137 0
t 80 183 25 415 0
t 414 30 85 187 0
t 60 181 41 384 0
t 385 46 65 186 0
t 404 50 17 182 0
t 180 395 33 70 0
t 142 34 304 332 0
t 38 75 176 394 0
t 178 22 55 405 0
t 157 3 6 68 0
t 7 2 78 158 0
t 6 3 157 67 0
t 77 2 7 158 0
t 4 0 159 87 0
t 1 5 57 156 0
t 0 48 4 159 0
t 58 5 1 156 0
t 141 34 304 142 0
t 402 400 49 189 0
t 412 79 190 410 0
t 192 76 392 391 0
t 59 188 382 381 0
t 411 413 86 195 0
t 380 383 66 193 0
t 390 393 191 69 0
t 56 194 401 403 0
t 149 150 26 305 0
t 149 26 25 305 0
t 351 124 17 125 0
t 81 175 417 415 0
t 384 172 61 386 0
t 179 416 414 84 0
t 54 178 405 407 0
t 395 397 173 71 0
t 385 387 64 177 0
t 176 74 396 394 0
t 406 404 51 174 0
t 175 80 25 415 0
t 414 30 179 85 0
t 172 60 41 384 0
t 385 46 177 65 0
t 404 17 50 174 0
t 173 33 395 70 0
t 183 80 412 415 0
t 181 60 382 384 0
t 85 413 414 187 0
t 50 404 402 182 0
t 75 184 392 394 0
t 393 395 180 70 0
t 65 383 385 186 0
t 55 185 403 405 0
t 145 37 344 309 0
t 344 299 36 144 0
t 130 21 310 22 0
t 332 143 35 299 0
t 42 133 134 303 0
t 310 130 22 311 0
t 135 44 43 301 0
t 135 44 301 136 0
t 21 355 129 310 0
t 132 41 361 133 0
t 361 40 41 132 0
t 26 81 175 417 0
t 29 416 179 84 0
t 172 42 61 386 0
t 64 387 45 177 0
t 406 51 18 174 0
t 37 176 74 396 0
t 173 397 34 71 0
t 178 54 21 407 0
t 358 152 29 153 0
t 29 28 152 358 0
t 27 28 302 151 0
t 151 28 302 152 0
t 21 130 310 129 0
t 0 411 87 195 0
t 57 194 1 401 0
t 400 0 48 189 0
t 58 1 188 381 0
t 2 190 78 410 0
t 68 390 3 191 0
t 77 192 2 391 0
t 3 380 67 193 0
t 30 308 153 154 0
t 29 30 308 153 0
t 148 25 24 359 0
t 140 33 331 141 0
t 139 14 47 371 0
t 26 167 81 417 0
t 29 416 84 168 0
t 61 42 165 386 0
t 64 45 387 169 0
t 406 18 51 166 0
t 74 170 37 396 0
t 71 397 34 164 0
t 54 171 21 407 0
t 304 331 33 141 0
t 31 13 373 155 0
t 44 136 353 301 0
t 375 23 12 131 0
t 36 170 73 398 0
t 73 160 36 398 0
t 35 144 299 143 0
t 47 138 139 367 0
t 152 28 302 358 0
t 307 353 45 137 0
t 365 342 379 428 0
t 12 40 375 132 0
t 168 28 419 83 0
t 169 44 388 63 0
t 166 408 19 52 0
t 163 419 28 83 0
t 161 388 44 63 0
t 52 408 19 162 0
t 138 47 46 367 0
t 148 25 359 149 0
t 46 307 138 367 0
t 126 18 306 354 0
t 374 39 15 147 0
t 133 41 361 303 0
t 154 31 366 155 0
t 308 358 29 153 0
t 39 374 352 147 0
t 379 350 365 428 0
t 154 31 30 366 0
t 125 18 306 126 0
t 125 18 17 306 0
t 306 351 17 125 0
t 140 32 3 371 0
t 302 377 27 151 0
t 2 24 374 148 0
t 124 16 0 373 0
t 3 14 140 371 0
t 14 3 47 371 0
t 13 31 373 0 0
t 374 15 2 148 0
t 15 2 39 374 0
t 40 1 12 375 0
t 12 1 23 375 0
t 0 13 124 373 0
t 23 375 311 131 0
t 351 16 124 373 0
t 150 27 26 377 0
t 377 150 27 151 0
t 305 150 26 377 0
t 374 24 359 148 0
t 30 308 154 366 0
t 47 139 371 367 0
t 31 155 373 366 0
t 331 32 140 371 0
t 375 40 361 132 0
t 338 238 360 235 0
t 360 238 338 370 0
t 427 273 215 270 0
t 427 215 273 424 0
t 427 250 252 251 0
t 427 252 250 326 0
t 338 429 360 378 0
t 360 429 338 235 0
t 249 425 250 357 0
t 250 425 249 224 0
t 273 427 274 270 0
t 274 427 273 313 0
t 370 282 305 238 0
t 305 282 370 343 0
t 239 336 339 247 0
t 239 339 336 337 0
t 299 287 329 288 0
t 299 329 287 332 0
t 248 343 239 282 0
t 248 239 343 339 0
t 349 428 347 256 0
t 347 428 349 379 0
t 427 312 369 314 0
t 427 369 312 253 0
t 287 328 286 332 0
t 286 328 287 272 0
t 428 372 340 342 0
t 428 340 372 421 0
t 428 308 246 291 0
t 428 246 308 365 0
t 265 246 308 291 0
t 428 284 365 341 0
t 428 365 284 246 0
t 358 365 284 341 0
t 358 284 365 246 0
t 428 241 240 350 0
t 428 240 241 242 0
t 426 372 428 347 0
t 426 428 372 421 0
t 246 308 358 265 0
t 246 358 308 365 0
