 MeshVersionFormatted 2
 Dimension
 3
 Vertices
 228
                 12.5                       3.8                      56.5      1
                 12.5                       3.8                      31.5      2
                -12.5                       3.8                      56.5      3
                -12.5                       3.8                      31.5      4
                   15                       3.8                        59      5
                   15                       3.8                        29      6
                  -15                       3.8                        29      7
                  -15                       3.8                        59      8
                   13                         0                        31      9
                   13                         0                        57      10
                  -13                         0                        57      11
                  -13                         0                        31      12
                 12.5                       4.6                      31.5      13
                 12.5                       4.6                      56.5      14
                -12.5                       4.6                      31.5      15
                -12.5                       4.6                      56.5      16
                 12.5                       3.8           52.928571428571      1
                 12.5                       3.8           49.357142857143      1
                 12.5                       3.8           45.785714285714      1
                 12.5                       3.8           42.214285714286      1
                 12.5                       3.8           38.642857142857      1
                 12.5                       3.8           35.071428571429      1
     -8.9285714285714                       3.8                      56.5      2
     -5.3571428571428                       3.8                      56.5      2
     -1.7857142857143                       3.8                      56.5      2
      1.7857142857143                       3.8                      56.5      2
      5.3571428571429                       3.8                      56.5      2
      8.9285714285714                       3.8                      56.5      2
                -12.5                       3.8           35.071428571429      3
                -12.5                       3.8           38.642857142857      3
                -12.5                       3.8           42.214285714286      3
                -12.5                       3.8           45.785714285714      3
                -12.5                       3.8           49.357142857143      3
                -12.5                       3.8           52.928571428571      3
      8.9285714285714                       3.8                      31.5      4
      5.3571428571429                       3.8                      31.5      4
      1.7857142857143                       3.8                      31.5      4
     -1.7857142857143                       3.8                      31.5      4
     -5.3571428571429                       3.8                      31.5      4
     -8.9285714285714                       3.8                      31.5      4
                   15                       3.8                     55.25      5
                   15                       3.8                      51.5      5
                   15                       3.8                     47.75      5
                   15                       3.8                        44      5
                   15                       3.8                     40.25      5
                   15                       3.8                      36.5      5
                   15                       3.8                     32.75      5
                11.25                       3.8                        29      6
                  7.5                       3.8                        29      6
                 3.75                       3.8                        29      6
 -4.1300296516056E-14                       3.8                        29      6
                -3.75                       3.8                        29      6
                 -7.5                       3.8                        29      6
               -11.25                       3.8                        29      6
                  -15                       3.8                     32.75      7
                  -15                       3.8                      36.5      7
                  -15                       3.8                     40.25      7
                  -15                       3.8                        44      7
                  -15                       3.8                     47.75      7
                  -15                       3.8                      51.5      7
                  -15                       3.8                     55.25      7
               -11.25                       3.8                        59      8
                 -7.5                       3.8                        59      8
                -3.75                       3.8                        59      8
  6.2616578588859E-14                       3.8                        59      8
      3.7500000000001                       3.8                        59      8
                  7.5                       3.8                        59      8
                11.25                       3.8                        59      8
                   13                         0           34.714285714286      9
                   13                         0           38.428571428571      9
                   13                         0           42.142857142857      9
                   13                         0           45.857142857143      9
                   13                         0           49.571428571428      9
                   13                         0           53.285714285714      9
      9.2857142857143                         0                        57      10
      5.5714285714286                         0                        57      10
      1.8571428571429                         0                        57      10
     -1.8571428571429                         0                        57      10
     -5.5714285714286                         0                        57      10
     -9.2857142857143                         0                        57      10
                  -13                         0           53.285714285714      11
                  -13                         0           49.571428571428      11
                  -13                         0           45.857142857143      11
                  -13                         0           42.142857142857      11
                  -13                         0           38.428571428571      11
                  -13                         0           34.714285714286      11
     -9.2857142857143                         0                        31      12
     -5.5714285714286                         0                        31      12
     -1.8571428571429                         0                        31      12
      1.8571428571429                         0                        31      12
      5.5714285714286                         0                        31      12
      9.2857142857143                         0                        31      12
                 12.5                       4.6           52.928571428571      14
                 12.5                       4.6           49.357142857143      14
                 12.5                       4.6           45.785714285714      14
                 12.5                       4.6           42.214285714286      14
                 12.5                       4.6           38.642857142857      14
                 12.5                       4.6           35.071428571429      14
      8.9285714285714                       4.6                      31.5      17
      5.3571428571429                       4.6                      31.5      17
      1.7857142857143                       4.6                      31.5      17
     -1.7857142857143                       4.6                      31.5      17
     -5.3571428571429                       4.6                      31.5      17
     -8.9285714285714                       4.6                      31.5      17
                -12.5                       4.6           35.071428571429      19
                -12.5                       4.6           38.642857142857      19
                -12.5                       4.6           42.214285714286      19
                -12.5                       4.6           45.785714285714      19
                -12.5                       4.6           49.357142857143      19
                -12.5                       4.6           52.928571428571      19
     -8.9285714285714                       4.6                      56.5      20
     -5.3571428571428                       4.6                      56.5      20
     -1.7857142857143                       4.6                      56.5      20
      1.7857142857143                       4.6                      56.5      20
      5.3571428571429                       4.6                      56.5      20
      8.9285714285714                       4.6                      56.5      20
       14.51167186439           1.3119056677139           29.488328749516      21
     -14.511653054326           1.3118667823983           29.488347519997      22
     -14.511652480003           1.3118667823984           58.511653054326      23
      14.511671250484           1.3119056677138            58.51167186439      24
     -9.6689607723757                         0           43.998820188433      2
       9.709887521634                         0           44.047390218014      2
   -0.027352052582912                         0           53.799125929436      2
  -0.0007510634797138                         0           34.347000453751      2
     -9.6359816523627                         0           51.087504843501      2
      9.6675667298676                         0           51.007405641176      2
      7.3544563734822                         0           34.173039191585      2
     -7.2849209286478                         0           34.133729130685      2
     -3.6884874671544                         0           53.803492744415      2
     -1.8574018247181                         0             50.5726601365      2
      1.8793387272819                         0           50.682298728314      2
    0.060211948952044                         0           47.402925483506      2
     -3.7426857617337                         0           47.336222478279      2
     -1.8902330845697                         0           44.116261380671      2
      1.9182189425885                         0           44.171963923991      2
   0.0039132461901346                         0           40.918962123892      2
       3.762046997431                         0           40.899143839157      2
     -3.7257408644045                         0           40.886408826029      2
      5.7752510363915                         0            44.14380172096      2
      7.4285714285715                         0           40.916671072575      2
      7.5775479897457                         0           47.567800408465      2
       1.901808765845                         0           37.647393639344      2
       3.794593496955                         0           47.486131957505      2
      5.6371850567598                         0           50.765242156289      2
     -5.5999263379569                         0           50.673062754205      2
     -7.4749771602965                         0           47.433529005029      2
     -3.6912202050248                         0           34.267710193643      2
     -5.5714285714286                         0            37.43333157097      2
     -9.5825393468514                         0           37.052096477624      2
     -7.4285714285714                         0           40.649997356455      2
     -5.6970768430877                         0            44.04778790483      2
     -1.8542957740906                         0           37.636724391563      2
      3.7305593671232                         0           34.378111846978      2
      5.6097985866563                         0           37.551082244941      2
      9.5945517931995                         0           37.112629970622      2
      3.7119388596584                         0           53.869399752045      2
     -7.3159433573351                         0           53.949690394645      2
      7.3538899979204                         0            53.96973169823      2
      10.488082020371                         0           40.285714285714      2
     -10.555983917007                         0           47.589685093107      2
     -10.518177415962                         0           40.329642397197      2
      10.701969808377                         0           47.714285714285      2
     -10.280954143316                         0           54.280954143315      2
      10.280954143316                         0           54.280954143315      2
      10.280954143316                         0           33.719045856684      2
     -10.280954143316                         0           33.719045856684      2
  4.4924753870204E-15                       4.6           34.592947870659      7
 -1.7968151592527E-15                       4.6           53.321504710759      7
     -9.3364303092634                       4.6           43.954432482679      7
       9.262163984195                       4.6           43.945053492558      7
      7.0047316621614                       4.6           34.513201087197      7
     -7.0715926668099                       4.6           53.449000777322      7
      9.2617198921146                       4.6           50.761588069671      7
     -7.1428571428571                       4.6           34.592947870659      7
     -3.6612514039451                       4.6           34.611138864251      7
     -1.8669254490342                       4.6           37.680705019864      7
      1.7721790918276                       4.6           37.685030621075      7
   -0.070171635038904                       4.6           40.746437665121      7
      3.5574774332743                       4.6           40.773298434127      7
      1.7716938235154                       4.6           43.865466295184      7
      -1.854126877425                       4.6           43.833939653678      7
    -0.01373884231828                       4.6           46.957376517226      7
     -3.6206298308238                       4.6           46.980614075429      7
      3.5668020206757                       4.6            46.96245801604      7
     -5.5552864190557                       4.6           43.861447646741      7
     -7.1428571428571                       4.6           46.964739353294      7
     -7.4102242675399                       4.6           40.707194211409      7
     -1.8317136563902                       4.6           50.112630515328      7
     -3.8353431769727                       4.6           40.682469152169      7
      1.7749868250898                       4.6           50.095351221019      7
      5.3787793920442                       4.6           50.240507970184      7
      7.1518837327549                       4.6           47.225471267086      7
     -3.5873971953206                       4.6           53.255568044199      7
      -5.395145304387                       4.6           50.202070672466      7
      3.5563719244489                       4.6             53.2619063516      7
      5.4088130228788                       4.6           43.925098519495      7
      7.1036275370355                       4.6           40.740635559564      7
      5.3230026207165                       4.6            37.66516821899      7
      3.5404617529271                       4.6            34.57605796632      7
      9.2034987351679                       4.6           37.310904168357      7
     -9.2256888849317                       4.6           50.622640927191      7
     -5.5391185844778                       4.6           37.593022959667      7
     -9.3181100665181                       4.6           37.283682639651      7
      7.0309327243657                       4.6           53.517362045884      7
     -10.084694250357                       4.6           47.571428571429      7
      10.135153521813                       4.6           47.414993994434      7
      10.109226430326                       4.6           40.465580952455      7
     -10.290355584977                       4.6           40.428571428571      7
     -9.8855328301112                       4.6           34.114467169889      7
      9.8855328301112                       4.6           34.114467169889      7
      9.8855328301112                       4.6           53.885532830111      7
     -9.8855328301112                       4.6           53.885532830111      7
     -12.026818787643           1.6281181618154           29.358862525322      8
      12.026793757886           1.6281555933588            29.35884880336      8
               -9.375           1.9145479647153           29.263551031524      8
      9.3789001047637           1.9195840272422             29.2620389753      8
     -14.641137474678           1.6281181618158           56.026818787643      9
     -14.641137371399           1.6281178800894           31.973181857846      9
     -14.736448968476           1.9145479647147                    53.375      9
     -14.737950962897           1.9195504562643           34.621099413556      9
       14.64115119664            1.628155593359           56.026793757886      10
      14.641151086245           1.6281552922131           31.973206932087      10
      14.737961024701           1.9195840272426           53.378900104764      10
      14.736459696594           1.9145836330419                    34.625      10
     -12.026818142154           1.6281178800893           58.641137371399      11
      12.026793067913           1.6281552922129           58.641151086245      11
     -9.3789005864444           1.9195504562647           58.737950962897      11
                9.375           1.9145836330441           58.736459696595      11
 Edges
 128
 1 17 1
 17 18 1
 18 19 1
 19 20 1
 20 21 1
 21 22 1
 22 2 1
 3 23 2
 23 24 2
 24 25 2
 25 26 2
 26 27 2
 27 28 2
 28 1 2
 4 29 3
 29 30 3
 30 31 3
 31 32 3
 32 33 3
 33 34 3
 34 3 3
 2 35 4
 35 36 4
 36 37 4
 37 38 4
 38 39 4
 39 40 4
 40 4 4
 5 41 5
 41 42 5
 42 43 5
 43 44 5
 44 45 5
 45 46 5
 46 47 5
 47 6 5
 6 48 6
 48 49 6
 49 50 6
 50 51 6
 51 52 6
 52 53 6
 53 54 6
 54 7 6
 7 55 7
 55 56 7
 56 57 7
 57 58 7
 58 59 7
 59 60 7
 60 61 7
 61 8 7
 8 62 8
 62 63 8
 63 64 8
 64 65 8
 65 66 8
 66 67 8
 67 68 8
 68 5 8
 9 69 9
 69 70 9
 70 71 9
 71 72 9
 72 73 9
 73 74 9
 74 10 9
 10 75 10
 75 76 10
 76 77 10
 77 78 10
 78 79 10
 79 80 10
 80 11 10
 11 81 11
 81 82 11
 82 83 11
 83 84 11
 84 85 11
 85 86 11
 86 12 11
 12 87 12
 87 88 12
 88 89 12
 89 90 12
 90 91 12
 91 92 12
 92 9 12
 13 2 13
 14 93 14
 93 94 14
 94 95 14
 95 96 14
 96 97 14
 97 98 14
 98 13 14
 14 1 15
 15 4 16
 13 99 17
 99 100 17
 100 101 17
 101 102 17
 102 103 17
 103 104 17
 104 15 17
 16 3 18
 15 105 19
 105 106 19
 106 107 19
 107 108 19
 108 109 19
 109 110 19
 110 16 19
 16 111 20
 111 112 20
 112 113 20
 113 114 20
 114 115 20
 115 116 20
 116 14 20
 9 117 21
 117 6 21
 7 118 22
 118 12 22
 8 119 23
 119 11 23
 10 120 24
 120 5 24
 Triangles
 452
 5 41 1 1
 5 1 68 1
 1 41 17 1
 68 1 28 1
 2 47 6 1
 6 48 2 1
 22 47 2 1
 2 48 35 1
 61 8 3 1
 3 8 62 1
 62 23 3 1
 61 3 34 1
 4 54 7 1
 7 55 4 1
 4 55 29 1
 40 54 4 1
 17 42 18 1
 41 42 17 1
 18 43 19 1
 42 43 18 1
 19 44 20 1
 43 44 19 1
 20 45 21 1
 44 45 20 1
 21 46 22 1
 45 46 21 1
 46 47 22 1
 63 24 23 1
 63 23 62 1
 64 25 24 1
 64 24 63 1
 25 65 26 1
 64 65 25 1
 26 66 27 1
 65 66 26 1
 27 67 28 1
 66 67 27 1
 28 67 68 1
 29 56 30 1
 55 56 29 1
 30 57 31 1
 56 57 30 1
 31 58 32 1
 57 58 31 1
 32 59 33 1
 58 59 32 1
 33 60 34 1
 33 59 60 1
 60 61 34 1
 35 49 36 1
 48 49 35 1
 36 50 37 1
 49 50 36 1
 37 51 38 1
 50 51 37 1
 38 52 39 1
 51 52 38 1
 39 53 40 1
 52 53 39 1
 53 54 40 1
 9 69 165 2
 92 9 165 2
 74 10 164 2
 10 75 164 2
 80 11 163 2
 11 81 163 2
 86 12 166 2
 12 87 166 2
 69 70 155 2
 69 155 165 2
 70 71 159 2
 155 70 159 2
 71 72 122 2
 71 122 159 2
 72 73 162 2
 122 72 162 2
 73 74 126 2
 73 126 162 2
 126 74 164 2
 75 76 158 2
 75 158 164 2
 76 77 156 2
 76 156 158 2
 77 78 123 2
 77 123 156 2
 78 79 129 2
 123 78 129 2
 79 80 157 2
 129 79 157 2
 157 80 163 2
 81 82 125 2
 81 125 163 2
 82 83 160 2
 125 82 160 2
 83 84 121 2
 83 121 160 2
 84 85 161 2
 121 84 161 2
 85 86 149 2
 85 149 161 2
 149 86 166 2
 87 88 128 2
 87 128 166 2
 88 89 147 2
 128 88 147 2
 89 90 124 2
 89 124 147 2
 90 91 153 2
 124 90 153 2
 91 92 127 2
 91 127 153 2
 127 92 165 2
 146 121 151 2
 121 146 160 2
 121 150 151 2
 150 121 161 2
 122 139 140 2
 139 122 141 2
 122 140 159 2
 141 122 162 2
 123 129 130 2
 123 130 131 2
 123 131 156 2
 124 142 152 2
 142 124 153 2
 147 124 152 2
 145 125 146 2
 125 145 157 2
 146 125 160 2
 125 157 163 2
 141 126 144 2
 126 141 162 2
 144 126 158 2
 158 126 164 2
 153 127 154 2
 154 127 155 2
 155 127 165 2
 128 147 148 2
 128 148 149 2
 128 149 166 2
 130 129 145 2
 145 129 157 2
 131 130 132 2
 132 130 133 2
 133 130 145 2
 131 132 143 2
 131 143 144 2
 131 144 156 2
 132 133 134 2
 132 134 135 2
 132 135 143 2
 134 133 151 2
 133 145 146 2
 133 146 151 2
 135 134 136 2
 136 134 138 2
 138 134 151 2
 135 136 137 2
 135 137 139 2
 135 139 143 2
 137 136 142 2
 136 138 152 2
 142 136 152 2
 139 137 140 2
 140 137 154 2
 137 142 154 2
 148 138 150 2
 138 148 152 2
 150 138 151 2
 139 141 143 2
 140 154 155 2
 140 155 159 2
 143 141 144 2
 142 153 154 2
 156 144 158 2
 148 147 152 2
 149 148 150 2
 149 150 161 2
 14 1 93 3
 93 1 17 3
 13 22 2 3
 22 13 98 3
 94 17 18 3
 94 93 17 3
 95 18 19 3
 95 94 18 3
 20 95 19 3
 20 21 96 3
 95 20 96 3
 21 22 97 3
 96 21 97 3
 97 22 98 3
 2 99 13 4
 99 2 35 4
 15 40 4 4
 104 40 15 4
 100 35 36 4
 100 99 35 4
 101 36 37 4
 101 100 36 4
 38 101 37 4
 38 39 102 4
 101 38 102 4
 39 40 104 4
 102 39 103 4
 39 104 103 4
 16 34 3 5
 15 4 29 5
 15 29 105 5
 34 16 110 5
 30 106 29 5
 29 106 105 5
 107 30 31 5
 106 30 107 5
 32 107 31 5
 33 108 32 5
 108 107 32 5
 33 34 109 5
 108 33 109 5
 109 34 110 5
 1 14 28 6
 16 3 23 6
 28 14 116 6
 16 23 111 6
 111 23 24 6
 113 24 25 6
 111 24 112 6
 24 113 112 6
 26 113 25 6
 26 27 114 6
 113 26 114 6
 27 28 115 6
 114 27 115 6
 115 28 116 6
 13 210 98 7
 99 210 13 7
 93 211 14 7
 14 211 116 7
 15 209 104 7
 105 209 15 7
 16 212 110 7
 111 212 16 7
 94 173 93 7
 173 211 93 7
 95 206 94 7
 94 206 173 7
 96 170 95 7
 170 206 95 7
 97 207 96 7
 96 207 170 7
 98 200 97 7
 200 207 97 7
 98 210 200 7
 100 171 99 7
 171 210 99 7
 101 199 100 7
 100 199 171 7
 102 167 101 7
 167 199 101 7
 103 175 102 7
 102 175 167 7
 104 174 103 7
 174 175 103 7
 104 209 174 7
 106 203 105 7
 203 209 105 7
 107 208 106 7
 106 208 203 7
 108 169 107 7
 169 208 107 7
 109 205 108 7
 108 205 169 7
 110 201 109 7
 201 205 109 7
 110 212 201 7
 112 172 111 7
 172 212 111 7
 113 193 112 7
 112 193 172 7
 114 168 113 7
 168 193 113 7
 115 195 114 7
 114 195 168 7
 116 204 115 7
 115 204 195 7
 116 211 204 7
 175 176 167 7
 176 177 167 7
 177 199 167 7
 168 190 188 7
 188 193 168 7
 168 195 190 7
 169 186 185 7
 185 187 169 7
 169 205 186 7
 187 208 169 7
 170 196 192 7
 192 206 170 7
 170 197 196 7
 170 207 197 7
 171 199 198 7
 198 200 171 7
 200 210 171 7
 193 194 172 7
 194 201 172 7
 201 212 172 7
 173 192 191 7
 191 204 173 7
 173 206 192 7
 204 211 173 7
 174 202 175 7
 174 203 202 7
 174 209 203 7
 175 202 176 7
 176 178 177 7
 176 189 178 7
 176 202 189 7
 178 179 177 7
 179 198 177 7
 198 199 177 7
 178 180 179 7
 178 181 180 7
 178 189 181 7
 180 196 179 7
 196 197 179 7
 197 198 179 7
 181 182 180 7
 182 184 180 7
 184 196 180 7
 181 183 182 7
 181 185 183 7
 181 189 185 7
 183 188 182 7
 182 190 184 7
 188 190 182 7
 185 186 183 7
 186 194 183 7
 183 194 188 7
 190 191 184 7
 191 192 184 7
 192 196 184 7
 185 189 187 7
 186 201 194 7
 186 205 201 7
 189 202 187 7
 202 203 187 7
 203 208 187 7
 188 194 193 7
 190 195 191 7
 195 204 191 7
 197 200 198 7
 197 207 200 7
 6 214 48 8
 117 214 6 8
 54 213 7 8
 7 213 118 8
 92 214 9 8
 9 214 117 8
 12 213 87 8
 118 213 12 8
 48 216 49 8
 214 216 48 8
 49 91 50 8
 49 216 91 8
 50 90 51 8
 91 90 50 8
 89 52 51 8
 51 90 89 8
 88 53 52 8
 89 88 52 8
 53 215 54 8
 88 215 53 8
 54 215 213 8
 87 215 88 8
 213 215 87 8
 91 216 92 8
 92 216 214 8
 7 218 55 9
 118 218 7 9
 61 217 8 9
 8 217 119 9
 11 217 81 9
 119 217 11 9
 86 218 12 9
 12 218 118 9
 55 220 56 9
 218 220 55 9
 56 85 57 9
 56 220 85 9
 57 84 58 9
 85 84 57 9
 58 83 59 9
 58 84 83 9
 59 82 60 9
 59 83 82 9
 60 219 61 9
 82 219 60 9
 61 219 217 9
 81 219 82 9
 217 219 81 9
 85 220 86 9
 86 220 218 9
 5 221 41 10
 120 221 5 10
 47 222 6 10
 6 222 117 10
 9 222 69 10
 117 222 9 10
 74 221 10 10
 10 221 120 10
 41 223 42 10
 221 223 41 10
 42 73 43 10
 42 223 73 10
 43 72 44 10
 73 72 43 10
 71 45 44 10
 44 72 71 10
 70 46 45 10
 70 45 71 10
 46 224 47 10
 70 224 46 10
 47 224 222 10
 69 224 70 10
 222 224 69 10
 73 223 74 10
 74 223 221 10
 68 226 5 11
 5 226 120 11
 8 225 62 11
 119 225 8 11
 10 226 75 11
 120 226 10 11
 80 225 11 11
 11 225 119 11
 62 227 63 11
 225 227 62 11
 63 79 64 11
 63 227 79 11
 64 78 65 11
 79 78 64 11
 77 66 65 11
 65 78 77 11
 76 67 66 11
 76 66 77 11
 67 228 68 11
 76 228 67 11
 68 228 226 11
 75 228 76 11
 226 228 75 11
 79 227 80 11
 80 227 225 11
 Tetrahedra
 575
 199 177 167 142 1
 177 179 178 136 1
 152 167 176 177 1
 179 177 142 136 1
 152 167 175 176 1
 167 124 199 142 1
 178 152 176 177 1
 177 152 167 142 1
 124 152 167 175 1
 181 182 134 180 1
 188 168 130 190 1
 180 179 137 136 1
 188 183 182 132 1
 134 182 183 132 1
 180 134 181 136 1
 131 130 168 190 1
 135 134 182 180 1
 179 180 178 136 1
 180 179 196 137 1
 185 181 183 134 1
 179 142 137 136 1
 183 188 133 132 1
 168 193 130 123 1
 152 124 147 175 1
 132 188 130 190 1
 180 181 178 136 1
 153 199 124 142 1
 152 124 167 142 1
 199 198 177 142 1
 180 135 134 136 1
 133 134 183 132 1
 179 177 198 142 1
 123 193 130 129 1
 187 185 169 151 1
 181 185 138 134 1
 148 175 202 176 1
 196 135 180 137 1
 138 178 181 136 1
 131 168 123 195 1
 138 152 178 136 1
 135 180 137 136 1
 181 182 183 134 1
 171 199 153 154 1
 198 179 142 137 1
 175 148 152 176 1
 130 131 132 190 1
 151 185 183 134 1
 132 182 190 184 1
 178 189 138 181 1
 132 135 182 184 1
 133 188 194 130 1
 199 171 198 154 1
 123 156 131 195 1
 142 153 199 154 1
 189 185 138 181 1
 199 198 142 154 1
 184 135 182 180 1
 193 194 188 130 1
 147 148 175 174 1
 190 143 132 184 1
 123 130 168 131 1
 134 138 181 136 1
 135 182 134 132 1
 132 182 188 190 1
 199 124 167 37 1
 167 38 124 175 1
 193 188 168 130 1
 193 168 25 123 1
 123 25 193 129 1
 183 151 134 133 1
 130 133 188 132 1
 148 138 152 189 1
 123 168 26 195 1
 180 184 135 196 1
 151 138 185 134 1
 191 143 131 190 1
 203 148 174 202 1
 184 139 135 196 1
 148 175 174 202 1
 156 123 26 195 1
 183 188 194 133 1
 187 150 203 202 1
 148 147 128 174 1
 145 193 172 129 1
 187 169 150 151 1
 131 195 191 190 1
 150 148 203 202 1
 148 152 147 175 1
 195 131 168 190 1
 37 199 124 153 1
 38 147 124 175 1
 179 198 197 137 1
 126 144 158 204 1
 195 156 144 204 1
 135 132 143 184 1
 157 145 172 129 1
 130 193 194 145 1
 143 139 135 184 1
 175 39 147 174 1
 137 142 198 154 1
 196 139 135 137 1
 208 169 150 187 1
 39 128 147 174 1
 143 132 131 190 1
 149 148 128 174 1
 179 197 196 137 1
 187 189 150 202 1
 148 150 189 202 1
 154 127 171 155 1
 153 127 171 154 1
 172 24 157 129 1
 130 194 133 145 1
 141 139 192 170 1
 174 149 148 203 1
 139 141 122 170 1
 139 143 192 184 1
 195 144 131 191 1
 169 150 121 208 1
 171 200 198 154 1
 200 197 198 154 1
 203 161 150 208 1
 145 130 193 129 1
 24 172 193 129 1
 206 122 141 170 1
 169 121 150 151 1
 156 158 144 204 1
 137 198 197 154 1
 161 121 150 208 1
 148 150 138 189 1
 192 206 141 170 1
 204 158 126 211 1
 171 199 36 153 1
 190 191 143 184 1
 151 183 186 133 1
 205 121 169 146 1
 172 125 145 157 1
 184 192 139 196 1
 156 144 131 195 1
 121 161 31 208 1
 140 200 207 159 1
 169 185 186 151 1
 171 200 154 155 1
 183 194 186 133 1
 204 126 144 173 1
 169 121 31 208 1
 158 156 27 204 1
 185 183 186 151 1
 195 27 156 204 1
 143 131 144 191 1
 196 192 139 170 1
 127 171 36 153 1
 193 172 194 145 1
 197 200 140 154 1
 121 205 160 146 1
 121 205 32 160 1
 208 150 203 187 1
 169 186 205 146 1
 173 141 144 191 1
 174 128 149 209 1
 173 162 141 206 1
 207 20 122 159 1
 150 148 149 203 1
 205 169 121 32 1
 137 196 139 140 1
 144 195 204 191 1
 122 20 207 170 1
 197 196 137 140 1
 200 207 197 140 1
 141 162 122 206 1
 172 201 194 145 1
 172 212 125 157 1
 173 144 204 191 1
 146 194 201 145 1
 122 162 19 206 1
 126 204 211 173 1
 201 172 125 145 1
 141 173 192 191 1
 146 186 194 133 1
 191 192 143 184 1
 170 207 122 140 1
 149 174 209 203 1
 126 141 144 173 1
 194 146 133 145 1
 143 141 192 191 1
 140 207 122 159 1
 205 201 160 146 1
 150 149 161 203 1
 139 143 141 192 1
 141 143 144 191 1
 206 19 122 170 1
 30 161 203 208 1
 154 200 140 155 1
 173 18 162 206 1
 140 137 197 154 1
 164 126 158 211 1
 21 207 200 159 1
 126 162 141 173 1
 197 207 170 140 1
 170 122 139 140 1
 199 37 36 153 1
 201 186 194 146 1
 201 33 205 160 1
 166 149 128 209 1
 186 146 151 133 1
 141 173 206 192 1
 167 124 38 37 1
 25 24 193 129 1
 200 140 155 159 1
 26 25 168 123 1
 201 125 146 145 1
 174 39 128 40 1
 125 212 163 157 1
 172 212 201 125 1
 35 171 36 127 1
 38 39 147 175 1
 156 26 27 195 1
 128 174 40 209 1
 155 127 210 165 1
 201 125 160 146 1
 126 18 162 173 1
 24 23 172 157 1
 203 149 161 30 1
 23 212 172 157 1
 17 126 164 211 1
 171 35 210 127 1
 169 31 121 32 1
 29 149 166 209 1
 158 27 28 204 1
 201 205 186 146 1
 33 201 125 160 1
 40 166 128 209 1
 204 28 158 211 1
 209 29 149 203 1
 155 210 22 165 1
 212 23 163 157 1
 19 20 122 170 1
 203 29 149 30 1
 127 35 210 165 1
 164 158 28 211 1
 211 17 126 173 1
 163 34 212 125 1
 155 21 200 159 1
 124 89 38 37 1
 212 23 3 163 1
 34 212 3 163 1
 29 166 4 209 1
 40 4 166 209 1
 22 200 210 155 1
 17 18 126 173 1
 80 3 23 163 1
 166 87 4 40 1
 123 26 25 77 1
 28 1 164 211 1
 164 1 17 211 1
 2 210 35 165 1
 2 22 210 165 1
 90 36 37 153 1
 1 28 164 75 1
 35 2 165 92 1
 22 21 200 155 1
 129 25 24 78 1
 33 201 34 125 1
 32 31 121 83 1
 201 212 34 125 1
 225 11 3 80 1
 87 12 4 213 1
 147 89 39 38 1
 11 3 80 163 1
 20 19 122 71 1
 87 4 12 166 1
 81 34 3 163 1
 77 26 27 156 1
 75 10 1 226 1
 214 9 2 92 1
 164 10 1 75 1
 165 2 9 92 1
 21 20 207 159 1
 161 30 31 208 1
 164 17 1 74 1
 33 32 205 160 1
 86 166 4 29 1
 18 19 162 206 1
 88 128 39 40 1
 90 37 124 153 1
 225 3 23 80 1
 4 87 213 40 1
 127 36 35 91 1
 73 17 18 126 1
 24 23 157 79 1
 29 85 149 30 1
 129 123 25 78 1
 22 2 69 165 1
 2 35 214 92 1
 3 11 217 81 1
 76 27 28 158 1
 77 123 26 156 1
 3 11 81 163 1
 89 147 124 38 1
 125 34 33 82 1
 74 1 10 221 1
 128 88 87 40 1
 86 4 12 218 1
 22 21 155 70 1
 164 1 10 74 1
 91 35 127 92 1
 24 157 129 79 1
 166 4 12 86 1
 157 23 80 79 1
 91 127 36 153 1
 87 166 128 40 1
 217 34 3 81 1
 147 88 128 39 1
 222 2 9 69 1
 28 76 158 75 1
 69 2 9 165 1
 27 76 156 158 1
 164 126 17 74 1
 23 80 163 157 1
 165 127 35 92 1
 30 84 161 31 1
 86 4 218 29 1
 166 86 149 29 1
 32 33 83 160 1
 124 89 37 90 1
 164 28 158 75 1
 126 73 17 74 1
 19 18 162 72 1
 21 20 159 71 1
 78 123 25 77 1
 69 155 22 165 1
 163 81 34 125 1
 86 85 149 29 1
 121 161 84 31 1
 125 81 34 82 1
 31 84 121 83 1
 159 20 122 71 1
 83 121 32 160 1
 90 91 36 153 1
 72 122 19 71 1
 122 19 162 72 1
 70 155 22 69 1
 78 24 129 79 1
 147 89 88 39 1
 77 27 76 156 1
 33 125 82 160 1
 44 19 20 71 1
 38 89 51 37 1
 77 26 25 65 1
 58 31 32 83 1
 18 162 73 126 1
 85 161 149 30 1
 225 23 227 80 1
 35 216 214 92 1
 215 213 87 40 1
 19 18 72 43 1
 36 37 50 90 1
 64 24 25 78 1
 57 84 30 31 1
 59 32 33 83 1
 52 39 89 38 1
 27 26 77 66 1
 20 21 45 71 1
 33 82 83 160 1
 85 84 161 30 1
 159 155 21 70 1
 71 159 21 70 1
 217 219 34 81 1
 18 162 72 73 1
 73 18 17 42 1
 60 33 34 82 1
 36 49 35 91 1
 53 88 39 40 1
 30 29 85 56 1
 63 23 24 79 1
 76 28 27 67 1
 46 21 22 70 1
 28 76 75 228 1
 80 23 227 79 1
 216 35 91 92 1
 215 87 88 40 1
 218 220 86 29 1
 81 219 34 82 1
 74 73 17 223 1
 44 72 19 71 1
 37 89 51 90 1
 25 78 77 65 1
 31 58 84 83 1
 85 86 220 29 1
 70 22 224 69 1
 91 36 50 90 1
 73 72 18 43 1
 85 84 30 57 1
 64 24 78 79 1
 39 89 88 52 1
 82 59 33 83 1
 71 21 45 70 1
 77 76 27 66 1
 8 3 225 119 1
 7 4 218 118 1
 3 8 217 119 1
 4 7 213 118 1
 120 5 1 226 1
 117 6 2 222 1
 2 6 117 214 1
 1 5 120 221 1
 24 113 25 193 1
 219 60 34 82 1
 215 88 53 40 1
 224 46 22 70 1
 28 76 228 67 1
 29 220 85 56 1
 23 63 227 79 1
 216 35 49 91 1
 223 73 17 42 1
 27 114 195 26 1
 25 168 193 113 1
 25 64 78 65 1
 57 58 84 31 1
 51 50 37 90 1
 43 72 19 44 1
 97 22 21 200 1
 114 27 195 115 1
 24 113 193 112 1
 25 26 168 113 1
 167 102 38 175 1
 39 174 103 104 1
 44 20 45 71 1
 51 52 89 38 1
 65 77 26 66 1
 32 59 58 83 1
 101 36 199 37 1
 175 102 39 103 1
 63 24 64 79 1
 56 85 30 57 1
 46 45 21 70 1
 50 49 36 91 1
 67 27 76 66 1
 53 39 88 52 1
 42 73 18 43 1
 33 60 59 82 1
 32 107 169 31 1
 26 168 114 195 1
 95 20 19 170 1
 101 199 167 37 1
 39 174 104 40 1
 101 167 38 37 1
 26 168 113 114 1
 29 106 30 203 1
 36 101 199 100 1
 39 38 102 175 1
 107 32 169 108 1
 34 109 201 33 1
 174 175 39 103 1
 95 20 170 96 1
 38 102 167 101 1
 225 3 217 119 1
 213 218 4 118 1
 94 17 173 18 1
 35 99 100 171 1
 171 100 35 36 1
 200 97 22 98 1
 111 24 23 172 1
 172 112 24 193 1
 1 120 226 221 1
 214 117 2 222 1
 112 24 111 172 1
 100 171 199 36 1
 29 106 203 105 1
 115 28 204 116 1
 204 195 27 115 1
 17 94 173 93 1
 22 2 47 224 1
 1 28 228 68 1
 204 27 28 115 1
 109 34 201 110 1
 223 17 1 41 1
 222 47 2 224 1
 228 226 1 68 1
 1 221 223 41 1
 169 205 108 32 1
 62 8 3 225 1
 218 4 7 55 1
 7 4 213 54 1
 3 8 61 217 1
 23 3 16 212 1
 15 40 209 4 1
 28 14 211 116 1
 15 29 4 209 1
 212 3 16 34 1
 31 107 169 208 1
 206 95 19 170 1
 5 1 226 68 1
 47 2 6 222 1
 6 2 48 214 1
 221 1 5 41 1
 99 2 210 35 1
 20 207 170 96 1
 16 23 212 111 1
 14 28 211 1 1
 40 15 209 104 1
 2 99 210 13 1
 13 2 22 210 1
 226 120 10 221 1
 9 117 214 222 1
 225 217 11 119 1
 12 218 213 118 1
 93 17 1 211 1
 15 29 209 105 1
 1 14 93 211 1
 22 13 210 98 1
 210 200 22 98 1
 110 212 16 34 1
 201 212 110 34 1
 209 105 29 203 1
 18 173 94 206 1
 217 11 3 225 1
 218 4 12 213 1
 226 10 1 221 1
 214 2 9 222 1
 211 93 17 173 1
 18 95 19 206 1
 96 21 20 207 1
 96 21 207 97 1
 21 207 97 200 1
 108 33 205 109 1
 108 33 32 205 1
 18 95 206 94 1
 107 30 208 31 1
 99 35 210 171 1
 203 106 30 208 1
 30 107 208 106 1
 174 104 40 209 1
 116 28 204 211 1
 23 212 111 172 1
 109 33 205 201 1
 54 215 53 40 1
 60 34 61 219 1
 47 46 22 224 1
 67 228 28 68 1
 220 29 55 56 1
 63 62 23 227 1
 49 48 35 216 1
 41 223 17 42 1
 177 136 152 142 1
 152 136 177 178 1
 189 152 178 138 1
 189 178 152 176 1
 171 155 210 200 1
 210 155 171 127 1
 176 148 189 202 1
 176 189 148 152 1
 140 196 170 197 1
 140 170 196 139 1
 151 187 138 150 1
 151 138 187 185 1
 189 138 187 150 1
 189 187 138 185 1
 169 146 151 186 1
 151 146 169 121 1
 29 218 55 4 1
 29 55 218 220 1
 225 23 62 227 1
 225 62 23 3 1
 40 213 54 215 1
 40 54 213 4 1
 34 217 61 219 1
 61 217 34 3 1
 223 1 74 221 1
 223 74 1 17 1
 35 214 48 2 1
 48 214 35 216 1
 224 2 69 22 1
 224 69 2 222 1
 228 1 75 28 1
 228 75 1 226 1
 End
