# Tetrahedral mesh generated using

# 228 vertices
v                  12.5                       3.8                      56.5      1
v                  12.5                       3.8                      31.5      2
v                 -12.5                       3.8                      56.5      3
v                 -12.5                       3.8                      31.5      4
v                    15                       3.8                        59      5
v                    15                       3.8                        29      6
v                   -15                       3.8                        29      7
v                   -15                       3.8                        59      8
v                    13                         0                        31      9
v                    13                         0                        57      10
v                   -13                         0                        57      11
v                   -13                         0                        31      12
v                  12.5                       4.6                      31.5      13
v                  12.5                       4.6                      56.5      14
v                 -12.5                       4.6                      31.5      15
v                 -12.5                       4.6                      56.5      16
v                  12.5                       3.8           52.928571428571      1
v                  12.5                       3.8           49.357142857143      1
v                  12.5                       3.8           45.785714285714      1
v                  12.5                       3.8           42.214285714286      1
v                  12.5                       3.8           38.642857142857      1
v                  12.5                       3.8           35.071428571429      1
v      -8.9285714285714                       3.8                      56.5      2
v      -5.3571428571428                       3.8                      56.5      2
v      -1.7857142857143                       3.8                      56.5      2
v       1.7857142857143                       3.8                      56.5      2
v       5.3571428571429                       3.8                      56.5      2
v       8.9285714285714                       3.8                      56.5      2
v                 -12.5                       3.8           35.071428571429      3
v                 -12.5                       3.8           38.642857142857      3
v                 -12.5                       3.8           42.214285714286      3
v                 -12.5                       3.8           45.785714285714      3
v                 -12.5                       3.8           49.357142857143      3
v                 -12.5                       3.8           52.928571428571      3
v       8.9285714285714                       3.8                      31.5      4
v       5.3571428571429                       3.8                      31.5      4
v       1.7857142857143                       3.8                      31.5      4
v      -1.7857142857143                       3.8                      31.5      4
v      -5.3571428571429                       3.8                      31.5      4
v      -8.9285714285714                       3.8                      31.5      4
v                    15                       3.8                     55.25      5
v                    15                       3.8                      51.5      5
v                    15                       3.8                     47.75      5
v                    15                       3.8                        44      5
v                    15                       3.8                     40.25      5
v                    15                       3.8                      36.5      5
v                    15                       3.8                     32.75      5
v                 11.25                       3.8                        29      6
v                   7.5                       3.8                        29      6
v                  3.75                       3.8                        29      6
v  -4.1300296516056E-14                       3.8                        29      6
v                 -3.75                       3.8                        29      6
v                  -7.5                       3.8                        29      6
v                -11.25                       3.8                        29      6
v                   -15                       3.8                     32.75      7
v                   -15                       3.8                      36.5      7
v                   -15                       3.8                     40.25      7
v                   -15                       3.8                        44      7
v                   -15                       3.8                     47.75      7
v                   -15                       3.8                      51.5      7
v                   -15                       3.8                     55.25      7
v                -11.25                       3.8                        59      8
v                  -7.5                       3.8                        59      8
v                 -3.75                       3.8                        59      8
v   6.2616578588859E-14                       3.8                        59      8
v       3.7500000000001                       3.8                        59      8
v                   7.5                       3.8                        59      8
v                 11.25                       3.8                        59      8
v                    13                         0           34.714285714286      9
v                    13                         0           38.428571428571      9
v                    13                         0           42.142857142857      9
v                    13                         0           45.857142857143      9
v                    13                         0           49.571428571428      9
v                    13                         0           53.285714285714      9
v       9.2857142857143                         0                        57      10
v       5.5714285714286                         0                        57      10
v       1.8571428571429                         0                        57      10
v      -1.8571428571429                         0                        57      10
v      -5.5714285714286                         0                        57      10
v      -9.2857142857143                         0                        57      10
v                   -13                         0           53.285714285714      11
v                   -13                         0           49.571428571428      11
v                   -13                         0           45.857142857143      11
v                   -13                         0           42.142857142857      11
v                   -13                         0           38.428571428571      11
v                   -13                         0           34.714285714286      11
v      -9.2857142857143                         0                        31      12
v      -5.5714285714286                         0                        31      12
v      -1.8571428571429                         0                        31      12
v       1.8571428571429                         0                        31      12
v       5.5714285714286                         0                        31      12
v       9.2857142857143                         0                        31      12
v                  12.5                       4.6           52.928571428571      14
v                  12.5                       4.6           49.357142857143      14
v                  12.5                       4.6           45.785714285714      14
v                  12.5                       4.6           42.214285714286      14
v                  12.5                       4.6           38.642857142857      14
v                  12.5                       4.6           35.071428571429      14
v       8.9285714285714                       4.6                      31.5      17
v       5.3571428571429                       4.6                      31.5      17
v       1.7857142857143                       4.6                      31.5      17
v      -1.7857142857143                       4.6                      31.5      17
v      -5.3571428571429                       4.6                      31.5      17
v      -8.9285714285714                       4.6                      31.5      17
v                 -12.5                       4.6           35.071428571429      19
v                 -12.5                       4.6           38.642857142857      19
v                 -12.5                       4.6           42.214285714286      19
v                 -12.5                       4.6           45.785714285714      19
v                 -12.5                       4.6           49.357142857143      19
v                 -12.5                       4.6           52.928571428571      19
v      -8.9285714285714                       4.6                      56.5      20
v      -5.3571428571428                       4.6                      56.5      20
v      -1.7857142857143                       4.6                      56.5      20
v       1.7857142857143                       4.6                      56.5      20
v       5.3571428571429                       4.6                      56.5      20
v       8.9285714285714                       4.6                      56.5      20
v        14.51167186439           1.3119056677139           29.488328749516      21
v      -14.511653054326           1.3118667823983           29.488347519997      22
v      -14.511652480003           1.3118667823984           58.511653054326      23
v       14.511671250484           1.3119056677138            58.51167186439      24
v      -9.6689607723757                         0           43.998820188433      2
v        9.709887521634                         0           44.047390218014      2
v    -0.027352052582912                         0           53.799125929436      2
v   -0.0007510634797138                         0           34.347000453751      2
v      -9.6359816523627                         0           51.087504843501      2
v       9.6675667298676                         0           51.007405641176      2
v       7.3544563734822                         0           34.173039191585      2
v      -7.2849209286478                         0           34.133729130685      2
v      -3.6884874671544                         0           53.803492744415      2
v      -1.8574018247181                         0             50.5726601365      2
v       1.8793387272819                         0           50.682298728314      2
v     0.060211948952044                         0           47.402925483506      2
v      -3.7426857617337                         0           47.336222478279      2
v      -1.8902330845697                         0           44.116261380671      2
v       1.9182189425885                         0           44.171963923991      2
v    0.0039132461901346                         0           40.918962123892      2
v        3.762046997431                         0           40.899143839157      2
v      -3.7257408644045                         0           40.886408826029      2
v       5.7752510363915                         0            44.14380172096      2
v       7.4285714285715                         0           40.916671072575      2
v       7.5775479897457                         0           47.567800408465      2
v        1.901808765845                         0           37.647393639344      2
v        3.794593496955                         0           47.486131957505      2
v       5.6371850567598                         0           50.765242156289      2
v      -5.5999263379569                         0           50.673062754205      2
v      -7.4749771602965                         0           47.433529005029      2
v      -3.6912202050248                         0           34.267710193643      2
v      -5.5714285714286                         0            37.43333157097      2
v      -9.5825393468514                         0           37.052096477624      2
v      -7.4285714285714                         0           40.649997356455      2
v      -5.6970768430877                         0            44.04778790483      2
v      -1.8542957740906                         0           37.636724391563      2
v       3.7305593671232                         0           34.378111846978      2
v       5.6097985866563                         0           37.551082244941      2
v       9.5945517931995                         0           37.112629970622      2
v       3.7119388596584                         0           53.869399752045      2
v      -7.3159433573351                         0           53.949690394645      2
v       7.3538899979204                         0            53.96973169823      2
v       10.488082020371                         0           40.285714285714      2
v      -10.555983917007                         0           47.589685093107      2
v      -10.518177415962                         0           40.329642397197      2
v       10.701969808377                         0           47.714285714285      2
v      -10.280954143316                         0           54.280954143315      2
v       10.280954143316                         0           54.280954143315      2
v       10.280954143316                         0           33.719045856684      2
v      -10.280954143316                         0           33.719045856684      2
v   4.4924753870204E-15                       4.6           34.592947870659      7
v  -1.7968151592527E-15                       4.6           53.321504710759      7
v      -9.3364303092634                       4.6           43.954432482679      7
v        9.262163984195                       4.6           43.945053492558      7
v       7.0047316621614                       4.6           34.513201087197      7
v      -7.0715926668099                       4.6           53.449000777322      7
v       9.2617198921146                       4.6           50.761588069671      7
v      -7.1428571428571                       4.6           34.592947870659      7
v      -3.6612514039451                       4.6           34.611138864251      7
v      -1.8669254490342                       4.6           37.680705019864      7
v       1.7721790918276                       4.6           37.685030621075      7
v    -0.070171635038904                       4.6           40.746437665121      7
v       3.5574774332743                       4.6           40.773298434127      7
v       1.7716938235154                       4.6           43.865466295184      7
v       -1.854126877425                       4.6           43.833939653678      7
v     -0.01373884231828                       4.6           46.957376517226      7
v      -3.6206298308238                       4.6           46.980614075429      7
v       3.5668020206757                       4.6            46.96245801604      7
v      -5.5552864190557                       4.6           43.861447646741      7
v      -7.1428571428571                       4.6           46.964739353294      7
v      -7.4102242675399                       4.6           40.707194211409      7
v      -1.8317136563902                       4.6           50.112630515328      7
v      -3.8353431769727                       4.6           40.682469152169      7
v       1.7749868250898                       4.6           50.095351221019      7
v       5.3787793920442                       4.6           50.240507970184      7
v       7.1518837327549                       4.6           47.225471267086      7
v      -3.5873971953206                       4.6           53.255568044199      7
v       -5.395145304387                       4.6           50.202070672466      7
v       3.5563719244489                       4.6             53.2619063516      7
v       5.4088130228788                       4.6           43.925098519495      7
v       7.1036275370355                       4.6           40.740635559564      7
v       5.3230026207165                       4.6            37.66516821899      7
v       3.5404617529271                       4.6            34.57605796632      7
v       9.2034987351679                       4.6           37.310904168357      7
v      -9.2256888849317                       4.6           50.622640927191      7
v      -5.5391185844778                       4.6           37.593022959667      7
v      -9.3181100665181                       4.6           37.283682639651      7
v       7.0309327243657                       4.6           53.517362045884      7
v      -10.084694250357                       4.6           47.571428571429      7
v       10.135153521813                       4.6           47.414993994434      7
v       10.109226430326                       4.6           40.465580952455      7
v      -10.290355584977                       4.6           40.428571428571      7
v      -9.8855328301112                       4.6           34.114467169889      7
v       9.8855328301112                       4.6           34.114467169889      7
v       9.8855328301112                       4.6           53.885532830111      7
v      -9.8855328301112                       4.6           53.885532830111      7
v      -12.026818787643           1.6281181618154           29.358862525322      8
v       12.026793757886           1.6281555933588            29.35884880336      8
v                -9.375           1.9145479647153           29.263551031524      8
v       9.3789001047637           1.9195840272422             29.2620389753      8
v      -14.641137474678           1.6281181618158           56.026818787643      9
v      -14.641137371399           1.6281178800894           31.973181857846      9
v      -14.736448968476           1.9145479647147                    53.375      9
v      -14.737950962897           1.9195504562643           34.621099413556      9
v        14.64115119664            1.628155593359           56.026793757886      10
v       14.641151086245           1.6281552922131           31.973206932087      10
v       14.737961024701           1.9195840272426           53.378900104764      10
v       14.736459696594           1.9145836330419                    34.625      10
v      -12.026818142154           1.6281178800893           58.641137371399      11
v       12.026793067913           1.6281552922129           58.641151086245      11
v      -9.3789005864444           1.9195504562647           58.737950962897      11
v                 9.375           1.9145836330441           58.736459696595      11

# 575 tetrahedra
t 198 176 166 141 0
t 176 178 177 135 0
t 151 166 175 176 0
t 178 176 141 135 0
t 151 166 174 175 0
t 166 123 198 141 0
t 177 151 175 176 0
t 176 151 166 141 0
t 123 151 166 174 0
t 180 181 133 179 0
t 187 167 129 189 0
t 179 178 136 135 0
t 187 182 181 131 0
t 133 181 182 131 0
t 179 133 180 135 0
t 130 129 167 189 0
t 134 133 181 179 0
t 178 179 177 135 0
t 179 178 195 136 0
t 184 180 182 133 0
t 178 141 136 135 0
t 182 187 132 131 0
t 167 192 129 122 0
t 151 123 146 174 0
t 131 187 129 189 0
t 179 180 177 135 0
t 152 198 123 141 0
t 151 123 166 141 0
t 198 197 176 141 0
t 179 134 133 135 0
t 132 133 182 131 0
t 178 176 197 141 0
t 122 192 129 128 0
t 186 184 168 150 0
t 180 184 137 133 0
t 147 174 201 175 0
t 195 134 179 136 0
t 137 177 180 135 0
t 130 167 122 194 0
t 137 151 177 135 0
t 134 179 136 135 0
t 180 181 182 133 0
t 170 198 152 153 0
t 197 178 141 136 0
t 174 147 151 175 0
t 129 130 131 189 0
t 150 184 182 133 0
t 131 181 189 183 0
t 177 188 137 180 0
t 131 134 181 183 0
t 132 187 193 129 0
t 198 170 197 153 0
t 122 155 130 194 0
t 141 152 198 153 0
t 188 184 137 180 0
t 198 197 141 153 0
t 183 134 181 179 0
t 192 193 187 129 0
t 146 147 174 173 0
t 189 142 131 183 0
t 122 129 167 130 0
t 133 137 180 135 0
t 134 181 133 131 0
t 131 181 187 189 0
t 198 123 166 36 0
t 166 37 123 174 0
t 192 187 167 129 0
t 192 167 24 122 0
t 122 24 192 128 0
t 182 150 133 132 0
t 129 132 187 131 0
t 147 137 151 188 0
t 122 167 25 194 0
t 179 183 134 195 0
t 150 137 184 133 0
t 190 142 130 189 0
t 202 147 173 201 0
t 183 138 134 195 0
t 147 174 173 201 0
t 155 122 25 194 0
t 182 187 193 132 0
t 186 149 202 201 0
t 147 146 127 173 0
t 144 192 171 128 0
t 186 168 149 150 0
t 130 194 190 189 0
t 149 147 202 201 0
t 147 151 146 174 0
t 194 130 167 189 0
t 36 198 123 152 0
t 37 146 123 174 0
t 178 197 196 136 0
t 125 143 157 203 0
t 194 155 143 203 0
t 134 131 142 183 0
t 156 144 171 128 0
t 129 192 193 144 0
t 142 138 134 183 0
t 174 38 146 173 0
t 136 141 197 153 0
t 195 138 134 136 0
t 207 168 149 186 0
t 38 127 146 173 0
t 142 131 130 189 0
t 148 147 127 173 0
t 178 196 195 136 0
t 186 188 149 201 0
t 147 149 188 201 0
t 153 126 170 154 0
t 152 126 170 153 0
t 171 23 156 128 0
t 129 193 132 144 0
t 140 138 191 169 0
t 173 148 147 202 0
t 138 140 121 169 0
t 138 142 191 183 0
t 194 143 130 190 0
t 168 149 120 207 0
t 170 199 197 153 0
t 199 196 197 153 0
t 202 160 149 207 0
t 144 129 192 128 0
t 23 171 192 128 0
t 205 121 140 169 0
t 168 120 149 150 0
t 155 157 143 203 0
t 136 197 196 153 0
t 160 120 149 207 0
t 147 149 137 188 0
t 191 205 140 169 0
t 203 157 125 210 0
t 170 198 35 152 0
t 189 190 142 183 0
t 150 182 185 132 0
t 204 120 168 145 0
t 171 124 144 156 0
t 183 191 138 195 0
t 155 143 130 194 0
t 120 160 30 207 0
t 139 199 206 158 0
t 168 184 185 150 0
t 170 199 153 154 0
t 182 193 185 132 0
t 203 125 143 172 0
t 168 120 30 207 0
t 157 155 26 203 0
t 184 182 185 150 0
t 194 26 155 203 0
t 142 130 143 190 0
t 195 191 138 169 0
t 126 170 35 152 0
t 192 171 193 144 0
t 196 199 139 153 0
t 120 204 159 145 0
t 120 204 31 159 0
t 207 149 202 186 0
t 168 185 204 145 0
t 172 140 143 190 0
t 173 127 148 208 0
t 172 161 140 205 0
t 206 19 121 158 0
t 149 147 148 202 0
t 204 168 120 31 0
t 136 195 138 139 0
t 143 194 203 190 0
t 121 19 206 169 0
t 196 195 136 139 0
t 199 206 196 139 0
t 140 161 121 205 0
t 171 200 193 144 0
t 171 211 124 156 0
t 172 143 203 190 0
t 145 193 200 144 0
t 121 161 18 205 0
t 125 203 210 172 0
t 200 171 124 144 0
t 140 172 191 190 0
t 145 185 193 132 0
t 190 191 142 183 0
t 169 206 121 139 0
t 148 173 208 202 0
t 125 140 143 172 0
t 193 145 132 144 0
t 142 140 191 190 0
t 139 206 121 158 0
t 204 200 159 145 0
t 149 148 160 202 0
t 138 142 140 191 0
t 140 142 143 190 0
t 205 18 121 169 0
t 29 160 202 207 0
t 153 199 139 154 0
t 172 17 161 205 0
t 139 136 196 153 0
t 163 125 157 210 0
t 20 206 199 158 0
t 125 161 140 172 0
t 196 206 169 139 0
t 169 121 138 139 0
t 198 36 35 152 0
t 200 185 193 145 0
t 200 32 204 159 0
t 165 148 127 208 0
t 185 145 150 132 0
t 140 172 205 191 0
t 166 123 37 36 0
t 24 23 192 128 0
t 199 139 154 158 0
t 25 24 167 122 0
t 200 124 145 144 0
t 173 38 127 39 0
t 124 211 162 156 0
t 171 211 200 124 0
t 34 170 35 126 0
t 37 38 146 174 0
t 155 25 26 194 0
t 127 173 39 208 0
t 154 126 209 164 0
t 200 124 159 145 0
t 125 17 161 172 0
t 23 22 171 156 0
t 202 148 160 29 0
t 22 211 171 156 0
t 16 125 163 210 0
t 170 34 209 126 0
t 168 30 120 31 0
t 28 148 165 208 0
t 157 26 27 203 0
t 200 204 185 145 0
t 32 200 124 159 0
t 39 165 127 208 0
t 203 27 157 210 0
t 208 28 148 202 0
t 154 209 21 164 0
t 211 22 162 156 0
t 18 19 121 169 0
t 202 28 148 29 0
t 126 34 209 164 0
t 163 157 27 210 0
t 210 16 125 172 0
t 162 33 211 124 0
t 154 20 199 158 0
t 123 88 37 36 0
t 211 22 2 162 0
t 33 211 2 162 0
t 28 165 3 208 0
t 39 3 165 208 0
t 21 199 209 154 0
t 16 17 125 172 0
t 79 2 22 162 0
t 165 86 3 39 0
t 122 25 24 76 0
t 27 0 163 210 0
t 163 0 16 210 0
t 1 209 34 164 0
t 1 21 209 164 0
t 89 35 36 152 0
t 0 27 163 74 0
t 34 1 164 91 0
t 21 20 199 154 0
t 128 24 23 77 0
t 32 200 33 124 0
t 31 30 120 82 0
t 200 211 33 124 0
t 224 10 2 79 0
t 86 11 3 212 0
t 146 88 38 37 0
t 10 2 79 162 0
t 19 18 121 70 0
t 86 3 11 165 0
t 80 33 2 162 0
t 76 25 26 155 0
t 74 9 0 225 0
t 213 8 1 91 0
t 163 9 0 74 0
t 164 1 8 91 0
t 20 19 206 158 0
t 160 29 30 207 0
t 163 16 0 73 0
t 32 31 204 159 0
t 85 165 3 28 0
t 17 18 161 205 0
t 87 127 38 39 0
t 89 36 123 152 0
t 224 2 22 79 0
t 3 86 212 39 0
t 126 35 34 90 0
t 72 16 17 125 0
t 23 22 156 78 0
t 28 84 148 29 0
t 128 122 24 77 0
t 21 1 68 164 0
t 1 34 213 91 0
t 2 10 216 80 0
t 75 26 27 157 0
t 76 122 25 155 0
t 2 10 80 162 0
t 88 146 123 37 0
t 124 33 32 81 0
t 73 0 9 220 0
t 127 87 86 39 0
t 85 3 11 217 0
t 21 20 154 69 0
t 163 0 9 73 0
t 90 34 126 91 0
t 23 156 128 78 0
t 165 3 11 85 0
t 156 22 79 78 0
t 90 126 35 152 0
t 86 165 127 39 0
t 216 33 2 80 0
t 146 87 127 38 0
t 221 1 8 68 0
t 27 75 157 74 0
t 68 1 8 164 0
t 26 75 155 157 0
t 163 125 16 73 0
t 22 79 162 156 0
t 164 126 34 91 0
t 29 83 160 30 0
t 85 3 217 28 0
t 165 85 148 28 0
t 31 32 82 159 0
t 123 88 36 89 0
t 163 27 157 74 0
t 125 72 16 73 0
t 18 17 161 71 0
t 20 19 158 70 0
t 77 122 24 76 0
t 68 154 21 164 0
t 162 80 33 124 0
t 85 84 148 28 0
t 120 160 83 30 0
t 124 80 33 81 0
t 30 83 120 82 0
t 158 19 121 70 0
t 82 120 31 159 0
t 89 90 35 152 0
t 71 121 18 70 0
t 121 18 161 71 0
t 69 154 21 68 0
t 77 23 128 78 0
t 146 88 87 38 0
t 76 26 75 155 0
t 32 124 81 159 0
t 43 18 19 70 0
t 37 88 50 36 0
t 76 25 24 64 0
t 57 30 31 82 0
t 17 161 72 125 0
t 84 160 148 29 0
t 224 22 226 79 0
t 34 215 213 91 0
t 214 212 86 39 0
t 18 17 71 42 0
t 35 36 49 89 0
t 63 23 24 77 0
t 56 83 29 30 0
t 58 31 32 82 0
t 51 38 88 37 0
t 26 25 76 65 0
t 19 20 44 70 0
t 32 81 82 159 0
t 84 83 160 29 0
t 158 154 20 69 0
t 70 158 20 69 0
t 216 218 33 80 0
t 17 161 71 72 0
t 72 17 16 41 0
t 59 32 33 81 0
t 35 48 34 90 0
t 52 87 38 39 0
t 29 28 84 55 0
t 62 22 23 78 0
t 75 27 26 66 0
t 45 20 21 69 0
t 27 75 74 227 0
t 79 22 226 78 0
t 215 34 90 91 0
t 214 86 87 39 0
t 217 219 85 28 0
t 80 218 33 81 0
t 73 72 16 222 0
t 43 71 18 70 0
t 36 88 50 89 0
t 24 77 76 64 0
t 30 57 83 82 0
t 84 85 219 28 0
t 69 21 223 68 0
t 90 35 49 89 0
t 72 71 17 42 0
t 84 83 29 56 0
t 63 23 77 78 0
t 38 88 87 51 0
t 81 58 32 82 0
t 70 20 44 69 0
t 76 75 26 65 0
t 7 2 224 118 0
t 6 3 217 117 0
t 2 7 216 118 0
t 3 6 212 117 0
t 119 4 0 225 0
t 116 5 1 221 0
t 1 5 116 213 0
t 0 4 119 220 0
t 23 112 24 192 0
t 218 59 33 81 0
t 214 87 52 39 0
t 223 45 21 69 0
t 27 75 227 66 0
t 28 219 84 55 0
t 22 62 226 78 0
t 215 34 48 90 0
t 222 72 16 41 0
t 26 113 194 25 0
t 24 167 192 112 0
t 24 63 77 64 0
t 56 57 83 30 0
t 50 49 36 89 0
t 42 71 18 43 0
t 96 21 20 199 0
t 113 26 194 114 0
t 23 112 192 111 0
t 24 25 167 112 0
t 166 101 37 174 0
t 38 173 102 103 0
t 43 19 44 70 0
t 50 51 88 37 0
t 64 76 25 65 0
t 31 58 57 82 0
t 100 35 198 36 0
t 174 101 38 102 0
t 62 23 63 78 0
t 55 84 29 56 0
t 45 44 20 69 0
t 49 48 35 90 0
t 66 26 75 65 0
t 52 38 87 51 0
t 41 72 17 42 0
t 32 59 58 81 0
t 31 106 168 30 0
t 25 167 113 194 0
t 94 19 18 169 0
t 100 198 166 36 0
t 38 173 103 39 0
t 100 166 37 36 0
t 25 167 112 113 0
t 28 105 29 202 0
t 35 100 198 99 0
t 38 37 101 174 0
t 106 31 168 107 0
t 33 108 200 32 0
t 173 174 38 102 0
t 94 19 169 95 0
t 37 101 166 100 0
t 224 2 216 118 0
t 212 217 3 117 0
t 93 16 172 17 0
t 34 98 99 170 0
t 170 99 34 35 0
t 199 96 21 97 0
t 110 23 22 171 0
t 171 111 23 192 0
t 0 119 225 220 0
t 213 116 1 221 0
t 111 23 110 171 0
t 99 170 198 35 0
t 28 105 202 104 0
t 114 27 203 115 0
t 203 194 26 114 0
t 16 93 172 92 0
t 21 1 46 223 0
t 0 27 227 67 0
t 203 26 27 114 0
t 108 33 200 109 0
t 222 16 0 40 0
t 221 46 1 223 0
t 227 225 0 67 0
t 0 220 222 40 0
t 168 204 107 31 0
t 61 7 2 224 0
t 217 3 6 54 0
t 6 3 212 53 0
t 2 7 60 216 0
t 22 2 15 211 0
t 14 39 208 3 0
t 27 13 210 115 0
t 14 28 3 208 0
t 211 2 15 33 0
t 30 106 168 207 0
t 205 94 18 169 0
t 4 0 225 67 0
t 46 1 5 221 0
t 5 1 47 213 0
t 220 0 4 40 0
t 98 1 209 34 0
t 19 206 169 95 0
t 15 22 211 110 0
t 13 27 210 0 0
t 39 14 208 103 0
t 1 98 209 12 0
t 12 1 21 209 0
t 225 119 9 220 0
t 8 116 213 221 0
t 224 216 10 118 0
t 11 217 212 117 0
t 92 16 0 210 0
t 14 28 208 104 0
t 0 13 92 210 0
t 21 12 209 97 0
t 209 199 21 97 0
t 109 211 15 33 0
t 200 211 109 33 0
t 208 104 28 202 0
t 17 172 93 205 0
t 216 10 2 224 0
t 217 3 11 212 0
t 225 9 0 220 0
t 213 1 8 221 0
t 210 92 16 172 0
t 17 94 18 205 0
t 95 20 19 206 0
t 95 20 206 96 0
t 20 206 96 199 0
t 107 32 204 108 0
t 107 32 31 204 0
t 17 94 205 93 0
t 106 29 207 30 0
t 98 34 209 170 0
t 202 105 29 207 0
t 29 106 207 105 0
t 173 103 39 208 0
t 115 27 203 210 0
t 22 211 110 171 0
t 108 32 204 200 0
t 53 214 52 39 0
t 59 33 60 218 0
t 46 45 21 223 0
t 66 227 27 67 0
t 219 28 54 55 0
t 62 61 22 226 0
t 48 47 34 215 0
t 40 222 16 41 0
t 176 135 151 141 0
t 151 135 176 177 0
t 188 151 177 137 0
t 188 177 151 175 0
t 170 154 209 199 0
t 209 154 170 126 0
t 175 147 188 201 0
t 175 188 147 151 0
t 139 195 169 196 0
t 139 169 195 138 0
t 150 186 137 149 0
t 150 137 186 184 0
t 188 137 186 149 0
t 188 186 137 184 0
t 168 145 150 185 0
t 150 145 168 120 0
t 28 217 54 3 0
t 28 54 217 219 0
t 224 22 61 226 0
t 224 61 22 2 0
t 39 212 53 214 0
t 39 53 212 3 0
t 33 216 60 218 0
t 60 216 33 2 0
t 222 0 73 220 0
t 222 73 0 16 0
t 34 213 47 1 0
t 47 213 34 215 0
t 223 1 68 21 0
t 223 68 1 221 0
t 227 0 74 27 0
t 227 74 0 225 0
