 MeshVersionFormatted 2
 Dimension
 3
 Vertices
 431
                 12.5                       3.8                      56.5      1
                 12.5                       3.8                      31.5      2
                -12.5                       3.8                      56.5      3
                -12.5                       3.8                      31.5      4
                   15                       3.8                        59      5
                   15                       3.8                        29      6
                  -15                       3.8                        29      7
                  -15                       3.8                        59      8
                   13                         0                        31      9
                   13                         0                        57      10
                  -13                         0                        57      11
                  -13                         0                        31      12
                 12.5                       4.6                      31.5      13
                 12.5                       4.6                      56.5      14
                -12.5                       4.6                      31.5      15
                -12.5                       4.6                      56.5      16
                 12.5                       3.8           53.722222222222      1
                 12.5                       3.8           50.944444444444      1
                 12.5                       3.8           48.166666666667      1
                 12.5                       3.8           45.388888888889      1
                 12.5                       3.8           42.611111111111      1
                 12.5                       3.8           39.833333333333      1
                 12.5                       3.8           37.055555555556      1
                 12.5                       3.8           34.277777777778      1
     -9.7222222222222                       3.8                      56.5      2
     -6.9444444444444                       3.8                      56.5      2
     -4.1666666666667                       3.8                      56.5      2
     -1.3888888888889                       3.8                      56.5      2
      1.3888888888889                       3.8                      56.5      2
      4.1666666666667                       3.8                      56.5      2
      6.9444444444445                       3.8                      56.5      2
      9.7222222222223                       3.8                      56.5      2
                -12.5                       3.8           34.277777777778      3
                -12.5                       3.8           37.055555555556      3
                -12.5                       3.8           39.833333333333      3
                -12.5                       3.8           42.611111111111      3
                -12.5                       3.8           45.388888888889      3
                -12.5                       3.8           48.166666666667      3
                -12.5                       3.8           50.944444444444      3
                -12.5                       3.8           53.722222222222      3
      9.7222222222222                       3.8                      31.5      4
      6.9444444444445                       3.8                      31.5      4
      4.1666666666667                       3.8                      31.5      4
      1.3888888888889                       3.8                      31.5      4
     -1.3888888888889                       3.8                      31.5      4
     -4.1666666666667                       3.8                      31.5      4
     -6.9444444444444                       3.8                      31.5      4
     -9.7222222222222                       3.8                      31.5      4
                   15                       3.8           56.272727272727      5
                   15                       3.8           53.545454545455      5
                   15                       3.8           50.818181818182      5
                   15                       3.8           48.090909090909      5
                   15                       3.8           45.363636363636      5
                   15                       3.8           42.636363636364      5
                   15                       3.8           39.909090909091      5
                   15                       3.8           37.181818181818      5
                   15                       3.8           34.454545454545      5
                   15                       3.8           31.727272727273      5
      12.272727272727                       3.8                        29      6
      9.5454545454546                       3.8                        29      6
      6.8181818181818                       3.8                        29      6
      4.0909090909091                       3.8                        29      6
      1.3636363636364                       3.8                        29      6
     -1.3636363636363                       3.8                        29      6
      -4.090909090909                       3.8                        29      6
     -6.8181818181818                       3.8                        29      6
     -9.5454545454545                       3.8                        29      6
     -12.272727272727                       3.8                        29      6
                  -15                       3.8           31.727272727273      7
                  -15                       3.8           34.454545454545      7
                  -15                       3.8           37.181818181818      7
                  -15                       3.8           39.909090909091      7
                  -15                       3.8           42.636363636364      7
                  -15                       3.8           45.363636363636      7
                  -15                       3.8           48.090909090909      7
                  -15                       3.8           50.818181818182      7
                  -15                       3.8           53.545454545455      7
                  -15                       3.8           56.272727272727      7
     -12.272727272727                       3.8                        59      8
     -9.5454545454545                       3.8                        59      8
     -6.8181818181818                       3.8                        59      8
     -4.0909090909091                       3.8                        59      8
     -1.3636363636364                       3.8                        59      8
      1.3636363636363                       3.8                        59      8
      4.0909090909091                       3.8                        59      8
      6.8181818181818                       3.8                        59      8
      9.5454545454545                       3.8                        59      8
      12.272727272727                       3.8                        59      8
                   13                         0                      33.6      9
                   13                         0                      36.2      9
                   13                         0                      38.8      9
                   13                         0                      41.4      9
                   13                         0                        44      9
                   13                         0                      46.6      9
                   13                         0                      49.2      9
                   13                         0                      51.8      9
                   13                         0                      54.4      9
                 10.4                         0                        57      10
                  7.8                         0                        57      10
                  5.2                         0                        57      10
                  2.6                         0                        57      10
  1.7319479184152E-14                         0                        57      10
                 -2.6                         0                        57      10
                 -5.2                         0                        57      10
                 -7.8                         0                        57      10
                -10.4                         0                        57      10
                  -13                         0                      54.4      11
                  -13                         0                      51.8      11
                  -13                         0                      49.2      11
                  -13                         0                      46.6      11
                  -13                         0                        44      11
                  -13                         0                      41.4      11
                  -13                         0                      38.8      11
                  -13                         0                      36.2      11
                  -13                         0                      33.6      11
                -10.4                         0                        31      12
                 -7.8                         0                        31      12
                 -5.2                         0                        31      12
                 -2.6                         0                        31      12
  -7.105427357601E-15                         0                        31      12
                  2.6                         0                        31      12
                  5.2                         0                        31      12
                  7.8                         0                        31      12
                 10.4                         0                        31      12
                 12.5                       4.6           53.722222222222      14
                 12.5                       4.6           50.944444444444      14
                 12.5                       4.6           48.166666666667      14
                 12.5                       4.6           45.388888888889      14
                 12.5                       4.6           42.611111111111      14
                 12.5                       4.6           39.833333333333      14
                 12.5                       4.6           37.055555555556      14
                 12.5                       4.6           34.277777777778      14
      9.7222222222222                       4.6                      31.5      17
      6.9444444444445                       4.6                      31.5      17
      4.1666666666667                       4.6                      31.5      17
      1.3888888888889                       4.6                      31.5      17
     -1.3888888888889                       4.6                      31.5      17
     -4.1666666666667                       4.6                      31.5      17
     -6.9444444444444                       4.6                      31.5      17
     -9.7222222222222                       4.6                      31.5      17
                -12.5                       4.6           34.277777777778      19
                -12.5                       4.6           37.055555555556      19
                -12.5                       4.6           39.833333333333      19
                -12.5                       4.6           42.611111111111      19
                -12.5                       4.6           45.388888888889      19
                -12.5                       4.6           48.166666666667      19
                -12.5                       4.6           50.944444444444      19
                -12.5                       4.6           53.722222222222      19
     -9.7222222222222                       4.6                      56.5      20
     -6.9444444444444                       4.6                      56.5      20
     -4.1666666666667                       4.6                      56.5      20
     -1.3888888888889                       4.6                      56.5      20
      1.3888888888889                       4.6                      56.5      20
      4.1666666666667                       4.6                      56.5      20
      6.9444444444445                       4.6                      56.5      20
      9.7222222222223                       4.6                      56.5      20
      14.511671865971           1.3119056711845           29.488328747934      21
     -14.511653056369           1.3118667868787           29.488347517954      22
     -14.511652482046           1.3118667868788           58.511653056369      23
      14.511671252066           1.3119056711844           58.511671865971      24
               -13.75                       3.8                        44      1
   2.825517597671E-14                       3.8                     30.25      1
                13.75                       3.8                        44      1
 -8.4376949871512E-15                       3.8                     57.75      1
               -13.75                       3.8           41.247474747475      1
      2.7525252525253                       3.8                     30.25      1
                13.75                       3.8           46.752525252525      1
     -2.7525252525253                       3.8                     57.75      1
      2.7525252525252                       3.8                     57.75      1
     -2.7525252525252                       3.8                     30.25      1
               -13.75                       3.8           46.752525252525      1
                13.75                       3.8           41.247474747475      1
      5.5050505050505                       3.8                     30.25      1
               -13.75                       3.8           38.494949494949      1
                13.75                       3.8           49.505050505051      1
     -5.5050505050505                       3.8                     57.75      1
               -13.75                       3.8            49.50505050505      1
     -5.5050505050505                       3.8                     30.25      1
                13.75                       3.8            38.49494949495      1
      5.5050505050505                       3.8                     57.75      1
               -13.75                       3.8           35.742424242424      1
      8.2575757575758                       3.8                     30.25      1
                13.75                       3.8           52.257575757576      1
     -8.2575757575758                       3.8                     57.75      1
               -13.75                       3.8           52.257575757576      1
                13.75                       3.8           35.742424242424      1
     -8.2575757575757                       3.8                     30.25      1
      8.2575757575758                       3.8                     57.75      1
      11.010101010101                       3.8                     30.25      1
                13.75                       3.8           55.010101010101      1
     -11.010101010101                       3.8                     57.75      1
               -13.75                       3.8           32.989898989899      1
               -13.75                       3.8           55.010101010101      1
     -11.010101010101                       3.8                     30.25      1
                13.75                       3.8           32.989898989899      1
      11.010101010101                       3.8                     57.75      1
      10.748333950161                         0                      45.3      2
      -10.74833395016                         0                      45.3      2
      1.1130558639693                         0           33.338427125312      2
      1.1130558639691                         0           54.661572874688      2
      -10.74833395016                         0                      40.1      2
                 -3.9                         0            33.25166604984      2
      10.748333950161                         0                      40.1      2
                 -3.9                         0            54.74833395016      2
       10.74833395016                         0                      50.5      2
     -10.930601320695                         0           50.395448884042      2
      6.7254867022372                         0           33.330369924884      2
      6.7254867022371                         0           54.669630075116      2
     -9.0845759758176                         0           33.156693250787      2
     -9.0845759758176                         0           54.843306749213      2
      10.798392682855                         0            34.91101716013      2
       10.74833395016                         0                      47.9      2
       8.496667900321                         0                      46.6      2
       8.496667900321                         0                        44      2
      6.2450018504815                         0                      45.3      2
      6.2450018504815                         0                      42.7      2
       3.993335800642                         0                        44      2
      3.9933358006419                         0                      46.6      2
      1.7416697508024                         0                      45.3      2
      1.7416697508025                         0                      42.7      2
    -0.50999629903703                         0                        44      2
     -0.5099962990371                         0                      46.6      2
    -0.50999629903697                         0                      41.4      2
     -2.7616623488765                         0                      42.7      2
      1.7416697508026                         0                      40.1      2
     -2.7616623488765                         0                      40.1      2
      -5.013328398716                         0           41.399999999999      2
     -5.0133283987161                         0           43.999999999999      2
      -5.013328398716                         0                      38.8      2
     -2.7347186240637                         0           37.546667900321      2
     -7.2649944485556                         0           42.699999999999      2
     -7.2649944485556                         0           45.299999999999      2
     -5.0133283987162                         0           46.599999999999      2
     -7.2649944485557                         0           47.899999999999      2
     -5.0133283987163                         0           49.199999999999      2
      -7.235537023469                         0           50.450775839474      2
     -5.1161487816193                         0           35.820089479975      2
     -7.2417821876392                         0           37.526148934576      2
     -5.1157896815803                         0           52.179545339995      2
     -2.7616623488768                         0           50.499999999999      2
       8.496667900321                         0                      49.2      2
      8.2742966666374                         0            52.20558236795      2
      6.2450018504814                         0                      50.5      2
      1.7416697508024                         0                      47.9      2
      3.9933358006419                         0                      49.2      2
      1.7827800394772                         0           50.428794891301      2
      3.9822000935522                         0           51.699566519085      2
    -0.50314458425803                         0           49.188132481883      2
    -0.32580564954811                         0           52.145656591987      2
    -0.50550567823478                         0           38.807777983386      2
       1.783528476278                         0           37.572501439263      2
       4.000312254888                         0            38.81208357321      2
      3.9834875753936                         0           36.302663464877      2
      6.2009814782111                         0           37.594541018808      2
    -0.32218692559984                         0           35.860611221748      2
      10.799507057422                         0           53.119064272412      2
      6.2450018504814                         0                      47.9      2
     -6.4834541262395                         0           33.239844623084      2
     -10.930601320695                         0           37.604551115958      2
      10.756677072276                         0           37.501836193355      2
      3.9420161446162                         0           33.664455748861      2
     -1.3606108406703                         0           33.266036942671      2
     -2.7616623488766                         0           45.299999999999      2
      -10.74833395016                         0                      42.7      2
      -10.74833395016                         0                      47.9      2
      3.9418322186388                         0           54.335862820276      2
     -1.3610416411404                         0            54.73470922563      2
      3.9944985430164                         0           41.402013928868      2
     -6.4833942762329                         0           54.760094513578      2
     -2.7605203964135                         0           47.898022080313      2
      6.2390216545399                         0           40.118106420148      2
      10.748333950161                         0                      42.7      2
     -7.2649944485554                         0           40.099999999999      2
      8.4956712009974                         0           41.403017736691      2
      8.4895588760844                         0             38.8195835615      2
      8.2753355892523                         0           35.812557336877      2
     -10.559787056599                         0           52.946428136383      2
      9.1226143508566                         0           54.840906428155      2
      9.1226053684813                         0           33.164834183436      2
     -10.559787056599                         0           35.053571863616      2
     -7.7999999999998                         0           52.789381042099      2
                 -7.8                         0             35.2106189579      2
     -2.6241721845662                         0           52.830836106893      2
                 -2.6                         0           35.180007401925      2
      2.0988125132178                         0           52.654290739467      2
      2.0999802269314                         0           35.347731800012      2
     -9.0066641993578                         0                      38.8      2
     -9.0066641993581                         0                      41.4      2
     -9.0066641993582                         0                        44      2
     -9.0066641993582                         0                      46.6      2
     -9.0066641993583                         0                      49.2      2
      5.9290910811731                         0           52.660120251496      2
      5.8254614979421                         0           35.340917498861      2
      11.096667900321                         0           55.096667900321      2
     -11.096667900321                         0           55.096667900321      2
     -11.096667900321                         0           32.903332099679      2
      11.096667900321                         0           32.903332099679      2
     -9.1077669528582                         0            36.83897817441      2
     -9.1065179200242                         0             51.1564067804      2
     -9.9693728423517                       4.6           44.008431415044      7
      10.094373878377                       4.6                        44      7
     -0.1997266410586                       4.6           33.998319578325      7
   -0.036434714754241                       4.6           54.039701168582      7
      5.7964601519627                       4.6           33.989711458209      7
     -9.6834835793405                       4.6           38.427918870958      7
     -5.1754392350022                       4.6           54.082123187892      7
      10.094373878377                       4.6           49.555555555556      7
     -5.4505147437552                       4.6           33.930649958329      7
      5.5115548479498                       4.6           54.089096350275      7
      -10.22656127244                       4.6           49.452602538467      7
      10.094373878377                       4.6           38.444444444444      7
        10.1478554304                       4.6           35.678437136891      7
      7.4588118741081                       4.6           36.623922555629      7
      7.6504251096456                       4.6           39.761394500012      7
      5.2831216351297                       4.6           38.444444444444      7
      5.2767345272784                       4.6           41.210232416669      7
       2.876430995531                       4.6           39.831335032408      7
      2.8762535758685                       4.6           42.608779760031      7
     0.47148498261395                       4.6           41.221500613555      7
     0.49721172581341                       4.6           43.949458675348      7
      2.9624521689216                       4.6           45.228563341223      7
     -2.0051018748444                       4.6           42.714389348933      7
     -1.8136353726908                       4.6           45.544983075988      7
     -1.9457116554694                       4.6           39.850426104859      7
     -4.4287709957168                       4.6           41.354106117155      7
     -4.3274873322614                       4.6           38.519132756718      7
      2.8581007627874                       4.6           37.149844260528      7
      -1.744300542566                       4.6           36.686696935853      7
      -6.868891988146                       4.6           39.865007772287      7
     -6.9466428016511                       4.6           42.694592142273      7
      -6.820103282994                       4.6           36.556182754352      7
     -9.9682827219309                       4.6           35.595124603721      7
     -9.6129776420102                       4.6           41.234967616469      7
     -7.4982281145644                       4.6           45.527703706175      7
      -4.792411646648                       4.6           44.670932360252      7
     -3.8525253952373                       4.6           47.476465453986      7
     -1.2346927531656                       4.6            48.19341921524      7
     -3.1257098009593                       4.6           50.077227392336      7
     -5.8693721742321                       4.6           49.489683036192      7
    -0.56689263109911                       4.6           50.912374109786      7
      1.3891773965063                       4.6           48.977374438949      7
      2.1249514607395                       4.6           51.516164931505      7
      3.9258621120155                       4.6           49.448634263788      7
     -2.7213326450348                       4.6           52.648889111757      7
     -10.127588995639                       4.6           46.798490209297      7
      7.6812961309266                       4.6           42.597123004632      7
      5.2947676324796                       4.6            43.96856086487      7
      5.2601776924234                       4.6           47.003834530488      7
      7.6856228282226                       4.6           45.418993807406      7
       7.688747756753                       4.6           48.166666666667      7
      6.7667734018857                       4.6           51.106733556029      7
      9.8690885534556                       4.6            52.39711435389      7
     -9.8640296256778                       4.6           52.115251769499      7
     -2.8527940249337                       4.6           33.930247724393      7
      10.093853056955                       4.6           46.782795264197      7
      10.086744832888                       4.6           41.207901065589      7
      2.8213992293786                       4.6            34.34444154533      7
     0.47186939188282                       4.6           38.444444444444      7
      2.8204000191913                       4.6           54.142711250854      7
     -8.1864067166263                       4.6           54.244184065614      7
      -6.992202403988                       4.6           52.007589946263      7
      8.3582617801378                       4.6           33.810750065636      7
     -4.1666666666667                       4.6           35.965819873852      7
     0.83499464409999                       4.6           46.575263298552      7
     -8.0056769963841                       4.6           48.114759920869      7
      4.5334589271013                       4.6           51.595181165978      7
      8.0680893891825                       4.6           54.251420819808      7
     -8.1280012371644                       4.6           33.744634221262      7
     0.84146844008482                       4.6           36.124749352896      7
      4.9622468657491                       4.6           36.139789054986      7
     -4.7768112518433                       4.6           51.661102534888      7
     -10.403585535262                       4.6           33.596414464738      7
      2.9702247731996                       4.6           47.478461708876      7
      10.446286161826                       4.6           54.446286161826      7
     -10.466525534531                       4.6           54.466525534531      7
      10.466525534531                       4.6           33.533474465469      7
     -6.0036428654132                       4.6           47.055908895495      7
     -2.7569465231681                       4.6           54.872651281358      7
     -8.2122249617729                       4.6           50.246744968039      7
      5.7539204759758                       4.6           49.408077638541      7
                -11.7            1.218697855858           29.532260180596      8
                 11.7           1.2186978558576           29.532260180596      8
                  9.1           1.2032919419626           29.539807315364      8
                 -9.1           1.2032919419631           29.539807315363      8
                  6.5           1.1917624828736           29.545510622175      8
                 -6.5            1.191762482874           29.545510622174      8
                  3.9           1.1840882261769           29.549333366388      8
                 -3.9           1.1840882261772           29.549333366388      8
                 -1.3           1.1802547442168           29.551250917386      8
                  1.3           1.1802547442167           29.551250917386      8
     -14.467739819404           1.2186978558576                      32.3      9
     -14.467739819404           1.2186978558577                      55.7      9
     -14.460192684636           1.2032919419631                      53.1      9
     -14.460192684636           1.2032919419633                      34.9      9
     -14.454489377826           1.1917624828745                      50.5      9
     -14.454489377825           1.1917624828747                      37.5      9
     -14.450666633612           1.1840882261781                      47.9      9
     -14.450666633612           1.1840882261783                      40.1      9
     -14.448749082614           1.1802547442181                      45.3      9
     -14.448749082614           1.1802547442181                      42.7      9
      14.467739819404           1.2186978558577                      55.7      10
      14.467739819404           1.2186978558575                      32.3      10
      14.460192684636           1.2032919419631                      53.1      10
      14.460192684636           1.2032919419632                      34.9      10
      14.454489377826           1.1917624828745                      50.5      10
      14.454489377825           1.1917624828747                      37.5      10
      14.450666633612           1.1840882261781                      47.9      10
      14.450666633612           1.1840882261783                      40.1      10
      14.448749082614           1.1802547442181                      45.3      10
      14.448749082614           1.1802547442181                      42.7      10
                -11.7            1.218697855857           58.467739819404      11
                 11.7           1.2186978558574           58.467739819404      11
                 -9.1           1.2032919419617           58.460192684636      11
                  9.1           1.2032919419625           58.460192684636      11
                  6.5           1.1917624828735           58.454489377826      11
                 -6.5           1.1917624828727           58.454489377825      11
                  3.9           1.1840882261767           58.450666633612      11
                 -3.9           1.1840882261761           58.450666633612      11
                 -1.3            1.180254744216           58.448749082614      11
                  1.3           1.1802547442162           58.448749082614      11
      9.2472232502675           2.3167750927578                      45.3      1
      2.4922251007489           2.1637875355969                      46.6      1
     0.12313638890503           2.2861996985579                      45.3      1
      2.5439942940325           2.2669354833091           43.910333126966      1
      9.3288391991793           2.3402265939029           42.560689476375      1
      2.6003985110882           2.3010476898709           41.214173981521      1
      4.7438911505885           2.1232775895754                      45.3      1
      4.9073426238095           2.3203472161009           39.829049177485      1
      4.8592341481134           2.2604475645137           50.300220067989      1
     -9.3431482423234           2.3265435616683           50.163577699287      1
      0.1915101221104           2.2895058580411           42.615479175021      1
 Edges
 168
 1 17 1
 17 18 1
 18 19 1
 19 20 1
 20 21 1
 21 22 1
 22 23 1
 23 24 1
 24 2 1
 3 25 2
 25 26 2
 26 27 2
 27 28 2
 28 29 2
 29 30 2
 30 31 2
 31 32 2
 32 1 2
 4 33 3
 33 34 3
 34 35 3
 35 36 3
 36 37 3
 37 38 3
 38 39 3
 39 40 3
 40 3 3
 2 41 4
 41 42 4
 42 43 4
 43 44 4
 44 45 4
 45 46 4
 46 47 4
 47 48 4
 48 4 4
 5 49 5
 49 50 5
 50 51 5
 51 52 5
 52 53 5
 53 54 5
 54 55 5
 55 56 5
 56 57 5
 57 58 5
 58 6 5
 6 59 6
 59 60 6
 60 61 6
 61 62 6
 62 63 6
 63 64 6
 64 65 6
 65 66 6
 66 67 6
 67 68 6
 68 7 6
 7 69 7
 69 70 7
 70 71 7
 71 72 7
 72 73 7
 73 74 7
 74 75 7
 75 76 7
 76 77 7
 77 78 7
 78 8 7
 8 79 8
 79 80 8
 80 81 8
 81 82 8
 82 83 8
 83 84 8
 84 85 8
 85 86 8
 86 87 8
 87 88 8
 88 5 8
 9 89 9
 89 90 9
 90 91 9
 91 92 9
 92 93 9
 93 94 9
 94 95 9
 95 96 9
 96 97 9
 97 10 9
 10 98 10
 98 99 10
 99 100 10
 100 101 10
 101 102 10
 102 103 10
 103 104 10
 104 105 10
 105 106 10
 106 11 10
 11 107 11
 107 108 11
 108 109 11
 109 110 11
 110 111 11
 111 112 11
 112 113 11
 113 114 11
 114 115 11
 115 12 11
 12 116 12
 116 117 12
 117 118 12
 118 119 12
 119 120 12
 120 121 12
 121 122 12
 122 123 12
 123 124 12
 124 9 12
 13 2 13
 14 125 14
 125 126 14
 126 127 14
 127 128 14
 128 129 14
 129 130 14
 130 131 14
 131 132 14
 132 13 14
 14 1 15
 15 4 16
 13 133 17
 133 134 17
 134 135 17
 135 136 17
 136 137 17
 137 138 17
 138 139 17
 139 140 17
 140 15 17
 16 3 18
 15 141 19
 141 142 19
 142 143 19
 143 144 19
 144 145 19
 145 146 19
 146 147 19
 147 148 19
 148 16 19
 16 149 20
 149 150 20
 150 151 20
 151 152 20
 152 153 20
 153 154 20
 154 155 20
 155 156 20
 156 14 20
 9 157 21
 157 6 21
 7 158 22
 158 12 22
 8 159 23
 159 11 23
 10 160 24
 160 5 24
 Triangles
 836
 5 49 1 1
 88 5 1 1
 1 190 17 1
 32 196 1 1
 49 190 1 1
 1 196 88 1
 2 58 6 1
 6 59 2 1
 24 195 2 1
 2 189 41 1
 2 195 58 1
 59 189 2 1
 8 3 78 1
 79 3 8 1
 3 191 25 1
 40 193 3 1
 3 193 78 1
 79 191 3 1
 4 68 7 1
 4 7 69 1
 4 192 33 1
 48 194 4 1
 4 194 68 1
 69 192 4 1
 17 183 18 1
 50 183 17 1
 17 190 50 1
 18 175 19 1
 51 175 18 1
 18 183 51 1
 19 167 20 1
 52 167 19 1
 19 175 52 1
 20 163 21 1
 53 163 20 1
 20 167 53 1
 21 172 22 1
 21 163 54 1
 54 172 21 1
 22 179 23 1
 22 172 55 1
 55 179 22 1
 23 186 24 1
 23 179 56 1
 56 186 23 1
 24 186 57 1
 57 195 24 1
 25 184 26 1
 80 184 25 1
 25 191 80 1
 26 176 27 1
 81 176 26 1
 26 184 81 1
 27 168 28 1
 82 168 27 1
 27 176 82 1
 28 164 29 1
 83 164 28 1
 28 168 83 1
 29 169 30 1
 29 164 84 1
 84 169 29 1
 30 180 31 1
 30 169 85 1
 85 180 30 1
 31 188 32 1
 31 180 86 1
 86 188 31 1
 32 188 87 1
 87 196 32 1
 33 181 34 1
 70 181 33 1
 33 192 70 1
 34 174 35 1
 71 174 34 1
 34 181 71 1
 35 165 36 1
 72 165 35 1
 35 174 72 1
 36 161 37 1
 73 161 36 1
 36 165 73 1
 37 171 38 1
 37 161 74 1
 74 171 37 1
 38 177 39 1
 38 171 75 1
 75 177 38 1
 39 185 40 1
 39 177 76 1
 76 185 39 1
 40 185 77 1
 77 193 40 1
 41 182 42 1
 60 182 41 1
 41 189 60 1
 42 173 43 1
 61 173 42 1
 42 182 61 1
 43 166 44 1
 62 166 43 1
 43 173 62 1
 44 162 45 1
 63 162 44 1
 44 166 63 1
 45 170 46 1
 45 162 64 1
 64 170 45 1
 46 178 47 1
 46 170 65 1
 65 178 46 1
 47 187 48 1
 47 178 66 1
 66 187 47 1
 48 187 67 1
 67 194 48 1
 50 190 49 1
 51 183 50 1
 52 175 51 1
 53 167 52 1
 54 163 53 1
 55 172 54 1
 56 179 55 1
 57 186 56 1
 58 195 57 1
 60 189 59 1
 61 182 60 1
 62 173 61 1
 63 166 62 1
 64 162 63 1
 65 170 64 1
 66 178 65 1
 67 187 66 1
 68 194 67 1
 70 192 69 1
 71 181 70 1
 72 174 71 1
 73 165 72 1
 74 161 73 1
 75 171 74 1
 76 177 75 1
 77 185 76 1
 78 193 77 1
 80 191 79 1
 81 184 80 1
 82 176 81 1
 83 168 82 1
 84 164 83 1
 85 169 84 1
 86 180 85 1
 87 188 86 1
 88 196 87 1
 9 89 297 2
 124 9 297 2
 97 10 294 2
 10 98 294 2
 106 11 295 2
 11 107 295 2
 115 12 296 2
 12 116 296 2
 89 90 211 2
 89 211 297 2
 90 91 260 2
 211 90 260 2
 91 92 203 2
 91 203 260 2
 92 93 272 2
 203 92 272 2
 93 94 197 2
 93 197 272 2
 94 95 212 2
 197 94 212 2
 95 96 205 2
 95 205 212 2
 96 97 256 2
 205 96 256 2
 256 97 294 2
 98 99 278 2
 98 278 294 2
 99 100 208 2
 99 208 278 2
 100 101 266 2
 208 100 266 2
 101 102 200 2
 101 200 266 2
 102 103 267 2
 200 102 267 2
 103 104 204 2
 103 204 267 2
 104 105 269 2
 204 104 269 2
 105 106 210 2
 105 210 269 2
 210 106 295 2
 107 108 277 2
 107 277 295 2
 108 109 206 2
 108 206 277 2
 109 110 265 2
 206 109 265 2
 110 111 198 2
 110 198 265 2
 111 112 264 2
 198 111 264 2
 112 113 201 2
 112 201 264 2
 113 114 259 2
 201 113 259 2
 114 115 280 2
 259 114 280 2
 280 115 296 2
 116 117 209 2
 116 209 296 2
 117 118 258 2
 209 117 258 2
 118 119 202 2
 118 202 258 2
 119 120 262 2
 202 119 262 2
 120 121 199 2
 120 199 262 2
 121 122 261 2
 199 121 261 2
 122 123 207 2
 122 207 261 2
 123 124 279 2
 207 123 279 2
 279 124 297 2
 197 212 213 2
 197 213 214 2
 197 214 272 2
 198 264 289 2
 265 198 290 2
 198 289 290 2
 199 255 262 2
 255 199 286 2
 199 261 286 2
 249 200 267 2
 200 249 285 2
 266 200 285 2
 201 259 287 2
 264 201 288 2
 201 287 288 2
 202 237 258 2
 237 202 284 2
 202 262 284 2
 260 203 275 2
 203 272 274 2
 203 274 275 2
 239 204 269 2
 204 239 283 2
 267 204 283 2
 212 205 241 2
 241 205 242 2
 242 205 256 2
 206 265 291 2
 277 206 299 2
 206 291 299 2
 261 207 293 2
 276 207 279 2
 207 276 293 2
 208 242 278 2
 242 208 292 2
 208 266 292 2
 209 258 282 2
 280 209 282 2
 209 280 296 2
 269 210 281 2
 210 277 281 2
 277 210 295 2
 211 260 276 2
 211 276 279 2
 211 279 297 2
 213 212 241 2
 214 213 215 2
 215 213 257 2
 213 241 257 2
 214 215 216 2
 214 216 274 2
 272 214 274 2
 216 215 217 2
 217 215 218 2
 218 215 257 2
 216 217 268 2
 216 268 271 2
 216 271 274 2
 217 218 219 2
 217 219 220 2
 217 220 268 2
 219 218 244 2
 244 218 245 2
 245 218 257 2
 220 219 221 2
 221 219 222 2
 222 219 244 2
 220 221 223 2
 220 223 225 2
 220 225 268 2
 221 222 263 2
 223 221 224 2
 224 221 263 2
 222 244 248 2
 222 248 270 2
 263 222 270 2
 223 224 226 2
 225 223 250 2
 223 226 250 2
 226 224 227 2
 227 224 228 2
 228 224 263 2
 225 250 251 2
 225 251 252 2
 225 252 268 2
 226 227 229 2
 226 229 230 2
 226 230 250 2
 227 228 231 2
 229 227 273 2
 227 231 273 2
 231 228 232 2
 232 228 233 2
 233 228 263 2
 230 229 237 2
 237 229 238 2
 238 229 273 2
 230 237 284 2
 250 230 255 2
 255 230 284 2
 231 232 289 2
 273 231 288 2
 288 231 289 2
 232 233 234 2
 232 234 290 2
 289 232 290 2
 234 233 235 2
 235 233 270 2
 233 263 270 2
 234 235 236 2
 234 236 291 2
 290 234 291 2
 236 235 239 2
 239 235 240 2
 240 235 270 2
 236 239 281 2
 236 281 299 2
 291 236 299 2
 237 238 282 2
 258 237 282 2
 238 273 287 2
 282 238 298 2
 238 287 298 2
 239 240 283 2
 239 269 281 2
 240 248 249 2
 248 240 270 2
 240 249 283 2
 241 242 243 2
 241 243 257 2
 243 242 292 2
 242 256 278 2
 245 243 247 2
 243 245 257 2
 247 243 292 2
 244 245 246 2
 244 246 248 2
 246 245 247 2
 246 247 285 2
 248 246 249 2
 249 246 285 2
 247 266 285 2
 266 247 292 2
 249 267 283 2
 251 250 255 2
 252 251 253 2
 253 251 286 2
 251 255 286 2
 252 253 254 2
 252 254 271 2
 268 252 271 2
 254 253 293 2
 261 253 286 2
 253 261 293 2
 271 254 275 2
 275 254 276 2
 276 254 293 2
 262 255 284 2
 278 256 294 2
 259 280 298 2
 287 259 298 2
 260 275 276 2
 264 288 289 2
 265 290 291 2
 274 271 275 2
 287 273 288 2
 281 277 299 2
 280 282 298 2
 14 1 125 3
 125 1 17 3
 13 24 2 3
 24 13 132 3
 18 125 17 3
 18 19 126 3
 125 18 126 3
 19 20 127 3
 126 19 127 3
 20 21 128 3
 127 20 128 3
 21 22 130 3
 128 21 129 3
 21 130 129 3
 22 23 131 3
 22 131 130 3
 23 24 131 3
 131 24 132 3
 2 41 13 4
 4 15 48 4
 13 41 133 4
 48 15 140 4
 41 42 133 4
 42 43 134 4
 133 42 134 4
 43 44 135 4
 134 43 135 4
 44 45 136 4
 135 44 136 4
 45 46 137 4
 136 45 137 4
 46 47 138 4
 137 46 138 4
 47 48 139 4
 138 47 139 4
 139 48 140 4
 16 40 3 5
 141 15 4 5
 141 4 33 5
 40 16 148 5
 34 141 33 5
 34 35 142 5
 141 34 142 5
 35 36 143 5
 142 35 143 5
 36 37 145 5
 143 36 144 5
 36 145 144 5
 37 38 145 5
 38 39 147 5
 145 38 146 5
 38 147 146 5
 39 40 147 5
 147 40 148 5
 14 32 1 6
 16 3 149 6
 149 3 25 6
 32 14 156 6
 26 149 25 6
 26 27 150 6
 149 26 150 6
 27 28 151 6
 150 27 151 6
 28 29 152 6
 151 28 152 6
 29 30 153 6
 152 29 153 6
 30 31 154 6
 153 30 154 6
 31 32 155 6
 154 31 155 6
 155 32 156 6
 13 376 132 7
 133 376 13 7
 125 374 14 7
 14 374 156 7
 15 372 140 7
 141 372 15 7
 16 375 148 7
 149 375 16 7
 126 352 125 7
 352 374 125 7
 127 307 126 7
 307 352 126 7
 128 355 127 7
 127 355 307 7
 129 301 128 7
 301 355 128 7
 130 356 129 7
 129 356 301 7
 131 311 130 7
 311 356 130 7
 132 312 131 7
 131 312 311 7
 132 376 312 7
 134 362 133 7
 362 376 133 7
 135 304 134 7
 304 362 134 7
 136 357 135 7
 135 357 304 7
 137 302 136 7
 302 357 136 7
 138 354 137 7
 137 354 302 7
 139 308 138 7
 308 354 138 7
 140 368 139 7
 139 368 308 7
 140 372 368 7
 142 332 141 7
 332 372 141 7
 143 305 142 7
 305 332 142 7
 144 333 143 7
 143 333 305 7
 145 300 144 7
 300 333 144 7
 146 345 145 7
 145 345 300 7
 147 310 146 7
 310 345 146 7
 148 353 147 7
 147 353 310 7
 148 375 353 7
 150 360 149 7
 360 375 149 7
 151 306 150 7
 306 360 150 7
 152 378 151 7
 151 378 306 7
 153 303 152 7
 303 378 152 7
 154 359 153 7
 153 359 303 7
 155 309 154 7
 309 359 154 7
 156 367 155 7
 155 367 309 7
 156 374 367 7
 330 333 300 7
 300 334 330 7
 300 345 334 7
 346 349 301 7
 301 356 346 7
 349 355 301 7
 302 354 328 7
 328 369 302 7
 302 369 357 7
 303 342 340 7
 340 344 303 7
 303 359 342 7
 344 378 303 7
 313 362 304 7
 304 370 313 7
 357 370 304 7
 329 331 305 7
 305 333 329 7
 331 332 305 7
 344 371 306 7
 306 378 344 7
 306 361 360 7
 306 371 361 7
 350 351 307 7
 307 355 350 7
 351 352 307 7
 331 363 308 7
 308 368 331 7
 308 363 354 7
 351 366 309 7
 309 367 351 7
 309 366 359 7
 310 365 345 7
 353 379 310 7
 310 379 365 7
 312 313 311 7
 313 314 311 7
 314 356 311 7
 312 362 313 7
 312 376 362 7
 313 315 314 7
 313 370 315 7
 315 316 314 7
 316 346 314 7
 346 356 314 7
 315 317 316 7
 315 327 317 7
 315 370 327 7
 317 318 316 7
 318 347 316 7
 316 347 346 7
 317 319 318 7
 317 358 319 7
 327 358 317 7
 319 320 318 7
 320 321 318 7
 321 347 318 7
 319 322 320 7
 319 324 322 7
 319 358 324 7
 320 364 321 7
 322 323 320 7
 323 364 320 7
 321 348 347 7
 321 373 348 7
 364 373 321 7
 322 335 323 7
 324 325 322 7
 325 335 322 7
 335 336 323 7
 336 337 323 7
 337 364 323 7
 324 326 325 7
 324 328 326 7
 324 358 328 7
 326 329 325 7
 329 330 325 7
 330 335 325 7
 328 363 326 7
 326 331 329 7
 326 363 331 7
 357 369 327 7
 327 370 357 7
 327 369 358 7
 354 363 328 7
 358 369 328 7
 329 333 330 7
 334 335 330 7
 331 368 332 7
 368 372 332 7
 334 377 335 7
 345 365 334 7
 365 377 334 7
 335 377 336 7
 336 338 337 7
 336 339 338 7
 336 377 339 7
 338 340 337 7
 340 341 337 7
 341 364 337 7
 339 371 338 7
 338 344 340 7
 338 371 344 7
 361 371 339 7
 339 379 361 7
 339 377 365 7
 365 379 339 7
 340 342 341 7
 342 343 341 7
 343 373 341 7
 341 373 364 7
 342 366 343 7
 359 366 342 7
 348 373 343 7
 343 380 348 7
 366 380 343 7
 347 349 346 7
 348 349 347 7
 348 350 349 7
 348 380 350 7
 350 355 349 7
 350 380 351 7
 351 367 352 7
 351 380 366 7
 367 374 352 7
 360 361 353 7
 353 375 360 7
 361 379 353 7
 59 6 157 8
 158 7 68 8
 124 382 9 8
 9 382 157 8
 12 381 116 8
 158 381 12 8
 59 382 60 8
 157 382 59 8
 60 383 61 8
 382 383 60 8
 61 385 62 8
 383 385 61 8
 62 387 63 8
 385 387 62 8
 63 389 64 8
 387 390 63 8
 63 390 389 8
 64 388 65 8
 64 389 388 8
 65 386 66 8
 65 388 386 8
 66 384 67 8
 66 386 384 8
 67 381 68 8
 67 384 381 8
 68 381 158 8
 116 384 117 8
 381 384 116 8
 117 386 118 8
 384 386 117 8
 118 388 119 8
 386 388 118 8
 119 389 120 8
 388 389 119 8
 120 390 121 8
 389 390 120 8
 121 387 122 8
 121 390 387 8
 122 385 123 8
 122 387 385 8
 123 383 124 8
 123 385 383 8
 124 383 382 8
 158 69 7 9
 8 78 159 9
 11 392 107 9
 159 392 11 9
 115 391 12 9
 12 391 158 9
 69 391 70 9
 158 391 69 9
 70 394 71 9
 391 394 70 9
 71 396 72 9
 394 396 71 9
 72 398 73 9
 396 398 72 9
 73 399 74 9
 398 400 73 9
 73 400 399 9
 74 397 75 9
 74 399 397 9
 75 395 76 9
 75 397 395 9
 76 393 77 9
 76 395 393 9
 77 392 78 9
 77 393 392 9
 78 392 159 9
 107 393 108 9
 392 393 107 9
 108 395 109 9
 393 395 108 9
 109 397 110 9
 395 397 109 9
 110 399 111 9
 397 399 110 9
 111 400 112 9
 399 400 111 9
 112 398 113 9
 112 400 398 9
 113 396 114 9
 113 398 396 9
 114 394 115 9
 114 396 394 9
 115 394 391 9
 160 49 5 10
 58 157 6 10
 9 402 89 10
 157 402 9 10
 97 401 10 10
 10 401 160 10
 49 401 50 10
 160 401 49 10
 50 403 51 10
 401 403 50 10
 51 405 52 10
 403 405 51 10
 52 407 53 10
 405 407 52 10
 53 409 54 10
 407 409 53 10
 54 408 55 10
 54 410 408 10
 409 410 54 10
 55 406 56 10
 55 408 406 10
 56 404 57 10
 56 406 404 10
 57 402 58 10
 57 404 402 10
 58 402 157 10
 89 404 90 10
 402 404 89 10
 90 406 91 10
 404 406 90 10
 91 408 92 10
 406 408 91 10
 92 410 93 10
 408 410 92 10
 93 409 94 10
 93 410 409 10
 94 407 95 10
 94 409 407 10
 95 405 96 10
 95 407 405 10
 96 403 97 10
 96 405 403 10
 97 403 401 10
 88 160 5 11
 8 159 79 11
 10 412 98 11
 160 412 10 11
 106 411 11 11
 11 411 159 11
 79 411 80 11
 159 411 79 11
 80 413 81 11
 411 413 80 11
 81 416 82 11
 413 416 81 11
 82 418 83 11
 416 418 82 11
 83 420 84 11
 418 419 83 11
 419 420 83 11
 84 417 85 11
 84 420 417 11
 85 415 86 11
 85 417 415 11
 86 414 87 11
 86 415 414 11
 87 412 88 11
 87 414 412 11
 88 412 160 11
 98 414 99 11
 412 414 98 11
 99 415 100 11
 414 415 99 11
 100 417 101 11
 415 417 100 11
 101 420 102 11
 417 420 101 11
 102 419 103 11
 102 420 419 11
 103 418 104 11
 103 419 418 11
 104 416 105 11
 104 418 416 11
 105 413 106 11
 105 416 413 11
 106 413 411 11
 Tetrahedra
 1207
 421 425 216 427 1
 288 289 231 330 1
 268 424 216 426 1
 213 215 257 427 1
 215 214 216 427 1
 233 377 232 234 1
 346 216 425 427 1
 316 216 426 428 1
 248 337 422 423 1
 268 426 216 428 1
 214 421 216 427 1
 213 257 421 427 1
 216 421 214 425 1
 245 244 246 422 1
 216 424 347 426 1
 341 248 337 422 1
 213 421 215 427 1
 215 421 214 427 1
 241 355 212 421 1
 350 421 257 427 1
 232 231 330 228 1
 346 425 421 427 1
 289 334 290 232 1
 246 422 341 429 1
 347 424 216 427 1
 234 339 365 430 1
 231 227 273 330 1
 334 365 290 234 1
 364 422 337 423 1
 245 422 246 429 1
 224 335 228 263 1
 336 233 263 270 1
 330 289 231 232 1
 222 248 244 422 1
 356 275 203 425 1
 244 341 246 422 1
 231 273 288 330 1
 253 261 370 293 1
 341 244 248 422 1
 232 334 290 234 1
 325 227 224 228 1
 234 236 339 430 1
 346 425 216 428 1
 337 222 270 423 1
 239 240 371 283 1
 365 290 234 430 1
 251 317 426 428 1
 240 344 371 283 1
 341 337 364 422 1
 289 288 264 300 1
 316 216 347 426 1
 248 422 222 423 1
 232 377 334 234 1
 198 289 300 290 1
 268 217 216 424 1
 270 337 338 240 1
 358 251 317 426 1
 224 223 226 431 1
 235 377 233 234 1
 345 290 365 430 1
 251 327 317 428 1
 354 202 284 363 1
 231 227 330 228 1
 202 237 284 363 1
 350 213 257 421 1
 362 293 207 276 1
 369 358 255 251 1
 327 369 286 251 1
 240 371 338 235 1
 238 298 287 305 1
 251 426 252 428 1
 365 334 377 234 1
 216 424 217 427 1
 263 221 224 423 1
 323 270 263 423 1
 235 371 339 239 1
 232 335 377 233 1
 210 277 360 281 1
 222 263 270 423 1
 253 254 370 428 1
 265 290 345 430 1
 241 212 213 421 1
 266 247 285 359 1
 255 302 369 286 1
 365 377 339 234 1
 370 327 253 428 1
 287 201 288 333 1
 289 334 300 290 1
 371 339 338 235 1
 225 426 250 431 1
 358 327 317 251 1
 350 349 421 427 1
 239 306 204 283 1
 337 270 248 240 1
 293 304 362 207 1
 233 232 335 228 1
 286 253 327 251 1
 218 427 422 429 1
 337 270 323 423 1
 224 423 221 431 1
 289 330 334 232 1
 235 339 377 234 1
 263 323 336 270 1
 269 281 361 239 1
 224 226 322 431 1
 250 426 319 431 1
 362 313 293 276 1
 273 238 287 329 1
 216 316 346 428 1
 263 224 322 423 1
 370 253 293 254 1
 306 344 204 283 1
 235 240 371 239 1
 248 222 337 423 1
 362 376 211 279 1
 279 211 362 276 1
 327 357 253 286 1
 37 111 264 198 1
 360 375 277 210 1
 300 345 198 290 1
 270 338 336 235 1
 358 319 250 426 1
 227 224 226 325 1
 233 336 377 235 1
 350 355 241 421 1
 346 421 349 427 1
 274 425 314 428 1
 218 257 427 429 1
 211 312 362 276 1
 362 376 312 211 1
 304 362 313 293 1
 358 250 255 251 1
 357 369 302 286 1
 233 335 336 263 1
 344 371 338 240 1
 265 37 345 198 1
 286 369 255 251 1
 236 235 339 239 1
 261 304 370 293 1
 345 265 198 290 1
 308 237 202 363 1
 275 311 356 203 1
 302 255 199 286 1
 281 299 277 430 1
 324 226 223 431 1
 262 284 255 302 1
 229 227 226 325 1
 280 259 298 332 1
 335 325 224 228 1
 361 360 281 269 1
 93 197 21 272 1
 344 378 283 267 1
 365 345 334 290 1
 337 338 336 270 1
 282 209 280 332 1
 285 247 246 429 1
 202 354 308 363 1
 218 422 245 429 1
 303 283 249 267 1
 270 222 337 248 1
 291 234 290 430 1
 284 262 354 302 1
 347 216 346 427 1
 223 225 250 431 1
 335 233 228 263 1
 356 314 275 425 1
 311 312 260 276 1
 269 361 306 239 1
 334 335 377 232 1
 21 272 197 421 1
 264 288 201 333 1
 358 255 328 369 1
 335 224 322 263 1
 338 270 240 235 1
 246 244 248 341 1
 223 250 324 431 1
 257 348 350 427 1
 330 335 232 228 1
 237 258 282 308 1
 227 325 330 228 1
 370 357 261 253 1
 283 303 344 267 1
 330 273 288 329 1
 323 337 336 270 1
 227 229 273 329 1
 234 235 339 236 1
 293 313 370 254 1
 336 233 270 235 1
 345 300 334 290 1
 201 36 264 333 1
 37 265 110 198 1
 224 322 423 431 1
 330 227 273 329 1
 363 237 230 326 1
 350 241 213 421 1
 281 277 353 430 1
 230 284 237 363 1
 378 204 283 267 1
 282 298 238 331 1
 353 361 281 430 1
 353 360 277 281 1
 344 378 204 283 1
 246 248 340 341 1
 369 327 358 251 1
 254 275 314 428 1
 357 327 369 286 1
 302 284 255 328 1
 199 357 302 286 1
 282 280 298 332 1
 333 264 288 300 1
 218 245 257 429 1
 300 37 264 198 1
 242 243 292 429 1
 260 275 311 276 1
 357 261 253 286 1
 36 37 111 264 1
 21 272 421 425 1
 347 316 346 216 1
 249 285 246 342 1
 344 303 283 249 1
 361 371 306 239 1
 328 250 255 358 1
 250 226 223 324 1
 363 230 284 328 1
 360 361 306 269 1
 264 112 36 201 1
 20 197 94 212 1
 250 319 324 431 1
 312 311 313 276 1
 339 377 336 235 1
 272 203 21 92 1
 314 425 346 428 1
 314 313 254 428 1
 302 354 284 328 1
 259 287 298 305 1
 357 370 327 253 1
 298 282 332 331 1
 212 20 197 421 1
 238 273 229 329 1
 361 236 281 430 1
 238 298 305 331 1
 282 209 332 368 1
 259 201 287 305 1
 305 287 238 329 1
 308 258 282 368 1
 325 224 226 322 1
 285 303 249 200 1
 238 229 237 331 1
 241 350 257 429 1
 197 21 20 93 1
 251 225 252 426 1
 275 274 203 425 1
 295 277 375 210 1
 264 289 300 198 1
 285 249 303 342 1
 203 272 21 425 1
 322 323 263 423 1
 257 348 427 429 1
 275 313 311 276 1
 338 339 336 235 1
 200 285 303 359 1
 345 38 37 265 1
 236 361 281 239 1
 324 322 226 431 1
 211 260 312 276 1
 360 375 353 277 1
 197 20 21 421 1
 332 259 298 305 1
 209 280 332 372 1
 212 241 307 355 1
 241 213 257 350 1
 250 324 319 358 1
 38 265 345 430 1
 230 226 250 324 1
 229 230 237 326 1
 370 315 327 428 1
 297 211 376 279 1
 330 335 334 232 1
 308 282 237 331 1
 265 38 37 110 1
 254 313 314 275 1
 201 259 35 305 1
 226 230 326 324 1
 242 278 256 352 1
 260 312 23 211 1
 278 256 352 374 1
 242 292 208 367 1
 344 378 306 204 1
 212 19 20 421 1
 278 294 256 374 1
 284 262 202 354 1
 209 296 280 372 1
 360 210 281 269 1
 237 363 331 326 1
 284 354 363 328 1
 39 277 206 430 1
 314 274 275 425 1
 265 291 290 430 1
 325 226 229 326 1
 329 229 238 331 1
 201 35 36 333 1
 36 37 264 300 1
 254 293 313 276 1
 347 346 349 427 1
 313 370 304 293 1
 350 348 349 427 1
 201 287 305 333 1
 265 38 206 430 1
 356 314 311 275 1
 249 248 340 246 1
 226 230 229 326 1
 285 200 266 359 1
 112 35 36 201 1
 94 19 20 212 1
 203 22 21 92 1
 279 362 207 276 1
 295 375 25 210 1
 323 336 335 263 1
 212 355 19 421 1
 229 227 325 329 1
 328 230 250 324 1
 258 209 282 368 1
 202 262 45 354 1
 285 246 342 429 1
 334 330 289 300 1
 22 203 21 425 1
 378 344 303 267 1
 261 357 199 286 1
 344 338 340 240 1
 259 280 34 332 1
 331 229 237 326 1
 39 353 277 430 1
 258 237 202 308 1
 337 340 248 341 1
 379 365 339 430 1
 357 304 370 261 1
 372 332 209 368 1
 335 336 377 233 1
 360 353 361 281 1
 341 342 246 429 1
 205 241 242 307 1
 324 250 328 358 1
 230 250 255 328 1
 210 360 26 269 1
 293 261 304 207 1
 261 357 44 199 1
 275 254 313 276 1
 322 323 335 263 1
 259 35 113 201 1
 206 38 265 109 1
 204 269 306 239 1
 282 308 368 331 1
 312 24 23 211 1
 311 22 356 203 1
 246 340 249 342 1
 204 378 28 267 1
 241 257 243 429 1
 314 315 313 428 1
 256 294 17 374 1
 288 333 330 329 1
 341 340 246 342 1
 39 206 38 430 1
 28 204 267 103 1
 359 285 303 342 1
 119 262 45 202 1
 255 262 302 199 1
 309 208 292 367 1
 357 44 43 261 1
 266 200 29 359 1
 230 255 284 328 1
 252 254 253 428 1
 47 209 258 368 1
 45 46 202 354 1
 37 300 345 198 1
 102 267 28 200 1
 202 46 258 308 1
 302 262 45 199 1
 211 376 24 297 1
 45 262 120 199 1
 261 43 304 207 1
 96 18 17 183 1
 23 24 186 90 1
 184 25 26 105 1
 296 209 48 372 1
 375 360 25 210 1
 255 302 328 369 1
 356 203 22 425 1
 240 248 340 249 1
 45 46 119 202 1
 28 27 204 103 1
 29 30 266 359 1
 230 363 326 328 1
 280 296 33 372 1
 207 42 362 279 1
 203 311 22 260 1
 206 39 38 109 1
 325 224 322 335 1
 333 287 305 329 1
 25 26 105 210 1
 277 375 40 295 1
 177 38 39 109 1
 179 22 23 91 1
 269 306 27 204 1
 26 25 360 210 1
 28 29 102 200 1
 350 307 241 355 1
 306 26 360 269 1
 120 44 45 199 1
 277 108 39 206 1
 111 37 36 161 1
 256 18 17 96 1
 242 292 367 351 1
 171 37 38 110 1
 313 362 312 276 1
 90 23 24 211 1
 312 376 24 211 1
 324 325 226 322 1
 43 42 304 207 1
 205 19 95 212 1
 266 208 292 309 1
 39 40 185 108 1
 114 34 33 181 1
 305 298 332 331 1
 22 203 260 91 1
 378 28 27 204 1
 203 275 311 260 1
 302 45 44 199 1
 297 376 41 279 1
 205 242 256 352 1
 335 330 325 228 1
 282 238 237 331 1
 182 41 42 123 1
 117 48 47 187 1
 32 31 99 188 1
 294 278 32 374 1
 256 18 205 352 1
 331 329 229 326 1
 343 373 348 429 1
 29 30 101 266 1
 261 44 43 121 1
 267 249 303 200 1
 363 308 237 331 1
 326 325 226 324 1
 200 29 101 266 1
 121 261 44 199 1
 46 202 354 308 1
 113 34 35 259 1
 353 40 39 277 1
 23 311 312 260 1
 117 47 48 209 1
 208 266 30 309 1
 352 205 242 307 1
 259 34 35 305 1
 95 19 18 175 1
 113 35 34 174 1
 47 46 118 178 1
 26 27 176 104 1
 347 424 318 426 1
 114 280 34 259 1
 241 242 307 351 1
 303 344 340 249 1
 328 326 230 324 1
 378 27 306 204 1
 93 21 20 163 1
 267 303 28 200 1
 330 325 227 329 1
 357 302 44 199 1
 46 47 258 308 1
 94 20 19 167 1
 112 36 35 165 1
 46 45 119 170 1
 172 21 22 92 1
 27 28 168 103 1
 280 34 33 114 1
 108 39 40 277 1
 303 28 378 267 1
 354 262 45 302 1
 254 271 275 428 1
 278 242 208 367 1
 332 34 259 305 1
 306 27 26 269 1
 42 41 362 279 1
 329 238 305 331 1
 30 31 208 309 1
 29 28 102 164 1
 44 45 162 120 1
 117 47 209 258 1
 210 26 105 269 1
 241 351 350 429 1
 260 23 22 91 1
 209 47 48 368 1
 17 18 256 352 1
 314 346 316 428 1
 333 36 264 300 1
 242 278 352 367 1
 90 260 23 211 1
 311 314 313 275 1
 258 118 46 202 1
 27 269 204 104 1
 35 201 305 333 1
 46 47 118 258 1
 27 26 269 104 1
 372 209 48 368 1
 296 48 33 372 1
 38 345 310 430 1
 32 31 278 99 1
 376 362 41 279 1
 47 258 308 368 1
 19 212 307 355 1
 42 41 279 123 1
 30 31 100 208 1
 340 303 249 342 1
 374 352 278 367 1
 266 30 100 208 1
 43 42 207 122 1
 353 375 40 277 1
 29 28 303 200 1
 316 347 318 426 1
 207 261 43 122 1
 19 355 20 421 1
 256 205 18 96 1
 95 18 19 205 1
 292 309 367 351 1
 43 304 357 261 1
 242 292 351 429 1
 329 325 229 326 1
 368 332 282 331 1
 304 42 362 207 1
 311 23 22 260 1
 309 351 292 429 1
 31 208 278 99 1
 280 33 34 332 1
 279 207 42 123 1
 350 351 380 429 1
 212 205 19 307 1
 200 303 29 359 1
 352 256 17 374 1
 208 31 278 367 1
 111 37 110 198 1
 242 352 307 351 1
 21 421 301 425 1
 205 212 241 307 1
 31 30 100 180 1
 42 43 173 122 1
 341 343 342 429 1
 97 17 1 190 1
 191 3 25 106 1
 30 29 101 169 1
 43 44 166 121 1
 95 19 94 212 1
 38 265 109 110 1
 112 113 35 201 1
 92 203 22 91 1
 374 278 32 367 1
 93 20 197 94 1
 111 112 36 264 1
 272 21 93 92 1
 359 30 266 309 1
 278 31 32 367 1
 400 111 36 161 1
 163 93 21 410 1
 332 280 33 372 1
 189 2 41 124 1
 195 24 2 89 1
 116 4 48 194 1
 98 1 32 196 1
 20 301 21 421 1
 102 28 419 164 1
 390 44 162 120 1
 295 25 106 210 1
 115 280 33 114 1
 350 241 307 351 1
 410 93 21 92 1
 36 112 111 400 1
 256 17 294 97 1
 281 236 299 430 1
 36 112 400 165 1
 410 21 172 92 1
 103 28 168 419 1
 115 33 4 192 1
 419 103 28 102 1
 48 116 209 296 1
 4 48 33 296 1
 91 260 23 90 1
 118 119 46 202 1
 27 204 103 104 1
 103 267 28 102 1
 45 262 119 120 1
 108 40 107 277 1
 25 3 375 295 1
 118 47 117 258 1
 26 105 269 104 1
 294 1 17 374 1
 211 24 89 297 1
 403 96 17 183 1
 25 184 413 105 1
 356 22 21 425 1
 205 18 19 307 1
 40 3 193 107 1
 31 208 309 367 1
 280 33 296 115 1
 205 95 18 96 1
 41 2 376 297 1
 376 2 24 297 1
 375 3 40 295 1
 32 1 294 374 1
 394 114 33 181 1
 404 186 24 90 1
 48 117 384 187 1
 41 182 383 123 1
 414 32 99 188 1
 294 32 278 98 1
 41 297 279 124 1
 352 18 205 307 1
 234 291 236 430 1
 365 310 345 430 1
 367 352 242 351 1
 277 40 107 295 1
 33 48 4 372 1
 393 185 40 108 1
 31 100 208 99 1
 294 17 1 97 1
 106 3 25 295 1
 42 207 122 123 1
 109 39 177 395 1
 406 179 23 91 1
 390 44 120 121 1
 90 404 89 211 1
 390 166 44 121 1
 97 96 256 403 1
 1 32 294 98 1
 89 24 2 297 1
 297 41 2 124 1
 48 4 116 296 1
 101 102 29 200 1
 44 120 121 199 1
 309 366 351 429 1
 18 405 95 175 1
 396 113 34 174 1
 386 47 118 178 1
 104 176 26 416 1
 30 100 101 266 1
 122 261 43 121 1
 105 413 25 210 1
 401 97 1 190 1
 4 116 381 194 1
 402 195 2 89 1
 2 189 382 124 1
 1 98 412 196 1
 3 191 411 106 1
 117 116 209 384 1
 413 105 106 210 1
 299 206 277 430 1
 106 25 413 210 1
 17 256 96 403 1
 296 33 4 115 1
 256 17 97 403 1
 39 38 310 430 1
 209 48 117 384 1
 24 404 90 211 1
 91 23 406 90 1
 209 116 48 384 1
 107 40 3 295 1
 404 24 89 211 1
 124 279 383 123 1
 99 98 278 414 1
 319 358 317 426 1
 392 193 3 107 1
 391 115 4 192 1
 380 343 348 429 1
 95 405 18 96 1
 118 117 47 386 1
 26 105 104 416 1
 109 206 39 395 1
 19 407 94 167 1
 110 38 171 397 1
 398 112 35 165 1
 408 172 22 92 1
 388 46 119 170 1
 168 27 103 418 1
 114 33 115 394 1
 99 278 32 414 1
 279 41 383 123 1
 98 32 278 414 1
 279 383 41 124 1
 216 271 268 428 1
 100 415 31 180 1
 385 42 173 122 1
 259 113 34 396 1
 107 393 40 108 1
 161 111 37 399 1
 206 108 39 395 1
 94 407 19 95 1
 112 35 113 398 1
 92 22 408 91 1
 110 109 38 397 1
 46 119 118 388 1
 104 103 27 418 1
 110 37 111 399 1
 403 17 97 190 1
 413 191 25 106 1
 20 409 93 163 1
 259 34 114 396 1
 171 37 110 399 1
 406 23 186 90 1
 102 420 29 164 1
 409 20 93 94 1
 162 45 389 120 1
 216 214 274 425 1
 315 317 327 428 1
 108 206 109 395 1
 114 113 259 396 1
 389 45 119 120 1
 100 31 415 99 1
 122 385 42 123 1
 296 116 12 381 1
 10 294 98 412 1
 11 411 106 295 1
 97 294 10 401 1
 297 382 9 124 1
 89 402 9 297 1
 404 24 195 89 1
 384 116 48 194 1
 383 189 41 124 1
 414 98 32 196 1
 361 353 379 430 1
 108 185 39 395 1
 101 417 30 169 1
 387 43 166 121 1
 94 409 20 167 1
 389 119 45 170 1
 96 405 18 183 1
 386 117 47 187 1
 385 182 42 123 1
 99 31 415 188 1
 105 26 184 416 1
 219 220 221 424 1
 35 113 398 174 1
 95 407 19 175 1
 408 22 179 91 1
 177 38 109 397 1
 388 118 46 178 1
 104 27 176 418 1
 1 294 97 401 1
 4 116 296 381 1
 2 382 297 124 1
 89 2 402 297 1
 98 294 1 412 1
 106 411 3 295 1
 33 115 394 192 1
 34 114 396 181 1
 219 221 423 424 1
 221 424 220 431 1
 197 213 212 421 1
 214 197 272 421 1
 213 214 215 421 1
 107 392 11 295 1
 115 296 12 391 1
 222 244 219 422 1
 218 244 245 422 1
 321 373 422 427 1
 40 193 393 107 1
 294 1 10 401 1
 392 3 11 295 1
 296 12 4 381 1
 294 10 1 412 1
 382 9 2 297 1
 411 11 3 295 1
 2 9 402 297 1
 296 4 12 391 1
 398 400 112 165 1
 172 408 410 92 1
 168 103 419 418 1
 221 423 424 431 1
 222 422 219 423 1
 214 421 272 425 1
 3 392 107 295 1
 4 296 115 391 1
 247 245 246 429 1
 102 29 420 101 1
 224 221 223 431 1
 225 223 220 431 1
 163 409 93 410 1
 400 111 161 399 1
 218 219 422 427 1
 225 220 426 431 1
 419 420 102 164 1
 390 162 389 120 1
 219 424 422 427 1
 100 30 417 180 1
 173 43 387 122 1
 101 29 420 169 1
 220 217 268 424 1
 320 423 322 431 1
 100 417 30 101 1
 122 43 387 121 1
 220 424 268 426 1
 221 263 222 423 1
 274 272 203 425 1
 346 301 421 425 1
 215 216 217 427 1
 218 217 219 427 1
 215 218 257 427 1
 217 424 219 427 1
 265 206 291 430 1
 364 373 341 422 1
 324 319 322 431 1
 97 401 403 190 1
 384 381 116 194 1
 195 402 404 89 1
 189 383 382 124 1
 414 412 98 196 1
 191 413 411 106 1
 350 349 355 421 1
 422 423 321 424 1
 323 364 337 423 1
 390 387 166 121 1
 268 252 225 426 1
 349 346 301 421 1
 314 356 346 425 1
 252 426 268 428 1
 321 348 373 427 1
 392 393 193 107 1
 391 394 115 192 1
 322 320 323 423 1
 405 96 403 183 1
 186 404 406 90 1
 117 386 384 187 1
 385 383 182 123 1
 414 99 415 188 1
 105 184 413 416 1
 364 321 422 423 1
 243 257 245 429 1
 353 39 310 430 1
 108 393 185 395 1
 394 396 114 181 1
 320 321 423 424 1
 318 426 424 431 1
 348 347 349 427 1
 20 355 301 421 1
 405 407 95 175 1
 396 398 113 174 1
 397 109 177 395 1
 179 406 408 91 1
 388 386 118 178 1
 176 104 418 416 1
 318 424 320 431 1
 317 316 426 428 1
 318 319 426 431 1
 271 254 252 428 1
 318 317 316 426 1
 364 320 321 423 1
 310 365 379 430 1
 301 356 21 425 1
 407 409 94 167 1
 399 110 171 397 1
 119 389 388 170 1
 347 321 424 427 1
 318 320 319 431 1
 247 292 243 429 1
 100 417 415 180 1
 387 385 173 122 1
 219 423 422 424 1
 318 347 321 424 1
 366 342 343 429 1
 399 73 161 400 1
 409 163 54 410 1
 389 63 162 390 1
 420 419 83 164 1
 424 426 220 431 1
 314 316 315 428 1
 422 424 321 427 1
 320 424 423 431 1
 101 420 417 169 1
 252 268 271 428 1
 214 272 274 425 1
 220 268 225 426 1
 197 214 213 421 1
 217 220 219 424 1
 299 236 291 430 1
 221 222 219 423 1
 218 219 244 422 1
 221 220 223 431 1
 160 10 1 401 1
 2 9 382 157 1
 157 2 9 402 1
 160 1 10 412 1
 392 11 3 159 1
 158 4 12 381 1
 4 12 391 158 1
 411 3 11 159 1
 318 319 317 426 1
 408 54 172 410 1
 400 398 73 165 1
 83 168 419 418 1
 166 63 387 390 1
 317 315 316 428 1
 321 347 348 427 1
 320 318 321 424 1
 321 373 364 422 1
 349 301 355 421 1
 346 356 301 425 1
 217 218 215 427 1
 247 243 245 429 1
 364 323 320 423 1
 310 379 353 430 1
 291 206 299 430 1
 36 143 333 35 1
 83 168 28 419 1
 63 166 44 390 1
 21 172 54 410 1
 73 36 400 165 1
 44 43 135 357 1
 419 28 83 164 1
 44 162 63 390 1
 54 163 21 410 1
 73 400 36 161 1
 40 147 353 39 1
 320 322 319 431 1
 191 25 80 413 1
 50 17 403 190 1
 192 394 33 70 1
 164 83 420 84 1
 63 389 162 64 1
 73 399 161 74 1
 53 409 163 54 1
 357 44 302 136 1
 169 417 85 84 1
 388 65 170 64 1
 167 52 407 53 1
 75 74 171 397 1
 80 184 81 413 1
 60 182 61 383 1
 86 414 188 87 1
 185 77 76 393 1
 403 50 51 183 1
 66 384 187 67 1
 70 394 181 71 1
 186 57 56 404 1
 176 82 81 416 1
 173 62 61 385 1
 85 415 180 86 1
 178 65 386 66 1
 405 51 52 175 1
 75 177 76 395 1
 72 174 396 71 1
 56 55 179 406 1
 21 356 301 129 1
 60 189 41 383 1
 87 414 32 196 1
 193 77 40 393 1
 67 384 48 194 1
 195 57 24 404 1
 87 88 412 196 1
 57 195 58 402 1
 189 60 59 382 1
 401 49 50 190 1
 79 191 80 411 1
 192 69 391 70 1
 77 193 78 392 1
 67 68 381 194 1
 304 135 43 357 1
 168 83 82 418 1
 166 63 62 387 1
 55 54 172 408 1
 398 72 73 165 1
 143 36 333 144 1
 355 128 20 301 1
 357 135 44 136 1
 142 35 34 305 1
 184 80 25 413 1
 17 50 403 183 1
 181 33 394 70 1
 128 21 301 129 1
 147 40 353 148 1
 21 130 356 129 1
 18 17 125 352 1
 127 20 19 355 1
 127 20 355 128 1
 21 128 301 20 1
 182 60 41 383 1
 188 414 32 87 1
 187 384 48 67 1
 40 77 185 393 1
 24 57 186 404 1
 185 76 39 395 1
 186 56 23 406 1
 130 21 356 22 1
 310 147 39 353 1
 26 360 150 306 1
 131 24 312 132 1
 24 131 312 23 1
 1 49 160 401 1
 382 59 2 157 1
 157 58 2 402 1
 412 160 1 88 1
 3 78 392 159 1
 381 158 4 68 1
 411 79 3 159 1
 158 391 4 69 1
 43 42 134 304 1
 345 37 38 145 1
 145 38 345 146 1
 141 34 33 332 1
 147 38 310 39 1
 38 147 310 146 1
 145 36 300 37 1
 47 138 308 46 1
 138 47 308 139 1
 420 417 169 84 1
 170 389 388 64 1
 399 171 74 397 1
 407 409 167 53 1
 46 45 137 354 1
 354 137 46 138 1
 81 184 26 416 1
 415 31 86 188 1
 61 182 42 385 1
 386 47 66 187 1
 405 51 18 183 1
 181 396 34 71 1
 143 35 305 333 1
 39 76 177 395 1
 179 23 56 406 1
 158 4 7 69 1
 8 3 79 159 1
 7 4 158 68 1
 78 3 8 159 1
 5 1 160 88 1
 2 6 58 157 1
 1 49 5 160 1
 59 6 2 157 1
 142 35 305 143 1
 403 401 50 190 1
 413 80 191 411 1
 193 77 393 392 1
 60 189 383 382 1
 412 414 87 196 1
 381 384 67 194 1
 391 394 192 70 1
 57 195 402 404 1
 150 151 27 306 1
 150 27 26 306 1
 352 125 18 126 1
 82 176 418 416 1
 385 173 62 387 1
 180 417 415 85 1
 55 179 406 408 1
 396 398 174 72 1
 386 388 65 178 1
 177 75 397 395 1
 407 405 52 175 1
 176 81 26 416 1
 415 31 180 86 1
 173 61 42 385 1
 386 47 178 66 1
 405 18 51 175 1
 174 34 396 71 1
 184 81 413 416 1
 182 61 383 385 1
 86 414 415 188 1
 51 405 403 183 1
 76 185 393 395 1
 394 396 181 71 1
 66 384 386 187 1
 56 186 404 406 1
 146 38 345 310 1
 345 300 37 145 1
 131 22 311 23 1
 333 144 36 300 1
 43 134 135 304 1
 311 131 23 312 1
 136 45 44 302 1
 136 45 302 137 1
 22 356 130 311 1
 133 42 362 134 1
 362 41 42 133 1
 27 82 176 418 1
 30 417 180 85 1
 173 43 62 387 1
 65 388 46 178 1
 407 52 19 175 1
 38 177 75 397 1
 174 398 35 72 1
 179 55 22 408 1
 359 153 30 154 1
 30 29 153 359 1
 28 29 303 152 1
 152 29 303 153 1
 22 131 311 130 1
 1 412 88 196 1
 58 195 2 402 1
 401 1 49 190 1
 59 2 189 382 1
 3 191 79 411 1
 69 391 4 192 1
 78 193 3 392 1
 4 381 68 194 1
 31 309 154 155 1
 30 31 309 154 1
 149 26 25 360 1
 141 34 332 142 1
 140 15 48 372 1
 27 168 82 418 1
 30 417 85 169 1
 62 43 166 387 1
 65 46 388 170 1
 407 19 52 167 1
 75 171 38 397 1
 72 398 35 165 1
 55 172 22 408 1
 305 332 34 142 1
 32 14 374 156 1
 45 137 354 302 1
 376 24 13 132 1
 37 171 74 399 1
 74 161 37 399 1
 36 145 300 144 1
 48 139 140 368 1
 153 29 303 359 1
 308 354 46 138 1
 366 343 380 429 1
 13 41 376 133 1
 169 29 420 84 1
 170 45 389 64 1
 167 409 20 53 1
 164 420 29 84 1
 162 389 45 64 1
 53 409 20 163 1
 139 48 47 368 1
 149 26 360 150 1
 47 308 139 368 1
 127 19 307 355 1
 375 40 16 148 1
 134 42 362 304 1
 155 32 367 156 1
 309 359 30 154 1
 40 375 353 148 1
 380 351 366 429 1
 155 32 31 367 1
 126 19 307 127 1
 126 19 18 307 1
 307 352 18 126 1
 141 33 4 372 1
 303 378 28 152 1
 3 25 375 149 1
 125 17 1 374 1
 4 15 141 372 1
 15 4 48 372 1
 14 32 374 1 1
 375 16 3 149 1
 16 3 40 375 1
 41 2 13 376 1
 13 2 24 376 1
 1 14 125 374 1
 24 376 312 132 1
 352 17 125 374 1
 151 28 27 378 1
 378 151 28 152 1
 306 151 27 378 1
 375 25 360 149 1
 31 309 155 367 1
 48 140 372 368 1
 32 156 374 367 1
 332 33 141 372 1
 376 41 362 133 1
 339 239 361 236 1
 361 239 339 371 1
 428 274 216 271 1
 428 216 274 425 1
 428 251 253 252 1
 428 253 251 327 1
 339 430 361 379 1
 361 430 339 236 1
 250 426 251 358 1
 251 426 250 225 1
 274 428 275 271 1
 275 428 274 314 1
 371 283 306 239 1
 306 283 371 344 1
 240 337 340 248 1
 240 340 337 338 1
 300 288 330 289 1
 300 330 288 333 1
 249 344 240 283 1
 249 240 344 340 1
 350 429 348 257 1
 348 429 350 380 1
 428 313 370 315 1
 428 370 313 254 1
 288 329 287 333 1
 287 329 288 273 1
 429 373 341 343 1
 429 341 373 422 1
 429 309 247 292 1
 429 247 309 366 1
 266 247 309 292 1
 429 285 366 342 1
 429 366 285 247 1
 359 366 285 342 1
 359 285 366 247 1
 429 242 241 351 1
 429 241 242 243 1
 427 373 429 348 1
 427 429 373 422 1
 247 309 359 266 1
 247 359 309 366 1
 End
