solid Created by Gmsh
facet normal 0 1 0
  outer loop
    vertex 15.00000000000001 3.8 58.99999999999999
    vertex 15.00000000000001 3.8 55.24999999999998
    vertex 12.50000000000001 3.8 56.49999999999999
  endloop
endfacet
facet normal 0 1 0
  outer loop
    vertex 15.00000000000001 3.8 58.99999999999999
    vertex 12.50000000000001 3.8 56.49999999999999
    vertex 11.25000000000002 3.8 58.99999999999999
  endloop
endfacet
facet normal 0 1 0
  outer loop
    vertex 12.50000000000001 3.8 56.49999999999999
    vertex 15.00000000000001 3.8 55.24999999999998
    vertex 12.50000000000001 3.8 52.92857142857142
  endloop
endfacet
facet normal 0 1 0
  outer loop
    vertex 11.25000000000002 3.8 58.99999999999999
    vertex 12.50000000000001 3.8 56.49999999999999
    vertex 8.928571428571441 3.8 56.49999999999999
  endloop
endfacet
facet normal -0 1 0
  outer loop
    vertex 12.50000000000001 3.8 31.49999999999999
    vertex 15.00000000000001 3.8 32.74999999999998
    vertex 15.00000000000001 3.8 28.99999999999999
  endloop
endfacet
facet normal 0 1 0
  outer loop
    vertex 15.00000000000001 3.8 28.99999999999999
    vertex 11.25 3.8 28.99999999999999
    vertex 12.50000000000001 3.8 31.49999999999999
  endloop
endfacet
facet normal 0 1 0
  outer loop
    vertex 12.50000000000001 3.8 35.07142857142856
    vertex 15.00000000000001 3.8 32.74999999999998
    vertex 12.50000000000001 3.8 31.49999999999999
  endloop
endfacet
facet normal 0 1 0
  outer loop
    vertex 12.50000000000001 3.8 31.49999999999999
    vertex 11.25 3.8 28.99999999999999
    vertex 8.928571428571432 3.8 31.49999999999999
  endloop
endfacet
facet normal 0 1 0
  outer loop
    vertex -14.99999999999999 3.8 55.25000000000001
    vertex -14.99999999999999 3.8 58.99999999999999
    vertex -12.49999999999999 3.8 56.49999999999999
  endloop
endfacet
facet normal 0 1 -0
  outer loop
    vertex -12.49999999999999 3.8 56.49999999999999
    vertex -14.99999999999999 3.8 58.99999999999999
    vertex -11.24999999999998 3.8 58.99999999999999
  endloop
endfacet
facet normal 0 1 0
  outer loop
    vertex -11.24999999999998 3.8 58.99999999999999
    vertex -8.92857142857142 3.8 56.49999999999999
    vertex -12.49999999999999 3.8 56.49999999999999
  endloop
endfacet
facet normal -0 1 0
  outer loop
    vertex -14.99999999999999 3.8 55.25000000000001
    vertex -12.49999999999999 3.8 56.49999999999999
    vertex -12.49999999999999 3.8 52.92857142857142
  endloop
endfacet
facet normal 0 1 0
  outer loop
    vertex -12.49999999999999 3.8 31.49999999999999
    vertex -11.25 3.8 28.99999999999999
    vertex -14.99999999999999 3.8 28.99999999999999
  endloop
endfacet
facet normal 0 1 0
  outer loop
    vertex -14.99999999999999 3.8 28.99999999999999
    vertex -14.99999999999999 3.8 32.74999999999999
    vertex -12.49999999999999 3.8 31.49999999999999
  endloop
endfacet
facet normal 0 1 -0
  outer loop
    vertex -12.49999999999999 3.8 31.49999999999999
    vertex -14.99999999999999 3.8 32.74999999999999
    vertex -12.49999999999999 3.8 35.07142857142856
  endloop
endfacet
facet normal 0 1 0
  outer loop
    vertex -8.928571428571425 3.8 31.49999999999999
    vertex -11.25 3.8 28.99999999999999
    vertex -12.49999999999999 3.8 31.49999999999999
  endloop
endfacet
facet normal 0 1 0
  outer loop
    vertex 12.50000000000001 3.8 52.92857142857142
    vertex 15.00000000000001 3.8 51.49999999999996
    vertex 12.50000000000001 3.8 49.35714285714285
  endloop
endfacet
facet normal 0 1 0
  outer loop
    vertex 15.00000000000001 3.8 55.24999999999998
    vertex 15.00000000000001 3.8 51.49999999999996
    vertex 12.50000000000001 3.8 52.92857142857142
  endloop
endfacet
facet normal 0 1 0
  outer loop
    vertex 12.50000000000001 3.8 49.35714285714285
    vertex 15.00000000000001 3.8 47.74999999999994
    vertex 12.50000000000001 3.8 45.78571428571427
  endloop
endfacet
facet normal 0 1 0
  outer loop
    vertex 15.00000000000001 3.8 51.49999999999996
    vertex 15.00000000000001 3.8 47.74999999999994
    vertex 12.50000000000001 3.8 49.35714285714285
  endloop
endfacet
facet normal 0 1 0
  outer loop
    vertex 12.50000000000001 3.8 45.78571428571427
    vertex 15.00000000000001 3.8 43.99999999999994
    vertex 12.50000000000001 3.8 42.2142857142857
  endloop
endfacet
facet normal 0 1 0
  outer loop
    vertex 15.00000000000001 3.8 47.74999999999994
    vertex 15.00000000000001 3.8 43.99999999999994
    vertex 12.50000000000001 3.8 45.78571428571427
  endloop
endfacet
facet normal 0 1 0
  outer loop
    vertex 12.50000000000001 3.8 42.2142857142857
    vertex 15.00000000000001 3.8 40.24999999999994
    vertex 12.50000000000001 3.8 38.64285714285713
  endloop
endfacet
facet normal 0 1 0
  outer loop
    vertex 15.00000000000001 3.8 43.99999999999994
    vertex 15.00000000000001 3.8 40.24999999999994
    vertex 12.50000000000001 3.8 42.2142857142857
  endloop
endfacet
facet normal 0 1 0
  outer loop
    vertex 12.50000000000001 3.8 38.64285714285713
    vertex 15.00000000000001 3.8 36.49999999999996
    vertex 12.50000000000001 3.8 35.07142857142856
  endloop
endfacet
facet normal 0 1 0
  outer loop
    vertex 15.00000000000001 3.8 40.24999999999994
    vertex 15.00000000000001 3.8 36.49999999999996
    vertex 12.50000000000001 3.8 38.64285714285713
  endloop
endfacet
facet normal 0 1 0
  outer loop
    vertex 15.00000000000001 3.8 36.49999999999996
    vertex 15.00000000000001 3.8 32.74999999999998
    vertex 12.50000000000001 3.8 35.07142857142856
  endloop
endfacet
facet normal 0 1 0
  outer loop
    vertex -7.499999999999964 3.8 58.99999999999999
    vertex -5.357142857142846 3.8 56.49999999999999
    vertex -8.92857142857142 3.8 56.49999999999999
  endloop
endfacet
facet normal 0 1 0
  outer loop
    vertex -7.499999999999964 3.8 58.99999999999999
    vertex -8.92857142857142 3.8 56.49999999999999
    vertex -11.24999999999998 3.8 58.99999999999999
  endloop
endfacet
facet normal 0 1 0
  outer loop
    vertex -3.74999999999995 3.8 58.99999999999999
    vertex -1.785714285714272 3.8 56.49999999999999
    vertex -5.357142857142846 3.8 56.49999999999999
  endloop
endfacet
facet normal 0 1 0
  outer loop
    vertex -3.74999999999995 3.8 58.99999999999999
    vertex -5.357142857142846 3.8 56.49999999999999
    vertex -7.499999999999964 3.8 58.99999999999999
  endloop
endfacet
facet normal 0 1 0
  outer loop
    vertex -1.785714285714272 3.8 56.49999999999999
    vertex 6.261657858885883e-14 3.8 58.99999999999999
    vertex 1.785714285714301 3.8 56.49999999999999
  endloop
endfacet
facet normal -0 1 0
  outer loop
    vertex -3.74999999999995 3.8 58.99999999999999
    vertex 6.261657858885883e-14 3.8 58.99999999999999
    vertex -1.785714285714272 3.8 56.49999999999999
  endloop
endfacet
facet normal 0 1 0
  outer loop
    vertex 1.785714285714301 3.8 56.49999999999999
    vertex 3.750000000000052 3.8 58.99999999999999
    vertex 5.357142857142872 3.8 56.49999999999999
  endloop
endfacet
facet normal 0 1 0
  outer loop
    vertex 6.261657858885883e-14 3.8 58.99999999999999
    vertex 3.750000000000052 3.8 58.99999999999999
    vertex 1.785714285714301 3.8 56.49999999999999
  endloop
endfacet
facet normal 0 1 0
  outer loop
    vertex 5.357142857142872 3.8 56.49999999999999
    vertex 7.50000000000004 3.8 59
    vertex 8.928571428571441 3.8 56.49999999999999
  endloop
endfacet
facet normal -0 1 0
  outer loop
    vertex 3.750000000000052 3.8 58.99999999999999
    vertex 7.50000000000004 3.8 59
    vertex 5.357142857142872 3.8 56.49999999999999
  endloop
endfacet
facet normal 0 1 -0
  outer loop
    vertex 8.928571428571441 3.8 56.49999999999999
    vertex 7.50000000000004 3.8 59
    vertex 11.25000000000002 3.8 58.99999999999999
  endloop
endfacet
facet normal 0 1 -0
  outer loop
    vertex -12.49999999999999 3.8 35.07142857142856
    vertex -14.99999999999999 3.8 36.50000000000001
    vertex -12.49999999999999 3.8 38.64285714285712
  endloop
endfacet
facet normal 0 1 0
  outer loop
    vertex -14.99999999999999 3.8 32.74999999999999
    vertex -14.99999999999999 3.8 36.50000000000001
    vertex -12.49999999999999 3.8 35.07142857142856
  endloop
endfacet
facet normal 0 1 -0
  outer loop
    vertex -12.49999999999999 3.8 38.64285714285712
    vertex -14.99999999999999 3.8 40.25000000000003
    vertex -12.49999999999999 3.8 42.2142857142857
  endloop
endfacet
facet normal 0 1 0
  outer loop
    vertex -14.99999999999999 3.8 36.50000000000001
    vertex -14.99999999999999 3.8 40.25000000000003
    vertex -12.49999999999999 3.8 38.64285714285712
  endloop
endfacet
facet normal 0 1 -0
  outer loop
    vertex -12.49999999999999 3.8 42.2142857142857
    vertex -14.99999999999999 3.8 44.00000000000003
    vertex -12.49999999999999 3.8 45.78571428571427
  endloop
endfacet
facet normal 0 1 0
  outer loop
    vertex -14.99999999999999 3.8 40.25000000000003
    vertex -14.99999999999999 3.8 44.00000000000003
    vertex -12.49999999999999 3.8 42.2142857142857
  endloop
endfacet
facet normal 0 1 -0
  outer loop
    vertex -12.49999999999999 3.8 45.78571428571427
    vertex -14.99999999999999 3.8 47.75000000000003
    vertex -12.49999999999999 3.8 49.35714285714285
  endloop
endfacet
facet normal 0 1 0
  outer loop
    vertex -14.99999999999999 3.8 44.00000000000003
    vertex -14.99999999999999 3.8 47.75000000000003
    vertex -12.49999999999999 3.8 45.78571428571427
  endloop
endfacet
facet normal 0 1 -0
  outer loop
    vertex -12.49999999999999 3.8 49.35714285714285
    vertex -14.99999999999999 3.8 51.50000000000002
    vertex -12.49999999999999 3.8 52.92857142857142
  endloop
endfacet
facet normal 0 1 0
  outer loop
    vertex -12.49999999999999 3.8 49.35714285714285
    vertex -14.99999999999999 3.8 47.75000000000003
    vertex -14.99999999999999 3.8 51.50000000000002
  endloop
endfacet
facet normal 0 1 -0
  outer loop
    vertex -14.99999999999999 3.8 51.50000000000002
    vertex -14.99999999999999 3.8 55.25000000000001
    vertex -12.49999999999999 3.8 52.92857142857142
  endloop
endfacet
facet normal 0 1 0
  outer loop
    vertex 8.928571428571432 3.8 31.49999999999999
    vertex 7.499999999999985 3.8 28.99999999999999
    vertex 5.357142857142863 3.8 31.49999999999999
  endloop
endfacet
facet normal 0 1 0
  outer loop
    vertex 11.25 3.8 28.99999999999999
    vertex 7.499999999999985 3.8 28.99999999999999
    vertex 8.928571428571432 3.8 31.49999999999999
  endloop
endfacet
facet normal 0 1 0
  outer loop
    vertex 5.357142857142863 3.8 31.49999999999999
    vertex 3.749999999999972 3.8 28.99999999999999
    vertex 1.78571428571429 3.8 31.49999999999999
  endloop
endfacet
facet normal 0 1 0
  outer loop
    vertex 7.499999999999985 3.8 28.99999999999999
    vertex 3.749999999999972 3.8 28.99999999999999
    vertex 5.357142857142863 3.8 31.49999999999999
  endloop
endfacet
facet normal 0 1 0
  outer loop
    vertex 1.78571428571429 3.8 31.49999999999999
    vertex -4.130029651605582e-14 3.8 28.99999999999999
    vertex -1.785714285714279 3.8 31.49999999999999
  endloop
endfacet
facet normal 0 1 0
  outer loop
    vertex 3.749999999999972 3.8 28.99999999999999
    vertex -4.130029651605582e-14 3.8 28.99999999999999
    vertex 1.78571428571429 3.8 31.49999999999999
  endloop
endfacet
facet normal 0 1 0
  outer loop
    vertex -1.785714285714279 3.8 31.49999999999999
    vertex -3.750000000000031 3.8 28.99999999999999
    vertex -5.357142857142851 3.8 31.49999999999999
  endloop
endfacet
facet normal 0 1 0
  outer loop
    vertex -4.130029651605582e-14 3.8 28.99999999999999
    vertex -3.750000000000031 3.8 28.99999999999999
    vertex -1.785714285714279 3.8 31.49999999999999
  endloop
endfacet
facet normal 0 1 0
  outer loop
    vertex -5.357142857142851 3.8 31.49999999999999
    vertex -7.500000000000018 3.8 28.99999999999999
    vertex -8.928571428571425 3.8 31.49999999999999
  endloop
endfacet
facet normal 0 1 0
  outer loop
    vertex -3.750000000000031 3.8 28.99999999999999
    vertex -7.500000000000018 3.8 28.99999999999999
    vertex -5.357142857142851 3.8 31.49999999999999
  endloop
endfacet
facet normal 0 1 0
  outer loop
    vertex -7.500000000000018 3.8 28.99999999999999
    vertex -11.25 3.8 28.99999999999999
    vertex -8.928571428571425 3.8 31.49999999999999
  endloop
endfacet
facet normal 0 -1 0
  outer loop
    vertex 13 0 30.99999999999998
    vertex 13 0 34.71428571428564
    vertex 10.28095414331559 0 33.7190458566844
  endloop
endfacet
facet normal 0 -1 0
  outer loop
    vertex 9.285714285714286 0 30.99999999999998
    vertex 13 0 30.99999999999998
    vertex 10.28095414331559 0 33.7190458566844
  endloop
endfacet
facet normal 0 -1 0
  outer loop
    vertex 13.00000000000001 0 53.28571428571399
    vertex 13.00000000000001 0 56.99999999999967
    vertex 10.28095414331562 0 54.28095414331539
  endloop
endfacet
facet normal -0 -1 0
  outer loop
    vertex 13.00000000000001 0 56.99999999999967
    vertex 9.285714285714294 0 56.99999999999979
    vertex 10.28095414331562 0 54.28095414331539
  endloop
endfacet
facet normal 0 -1 0
  outer loop
    vertex -9.285714285714292 0 56.9999999999998
    vertex -12.99999999999999 0 56.99999999999969
    vertex -10.28095414331557 0 54.28095414331538
  endloop
endfacet
facet normal 0 -1 0
  outer loop
    vertex -12.99999999999999 0 56.99999999999969
    vertex -12.99999999999999 0 53.28571428571402
    vertex -10.28095414331557 0 54.28095414331538
  endloop
endfacet
facet normal 0 -1 0
  outer loop
    vertex -12.99999999999999 0 34.71428571428567
    vertex -12.99999999999999 0 30.99999999999998
    vertex -10.28095414331558 0 33.71904585668437
  endloop
endfacet
facet normal 0 -1 0
  outer loop
    vertex -12.99999999999999 0 30.99999999999998
    vertex -9.285714285714281 0 30.99999999999998
    vertex -10.28095414331558 0 33.71904585668437
  endloop
endfacet
facet normal 0 -1 0
  outer loop
    vertex 13 0 34.71428571428564
    vertex 13.00000000000001 0 38.4285714285713
    vertex 9.594551793199541 0 37.11262997062224
  endloop
endfacet
facet normal -0 -1 0
  outer loop
    vertex 13 0 34.71428571428564
    vertex 9.594551793199541 0 37.11262997062224
    vertex 10.28095414331559 0 33.7190458566844
  endloop
endfacet
facet normal 0 -1 0
  outer loop
    vertex 13.00000000000001 0 38.4285714285713
    vertex 13.00000000000001 0 42.14285714285697
    vertex 10.48808202037113 0 40.28571428571414
  endloop
endfacet
facet normal 0 -1 0
  outer loop
    vertex 9.594551793199541 0 37.11262997062224
    vertex 13.00000000000001 0 38.4285714285713
    vertex 10.48808202037113 0 40.28571428571414
  endloop
endfacet
facet normal 0 -1 0
  outer loop
    vertex 13.00000000000001 0 42.14285714285697
    vertex 13.00000000000001 0 45.85714285714262
    vertex 9.709887521634023 0 44.04739021801353
  endloop
endfacet
facet normal -0 -1 0
  outer loop
    vertex 13.00000000000001 0 42.14285714285697
    vertex 9.709887521634023 0 44.04739021801353
    vertex 10.48808202037113 0 40.28571428571414
  endloop
endfacet
facet normal 0 -1 0
  outer loop
    vertex 13.00000000000001 0 45.85714285714262
    vertex 13.00000000000001 0 49.57142857142831
    vertex 10.70196980837651 0 47.71428571428544
  endloop
endfacet
facet normal 0 -1 0
  outer loop
    vertex 9.709887521634023 0 44.04739021801353
    vertex 13.00000000000001 0 45.85714285714262
    vertex 10.70196980837651 0 47.71428571428544
  endloop
endfacet
facet normal 0 -1 0
  outer loop
    vertex 13.00000000000001 0 49.57142857142831
    vertex 13.00000000000001 0 53.28571428571399
    vertex 9.667566729867625 0 51.00740564117596
  endloop
endfacet
facet normal -0 -1 0
  outer loop
    vertex 13.00000000000001 0 49.57142857142831
    vertex 9.667566729867625 0 51.00740564117596
    vertex 10.70196980837651 0 47.71428571428544
  endloop
endfacet
facet normal 0 -1 0
  outer loop
    vertex 9.667566729867625 0 51.00740564117596
    vertex 13.00000000000001 0 53.28571428571399
    vertex 10.28095414331562 0 54.28095414331539
  endloop
endfacet
facet normal -0 -1 0
  outer loop
    vertex 9.285714285714294 0 56.99999999999979
    vertex 5.571428571428573 0 56.99999999999986
    vertex 7.353889997920446 0 53.96973169823049
  endloop
endfacet
facet normal 0 -1 -0
  outer loop
    vertex 9.285714285714294 0 56.99999999999979
    vertex 7.353889997920446 0 53.96973169823049
    vertex 10.28095414331562 0 54.28095414331539
  endloop
endfacet
facet normal -0 -1 0
  outer loop
    vertex 5.571428571428573 0 56.99999999999986
    vertex 1.857142857142857 0 56.99999999999991
    vertex 3.711938859658444 0 53.86939975204496
  endloop
endfacet
facet normal 0 -1 -0
  outer loop
    vertex 5.571428571428573 0 56.99999999999986
    vertex 3.711938859658444 0 53.86939975204496
    vertex 7.353889997920446 0 53.96973169823049
  endloop
endfacet
facet normal 0 -1 0
  outer loop
    vertex 1.857142857142857 0 56.99999999999991
    vertex -1.85714285714286 0 56.9999999999999
    vertex -0.02735205258291207 0 53.7991259294365
  endloop
endfacet
facet normal 0 -1 -0
  outer loop
    vertex 1.857142857142857 0 56.99999999999991
    vertex -0.02735205258291207 0 53.7991259294365
    vertex 3.711938859658444 0 53.86939975204496
  endloop
endfacet
facet normal 0 -1 0
  outer loop
    vertex -1.85714285714286 0 56.9999999999999
    vertex -5.571428571428601 0 56.99999999999987
    vertex -3.68848746715445 0 53.80349274441455
  endloop
endfacet
facet normal 0 -1 0
  outer loop
    vertex -0.02735205258291207 0 53.7991259294365
    vertex -1.85714285714286 0 56.9999999999999
    vertex -3.68848746715445 0 53.80349274441455
  endloop
endfacet
facet normal 0 -1 0
  outer loop
    vertex -5.571428571428601 0 56.99999999999987
    vertex -9.285714285714292 0 56.9999999999998
    vertex -7.315943357335119 0 53.94969039464466
  endloop
endfacet
facet normal 0 -1 0
  outer loop
    vertex -3.68848746715445 0 53.80349274441455
    vertex -5.571428571428601 0 56.99999999999987
    vertex -7.315943357335119 0 53.94969039464466
  endloop
endfacet
facet normal 0 -1 0
  outer loop
    vertex -7.315943357335119 0 53.94969039464466
    vertex -9.285714285714292 0 56.9999999999998
    vertex -10.28095414331557 0 54.28095414331538
  endloop
endfacet
facet normal 0 -1 0
  outer loop
    vertex -12.99999999999999 0 53.28571428571402
    vertex -12.99999999999999 0 49.57142857142837
    vertex -9.635981652362744 0 51.08750484350087
  endloop
endfacet
facet normal 0 -1 0
  outer loop
    vertex -12.99999999999999 0 53.28571428571402
    vertex -9.635981652362744 0 51.08750484350087
    vertex -10.28095414331557 0 54.28095414331538
  endloop
endfacet
facet normal 0 -1 -0
  outer loop
    vertex -12.99999999999999 0 49.57142857142837
    vertex -12.99999999999999 0 45.8571428571427
    vertex -10.55598391700699 0 47.58968509310684
  endloop
endfacet
facet normal 0 -1 0
  outer loop
    vertex -9.635981652362744 0 51.08750484350087
    vertex -12.99999999999999 0 49.57142857142837
    vertex -10.55598391700699 0 47.58968509310684
  endloop
endfacet
facet normal 0 -1 0
  outer loop
    vertex -12.99999999999999 0 45.8571428571427
    vertex -12.99999999999999 0 42.14285714285705
    vertex -9.668960772375703 0 43.99882018843321
  endloop
endfacet
facet normal 0 -1 0
  outer loop
    vertex -12.99999999999999 0 45.8571428571427
    vertex -9.668960772375703 0 43.99882018843321
    vertex -10.55598391700699 0 47.58968509310684
  endloop
endfacet
facet normal 0 -1 0
  outer loop
    vertex -12.99999999999999 0 42.14285714285705
    vertex -12.99999999999999 0 38.42857142857136
    vertex -10.51817741596208 0 40.32964239719745
  endloop
endfacet
facet normal 0 -1 0
  outer loop
    vertex -9.668960772375703 0 43.99882018843321
    vertex -12.99999999999999 0 42.14285714285705
    vertex -10.51817741596208 0 40.32964239719745
  endloop
endfacet
facet normal 0 -1 -0
  outer loop
    vertex -12.99999999999999 0 38.42857142857136
    vertex -12.99999999999999 0 34.71428571428567
    vertex -9.582539346851441 0 37.05209647762369
  endloop
endfacet
facet normal 0 -1 0
  outer loop
    vertex -12.99999999999999 0 38.42857142857136
    vertex -9.582539346851441 0 37.05209647762369
    vertex -10.51817741596208 0 40.32964239719745
  endloop
endfacet
facet normal 0 -1 0
  outer loop
    vertex -9.582539346851441 0 37.05209647762369
    vertex -12.99999999999999 0 34.71428571428567
    vertex -10.28095414331558 0 33.71904585668437
  endloop
endfacet
facet normal 0 -1 0
  outer loop
    vertex -9.285714285714281 0 30.99999999999998
    vertex -5.571428571428569 0 30.99999999999999
    vertex -7.284920928647832 0 34.13372913068493
  endloop
endfacet
facet normal 0 -1 0
  outer loop
    vertex -9.285714285714281 0 30.99999999999998
    vertex -7.284920928647832 0 34.13372913068493
    vertex -10.28095414331558 0 33.71904585668437
  endloop
endfacet
facet normal 0 -1 0
  outer loop
    vertex -5.571428571428569 0 30.99999999999999
    vertex -1.857142857142855 0 30.99999999999999
    vertex -3.691220205024816 0 34.26771019364251
  endloop
endfacet
facet normal 0 -1 0
  outer loop
    vertex -7.284920928647832 0 34.13372913068493
    vertex -5.571428571428569 0 30.99999999999999
    vertex -3.691220205024816 0 34.26771019364251
  endloop
endfacet
facet normal 0 -1 0
  outer loop
    vertex -1.857142857142855 0 30.99999999999999
    vertex 1.857142857142861 0 30.99999999999999
    vertex -0.0007510634797138019 0 34.34700045375057
  endloop
endfacet
facet normal 0 -1 0
  outer loop
    vertex -1.857142857142855 0 30.99999999999999
    vertex -0.0007510634797138019 0 34.34700045375057
    vertex -3.691220205024816 0 34.26771019364251
  endloop
endfacet
facet normal 0 -1 0
  outer loop
    vertex 1.857142857142861 0 30.99999999999999
    vertex 5.571428571428574 0 30.99999999999999
    vertex 3.730559367123206 0 34.37811184697757
  endloop
endfacet
facet normal 0 -1 0
  outer loop
    vertex -0.0007510634797138019 0 34.34700045375057
    vertex 1.857142857142861 0 30.99999999999999
    vertex 3.730559367123206 0 34.37811184697757
  endloop
endfacet
facet normal 0 -1 0
  outer loop
    vertex 5.571428571428574 0 30.99999999999999
    vertex 9.285714285714286 0 30.99999999999998
    vertex 7.354456373482225 0 34.17303919158455
  endloop
endfacet
facet normal 0 -1 0
  outer loop
    vertex 5.571428571428574 0 30.99999999999999
    vertex 7.354456373482225 0 34.17303919158455
    vertex 3.730559367123206 0 34.37811184697757
  endloop
endfacet
facet normal 0 -1 0
  outer loop
    vertex 7.354456373482225 0 34.17303919158455
    vertex 9.285714285714286 0 30.99999999999998
    vertex 10.28095414331559 0 33.7190458566844
  endloop
endfacet
facet normal 0 -1 -0
  outer loop
    vertex -7.474977160296509 0 47.43352900502902
    vertex -9.668960772375703 0 43.99882018843321
    vertex -5.697076843087737 0 44.04778790483048
  endloop
endfacet
facet normal 0 -1 0
  outer loop
    vertex -9.668960772375703 0 43.99882018843321
    vertex -7.474977160296509 0 47.43352900502902
    vertex -10.55598391700699 0 47.58968509310684
  endloop
endfacet
facet normal 0 -1 0
  outer loop
    vertex -9.668960772375703 0 43.99882018843321
    vertex -7.428571428571418 0 40.64999735645514
    vertex -5.697076843087737 0 44.04778790483048
  endloop
endfacet
facet normal -0 -1 0
  outer loop
    vertex -7.428571428571418 0 40.64999735645514
    vertex -9.668960772375703 0 43.99882018843321
    vertex -10.51817741596208 0 40.32964239719745
  endloop
endfacet
facet normal -0 -1 0
  outer loop
    vertex 9.709887521634023 0 44.04739021801353
    vertex 5.775251036391521 0 44.14380172095952
    vertex 7.428571428571518 0 40.91667107257475
  endloop
endfacet
facet normal 0 -1 0
  outer loop
    vertex 5.775251036391521 0 44.14380172095952
    vertex 9.709887521634023 0 44.04739021801353
    vertex 7.577547989745652 0 47.56780040846517
  endloop
endfacet
facet normal 0 -1 -0
  outer loop
    vertex 9.709887521634023 0 44.04739021801353
    vertex 7.428571428571518 0 40.91667107257475
    vertex 10.48808202037113 0 40.28571428571414
  endloop
endfacet
facet normal 0 -1 0
  outer loop
    vertex 7.577547989745652 0 47.56780040846517
    vertex 9.709887521634023 0 44.04739021801353
    vertex 10.70196980837651 0 47.71428571428544
  endloop
endfacet
facet normal -0 -1 0
  outer loop
    vertex -0.02735205258291207 0 53.7991259294365
    vertex -3.68848746715445 0 53.80349274441455
    vertex -1.857401824718077 0 50.57266013650001
  endloop
endfacet
facet normal 0 -1 -0
  outer loop
    vertex -0.02735205258291207 0 53.7991259294365
    vertex -1.857401824718077 0 50.57266013650001
    vertex 1.87933872728191 0 50.68229872831377
  endloop
endfacet
facet normal 0 -1 0
  outer loop
    vertex -0.02735205258291207 0 53.7991259294365
    vertex 1.87933872728191 0 50.68229872831377
    vertex 3.711938859658444 0 53.86939975204496
  endloop
endfacet
facet normal 0 -1 0
  outer loop
    vertex -0.0007510634797138019 0 34.34700045375057
    vertex 1.901808765845005 0 37.64739363934414
    vertex -1.854295774090595 0 37.63672439156269
  endloop
endfacet
facet normal 0 -1 -0
  outer loop
    vertex 1.901808765845005 0 37.64739363934414
    vertex -0.0007510634797138019 0 34.34700045375057
    vertex 3.730559367123206 0 34.37811184697757
  endloop
endfacet
facet normal 0 -1 0
  outer loop
    vertex -3.691220205024816 0 34.26771019364251
    vertex -0.0007510634797138019 0 34.34700045375057
    vertex -1.854295774090595 0 37.63672439156269
  endloop
endfacet
facet normal -0 -1 0
  outer loop
    vertex -5.599926337956885 0 50.67306275420508
    vertex -9.635981652362744 0 51.08750484350087
    vertex -7.474977160296509 0 47.43352900502902
  endloop
endfacet
facet normal 0 -1 0
  outer loop
    vertex -9.635981652362744 0 51.08750484350087
    vertex -5.599926337956885 0 50.67306275420508
    vertex -7.315943357335119 0 53.94969039464466
  endloop
endfacet
facet normal 0 -1 0
  outer loop
    vertex -7.474977160296509 0 47.43352900502902
    vertex -9.635981652362744 0 51.08750484350087
    vertex -10.55598391700699 0 47.58968509310684
  endloop
endfacet
facet normal 0 -1 0
  outer loop
    vertex -9.635981652362744 0 51.08750484350087
    vertex -7.315943357335119 0 53.94969039464466
    vertex -10.28095414331557 0 54.28095414331538
  endloop
endfacet
facet normal 0 -1 0
  outer loop
    vertex 7.577547989745652 0 47.56780040846517
    vertex 9.667566729867625 0 51.00740564117596
    vertex 5.637185056759792 0 50.76524215628926
  endloop
endfacet
facet normal 0 -1 -0
  outer loop
    vertex 9.667566729867625 0 51.00740564117596
    vertex 7.577547989745652 0 47.56780040846517
    vertex 10.70196980837651 0 47.71428571428544
  endloop
endfacet
facet normal 0 -1 0
  outer loop
    vertex 5.637185056759792 0 50.76524215628926
    vertex 9.667566729867625 0 51.00740564117596
    vertex 7.353889997920446 0 53.96973169823049
  endloop
endfacet
facet normal 0 -1 0
  outer loop
    vertex 7.353889997920446 0 53.96973169823049
    vertex 9.667566729867625 0 51.00740564117596
    vertex 10.28095414331562 0 54.28095414331539
  endloop
endfacet
facet normal 0 -1 0
  outer loop
    vertex 3.730559367123206 0 34.37811184697757
    vertex 7.354456373482225 0 34.17303919158455
    vertex 5.60979858665632 0 37.5510822449409
  endloop
endfacet
facet normal 0 -1 0
  outer loop
    vertex 5.60979858665632 0 37.5510822449409
    vertex 7.354456373482225 0 34.17303919158455
    vertex 9.594551793199541 0 37.11262997062224
  endloop
endfacet
facet normal 0 -1 -0
  outer loop
    vertex 9.594551793199541 0 37.11262997062224
    vertex 7.354456373482225 0 34.17303919158455
    vertex 10.28095414331559 0 33.7190458566844
  endloop
endfacet
facet normal 0 -1 0
  outer loop
    vertex -7.284920928647832 0 34.13372913068493
    vertex -3.691220205024816 0 34.26771019364251
    vertex -5.571428571428582 0 37.4333315709701
  endloop
endfacet
facet normal 0 -1 0
  outer loop
    vertex -7.284920928647832 0 34.13372913068493
    vertex -5.571428571428582 0 37.4333315709701
    vertex -9.582539346851441 0 37.05209647762369
  endloop
endfacet
facet normal -0 -1 0
  outer loop
    vertex -7.284920928647832 0 34.13372913068493
    vertex -9.582539346851441 0 37.05209647762369
    vertex -10.28095414331558 0 33.71904585668437
  endloop
endfacet
facet normal 0 -1 0
  outer loop
    vertex -1.857401824718077 0 50.57266013650001
    vertex -3.68848746715445 0 53.80349274441455
    vertex -5.599926337956885 0 50.67306275420508
  endloop
endfacet
facet normal 0 -1 0
  outer loop
    vertex -5.599926337956885 0 50.67306275420508
    vertex -3.68848746715445 0 53.80349274441455
    vertex -7.315943357335119 0 53.94969039464466
  endloop
endfacet
facet normal 0 -1 0
  outer loop
    vertex 1.87933872728191 0 50.68229872831377
    vertex -1.857401824718077 0 50.57266013650001
    vertex 0.06021194895204429 0 47.40292548350624
  endloop
endfacet
facet normal -0 -1 0
  outer loop
    vertex 0.06021194895204429 0 47.40292548350624
    vertex -1.857401824718077 0 50.57266013650001
    vertex -3.742685761733747 0 47.3362224782789
  endloop
endfacet
facet normal 0 -1 0
  outer loop
    vertex -3.742685761733747 0 47.3362224782789
    vertex -1.857401824718077 0 50.57266013650001
    vertex -5.599926337956885 0 50.67306275420508
  endloop
endfacet
facet normal 0 -1 -0
  outer loop
    vertex 1.87933872728191 0 50.68229872831377
    vertex 0.06021194895204429 0 47.40292548350624
    vertex 3.794593496955008 0 47.48613195750546
  endloop
endfacet
facet normal 0 -1 0
  outer loop
    vertex 1.87933872728191 0 50.68229872831377
    vertex 3.794593496955008 0 47.48613195750546
    vertex 5.637185056759792 0 50.76524215628926
  endloop
endfacet
facet normal 0 -1 0
  outer loop
    vertex 1.87933872728191 0 50.68229872831377
    vertex 5.637185056759792 0 50.76524215628926
    vertex 3.711938859658444 0 53.86939975204496
  endloop
endfacet
facet normal 0 -1 0
  outer loop
    vertex 0.06021194895204429 0 47.40292548350624
    vertex -3.742685761733747 0 47.3362224782789
    vertex -1.890233084569674 0 44.11626138067122
  endloop
endfacet
facet normal 0 -1 -0
  outer loop
    vertex 0.06021194895204429 0 47.40292548350624
    vertex -1.890233084569674 0 44.11626138067122
    vertex 1.918218942588469 0 44.17196392399104
  endloop
endfacet
facet normal 0 -1 0
  outer loop
    vertex 0.06021194895204429 0 47.40292548350624
    vertex 1.918218942588469 0 44.17196392399104
    vertex 3.794593496955008 0 47.48613195750546
  endloop
endfacet
facet normal -0 -1 0
  outer loop
    vertex -1.890233084569674 0 44.11626138067122
    vertex -3.742685761733747 0 47.3362224782789
    vertex -5.697076843087737 0 44.04778790483048
  endloop
endfacet
facet normal 0 -1 0
  outer loop
    vertex -3.742685761733747 0 47.3362224782789
    vertex -5.599926337956885 0 50.67306275420508
    vertex -7.474977160296509 0 47.43352900502902
  endloop
endfacet
facet normal -0 -1 0
  outer loop
    vertex -3.742685761733747 0 47.3362224782789
    vertex -7.474977160296509 0 47.43352900502902
    vertex -5.697076843087737 0 44.04778790483048
  endloop
endfacet
facet normal 0 -1 0
  outer loop
    vertex 1.918218942588469 0 44.17196392399104
    vertex -1.890233084569674 0 44.11626138067122
    vertex 0.003913246190134556 0 40.9189621238918
  endloop
endfacet
facet normal -0 -1 0
  outer loop
    vertex 0.003913246190134556 0 40.9189621238918
    vertex -1.890233084569674 0 44.11626138067122
    vertex -3.725740864404475 0 40.88640882602908
  endloop
endfacet
facet normal 0 -1 0
  outer loop
    vertex -3.725740864404475 0 40.88640882602908
    vertex -1.890233084569674 0 44.11626138067122
    vertex -5.697076843087737 0 44.04778790483048
  endloop
endfacet
facet normal 0 -1 -0
  outer loop
    vertex 1.918218942588469 0 44.17196392399104
    vertex 0.003913246190134556 0 40.9189621238918
    vertex 3.76204699743101 0 40.89914383915726
  endloop
endfacet
facet normal 0 -1 0
  outer loop
    vertex 1.918218942588469 0 44.17196392399104
    vertex 3.76204699743101 0 40.89914383915726
    vertex 5.775251036391521 0 44.14380172095952
  endloop
endfacet
facet normal 0 -1 0
  outer loop
    vertex 1.918218942588469 0 44.17196392399104
    vertex 5.775251036391521 0 44.14380172095952
    vertex 3.794593496955008 0 47.48613195750546
  endloop
endfacet
facet normal -0 -1 0
  outer loop
    vertex 3.76204699743101 0 40.89914383915726
    vertex 0.003913246190134556 0 40.9189621238918
    vertex 1.901808765845005 0 37.64739363934414
  endloop
endfacet
facet normal 0 -1 0
  outer loop
    vertex 0.003913246190134556 0 40.9189621238918
    vertex -3.725740864404475 0 40.88640882602908
    vertex -1.854295774090595 0 37.63672439156269
  endloop
endfacet
facet normal -0 -1 0
  outer loop
    vertex 1.901808765845005 0 37.64739363934414
    vertex 0.003913246190134556 0 40.9189621238918
    vertex -1.854295774090595 0 37.63672439156269
  endloop
endfacet
facet normal 0 -1 -0
  outer loop
    vertex 5.775251036391521 0 44.14380172095952
    vertex 3.76204699743101 0 40.89914383915726
    vertex 7.428571428571518 0 40.91667107257475
  endloop
endfacet
facet normal 0 -1 0
  outer loop
    vertex 7.428571428571518 0 40.91667107257475
    vertex 3.76204699743101 0 40.89914383915726
    vertex 5.60979858665632 0 37.5510822449409
  endloop
endfacet
facet normal 0 -1 -0
  outer loop
    vertex 3.76204699743101 0 40.89914383915726
    vertex 1.901808765845005 0 37.64739363934414
    vertex 5.60979858665632 0 37.5510822449409
  endloop
endfacet
facet normal 0 -1 0
  outer loop
    vertex -5.571428571428582 0 37.4333315709701
    vertex -3.725740864404475 0 40.88640882602908
    vertex -7.428571428571418 0 40.64999735645514
  endloop
endfacet
facet normal 0 -1 -0
  outer loop
    vertex -3.725740864404475 0 40.88640882602908
    vertex -5.571428571428582 0 37.4333315709701
    vertex -1.854295774090595 0 37.63672439156269
  endloop
endfacet
facet normal 0 -1 0
  outer loop
    vertex -7.428571428571418 0 40.64999735645514
    vertex -3.725740864404475 0 40.88640882602908
    vertex -5.697076843087737 0 44.04778790483048
  endloop
endfacet
facet normal 0 -1 0
  outer loop
    vertex 5.775251036391521 0 44.14380172095952
    vertex 7.577547989745652 0 47.56780040846517
    vertex 3.794593496955008 0 47.48613195750546
  endloop
endfacet
facet normal 0 -1 -0
  outer loop
    vertex 7.428571428571518 0 40.91667107257475
    vertex 5.60979858665632 0 37.5510822449409
    vertex 9.594551793199541 0 37.11262997062224
  endloop
endfacet
facet normal 0 -1 0
  outer loop
    vertex 7.428571428571518 0 40.91667107257475
    vertex 9.594551793199541 0 37.11262997062224
    vertex 10.48808202037113 0 40.28571428571414
  endloop
endfacet
facet normal 0 -1 0
  outer loop
    vertex 3.794593496955008 0 47.48613195750546
    vertex 7.577547989745652 0 47.56780040846517
    vertex 5.637185056759792 0 50.76524215628926
  endloop
endfacet
facet normal 0 -1 0
  outer loop
    vertex 1.901808765845005 0 37.64739363934414
    vertex 3.730559367123206 0 34.37811184697757
    vertex 5.60979858665632 0 37.5510822449409
  endloop
endfacet
facet normal 0 -1 0
  outer loop
    vertex 3.711938859658444 0 53.86939975204496
    vertex 5.637185056759792 0 50.76524215628926
    vertex 7.353889997920446 0 53.96973169823049
  endloop
endfacet
facet normal 0 -1 0
  outer loop
    vertex -5.571428571428582 0 37.4333315709701
    vertex -3.691220205024816 0 34.26771019364251
    vertex -1.854295774090595 0 37.63672439156269
  endloop
endfacet
facet normal 0 -1 0
  outer loop
    vertex -9.582539346851441 0 37.05209647762369
    vertex -5.571428571428582 0 37.4333315709701
    vertex -7.428571428571418 0 40.64999735645514
  endloop
endfacet
facet normal 0 -1 0
  outer loop
    vertex -9.582539346851441 0 37.05209647762369
    vertex -7.428571428571418 0 40.64999735645514
    vertex -10.51817741596208 0 40.32964239719745
  endloop
endfacet
facet normal 1 0 -4.9738e-16
  outer loop
    vertex 12.50000000000001 4.6 56.49999999999999
    vertex 12.50000000000001 3.8 56.49999999999999
    vertex 12.50000000000001 4.6 52.92857142857142
  endloop
endfacet
facet normal 1 0 -4.9738e-16
  outer loop
    vertex 12.50000000000001 4.6 52.92857142857142
    vertex 12.50000000000001 3.8 56.49999999999999
    vertex 12.50000000000001 3.8 52.92857142857142
  endloop
endfacet
facet normal 1 0 -4.9738e-16
  outer loop
    vertex 12.50000000000001 4.6 31.49999999999999
    vertex 12.50000000000001 3.8 35.07142857142856
    vertex 12.50000000000001 3.8 31.49999999999999
  endloop
endfacet
facet normal 1 0 -4.9738e-16
  outer loop
    vertex 12.50000000000001 3.8 35.07142857142856
    vertex 12.50000000000001 4.6 31.49999999999999
    vertex 12.50000000000001 4.6 35.07142857142856
  endloop
endfacet
facet normal 1 0 0
  outer loop
    vertex 12.50000000000001 4.6 49.35714285714285
    vertex 12.50000000000001 3.8 52.92857142857142
    vertex 12.50000000000001 3.8 49.35714285714285
  endloop
endfacet
facet normal 1 0 -0
  outer loop
    vertex 12.50000000000001 4.6 49.35714285714285
    vertex 12.50000000000001 4.6 52.92857142857142
    vertex 12.50000000000001 3.8 52.92857142857142
  endloop
endfacet
facet normal 1 0 -4.9738e-16
  outer loop
    vertex 12.50000000000001 4.6 45.78571428571427
    vertex 12.50000000000001 3.8 49.35714285714285
    vertex 12.50000000000001 3.8 45.78571428571427
  endloop
endfacet
facet normal 1 0 -4.9738e-16
  outer loop
    vertex 12.50000000000001 4.6 45.78571428571427
    vertex 12.50000000000001 4.6 49.35714285714285
    vertex 12.50000000000001 3.8 49.35714285714285
  endloop
endfacet
facet normal 1 0 0
  outer loop
    vertex 12.50000000000001 3.8 42.2142857142857
    vertex 12.50000000000001 4.6 45.78571428571427
    vertex 12.50000000000001 3.8 45.78571428571427
  endloop
endfacet
facet normal 1 0 -4.9738e-16
  outer loop
    vertex 12.50000000000001 3.8 42.2142857142857
    vertex 12.50000000000001 3.8 38.64285714285713
    vertex 12.50000000000001 4.6 42.2142857142857
  endloop
endfacet
facet normal 1 0 0
  outer loop
    vertex 12.50000000000001 4.6 45.78571428571427
    vertex 12.50000000000001 3.8 42.2142857142857
    vertex 12.50000000000001 4.6 42.2142857142857
  endloop
endfacet
facet normal 1 -0 0
  outer loop
    vertex 12.50000000000001 3.8 38.64285714285713
    vertex 12.50000000000001 3.8 35.07142857142856
    vertex 12.50000000000001 4.6 38.64285714285713
  endloop
endfacet
facet normal 1 0 -4.9738e-16
  outer loop
    vertex 12.50000000000001 4.6 42.2142857142857
    vertex 12.50000000000001 3.8 38.64285714285713
    vertex 12.50000000000001 4.6 38.64285714285713
  endloop
endfacet
facet normal 1 0 0
  outer loop
    vertex 12.50000000000001 4.6 38.64285714285713
    vertex 12.50000000000001 3.8 35.07142857142856
    vertex 12.50000000000001 4.6 35.07142857142856
  endloop
endfacet
facet normal 0 0 -1
  outer loop
    vertex 12.50000000000001 3.8 31.49999999999999
    vertex 8.928571428571432 4.6 31.49999999999999
    vertex 12.50000000000001 4.6 31.49999999999999
  endloop
endfacet
facet normal 0 0 -1
  outer loop
    vertex 8.928571428571432 4.6 31.49999999999999
    vertex 12.50000000000001 3.8 31.49999999999999
    vertex 8.928571428571432 3.8 31.49999999999999
  endloop
endfacet
facet normal 0 0 -1
  outer loop
    vertex -12.49999999999999 4.6 31.49999999999999
    vertex -8.928571428571425 3.8 31.49999999999999
    vertex -12.49999999999999 3.8 31.49999999999999
  endloop
endfacet
facet normal -0 -0 -1
  outer loop
    vertex -8.928571428571425 4.6 31.49999999999999
    vertex -8.928571428571425 3.8 31.49999999999999
    vertex -12.49999999999999 4.6 31.49999999999999
  endloop
endfacet
facet normal 0 0 -1
  outer loop
    vertex 5.357142857142863 4.6 31.49999999999999
    vertex 8.928571428571432 3.8 31.49999999999999
    vertex 5.357142857142863 3.8 31.49999999999999
  endloop
endfacet
facet normal 0 0 -1
  outer loop
    vertex 5.357142857142863 4.6 31.49999999999999
    vertex 8.928571428571432 4.6 31.49999999999999
    vertex 8.928571428571432 3.8 31.49999999999999
  endloop
endfacet
facet normal 0 0 -1
  outer loop
    vertex 1.78571428571429 4.6 31.49999999999999
    vertex 5.357142857142863 3.8 31.49999999999999
    vertex 1.78571428571429 3.8 31.49999999999999
  endloop
endfacet
facet normal 0 0 -1
  outer loop
    vertex 1.78571428571429 4.6 31.49999999999999
    vertex 5.357142857142863 4.6 31.49999999999999
    vertex 5.357142857142863 3.8 31.49999999999999
  endloop
endfacet
facet normal 0 0 -1
  outer loop
    vertex -1.785714285714279 3.8 31.49999999999999
    vertex 1.78571428571429 4.6 31.49999999999999
    vertex 1.78571428571429 3.8 31.49999999999999
  endloop
endfacet
facet normal 0 0 -1
  outer loop
    vertex -1.785714285714279 3.8 31.49999999999999
    vertex -5.357142857142851 3.8 31.49999999999999
    vertex -1.785714285714279 4.6 31.49999999999999
  endloop
endfacet
facet normal -0 0 -1
  outer loop
    vertex 1.78571428571429 4.6 31.49999999999999
    vertex -1.785714285714279 3.8 31.49999999999999
    vertex -1.785714285714279 4.6 31.49999999999999
  endloop
endfacet
facet normal 0 0 -1
  outer loop
    vertex -5.357142857142851 3.8 31.49999999999999
    vertex -8.928571428571425 3.8 31.49999999999999
    vertex -8.928571428571425 4.6 31.49999999999999
  endloop
endfacet
facet normal -0 0 -1
  outer loop
    vertex -1.785714285714279 4.6 31.49999999999999
    vertex -5.357142857142851 3.8 31.49999999999999
    vertex -5.357142857142851 4.6 31.49999999999999
  endloop
endfacet
facet normal 0 0 -1
  outer loop
    vertex -5.357142857142851 3.8 31.49999999999999
    vertex -8.928571428571425 4.6 31.49999999999999
    vertex -5.357142857142851 4.6 31.49999999999999
  endloop
endfacet
facet normal -1 -0 -4.9738e-16
  outer loop
    vertex -12.49999999999999 4.6 56.49999999999999
    vertex -12.49999999999999 3.8 52.92857142857142
    vertex -12.49999999999999 3.8 56.49999999999999
  endloop
endfacet
facet normal -1 0 0
  outer loop
    vertex -12.49999999999999 4.6 31.49999999999999
    vertex -12.49999999999999 3.8 31.49999999999999
    vertex -12.49999999999999 3.8 35.07142857142856
  endloop
endfacet
facet normal -1 0 0
  outer loop
    vertex -12.49999999999999 4.6 31.49999999999999
    vertex -12.49999999999999 3.8 35.07142857142856
    vertex -12.49999999999999 4.6 35.07142857142856
  endloop
endfacet
facet normal -1 0 -4.9738e-16
  outer loop
    vertex -12.49999999999999 3.8 52.92857142857142
    vertex -12.49999999999999 4.6 56.49999999999999
    vertex -12.49999999999999 4.6 52.92857142857142
  endloop
endfacet
facet normal -1 0 4.9738e-16
  outer loop
    vertex -12.49999999999999 3.8 38.64285714285712
    vertex -12.49999999999999 4.6 38.64285714285712
    vertex -12.49999999999999 3.8 35.07142857142856
  endloop
endfacet
facet normal -1 0 4.9738e-16
  outer loop
    vertex -12.49999999999999 3.8 35.07142857142856
    vertex -12.49999999999999 4.6 38.64285714285712
    vertex -12.49999999999999 4.6 35.07142857142856
  endloop
endfacet
facet normal -1 -0 0
  outer loop
    vertex -12.49999999999999 4.6 42.2142857142857
    vertex -12.49999999999999 3.8 38.64285714285712
    vertex -12.49999999999999 3.8 42.2142857142857
  endloop
endfacet
facet normal -1 0 0
  outer loop
    vertex -12.49999999999999 4.6 38.64285714285712
    vertex -12.49999999999999 3.8 38.64285714285712
    vertex -12.49999999999999 4.6 42.2142857142857
  endloop
endfacet
facet normal -1 0 0
  outer loop
    vertex -12.49999999999999 3.8 45.78571428571427
    vertex -12.49999999999999 4.6 42.2142857142857
    vertex -12.49999999999999 3.8 42.2142857142857
  endloop
endfacet
facet normal -1 0 0
  outer loop
    vertex -12.49999999999999 3.8 49.35714285714285
    vertex -12.49999999999999 4.6 45.78571428571427
    vertex -12.49999999999999 3.8 45.78571428571427
  endloop
endfacet
facet normal -1 -0 -0
  outer loop
    vertex -12.49999999999999 4.6 45.78571428571427
    vertex -12.49999999999999 4.6 42.2142857142857
    vertex -12.49999999999999 3.8 45.78571428571427
  endloop
endfacet
facet normal -1 0 4.9738e-16
  outer loop
    vertex -12.49999999999999 3.8 49.35714285714285
    vertex -12.49999999999999 3.8 52.92857142857142
    vertex -12.49999999999999 4.6 49.35714285714285
  endloop
endfacet
facet normal -1 0 0
  outer loop
    vertex -12.49999999999999 4.6 45.78571428571427
    vertex -12.49999999999999 3.8 49.35714285714285
    vertex -12.49999999999999 4.6 49.35714285714285
  endloop
endfacet
facet normal -1 0 4.9738e-16
  outer loop
    vertex -12.49999999999999 4.6 49.35714285714285
    vertex -12.49999999999999 3.8 52.92857142857142
    vertex -12.49999999999999 4.6 52.92857142857142
  endloop
endfacet
facet normal 0 -0 1
  outer loop
    vertex 12.50000000000001 3.8 56.49999999999999
    vertex 12.50000000000001 4.6 56.49999999999999
    vertex 8.928571428571441 3.8 56.49999999999999
  endloop
endfacet
facet normal 0 0 1
  outer loop
    vertex -12.49999999999999 4.6 56.49999999999999
    vertex -12.49999999999999 3.8 56.49999999999999
    vertex -8.92857142857142 3.8 56.49999999999999
  endloop
endfacet
facet normal 0 0 1
  outer loop
    vertex 8.928571428571441 3.8 56.49999999999999
    vertex 12.50000000000001 4.6 56.49999999999999
    vertex 8.928571428571441 4.6 56.49999999999999
  endloop
endfacet
facet normal -0 0 1
  outer loop
    vertex -12.49999999999999 4.6 56.49999999999999
    vertex -8.92857142857142 3.8 56.49999999999999
    vertex -8.92857142857142 4.6 56.49999999999999
  endloop
endfacet
facet normal 0 0 1
  outer loop
    vertex -8.92857142857142 4.6 56.49999999999999
    vertex -8.92857142857142 3.8 56.49999999999999
    vertex -5.357142857142846 3.8 56.49999999999999
  endloop
endfacet
facet normal 0 0 1
  outer loop
    vertex -1.785714285714272 4.6 56.49999999999999
    vertex -5.357142857142846 3.8 56.49999999999999
    vertex -1.785714285714272 3.8 56.49999999999999
  endloop
endfacet
facet normal -0 0 1
  outer loop
    vertex -8.92857142857142 4.6 56.49999999999999
    vertex -5.357142857142846 3.8 56.49999999999999
    vertex -5.357142857142846 4.6 56.49999999999999
  endloop
endfacet
facet normal 0 0 1
  outer loop
    vertex -5.357142857142846 3.8 56.49999999999999
    vertex -1.785714285714272 4.6 56.49999999999999
    vertex -5.357142857142846 4.6 56.49999999999999
  endloop
endfacet
facet normal 0 0 1
  outer loop
    vertex 1.785714285714301 3.8 56.49999999999999
    vertex -1.785714285714272 4.6 56.49999999999999
    vertex -1.785714285714272 3.8 56.49999999999999
  endloop
endfacet
facet normal 0 0 1
  outer loop
    vertex 1.785714285714301 3.8 56.49999999999999
    vertex 5.357142857142872 3.8 56.49999999999999
    vertex 1.785714285714301 4.6 56.49999999999999
  endloop
endfacet
facet normal -0 0 1
  outer loop
    vertex -1.785714285714272 4.6 56.49999999999999
    vertex 1.785714285714301 3.8 56.49999999999999
    vertex 1.785714285714301 4.6 56.49999999999999
  endloop
endfacet
facet normal 0 0 1
  outer loop
    vertex 5.357142857142872 3.8 56.49999999999999
    vertex 8.928571428571441 3.8 56.49999999999999
    vertex 5.357142857142872 4.6 56.49999999999999
  endloop
endfacet
facet normal -0 0 1
  outer loop
    vertex 1.785714285714301 4.6 56.49999999999999
    vertex 5.357142857142872 3.8 56.49999999999999
    vertex 5.357142857142872 4.6 56.49999999999999
  endloop
endfacet
facet normal -0 0 1
  outer loop
    vertex 5.357142857142872 4.6 56.49999999999999
    vertex 8.928571428571441 3.8 56.49999999999999
    vertex 8.928571428571441 4.6 56.49999999999999
  endloop
endfacet
facet normal 0 1 -0
  outer loop
    vertex 12.50000000000001 4.6 31.49999999999999
    vertex 9.88553283011117 4.6 34.11446716988883
    vertex 12.50000000000001 4.6 35.07142857142856
  endloop
endfacet
facet normal 0 1 0
  outer loop
    vertex 8.928571428571432 4.6 31.49999999999999
    vertex 9.88553283011117 4.6 34.11446716988883
    vertex 12.50000000000001 4.6 31.49999999999999
  endloop
endfacet
facet normal 0 1 -0
  outer loop
    vertex 12.50000000000001 4.6 52.92857142857142
    vertex 9.885532830111208 4.6 53.88553283011114
    vertex 12.50000000000001 4.6 56.49999999999999
  endloop
endfacet
facet normal 0 1 0
  outer loop
    vertex 12.50000000000001 4.6 56.49999999999999
    vertex 9.885532830111208 4.6 53.88553283011114
    vertex 8.928571428571441 4.6 56.49999999999999
  endloop
endfacet
facet normal 0 1 0
  outer loop
    vertex -12.49999999999999 4.6 31.49999999999999
    vertex -9.885532830111158 4.6 34.11446716988883
    vertex -8.928571428571425 4.6 31.49999999999999
  endloop
endfacet
facet normal 0 1 0
  outer loop
    vertex -12.49999999999999 4.6 35.07142857142856
    vertex -9.885532830111158 4.6 34.11446716988883
    vertex -12.49999999999999 4.6 31.49999999999999
  endloop
endfacet
facet normal 0 1 0
  outer loop
    vertex -12.49999999999999 4.6 56.49999999999999
    vertex -9.885532830111167 4.6 53.88553283011111
    vertex -12.49999999999999 4.6 52.92857142857142
  endloop
endfacet
facet normal 0 1 0
  outer loop
    vertex -8.92857142857142 4.6 56.49999999999999
    vertex -9.885532830111167 4.6 53.88553283011111
    vertex -12.49999999999999 4.6 56.49999999999999
  endloop
endfacet
facet normal 0 1 -0
  outer loop
    vertex 12.50000000000001 4.6 49.35714285714285
    vertex 9.261719892114613 4.6 50.76158806967086
    vertex 12.50000000000001 4.6 52.92857142857142
  endloop
endfacet
facet normal 0 1 0
  outer loop
    vertex 9.261719892114613 4.6 50.76158806967086
    vertex 9.885532830111208 4.6 53.88553283011114
    vertex 12.50000000000001 4.6 52.92857142857142
  endloop
endfacet
facet normal 0 1 -0
  outer loop
    vertex 12.50000000000001 4.6 45.78571428571427
    vertex 10.1351535218129 4.6 47.41499399443439
    vertex 12.50000000000001 4.6 49.35714285714285
  endloop
endfacet
facet normal 0 1 0
  outer loop
    vertex 12.50000000000001 4.6 49.35714285714285
    vertex 10.1351535218129 4.6 47.41499399443439
    vertex 9.261719892114613 4.6 50.76158806967086
  endloop
endfacet
facet normal 0 1 -0
  outer loop
    vertex 12.50000000000001 4.6 42.2142857142857
    vertex 9.262163984194991 4.6 43.9450534925578
    vertex 12.50000000000001 4.6 45.78571428571427
  endloop
endfacet
facet normal 0 1 0
  outer loop
    vertex 9.262163984194991 4.6 43.9450534925578
    vertex 10.1351535218129 4.6 47.41499399443439
    vertex 12.50000000000001 4.6 45.78571428571427
  endloop
endfacet
facet normal 0 1 -0
  outer loop
    vertex 12.50000000000001 4.6 38.64285714285713
    vertex 10.10922643032631 4.6 40.46558095245547
    vertex 12.50000000000001 4.6 42.2142857142857
  endloop
endfacet
facet normal 0 1 0
  outer loop
    vertex 12.50000000000001 4.6 42.2142857142857
    vertex 10.10922643032631 4.6 40.46558095245547
    vertex 9.262163984194991 4.6 43.9450534925578
  endloop
endfacet
facet normal 0 1 -0
  outer loop
    vertex 12.50000000000001 4.6 35.07142857142856
    vertex 9.203498735167889 4.6 37.31090416835673
    vertex 12.50000000000001 4.6 38.64285714285713
  endloop
endfacet
facet normal 0 1 0
  outer loop
    vertex 9.203498735167889 4.6 37.31090416835673
    vertex 10.10922643032631 4.6 40.46558095245547
    vertex 12.50000000000001 4.6 38.64285714285713
  endloop
endfacet
facet normal 0 1 0
  outer loop
    vertex 12.50000000000001 4.6 35.07142857142856
    vertex 9.88553283011117 4.6 34.11446716988883
    vertex 9.203498735167889 4.6 37.31090416835673
  endloop
endfacet
facet normal 0 1 0
  outer loop
    vertex 5.357142857142863 4.6 31.49999999999999
    vertex 7.004731662161369 4.6 34.51320108719703
    vertex 8.928571428571432 4.6 31.49999999999999
  endloop
endfacet
facet normal 0 1 0
  outer loop
    vertex 7.004731662161369 4.6 34.51320108719703
    vertex 9.88553283011117 4.6 34.11446716988883
    vertex 8.928571428571432 4.6 31.49999999999999
  endloop
endfacet
facet normal 0 1 0
  outer loop
    vertex 1.78571428571429 4.6 31.49999999999999
    vertex 3.540461752927101 4.6 34.57605796632012
    vertex 5.357142857142863 4.6 31.49999999999999
  endloop
endfacet
facet normal 0 1 -0
  outer loop
    vertex 5.357142857142863 4.6 31.49999999999999
    vertex 3.540461752927101 4.6 34.57605796632012
    vertex 7.004731662161369 4.6 34.51320108719703
  endloop
endfacet
facet normal 0 1 0
  outer loop
    vertex -1.785714285714279 4.6 31.49999999999999
    vertex 4.492475387020419e-15 4.6 34.59294787065869
    vertex 1.78571428571429 4.6 31.49999999999999
  endloop
endfacet
facet normal 0 1 0
  outer loop
    vertex 4.492475387020419e-15 4.6 34.59294787065869
    vertex 3.540461752927101 4.6 34.57605796632012
    vertex 1.78571428571429 4.6 31.49999999999999
  endloop
endfacet
facet normal 0 1 0
  outer loop
    vertex -5.357142857142851 4.6 31.49999999999999
    vertex -3.661251403945063 4.6 34.6111388642514
    vertex -1.785714285714279 4.6 31.49999999999999
  endloop
endfacet
facet normal 0 1 -0
  outer loop
    vertex -1.785714285714279 4.6 31.49999999999999
    vertex -3.661251403945063 4.6 34.6111388642514
    vertex 4.492475387020419e-15 4.6 34.59294787065869
  endloop
endfacet
facet normal 0 1 0
  outer loop
    vertex -8.928571428571425 4.6 31.49999999999999
    vertex -7.142857142857134 4.6 34.5929478706587
    vertex -5.357142857142851 4.6 31.49999999999999
  endloop
endfacet
facet normal -0 1 0
  outer loop
    vertex -7.142857142857134 4.6 34.5929478706587
    vertex -3.661251403945063 4.6 34.6111388642514
    vertex -5.357142857142851 4.6 31.49999999999999
  endloop
endfacet
facet normal 0 1 -0
  outer loop
    vertex -8.928571428571425 4.6 31.49999999999999
    vertex -9.885532830111158 4.6 34.11446716988883
    vertex -7.142857142857134 4.6 34.5929478706587
  endloop
endfacet
facet normal 0 1 0
  outer loop
    vertex -12.49999999999999 4.6 38.64285714285712
    vertex -9.318110066518063 4.6 37.28368263965099
    vertex -12.49999999999999 4.6 35.07142857142856
  endloop
endfacet
facet normal 0 1 0
  outer loop
    vertex -9.318110066518063 4.6 37.28368263965099
    vertex -9.885532830111158 4.6 34.11446716988883
    vertex -12.49999999999999 4.6 35.07142857142856
  endloop
endfacet
facet normal 0 1 0
  outer loop
    vertex -12.49999999999999 4.6 42.2142857142857
    vertex -10.2903555849773 4.6 40.42857142857141
    vertex -12.49999999999999 4.6 38.64285714285712
  endloop
endfacet
facet normal -0 1 0
  outer loop
    vertex -12.49999999999999 4.6 38.64285714285712
    vertex -10.2903555849773 4.6 40.42857142857141
    vertex -9.318110066518063 4.6 37.28368263965099
  endloop
endfacet
facet normal 0 1 0
  outer loop
    vertex -12.49999999999999 4.6 45.78571428571427
    vertex -9.336430309263408 4.6 43.95443248267915
    vertex -12.49999999999999 4.6 42.2142857142857
  endloop
endfacet
facet normal 0 1 0
  outer loop
    vertex -9.336430309263408 4.6 43.95443248267915
    vertex -10.2903555849773 4.6 40.42857142857141
    vertex -12.49999999999999 4.6 42.2142857142857
  endloop
endfacet
facet normal 0 1 0
  outer loop
    vertex -12.49999999999999 4.6 49.35714285714285
    vertex -10.08469425035684 4.6 47.57142857142858
    vertex -12.49999999999999 4.6 45.78571428571427
  endloop
endfacet
facet normal -0 1 0
  outer loop
    vertex -12.49999999999999 4.6 45.78571428571427
    vertex -10.08469425035684 4.6 47.57142857142858
    vertex -9.336430309263408 4.6 43.95443248267915
  endloop
endfacet
facet normal 0 1 0
  outer loop
    vertex -12.49999999999999 4.6 52.92857142857142
    vertex -9.225688884931705 4.6 50.62264092719083
    vertex -12.49999999999999 4.6 49.35714285714285
  endloop
endfacet
facet normal 0 1 0
  outer loop
    vertex -9.225688884931705 4.6 50.62264092719083
    vertex -10.08469425035684 4.6 47.57142857142858
    vertex -12.49999999999999 4.6 49.35714285714285
  endloop
endfacet
facet normal -0 1 0
  outer loop
    vertex -12.49999999999999 4.6 52.92857142857142
    vertex -9.885532830111167 4.6 53.88553283011111
    vertex -9.225688884931705 4.6 50.62264092719083
  endloop
endfacet
facet normal 0 1 0
  outer loop
    vertex -5.357142857142846 4.6 56.49999999999999
    vertex -7.071592666809853 4.6 53.44900077732249
    vertex -8.92857142857142 4.6 56.49999999999999
  endloop
endfacet
facet normal 0 1 0
  outer loop
    vertex -7.071592666809853 4.6 53.44900077732249
    vertex -9.885532830111167 4.6 53.88553283011111
    vertex -8.92857142857142 4.6 56.49999999999999
  endloop
endfacet
facet normal 0 1 0
  outer loop
    vertex -1.785714285714272 4.6 56.49999999999999
    vertex -3.587397195320628 4.6 53.25556804419869
    vertex -5.357142857142846 4.6 56.49999999999999
  endloop
endfacet
facet normal 0 1 0
  outer loop
    vertex -5.357142857142846 4.6 56.49999999999999
    vertex -3.587397195320628 4.6 53.25556804419869
    vertex -7.071592666809853 4.6 53.44900077732249
  endloop
endfacet
facet normal 0 1 0
  outer loop
    vertex 1.785714285714301 4.6 56.49999999999999
    vertex -1.796815159252662e-15 4.6 53.32150471075907
    vertex -1.785714285714272 4.6 56.49999999999999
  endloop
endfacet
facet normal 0 1 0
  outer loop
    vertex -1.796815159252662e-15 4.6 53.32150471075907
    vertex -3.587397195320628 4.6 53.25556804419869
    vertex -1.785714285714272 4.6 56.49999999999999
  endloop
endfacet
facet normal 0 1 0
  outer loop
    vertex 5.357142857142872 4.6 56.49999999999999
    vertex 3.556371924448869 4.6 53.26190635159968
    vertex 1.785714285714301 4.6 56.49999999999999
  endloop
endfacet
facet normal 0 1 0
  outer loop
    vertex 1.785714285714301 4.6 56.49999999999999
    vertex 3.556371924448869 4.6 53.26190635159968
    vertex -1.796815159252662e-15 4.6 53.32150471075907
  endloop
endfacet
facet normal 0 1 0
  outer loop
    vertex 8.928571428571441 4.6 56.49999999999999
    vertex 7.030932724365719 4.6 53.51736204588396
    vertex 5.357142857142872 4.6 56.49999999999999
  endloop
endfacet
facet normal 0 1 0
  outer loop
    vertex 5.357142857142872 4.6 56.49999999999999
    vertex 7.030932724365719 4.6 53.51736204588396
    vertex 3.556371924448869 4.6 53.26190635159968
  endloop
endfacet
facet normal 0 1 0
  outer loop
    vertex 8.928571428571441 4.6 56.49999999999999
    vertex 9.885532830111208 4.6 53.88553283011114
    vertex 7.030932724365719 4.6 53.51736204588396
  endloop
endfacet
facet normal -0 1 0
  outer loop
    vertex -3.661251403945063 4.6 34.6111388642514
    vertex -1.866925449034209 4.6 37.68070501986433
    vertex 4.492475387020419e-15 4.6 34.59294787065869
  endloop
endfacet
facet normal -0 1 0
  outer loop
    vertex -1.866925449034209 4.6 37.68070501986433
    vertex 1.772179091827625 4.6 37.68503062107521
    vertex 4.492475387020419e-15 4.6 34.59294787065869
  endloop
endfacet
facet normal 0 1 0
  outer loop
    vertex 1.772179091827625 4.6 37.68503062107521
    vertex 3.540461752927101 4.6 34.57605796632012
    vertex 4.492475387020419e-15 4.6 34.59294787065869
  endloop
endfacet
facet normal 0 1 0
  outer loop
    vertex -1.796815159252662e-15 4.6 53.32150471075907
    vertex 1.774986825089752 4.6 50.09535122101886
    vertex -1.83171365639021 4.6 50.11263051532766
  endloop
endfacet
facet normal 0 1 -0
  outer loop
    vertex -1.83171365639021 4.6 50.11263051532766
    vertex -3.587397195320628 4.6 53.25556804419869
    vertex -1.796815159252662e-15 4.6 53.32150471075907
  endloop
endfacet
facet normal 0 1 0
  outer loop
    vertex -1.796815159252662e-15 4.6 53.32150471075907
    vertex 3.556371924448869 4.6 53.26190635159968
    vertex 1.774986825089752 4.6 50.09535122101886
  endloop
endfacet
facet normal -0 1 0
  outer loop
    vertex -9.336430309263408 4.6 43.95443248267915
    vertex -7.142857142857148 4.6 46.96473935329352
    vertex -5.555286419055744 4.6 43.86144764674069
  endloop
endfacet
facet normal 0 1 0
  outer loop
    vertex -5.555286419055744 4.6 43.86144764674069
    vertex -7.41022426753989 4.6 40.70719421140914
    vertex -9.336430309263408 4.6 43.95443248267915
  endloop
endfacet
facet normal 0 1 -0
  outer loop
    vertex -9.336430309263408 4.6 43.95443248267915
    vertex -10.08469425035684 4.6 47.57142857142858
    vertex -7.142857142857148 4.6 46.96473935329352
  endloop
endfacet
facet normal 0 1 0
  outer loop
    vertex -7.41022426753989 4.6 40.70719421140914
    vertex -10.2903555849773 4.6 40.42857142857141
    vertex -9.336430309263408 4.6 43.95443248267915
  endloop
endfacet
facet normal 0 1 0
  outer loop
    vertex 9.262163984194991 4.6 43.9450534925578
    vertex 5.408813022878762 4.6 43.92509851949516
    vertex 7.151883732754901 4.6 47.22547126708616
  endloop
endfacet
facet normal -0 1 0
  outer loop
    vertex 7.151883732754901 4.6 47.22547126708616
    vertex 10.1351535218129 4.6 47.41499399443439
    vertex 9.262163984194991 4.6 43.9450534925578
  endloop
endfacet
facet normal 0 1 0
  outer loop
    vertex 9.262163984194991 4.6 43.9450534925578
    vertex 7.103627537035495 4.6 40.74063555956428
    vertex 5.408813022878762 4.6 43.92509851949516
  endloop
endfacet
facet normal 0 1 0
  outer loop
    vertex 9.262163984194991 4.6 43.9450534925578
    vertex 10.10922643032631 4.6 40.46558095245547
    vertex 7.103627537035495 4.6 40.74063555956428
  endloop
endfacet
facet normal 0 1 0
  outer loop
    vertex 7.004731662161369 4.6 34.51320108719703
    vertex 3.540461752927101 4.6 34.57605796632012
    vertex 5.323002620716455 4.6 37.66516821898984
  endloop
endfacet
facet normal 0 1 0
  outer loop
    vertex 5.323002620716455 4.6 37.66516821898984
    vertex 9.203498735167889 4.6 37.31090416835673
    vertex 7.004731662161369 4.6 34.51320108719703
  endloop
endfacet
facet normal 0 1 0
  outer loop
    vertex 9.203498735167889 4.6 37.31090416835673
    vertex 9.88553283011117 4.6 34.11446716988883
    vertex 7.004731662161369 4.6 34.51320108719703
  endloop
endfacet
facet normal 0 1 0
  outer loop
    vertex -3.587397195320628 4.6 53.25556804419869
    vertex -5.395145304386968 4.6 50.20207067246591
    vertex -7.071592666809853 4.6 53.44900077732249
  endloop
endfacet
facet normal 0 1 0
  outer loop
    vertex -5.395145304386968 4.6 50.20207067246591
    vertex -9.225688884931705 4.6 50.62264092719083
    vertex -7.071592666809853 4.6 53.44900077732249
  endloop
endfacet
facet normal 0 1 -0
  outer loop
    vertex -9.225688884931705 4.6 50.62264092719083
    vertex -9.885532830111167 4.6 53.88553283011111
    vertex -7.071592666809853 4.6 53.44900077732249
  endloop
endfacet
facet normal 0 1 0
  outer loop
    vertex 9.261719892114613 4.6 50.76158806967086
    vertex 7.151883732754901 4.6 47.22547126708616
    vertex 5.378779392044208 4.6 50.24050797018445
  endloop
endfacet
facet normal 0 1 0
  outer loop
    vertex 5.378779392044208 4.6 50.24050797018445
    vertex 7.030932724365719 4.6 53.51736204588396
    vertex 9.261719892114613 4.6 50.76158806967086
  endloop
endfacet
facet normal 0 1 0
  outer loop
    vertex 9.261719892114613 4.6 50.76158806967086
    vertex 10.1351535218129 4.6 47.41499399443439
    vertex 7.151883732754901 4.6 47.22547126708616
  endloop
endfacet
facet normal -0 1 0
  outer loop
    vertex 7.030932724365719 4.6 53.51736204588396
    vertex 9.885532830111208 4.6 53.88553283011114
    vertex 9.261719892114613 4.6 50.76158806967086
  endloop
endfacet
facet normal 0 1 0
  outer loop
    vertex -7.142857142857134 4.6 34.5929478706587
    vertex -5.539118584477838 4.6 37.59302295966729
    vertex -3.661251403945063 4.6 34.6111388642514
  endloop
endfacet
facet normal 0 1 -0
  outer loop
    vertex -7.142857142857134 4.6 34.5929478706587
    vertex -9.318110066518063 4.6 37.28368263965099
    vertex -5.539118584477838 4.6 37.59302295966729
  endloop
endfacet
facet normal 0 1 0
  outer loop
    vertex -7.142857142857134 4.6 34.5929478706587
    vertex -9.885532830111158 4.6 34.11446716988883
    vertex -9.318110066518063 4.6 37.28368263965099
  endloop
endfacet
facet normal 0 1 -0
  outer loop
    vertex -3.661251403945063 4.6 34.6111388642514
    vertex -5.539118584477838 4.6 37.59302295966729
    vertex -1.866925449034209 4.6 37.68070501986433
  endloop
endfacet
facet normal 0 1 0
  outer loop
    vertex -1.866925449034209 4.6 37.68070501986433
    vertex -0.07017163503890418 4.6 40.7464376651207
    vertex 1.772179091827625 4.6 37.68503062107521
  endloop
endfacet
facet normal 0 1 -0
  outer loop
    vertex -1.866925449034209 4.6 37.68070501986433
    vertex -3.835343176972668 4.6 40.68246915216926
    vertex -0.07017163503890418 4.6 40.7464376651207
  endloop
endfacet
facet normal 0 1 0
  outer loop
    vertex -1.866925449034209 4.6 37.68070501986433
    vertex -5.539118584477838 4.6 37.59302295966729
    vertex -3.835343176972668 4.6 40.68246915216926
  endloop
endfacet
facet normal -0 1 0
  outer loop
    vertex -0.07017163503890418 4.6 40.7464376651207
    vertex 3.557477433274333 4.6 40.7732984341265
    vertex 1.772179091827625 4.6 37.68503062107521
  endloop
endfacet
facet normal 0 1 0
  outer loop
    vertex 3.557477433274333 4.6 40.7732984341265
    vertex 5.323002620716455 4.6 37.66516821898984
    vertex 1.772179091827625 4.6 37.68503062107521
  endloop
endfacet
facet normal 0 1 0
  outer loop
    vertex 5.323002620716455 4.6 37.66516821898984
    vertex 3.540461752927101 4.6 34.57605796632012
    vertex 1.772179091827625 4.6 37.68503062107521
  endloop
endfacet
facet normal 0 1 0
  outer loop
    vertex -0.07017163503890418 4.6 40.7464376651207
    vertex 1.771693823515447 4.6 43.86546629518399
    vertex 3.557477433274333 4.6 40.7732984341265
  endloop
endfacet
facet normal 0 1 -0
  outer loop
    vertex -0.07017163503890418 4.6 40.7464376651207
    vertex -1.854126877425048 4.6 43.83393965367758
    vertex 1.771693823515447 4.6 43.86546629518399
  endloop
endfacet
facet normal 0 1 0
  outer loop
    vertex -0.07017163503890418 4.6 40.7464376651207
    vertex -3.835343176972668 4.6 40.68246915216926
    vertex -1.854126877425048 4.6 43.83393965367758
  endloop
endfacet
facet normal -0 1 0
  outer loop
    vertex 1.771693823515447 4.6 43.86546629518399
    vertex 5.408813022878762 4.6 43.92509851949516
    vertex 3.557477433274333 4.6 40.7732984341265
  endloop
endfacet
facet normal 0 1 0
  outer loop
    vertex 5.408813022878762 4.6 43.92509851949516
    vertex 7.103627537035495 4.6 40.74063555956428
    vertex 3.557477433274333 4.6 40.7732984341265
  endloop
endfacet
facet normal 0 1 0
  outer loop
    vertex 7.103627537035495 4.6 40.74063555956428
    vertex 5.323002620716455 4.6 37.66516821898984
    vertex 3.557477433274333 4.6 40.7732984341265
  endloop
endfacet
facet normal 0 1 0
  outer loop
    vertex -1.854126877425048 4.6 43.83393965367758
    vertex -0.01373884231828023 4.6 46.95737651722551
    vertex 1.771693823515447 4.6 43.86546629518399
  endloop
endfacet
facet normal -0 1 0
  outer loop
    vertex -0.01373884231828023 4.6 46.95737651722551
    vertex 3.566802020675729 4.6 46.96245801604042
    vertex 1.771693823515447 4.6 43.86546629518399
  endloop
endfacet
facet normal 0 1 0
  outer loop
    vertex 3.566802020675729 4.6 46.96245801604042
    vertex 5.408813022878762 4.6 43.92509851949516
    vertex 1.771693823515447 4.6 43.86546629518399
  endloop
endfacet
facet normal 0 1 -0
  outer loop
    vertex -1.854126877425048 4.6 43.83393965367758
    vertex -3.620629830823757 4.6 46.98061407542922
    vertex -0.01373884231828023 4.6 46.95737651722551
  endloop
endfacet
facet normal 0 1 0
  outer loop
    vertex -1.854126877425048 4.6 43.83393965367758
    vertex -5.555286419055744 4.6 43.86144764674069
    vertex -3.620629830823757 4.6 46.98061407542922
  endloop
endfacet
facet normal 0 1 0
  outer loop
    vertex -1.854126877425048 4.6 43.83393965367758
    vertex -3.835343176972668 4.6 40.68246915216926
    vertex -5.555286419055744 4.6 43.86144764674069
  endloop
endfacet
facet normal -0 1 0
  outer loop
    vertex -3.620629830823757 4.6 46.98061407542922
    vertex -1.83171365639021 4.6 50.11263051532766
    vertex -0.01373884231828023 4.6 46.95737651722551
  endloop
endfacet
facet normal 0 1 0
  outer loop
    vertex -0.01373884231828023 4.6 46.95737651722551
    vertex 1.774986825089752 4.6 50.09535122101886
    vertex 3.566802020675729 4.6 46.96245801604042
  endloop
endfacet
facet normal 0 1 0
  outer loop
    vertex -1.83171365639021 4.6 50.11263051532766
    vertex 1.774986825089752 4.6 50.09535122101886
    vertex -0.01373884231828023 4.6 46.95737651722551
  endloop
endfacet
facet normal 0 1 -0
  outer loop
    vertex -5.555286419055744 4.6 43.86144764674069
    vertex -7.142857142857148 4.6 46.96473935329352
    vertex -3.620629830823757 4.6 46.98061407542922
  endloop
endfacet
facet normal 0 1 0
  outer loop
    vertex -7.142857142857148 4.6 46.96473935329352
    vertex -5.395145304386968 4.6 50.20207067246591
    vertex -3.620629830823757 4.6 46.98061407542922
  endloop
endfacet
facet normal 0 1 -0
  outer loop
    vertex -3.620629830823757 4.6 46.98061407542922
    vertex -5.395145304386968 4.6 50.20207067246591
    vertex -1.83171365639021 4.6 50.11263051532766
  endloop
endfacet
facet normal -0 1 0
  outer loop
    vertex 1.774986825089752 4.6 50.09535122101886
    vertex 5.378779392044208 4.6 50.24050797018445
    vertex 3.566802020675729 4.6 46.96245801604042
  endloop
endfacet
facet normal 0 1 0
  outer loop
    vertex 5.378779392044208 4.6 50.24050797018445
    vertex 7.151883732754901 4.6 47.22547126708616
    vertex 3.566802020675729 4.6 46.96245801604042
  endloop
endfacet
facet normal 0 1 0
  outer loop
    vertex 7.151883732754901 4.6 47.22547126708616
    vertex 5.408813022878762 4.6 43.92509851949516
    vertex 3.566802020675729 4.6 46.96245801604042
  endloop
endfacet
facet normal 0 1 0
  outer loop
    vertex -5.555286419055744 4.6 43.86144764674069
    vertex -3.835343176972668 4.6 40.68246915216926
    vertex -7.41022426753989 4.6 40.70719421140914
  endloop
endfacet
facet normal 0 1 -0
  outer loop
    vertex -7.142857142857148 4.6 46.96473935329352
    vertex -9.225688884931705 4.6 50.62264092719083
    vertex -5.395145304386968 4.6 50.20207067246591
  endloop
endfacet
facet normal 0 1 0
  outer loop
    vertex -7.142857142857148 4.6 46.96473935329352
    vertex -10.08469425035684 4.6 47.57142857142858
    vertex -9.225688884931705 4.6 50.62264092719083
  endloop
endfacet
facet normal 0 1 0
  outer loop
    vertex -3.835343176972668 4.6 40.68246915216926
    vertex -5.539118584477838 4.6 37.59302295966729
    vertex -7.41022426753989 4.6 40.70719421140914
  endloop
endfacet
facet normal 0 1 0
  outer loop
    vertex -5.539118584477838 4.6 37.59302295966729
    vertex -9.318110066518063 4.6 37.28368263965099
    vertex -7.41022426753989 4.6 40.70719421140914
  endloop
endfacet
facet normal 0 1 -0
  outer loop
    vertex -9.318110066518063 4.6 37.28368263965099
    vertex -10.2903555849773 4.6 40.42857142857141
    vertex -7.41022426753989 4.6 40.70719421140914
  endloop
endfacet
facet normal 0 1 0
  outer loop
    vertex -1.83171365639021 4.6 50.11263051532766
    vertex -5.395145304386968 4.6 50.20207067246591
    vertex -3.587397195320628 4.6 53.25556804419869
  endloop
endfacet
facet normal 0 1 0
  outer loop
    vertex 1.774986825089752 4.6 50.09535122101886
    vertex 3.556371924448869 4.6 53.26190635159968
    vertex 5.378779392044208 4.6 50.24050797018445
  endloop
endfacet
facet normal -0 1 0
  outer loop
    vertex 3.556371924448869 4.6 53.26190635159968
    vertex 7.030932724365719 4.6 53.51736204588396
    vertex 5.378779392044208 4.6 50.24050797018445
  endloop
endfacet
facet normal 0 1 0
  outer loop
    vertex 7.103627537035495 4.6 40.74063555956428
    vertex 9.203498735167889 4.6 37.31090416835673
    vertex 5.323002620716455 4.6 37.66516821898984
  endloop
endfacet
facet normal 0 1 0
  outer loop
    vertex 7.103627537035495 4.6 40.74063555956428
    vertex 10.10922643032631 4.6 40.46558095245547
    vertex 9.203498735167889 4.6 37.31090416835673
  endloop
endfacet
facet normal -0 -0.163017 -0.986623
  outer loop
    vertex 15.00000000000001 3.8 28.99999999999999
    vertex 12.02679375788637 1.628155593358769 29.35884880336004
    vertex 11.25 3.8 28.99999999999999
  endloop
endfacet
facet normal 0.0259373 -0.197426 -0.979975
  outer loop
    vertex 14.51167186438972 1.311905667713851 29.48832874951607
    vertex 12.02679375788637 1.628155593358769 29.35884880336004
    vertex 15.00000000000001 3.8 28.99999999999999
  endloop
endfacet
facet normal -0 -0.163021 -0.986623
  outer loop
    vertex -11.25 3.8 28.99999999999999
    vertex -12.02681878764297 1.628118161815387 29.35886252532182
    vertex -14.99999999999999 3.8 28.99999999999999
  endloop
endfacet
facet normal -0.025939 -0.197431 -0.979974
  outer loop
    vertex -14.99999999999999 3.8 28.99999999999999
    vertex -12.02681878764297 1.628118161815387 29.35886252532182
    vertex -14.51165305432576 1.311866782398262 29.48834751999735
  endloop
endfacet
facet normal 0 -0.709912 -0.70429
  outer loop
    vertex 9.285714285714286 0 30.99999999999998
    vertex 12.02679375788637 1.628155593358769 29.35884880336004
    vertex 13 0 30.99999999999998
  endloop
endfacet
facet normal -0.056566 -0.725345 -0.686058
  outer loop
    vertex 13 0 30.99999999999998
    vertex 12.02679375788637 1.628155593358769 29.35884880336004
    vertex 14.51167186438972 1.311905667713851 29.48832874951607
  endloop
endfacet
facet normal 0 -0.709917 -0.704285
  outer loop
    vertex -12.99999999999999 0 30.99999999999998
    vertex -12.02681878764297 1.628118161815387 29.35886252532182
    vertex -9.285714285714281 0 30.99999999999998
  endloop
endfacet
facet normal 0.056567 -0.72535 -0.686052
  outer loop
    vertex -14.51165305432576 1.311866782398262 29.48834751999735
    vertex -12.02681878764297 1.628118161815387 29.35886252532182
    vertex -12.99999999999999 0 30.99999999999998
  endloop
endfacet
facet normal -0 -0.138018 -0.99043
  outer loop
    vertex 11.25 3.8 28.99999999999999
    vertex 9.378900104763741 1.919584027242152 29.2620389752995
    vertex 7.499999999999985 3.8 28.99999999999999
  endloop
endfacet
facet normal 0.0188902 -0.156408 -0.987512
  outer loop
    vertex 12.02679375788637 1.628155593358769 29.35884880336004
    vertex 9.378900104763741 1.919584027242152 29.2620389752995
    vertex 11.25 3.8 28.99999999999999
  endloop
endfacet
facet normal -0 -0.465746 -0.884918
  outer loop
    vertex 7.499999999999985 3.8 28.99999999999999
    vertex 5.571428571428574 0 30.99999999999999
    vertex 3.749999999999972 3.8 28.99999999999999
  endloop
endfacet
facet normal -0.232258 -0.358092 -0.904338
  outer loop
    vertex 7.499999999999985 3.8 28.99999999999999
    vertex 9.378900104763741 1.919584027242152 29.2620389752995
    vertex 5.571428571428574 0 30.99999999999999
  endloop
endfacet
facet normal -0 -0.465746 -0.884918
  outer loop
    vertex 3.749999999999972 3.8 28.99999999999999
    vertex 1.857142857142861 0 30.99999999999999
    vertex -4.130029651605582e-14 3.8 28.99999999999999
  endloop
endfacet
facet normal -0 -0.465746 -0.884918
  outer loop
    vertex 5.571428571428574 0 30.99999999999999
    vertex 1.857142857142861 0 30.99999999999999
    vertex 3.749999999999972 3.8 28.99999999999999
  endloop
endfacet
facet normal 0 -0.465746 -0.884918
  outer loop
    vertex -1.857142857142855 0 30.99999999999999
    vertex -3.750000000000031 3.8 28.99999999999999
    vertex -4.130029651605582e-14 3.8 28.99999999999999
  endloop
endfacet
facet normal 0 -0.465746 -0.884918
  outer loop
    vertex -4.130029651605582e-14 3.8 28.99999999999999
    vertex 1.857142857142861 0 30.99999999999999
    vertex -1.857142857142855 0 30.99999999999999
  endloop
endfacet
facet normal 0 -0.465746 -0.884918
  outer loop
    vertex -5.571428571428569 0 30.99999999999999
    vertex -7.500000000000018 3.8 28.99999999999999
    vertex -3.750000000000031 3.8 28.99999999999999
  endloop
endfacet
facet normal -0 -0.465746 -0.884918
  outer loop
    vertex -1.857142857142855 0 30.99999999999999
    vertex -5.571428571428569 0 30.99999999999999
    vertex -3.750000000000031 3.8 28.99999999999999
  endloop
endfacet
facet normal -0 -0.138435 -0.990371
  outer loop
    vertex -7.500000000000018 3.8 28.99999999999999
    vertex -9.375000000000011 1.91454796471529 29.26355103152399
    vertex -11.25 3.8 28.99999999999999
  endloop
endfacet
facet normal 0.232726 -0.357843 -0.904316
  outer loop
    vertex -5.571428571428569 0 30.99999999999999
    vertex -9.375000000000011 1.91454796471529 29.26355103152399
    vertex -7.500000000000018 3.8 28.99999999999999
  endloop
endfacet
facet normal -0.0185868 -0.156518 -0.9875
  outer loop
    vertex -11.25 3.8 28.99999999999999
    vertex -9.375000000000011 1.91454796471529 29.26355103152399
    vertex -12.02681878764297 1.628118161815387 29.35886252532182
  endloop
endfacet
facet normal 7.08498e-16 -0.671815 -0.740719
  outer loop
    vertex -9.285714285714281 0 30.99999999999998
    vertex -9.375000000000011 1.91454796471529 29.26355103152399
    vertex -5.571428571428569 0 30.99999999999999
  endloop
endfacet
facet normal 0.0457289 -0.669941 -0.741005
  outer loop
    vertex -12.02681878764297 1.628118161815387 29.35886252532182
    vertex -9.375000000000011 1.91454796471529 29.26355103152399
    vertex -9.285714285714281 0 30.99999999999998
  endloop
endfacet
facet normal -7.09059e-16 -0.671167 -0.741306
  outer loop
    vertex 5.571428571428574 0 30.99999999999999
    vertex 9.378900104763741 1.919584027242152 29.2620389752995
    vertex 9.285714285714286 0 30.99999999999998
  endloop
endfacet
facet normal -0.0465375 -0.669197 -0.741626
  outer loop
    vertex 9.285714285714286 0 30.99999999999998
    vertex 9.378900104763741 1.919584027242152 29.2620389752995
    vertex 12.02679375788637 1.628155593358769 29.35884880336004
  endloop
endfacet
facet normal -0.986623 -0.163021 0
  outer loop
    vertex -14.99999999999999 3.8 28.99999999999999
    vertex -14.64113737139932 1.628117880089403 31.97318185784595
    vertex -14.99999999999999 3.8 32.74999999999999
  endloop
endfacet
facet normal -0.979974 -0.197431 -0.0259387
  outer loop
    vertex -14.51165305432576 1.311866782398262 29.48834751999735
    vertex -14.64113737139932 1.628117880089403 31.97318185784595
    vertex -14.99999999999999 3.8 28.99999999999999
  endloop
endfacet
facet normal -0.986623 -0.163021 4.67358e-16
  outer loop
    vertex -14.99999999999999 3.8 55.25000000000001
    vertex -14.64113747467825 1.628118161815771 56.02681878764266
    vertex -14.99999999999999 3.8 58.99999999999999
  endloop
endfacet
facet normal -0.979974 -0.197431 0.025939
  outer loop
    vertex -14.99999999999999 3.8 58.99999999999999
    vertex -14.64113747467825 1.628118161815771 56.02681878764266
    vertex -14.51165248000271 1.31186678239845 58.51165305432575
  endloop
endfacet
facet normal -0.704285 -0.709917 -0
  outer loop
    vertex -12.99999999999999 0 56.99999999999969
    vertex -14.64113747467825 1.628118161815771 56.02681878764266
    vertex -12.99999999999999 0 53.28571428571402
  endloop
endfacet
facet normal -0.686052 -0.72535 -0.056567
  outer loop
    vertex -14.51165248000271 1.31186678239845 58.51165305432575
    vertex -14.64113747467825 1.628118161815771 56.02681878764266
    vertex -12.99999999999999 0 56.99999999999969
  endloop
endfacet
facet normal -0.704285 -0.709917 -0
  outer loop
    vertex -12.99999999999999 0 34.71428571428567
    vertex -14.64113737139932 1.628117880089403 31.97318185784595
    vertex -12.99999999999999 0 30.99999999999998
  endloop
endfacet
facet normal -0.686052 -0.72535 0.0565671
  outer loop
    vertex -12.99999999999999 0 30.99999999999998
    vertex -14.64113737139932 1.628117880089403 31.97318185784595
    vertex -14.51165305432576 1.311866782398262 29.48834751999735
  endloop
endfacet
facet normal -0.990429 -0.138021 0
  outer loop
    vertex -14.99999999999999 3.8 32.74999999999999
    vertex -14.73795096289699 1.919550456264303 34.62109941355588
    vertex -14.99999999999999 3.8 36.50000000000001
  endloop
endfacet
facet normal -0.987511 -0.156411 -0.0188908
  outer loop
    vertex -14.64113737139932 1.628117880089403 31.97318185784595
    vertex -14.73795096289699 1.919550456264303 34.62109941355588
    vertex -14.99999999999999 3.8 32.74999999999999
  endloop
endfacet
facet normal -0.884918 -0.465746 0
  outer loop
    vertex -14.99999999999999 3.8 36.50000000000001
    vertex -12.99999999999999 0 38.42857142857136
    vertex -14.99999999999999 3.8 40.25000000000003
  endloop
endfacet
facet normal -0.904338 -0.358091 0.232259
  outer loop
    vertex -14.99999999999999 3.8 36.50000000000001
    vertex -14.73795096289699 1.919550456264303 34.62109941355588
    vertex -12.99999999999999 0 38.42857142857136
  endloop
endfacet
facet normal -0.884918 -0.465746 4.19181e-16
  outer loop
    vertex -14.99999999999999 3.8 40.25000000000003
    vertex -12.99999999999999 0 42.14285714285705
    vertex -14.99999999999999 3.8 44.00000000000003
  endloop
endfacet
facet normal -0.884918 -0.465746 0
  outer loop
    vertex -12.99999999999999 0 38.42857142857136
    vertex -12.99999999999999 0 42.14285714285705
    vertex -14.99999999999999 3.8 40.25000000000003
  endloop
endfacet
facet normal -0.884918 -0.465746 0
  outer loop
    vertex -14.99999999999999 3.8 44.00000000000003
    vertex -12.99999999999999 0 45.8571428571427
    vertex -14.99999999999999 3.8 47.75000000000003
  endloop
endfacet
facet normal -0.884918 -0.465746 0
  outer loop
    vertex -14.99999999999999 3.8 44.00000000000003
    vertex -12.99999999999999 0 42.14285714285705
    vertex -12.99999999999999 0 45.8571428571427
  endloop
endfacet
facet normal -0.884918 -0.465746 4.19181e-16
  outer loop
    vertex -14.99999999999999 3.8 47.75000000000003
    vertex -12.99999999999999 0 49.57142857142837
    vertex -14.99999999999999 3.8 51.50000000000002
  endloop
endfacet
facet normal -0.884918 -0.465746 4.45486e-16
  outer loop
    vertex -14.99999999999999 3.8 47.75000000000003
    vertex -12.99999999999999 0 45.8571428571427
    vertex -12.99999999999999 0 49.57142857142837
  endloop
endfacet
facet normal -0.990371 -0.138435 -4.69134e-16
  outer loop
    vertex -14.99999999999999 3.8 51.50000000000002
    vertex -14.73644896847571 1.914547964714725 53.37500000000003
    vertex -14.99999999999999 3.8 55.25000000000001
  endloop
endfacet
facet normal -0.904316 -0.357843 -0.232726
  outer loop
    vertex -12.99999999999999 0 49.57142857142837
    vertex -14.73644896847571 1.914547964714725 53.37500000000003
    vertex -14.99999999999999 3.8 51.50000000000002
  endloop
endfacet
facet normal -0.9875 -0.156518 0.0185868
  outer loop
    vertex -14.99999999999999 3.8 55.25000000000001
    vertex -14.73644896847571 1.914547964714725 53.37500000000003
    vertex -14.64113747467825 1.628118161815771 56.02681878764266
  endloop
endfacet
facet normal -0.740719 -0.671815 -0
  outer loop
    vertex -12.99999999999999 0 53.28571428571402
    vertex -14.73644896847571 1.914547964714725 53.37500000000003
    vertex -12.99999999999999 0 49.57142857142837
  endloop
endfacet
facet normal -0.741005 -0.669941 -0.0457289
  outer loop
    vertex -14.64113747467825 1.628118161815771 56.02681878764266
    vertex -14.73644896847571 1.914547964714725 53.37500000000003
    vertex -12.99999999999999 0 53.28571428571402
  endloop
endfacet
facet normal -0.741302 -0.671171 3.54528e-16
  outer loop
    vertex -12.99999999999999 0 38.42857142857136
    vertex -14.73795096289699 1.919550456264303 34.62109941355588
    vertex -12.99999999999999 0 34.71428571428567
  endloop
endfacet
facet normal -0.741622 -0.669202 0.0465377
  outer loop
    vertex -12.99999999999999 0 34.71428571428567
    vertex -14.73795096289699 1.919550456264303 34.62109941355588
    vertex -14.64113737139932 1.628117880089403 31.97318185784595
  endloop
endfacet
facet normal 0.986623 -0.163017 0
  outer loop
    vertex 15.00000000000001 3.8 58.99999999999999
    vertex 14.64115119664 1.628155593358961 56.02679375788619
    vertex 15.00000000000001 3.8 55.24999999999998
  endloop
endfacet
facet normal 0.979975 -0.197426 0.0259373
  outer loop
    vertex 14.51167125048392 1.311905667713781 58.5116718643896
    vertex 14.64115119664 1.628155593358961 56.02679375788619
    vertex 15.00000000000001 3.8 58.99999999999999
  endloop
endfacet
facet normal 0.986623 -0.163017 0
  outer loop
    vertex 15.00000000000001 3.8 32.74999999999998
    vertex 14.64115108624484 1.628155292213146 31.9732069320873
    vertex 15.00000000000001 3.8 28.99999999999999
  endloop
endfacet
facet normal 0.979975 -0.197426 -0.025937
  outer loop
    vertex 15.00000000000001 3.8 28.99999999999999
    vertex 14.64115108624484 1.628155292213146 31.9732069320873
    vertex 14.51167186438972 1.311905667713851 29.48832874951607
  endloop
endfacet
facet normal 0.70429 -0.709912 0
  outer loop
    vertex 13 0 30.99999999999998
    vertex 14.64115108624484 1.628155292213146 31.9732069320873
    vertex 13 0 34.71428571428564
  endloop
endfacet
facet normal 0.686057 -0.725345 0.0565661
  outer loop
    vertex 14.51167186438972 1.311905667713851 29.48832874951607
    vertex 14.64115108624484 1.628155292213146 31.9732069320873
    vertex 13 0 30.99999999999998
  endloop
endfacet
facet normal 0.70429 -0.709912 0
  outer loop
    vertex 13.00000000000001 0 53.28571428571399
    vertex 14.64115119664 1.628155593358961 56.02679375788619
    vertex 13.00000000000001 0 56.99999999999967
  endloop
endfacet
facet normal 0.686058 -0.725345 -0.056566
  outer loop
    vertex 13.00000000000001 0 56.99999999999967
    vertex 14.64115119664 1.628155593358961 56.02679375788619
    vertex 14.51167125048392 1.311905667713781 58.5116718643896
  endloop
endfacet
facet normal 0.99043 -0.138018 0
  outer loop
    vertex 15.00000000000001 3.8 55.24999999999998
    vertex 14.73796102470053 1.919584027242601 53.37890010476438
    vertex 15.00000000000001 3.8 51.49999999999996
  endloop
endfacet
facet normal 0.987512 -0.156408 0.0188902
  outer loop
    vertex 14.64115119664 1.628155593358961 56.02679375788619
    vertex 14.73796102470053 1.919584027242601 53.37890010476438
    vertex 15.00000000000001 3.8 55.24999999999998
  endloop
endfacet
facet normal 0.884918 -0.465746 -4.19181e-16
  outer loop
    vertex 15.00000000000001 3.8 51.49999999999996
    vertex 13.00000000000001 0 49.57142857142831
    vertex 15.00000000000001 3.8 47.74999999999994
  endloop
endfacet
facet normal 0.904338 -0.358092 -0.232258
  outer loop
    vertex 15.00000000000001 3.8 51.49999999999996
    vertex 14.73796102470053 1.919584027242601 53.37890010476438
    vertex 13.00000000000001 0 49.57142857142831
  endloop
endfacet
facet normal 0.884918 -0.465746 4.19181e-16
  outer loop
    vertex 15.00000000000001 3.8 47.74999999999994
    vertex 13.00000000000001 0 45.85714285714262
    vertex 15.00000000000001 3.8 43.99999999999994
  endloop
endfacet
facet normal 0.884918 -0.465746 0
  outer loop
    vertex 13.00000000000001 0 49.57142857142831
    vertex 13.00000000000001 0 45.85714285714262
    vertex 15.00000000000001 3.8 47.74999999999994
  endloop
endfacet
facet normal 0.884918 -0.465746 -8.27332e-16
  outer loop
    vertex 13.00000000000001 0 42.14285714285697
    vertex 15.00000000000001 3.8 40.24999999999994
    vertex 15.00000000000001 3.8 43.99999999999994
  endloop
endfacet
facet normal 0.884918 -0.465746 0
  outer loop
    vertex 15.00000000000001 3.8 43.99999999999994
    vertex 13.00000000000001 0 45.85714285714262
    vertex 13.00000000000001 0 42.14285714285697
  endloop
endfacet
facet normal 0.884918 -0.465746 3.86088e-16
  outer loop
    vertex 13.00000000000001 0 38.4285714285713
    vertex 15.00000000000001 3.8 36.49999999999996
    vertex 15.00000000000001 3.8 40.24999999999994
  endloop
endfacet
facet normal 0.884918 -0.465746 -4.23212e-16
  outer loop
    vertex 13.00000000000001 0 38.4285714285713
    vertex 15.00000000000001 3.8 40.24999999999994
    vertex 13.00000000000001 0 42.14285714285697
  endloop
endfacet
facet normal 0.990372 -0.138433 0
  outer loop
    vertex 15.00000000000001 3.8 36.49999999999996
    vertex 14.73645969659394 1.914583633041929 34.62499999999996
    vertex 15.00000000000001 3.8 32.74999999999998
  endloop
endfacet
facet normal 0.904316 -0.357843 0.232725
  outer loop
    vertex 13.00000000000001 0 38.4285714285713
    vertex 14.73645969659394 1.914583633041929 34.62499999999996
    vertex 15.00000000000001 3.8 36.49999999999996
  endloop
endfacet
facet normal 0.987501 -0.156515 -0.0185863
  outer loop
    vertex 15.00000000000001 3.8 32.74999999999998
    vertex 14.73645969659394 1.914583633041929 34.62499999999996
    vertex 14.64115108624484 1.628155292213146 31.9732069320873
  endloop
endfacet
facet normal 0.740723 -0.67181 -7.08502e-16
  outer loop
    vertex 13 0 34.71428571428564
    vertex 14.73645969659394 1.914583633041929 34.62499999999996
    vertex 13.00000000000001 0 38.4285714285713
  endloop
endfacet
facet normal 0.741009 -0.669936 0.0457291
  outer loop
    vertex 14.64115108624484 1.628155292213146 31.9732069320873
    vertex 14.73645969659394 1.914583633041929 34.62499999999996
    vertex 13 0 34.71428571428564
  endloop
endfacet
facet normal 0.741306 -0.671167 -3.5453e-16
  outer loop
    vertex 13.00000000000001 0 49.57142857142831
    vertex 14.73796102470053 1.919584027242601 53.37890010476438
    vertex 13.00000000000001 0 53.28571428571399
  endloop
endfacet
facet normal 0.741626 -0.669197 -0.0465375
  outer loop
    vertex 13.00000000000001 0 53.28571428571399
    vertex 14.73796102470053 1.919584027242601 53.37890010476438
    vertex 14.64115119664 1.628155593358961 56.02679375788619
  endloop
endfacet
facet normal 0 -0.163017 0.986623
  outer loop
    vertex 11.25000000000002 3.8 58.99999999999999
    vertex 12.02679306791259 1.628155292212913 58.64115108624483
    vertex 15.00000000000001 3.8 58.99999999999999
  endloop
endfacet
facet normal 0.025937 -0.197426 0.979975
  outer loop
    vertex 15.00000000000001 3.8 58.99999999999999
    vertex 12.02679306791259 1.628155292212913 58.64115108624483
    vertex 14.51167125048392 1.311905667713781 58.5116718643896
  endloop
endfacet
facet normal 0 -0.163021 0.986623
  outer loop
    vertex -14.99999999999999 3.8 58.99999999999999
    vertex -12.02681814215375 1.628117880089303 58.64113737139945
    vertex -11.24999999999998 3.8 58.99999999999999
  endloop
endfacet
facet normal -0.0259387 -0.197431 0.979974
  outer loop
    vertex -14.51165248000271 1.31186678239845 58.51165305432575
    vertex -12.02681814215375 1.628117880089303 58.64113737139945
    vertex -14.99999999999999 3.8 58.99999999999999
  endloop
endfacet
facet normal 2.15569e-14 -0.709912 0.70429
  outer loop
    vertex 13.00000000000001 0 56.99999999999967
    vertex 12.02679306791259 1.628155292212913 58.64115108624483
    vertex 9.285714285714294 0 56.99999999999979
  endloop
endfacet
facet normal -0.0565661 -0.725345 0.686057
  outer loop
    vertex 14.51167125048392 1.311905667713781 58.5116718643896
    vertex 12.02679306791259 1.628155292212913 58.64115108624483
    vertex 13.00000000000001 0 56.99999999999967
  endloop
endfacet
facet normal -2.02095e-14 -0.709917 0.704285
  outer loop
    vertex -9.285714285714292 0 56.9999999999998
    vertex -12.02681814215375 1.628117880089303 58.64113737139945
    vertex -12.99999999999999 0 56.99999999999969
  endloop
endfacet
facet normal 0.0565671 -0.72535 0.686052
  outer loop
    vertex -12.99999999999999 0 56.99999999999969
    vertex -12.02681814215375 1.628117880089303 58.64113737139945
    vertex -14.51165248000271 1.31186678239845 58.51165305432575
  endloop
endfacet
facet normal 0 -0.138021 0.990429
  outer loop
    vertex -11.24999999999998 3.8 58.99999999999999
    vertex -9.378900586444441 1.919550456264676 58.73795096289749
    vertex -7.499999999999964 3.8 58.99999999999999
  endloop
endfacet
facet normal -0.0188908 -0.156411 0.987511
  outer loop
    vertex -12.02681814215375 1.628117880089303 58.64113737139945
    vertex -9.378900586444441 1.919550456264676 58.73795096289749
    vertex -11.24999999999998 3.8 58.99999999999999
  endloop
endfacet
facet normal 0 -0.465746 0.884918
  outer loop
    vertex -7.499999999999964 3.8 58.99999999999999
    vertex -5.571428571428601 0 56.99999999999987
    vertex -3.74999999999995 3.8 58.99999999999999
  endloop
endfacet
facet normal 0.232259 -0.358091 0.904338
  outer loop
    vertex -7.499999999999964 3.8 58.99999999999999
    vertex -9.378900586444441 1.919550456264676 58.73795096289749
    vertex -5.571428571428601 0 56.99999999999987
  endloop
endfacet
facet normal 0 -0.465746 0.884918
  outer loop
    vertex -3.74999999999995 3.8 58.99999999999999
    vertex -1.85714285714286 0 56.9999999999999
    vertex 6.261657858885883e-14 3.8 58.99999999999999
  endloop
endfacet
facet normal -6.77139e-15 -0.465746 0.884918
  outer loop
    vertex -5.571428571428601 0 56.99999999999987
    vertex -1.85714285714286 0 56.9999999999999
    vertex -3.74999999999995 3.8 58.99999999999999
  endloop
endfacet
facet normal 1.65466e-15 -0.465746 0.884918
  outer loop
    vertex 1.857142857142857 0 56.99999999999991
    vertex 3.750000000000052 3.8 58.99999999999999
    vertex 6.261657858885883e-14 3.8 58.99999999999999
  endloop
endfacet
facet normal -3.39683e-15 -0.465746 0.884918
  outer loop
    vertex 6.261657858885883e-14 3.8 58.99999999999999
    vertex -1.85714285714286 0 56.9999999999999
    vertex 1.857142857142857 0 56.99999999999991
  endloop
endfacet
facet normal -3.36448e-15 -0.465746 0.884918
  outer loop
    vertex 5.571428571428573 0 56.99999999999986
    vertex 7.50000000000004 3.8 59
    vertex 3.750000000000052 3.8 58.99999999999999
  endloop
endfacet
facet normal 1.18499e-14 -0.465746 0.884918
  outer loop
    vertex 5.571428571428573 0 56.99999999999986
    vertex 3.750000000000052 3.8 58.99999999999999
    vertex 1.857142857142857 0 56.99999999999991
  endloop
endfacet
facet normal 1.87654e-15 -0.138433 0.990372
  outer loop
    vertex 7.50000000000004 3.8 59
    vertex 9.375000000000036 1.914583633044134 58.73645969659483
    vertex 11.25000000000002 3.8 58.99999999999999
  endloop
endfacet
facet normal -0.232725 -0.357843 0.904316
  outer loop
    vertex 5.571428571428573 0 56.99999999999986
    vertex 9.375000000000036 1.914583633044134 58.73645969659483
    vertex 7.50000000000004 3.8 59
  endloop
endfacet
facet normal 0.0185863 -0.156515 0.987501
  outer loop
    vertex 11.25000000000002 3.8 58.99999999999999
    vertex 9.375000000000036 1.914583633044134 58.73645969659483
    vertex 12.02679306791259 1.628155292212913 58.64115108624483
  endloop
endfacet
facet normal 1.5587e-14 -0.67181 0.740723
  outer loop
    vertex 9.285714285714294 0 56.99999999999979
    vertex 9.375000000000036 1.914583633044134 58.73645969659483
    vertex 5.571428571428573 0 56.99999999999986
  endloop
endfacet
facet normal -0.0457291 -0.669936 0.741009
  outer loop
    vertex 12.02679306791259 1.628155292212913 58.64115108624483
    vertex 9.375000000000036 1.914583633044134 58.73645969659483
    vertex 9.285714285714294 0 56.99999999999979
  endloop
endfacet
facet normal -1.41811e-14 -0.671171 0.741302
  outer loop
    vertex -5.571428571428601 0 56.99999999999987
    vertex -9.378900586444441 1.919550456264676 58.73795096289749
    vertex -9.285714285714292 0 56.9999999999998
  endloop
endfacet
facet normal 0.0465377 -0.669202 0.741622
  outer loop
    vertex -9.285714285714292 0 56.9999999999998
    vertex -9.378900586444441 1.919550456264676 58.73795096289749
    vertex -12.02681814215375 1.628117880089303 58.64113737139945
  endloop
endfacet
endsolid Created by Gmsh
